<svg width="40" height="40" viewBox="0 0 40 40" fill="none" xmlns="http://www.w3.org/2000/svg">
<g clip-path="url(#clip0_4_38)">
<path d="M4.02 28.27C2.73 25.8 2 22.98 2 20C2 17.13 2.68 14.41 3.88 12L2.16 10.96C0.78 13.67 0 16.75 0 20C0 23.31 0.8 26.43 2.23 29.18L4.02 28.27Z" fill="#F6AD01"/>
<path d="M32.1502 33.27C28.9502 36.21 24.6802 38 20.0002 38C13.0502 38 7.02022 34.05 4.01022 28.27L2.22021 29.18C5.55021 35.61 12.2602 40 20.0002 40C25.2002 40 29.9302 38.02 33.4802 34.77L32.1502 33.27Z" fill="#249A41"/>
<path d="M33.4898 34.77C37.4898 31.12 39.9998 25.85 39.9998 20C39.9998 14.14 37.4798 8.86999 33.4598 5.20999L32.0898 6.66999C35.7198 9.96999 37.9998 14.72 37.9998 20C37.9998 25.25 35.7398 29.98 32.1498 33.27L33.4898 34.77Z" fill="#3174F1"/>
<path d="M20.0002 2C24.6502 2 28.8902 3.77 32.0902 6.67L33.4602 5.21C29.9102 1.97 25.1902 0 20.0002 0C12.2102 0 5.46016 4.46 2.16016 10.96L3.88016 12C6.83016 6.08 12.9502 2 20.0002 2Z" fill="#E92D18"/>
</g>
<defs>
<clipPath id="clip0_4_38">
<rect width="40" height="40" fill="white"/>
</clipPath>
</defs>
</svg>
