<svg width="24" height="24" viewBox="0 0 24 24" fill="none" xmlns="http://www.w3.org/2000/svg">
<path d="M12 15C13.66 15 15 13.69 15 12.03V5.01C15 3.35 13.66 2 12 2C10.34 2 9 3.34 9 5.01V12.03C9 13.69 10.34 15 12 15Z" fill="#4285F4"/>
<path d="M11 18.08H13V22H11V18.08Z" fill="#34A853"/>
<path d="M7.05 16.87C5.78 15.54 5 14.04 5 12H7C7 13.45 7.56 14.42 8.47 15.38V15.7L7.32 16.88L7.05 16.87Z" fill="#FBBC05"/>
<path d="M11.9998 16.93C11.342 16.932 10.6904 16.796 10.0827 16.5299C9.47503 16.2638 8.9234 15.873 8.4598 15.38L7.0498 16.87C8.3098 18.21 10.0698 19 11.9998 19C15.8698 19 18.9898 16.08 18.9898 12H16.9998C16.9998 14.92 14.7598 16.93 11.9998 16.93Z" fill="#EA4335"/>
</svg>
