<svg width="57" height="64" viewBox="0 0 57 64" fill="none" xmlns="http://www.w3.org/2000/svg">
<path fill-rule="evenodd" clip-rule="evenodd" d="M28.1407 64C18.6934 60.1389 11.5087 54.6437 6.78444 47.6649C2.99115 42.0611 0.763505 35.4895 0.163215 28.1319C-0.804987 16.2631 2.83212 6.11435 3.2691 4.94813C4.37854 4.41812 14.0527 0 28.1407 0C42.2284 0 51.9028 4.41788 53.0122 4.94813C53.4492 6.11435 57.0866 16.263 56.1181 28.1317C55.5178 35.4893 53.2902 42.0611 49.4969 47.6649C44.7724 54.6437 37.5879 60.1389 28.1407 64Z" fill="#633492"/>
<path fill-rule="evenodd" clip-rule="evenodd" d="M28.1406 62.5183C19.2044 58.7743 12.4033 53.5211 7.9202 46.8983C4.2603 41.4922 2.11027 35.1409 1.52921 28.0208C0.670904 17.503 3.52305 8.36953 4.36427 5.95223C6.68757 4.92279 15.6169 1.36914 28.1406 1.36914C40.6639 1.36914 49.5935 4.92279 51.917 5.95223C52.7582 8.36929 55.6099 17.5028 54.7518 28.0208C54.171 35.1409 52.0207 41.492 48.3611 46.8983C43.8778 53.5211 37.0764 58.7746 28.1406 62.5183ZM28.1406 61.0311C19.7162 57.4083 13.2974 52.3978 9.05574 46.132C5.52972 40.9231 3.4573 34.7922 2.8957 27.9098C2.11834 18.3812 4.45708 10.0347 5.46777 6.96817C8.43883 5.7216 16.7482 2.73802 28.1409 2.73802C39.5333 2.73802 47.8424 5.72112 50.814 6.96793C51.8247 10.0345 54.1634 18.3812 53.3861 27.9096C52.8242 34.7922 50.7518 40.9231 47.2258 46.1318C42.9841 52.3978 36.5651 57.4085 28.1411 61.0311" fill="white"/>
<path fill-rule="evenodd" clip-rule="evenodd" d="M16.187 44.9387C15.9824 44.7391 15.7405 44.5803 15.4683 44.467C15.1951 44.3528 14.8986 44.2954 14.5867 44.2954C14.2751 44.2954 13.9784 44.3528 13.7049 44.467C13.4329 44.5803 13.191 44.7391 12.9864 44.9387C12.7818 45.1383 12.619 45.3744 12.5029 45.6399C12.3861 45.9063 12.327 46.1957 12.327 46.5003C12.327 46.8049 12.3864 47.0941 12.5029 47.3605C12.619 47.6258 12.7813 47.8616 12.9864 48.0617C13.191 48.2613 13.4329 48.4201 13.7049 48.5336C13.9779 48.6476 14.2746 48.7052 14.5867 48.7052C14.8986 48.7052 15.1953 48.6476 15.4683 48.5336C15.7405 48.4201 15.9822 48.2613 16.187 48.0617C16.3914 47.8623 16.554 47.6262 16.6705 47.3605C16.7873 47.0939 16.8464 46.8044 16.8464 46.5003C16.8464 46.1962 16.7873 45.9068 16.6705 45.6399C16.5537 45.3742 16.3911 45.1381 16.187 44.9387ZM16.1042 46.5003C16.1042 46.712 16.0648 46.9125 15.9872 47.095C15.9098 47.2778 15.8008 47.438 15.6639 47.5713C15.5264 47.7052 15.3631 47.8123 15.1785 47.8893C14.8117 48.0434 14.3615 48.0434 13.995 47.8893C13.8103 47.8121 13.647 47.7052 13.5096 47.571C13.3726 47.438 13.2639 47.2778 13.1865 47.095C13.1091 46.9125 13.0697 46.7125 13.0697 46.5003C13.0697 46.2882 13.1091 46.0876 13.1865 45.9054C13.2639 45.7231 13.3726 45.5626 13.5098 45.4292C13.6475 45.2955 13.8105 45.1883 13.9952 45.1111C14.1787 45.034 14.3781 44.9949 14.587 44.9949C14.7958 44.9949 14.995 45.034 15.1785 45.1111C15.3629 45.1883 15.526 45.2952 15.6639 45.4292C15.8008 45.5624 15.9098 45.7226 15.9872 45.9051C16.0645 46.0881 16.1039 46.2882 16.1039 46.5003H16.1042Z" fill="white"/>
<path fill-rule="evenodd" clip-rule="evenodd" d="M20.3162 47.0095C20.7769 46.7494 21.0024 46.3055 21.0024 45.8027C21.0024 44.997 20.4766 44.3442 19.4987 44.3442H17.9316V48.6562H18.6739V45.0617H19.4569C19.8666 45.0617 20.1987 45.3934 20.1987 45.8025C20.1987 46.2114 19.8666 46.5432 19.4569 46.5432H18.888L20.638 48.6559H21.6369L20.3162 47.0092" fill="white"/>
<path fill-rule="evenodd" clip-rule="evenodd" d="M25.475 47.9644H23.278V44.3235H22.536V48.6335H25.1142L25.475 47.9644Z" fill="white"/>
<path fill-rule="evenodd" clip-rule="evenodd" d="M28.3375 44.0278L26.1421 48.6332H26.9598L28.3375 45.7056L28.7832 46.6487H28.3375L28.0267 47.3179H29.1003L29.7149 48.6334H30.5326L28.3375 44.0281" fill="white"/>
<path fill-rule="evenodd" clip-rule="evenodd" d="M31.3519 45.9995L34.2055 48.7584V44.4792H33.3885V46.9422L30.6548 44.1831V47.1475L31.3519 48.4626V45.9993" fill="white"/>
<path fill-rule="evenodd" clip-rule="evenodd" d="M38.1077 44.9627C37.909 44.7711 37.6714 44.6187 37.4006 44.5092C37.1302 44.3997 36.835 44.3442 36.5235 44.3442H35.0609V48.6564H36.5235C36.8352 48.6564 37.1302 48.6007 37.4006 48.4912C37.6714 48.3817 37.909 48.2293 38.1077 48.0377C38.3059 47.846 38.4645 47.6163 38.5789 47.3546C38.6938 47.0922 38.7519 46.8047 38.7519 46.5003C38.7519 46.1957 38.6938 45.9087 38.5789 45.646C38.4645 45.3841 38.3059 45.1544 38.1077 44.9627ZM35.8034 45.0134H36.4502C36.6641 45.0134 36.8675 45.0518 37.0552 45.1274C37.2437 45.2033 37.4113 45.309 37.5528 45.4417C37.6935 45.5735 37.806 45.7326 37.8877 45.9141C37.9684 46.0945 38.0097 46.2917 38.0097 46.5001C38.0097 46.7122 37.9686 46.9102 37.8879 47.0889C37.8067 47.2686 37.694 47.4264 37.5528 47.5587C37.4113 47.6912 37.2437 47.7969 37.0552 47.873C36.8677 47.9484 36.6641 47.9868 36.4502 47.9868H35.8034V45.0134Z" fill="white"/>
<path fill-rule="evenodd" clip-rule="evenodd" d="M43.7776 45.6399C43.6608 45.3742 43.4982 45.1381 43.2941 44.9387C43.0892 44.7391 42.8476 44.5803 42.5753 44.467C42.3021 44.353 42.0057 44.2954 41.6938 44.2954C41.3819 44.2954 41.0854 44.353 40.812 44.467C40.54 44.5803 40.2981 44.7391 40.0935 44.9387C39.8889 45.1383 39.726 45.3744 39.61 45.6399C39.4932 45.9063 39.4341 46.1957 39.4341 46.5003C39.4341 46.8049 39.4934 47.0941 39.61 47.3605C39.7263 47.6258 39.8889 47.8616 40.0935 48.0617C40.2981 48.2613 40.54 48.4201 40.812 48.5336C41.0849 48.6476 41.3816 48.7052 41.6935 48.7052C42.0054 48.7052 42.3024 48.6476 42.5753 48.5336C42.8476 48.4201 43.0892 48.2613 43.2941 48.0617C43.4984 47.8623 43.661 47.6262 43.7776 47.3605C43.8941 47.0939 43.9535 46.8044 43.9535 46.5003C43.9537 46.1962 43.8944 45.9068 43.7776 45.6399ZM43.211 46.5003C43.211 46.712 43.1718 46.9125 43.0942 47.095C43.0168 47.2778 42.9079 47.438 42.7709 47.5713C42.633 47.7052 42.4702 47.8123 42.2855 47.8893C41.9186 48.0434 41.4683 48.0434 41.1018 47.8893C40.9169 47.8121 40.7538 47.7052 40.6164 47.571C40.4794 47.438 40.3707 47.2778 40.2933 47.095C40.216 46.9125 40.1763 46.7125 40.1763 46.5003C40.1763 46.2882 40.2157 46.0876 40.2933 45.9054C40.3707 45.7231 40.4797 45.5626 40.6166 45.4292C40.7541 45.2955 40.9174 45.1883 41.102 45.1111C41.2855 45.034 41.4849 44.9949 41.6938 44.9949C41.9029 44.9949 42.102 45.034 42.2858 45.1111C42.4699 45.1883 42.6333 45.2952 42.7712 45.4292C42.9084 45.5624 43.0168 45.7226 43.0944 45.9051C43.1721 46.0881 43.2112 46.2882 43.2112 46.5003H43.211Z" fill="white"/>
<path fill-rule="evenodd" clip-rule="evenodd" d="M25.0208 52.9821C24.9643 53.0679 24.8997 53.1471 24.8266 53.2182C24.6889 53.3519 24.5259 53.459 24.3412 53.5363C23.9745 53.6904 23.5242 53.6904 23.1577 53.5363C22.9728 53.4588 22.8095 53.3517 22.6723 53.2182C22.5351 53.085 22.4264 52.925 22.349 52.742C22.2716 52.5595 22.2322 52.3592 22.2322 52.147C22.2322 51.9351 22.2716 51.7348 22.349 51.5523C22.4264 51.37 22.5353 51.2096 22.6723 51.0761C22.81 50.9424 22.9733 50.8353 23.1577 50.758C23.3412 50.681 23.5403 50.6421 23.7494 50.6421C23.9583 50.6421 24.1577 50.681 24.3412 50.758C24.5256 50.8353 24.6884 50.9422 24.8266 51.0761C24.8997 51.147 24.9643 51.2264 25.0208 51.3124V50.3212C24.8992 50.241 24.7689 50.1716 24.631 50.114C24.3578 50 24.0613 49.9421 23.7494 49.9421C23.4378 49.9421 23.1411 50 22.8679 50.114C22.5956 50.2275 22.354 50.3863 22.1491 50.5859C21.9445 50.7853 21.7817 51.0214 21.6656 51.2866C21.5488 51.5533 21.4897 51.8425 21.4897 52.147C21.4897 52.4516 21.5491 52.7413 21.6656 53.0077C21.7819 53.2727 21.9445 53.5088 22.1491 53.7086C22.3535 53.9082 22.5956 54.067 22.8676 54.1806C23.1404 54.2946 23.4373 54.3522 23.7494 54.3522C24.0611 54.3522 24.358 54.2946 24.631 54.1806C24.7691 54.1232 24.899 54.0535 25.0205 53.9732V52.9821" fill="white"/>
<path fill-rule="evenodd" clip-rule="evenodd" d="M26.0936 49.9421H26.8361V54.2543H26.0936V49.9421Z" fill="white"/>
<path fill-rule="evenodd" clip-rule="evenodd" d="M30.6393 49.9187H27.7549V50.5876H28.9529V54.2287H29.6946V50.5876H31.0827L30.6396 49.9187" fill="white"/>
<path fill-rule="evenodd" clip-rule="evenodd" d="M34.556 49.9421L33.4022 51.5848L32.2484 49.9421H31.3713C31.3953 49.9912 33.0312 52.3606 33.0312 52.3606V54.2543H33.7734V52.3606L35.4483 49.9421H34.5563" fill="white"/>
<path fill-rule="evenodd" clip-rule="evenodd" d="M42.1377 24.8822C46.9101 24.625 46.7527 21.823 46.7527 21.823C43.957 23.0457 43.015 20.9621 41.8706 20.7298C45.8142 19.3766 45.2288 16.4094 45.2288 16.4094C43.6948 18.3896 41.3781 16.6353 40.2504 16.8059C43.4235 14.7001 42.2034 11.727 42.2034 11.727C41.6086 13.9577 37.7049 13.2964 37.7049 13.2964C39.8647 10.1132 37.9409 7.94979 37.9409 7.94979C38.1025 10.2981 34.0023 10.9047 34.0023 10.9047C35.0659 6.74422 32.6809 5.69463 32.6809 5.69463C33.153 7.67341 30.3949 9.23927 30.3949 9.23927L28.1409 4.84912L25.8864 9.23927C25.8864 9.23927 23.1282 7.67341 23.6004 5.69463C23.6004 5.69463 21.2156 6.74422 22.2792 10.9047C22.2792 10.9047 18.179 10.2983 18.3404 7.94979C18.3404 7.94979 16.4166 10.1135 18.5763 13.2964C18.5763 13.2964 14.6729 13.9575 14.0778 11.727C14.0778 11.727 12.8578 14.6999 16.0309 16.8059C14.9032 16.6353 12.5863 18.3896 11.0524 16.4094C11.0524 16.4094 10.4671 19.3766 14.4106 20.7298C13.2665 20.9621 12.3247 23.0459 9.52855 21.823C9.52855 21.823 9.37142 24.625 14.1436 24.8822C12.4339 25.8856 12.8008 27.8568 9.66551 27.5233C9.66551 27.5233 10.6935 30.0925 14.9205 28.9849C13.6235 30.3469 14.2957 32.1135 11.3733 32.6648C11.3733 32.6648 13.2791 34.9838 16.9412 32.6125C16.2575 33.8882 17.2177 35.8134 14.6506 37.0865C14.6506 37.0865 17.3064 38.6332 20.0993 35.323C19.9754 37.3188 21.1975 38.8183 19.249 40.529C19.249 40.529 22.1843 41.3273 23.9049 37.2216C24.2082 38.9513 25.8733 39.661 24.5486 42.3935C24.5486 42.3935 26.7426 42.5623 28.1409 38.983C29.5392 42.5623 31.7329 42.3935 31.7329 42.3935C30.4082 39.6612 32.073 38.9515 32.3766 37.2216C34.0975 41.3276 37.0325 40.529 37.0325 40.529C35.084 38.8183 36.3061 37.3188 36.1825 35.323C38.9753 38.6329 41.6309 37.0865 41.6309 37.0865C39.0638 35.8132 40.0242 33.8882 39.3403 32.6125C43.0024 34.9838 44.9079 32.6648 44.9079 32.6648C41.986 32.1137 42.6582 30.3469 41.361 28.9849C45.588 30.0923 46.616 27.5233 46.616 27.5233C43.4807 27.8566 43.8476 25.8856 42.1379 24.8822H42.1377ZM21.7131 13.308C23.617 13.308 23.453 11.8374 23.2484 11.4949C23.2484 11.4949 24.8349 11.5655 26.1655 12.5426C26.1655 12.5426 27.7523 10.7295 28.1411 9.27885C28.5301 10.7293 30.1164 12.5426 30.1164 12.5426C31.4469 11.5655 33.0334 11.4949 33.0334 11.4949C32.8288 11.8374 32.665 13.308 34.5689 13.308C36.4728 13.308 36.8715 13.9326 36.8715 13.9326C36.3192 13.8221 35.5414 13.711 33.4839 14.4062C31.4264 15.1012 31.8772 13.308 31.8772 13.308C28.9598 13.5197 28.1413 15.1457 28.1413 15.1457C28.1413 15.1457 27.3227 13.5194 24.4055 13.308C24.4055 13.308 24.8558 15.1012 22.7988 14.4062C20.7413 13.711 19.9635 13.8221 19.4109 13.9326C19.4109 13.9323 19.8099 13.308 21.7138 13.308H21.7131ZM29.3588 26.9442C28.5603 27.428 28.1409 28.1154 28.1409 28.1154C28.1409 28.1154 27.721 27.428 26.923 26.9442C26.923 26.9442 27.0151 26.3777 26.8152 26.3402C26.6158 26.3026 26.0321 26.3251 26.0321 26.3251C26.0321 26.3251 25.1033 25.9475 24.9422 25.1918C24.9422 25.1918 25.4487 25.3354 26.1242 25.124C26.7998 24.9123 27.0761 25.1544 27.2909 25.2449C27.5057 25.3357 27.7312 25.3658 28.1406 25.3658C28.5501 25.3658 28.7753 25.3354 28.9904 25.2449C29.2052 25.1544 29.4815 24.9126 30.157 25.124C30.8328 25.3354 31.3393 25.1918 31.3393 25.1918C31.1779 25.9475 30.2491 26.3251 30.2491 26.3251C30.2491 26.3251 29.6657 26.3026 29.4665 26.3402C29.2669 26.3777 29.3588 26.9442 29.3588 26.9442ZM25.0089 21.0038C24.016 20.9835 21.4881 20.8024 21.396 18.8681V18.8179C21.396 18.8179 22.7964 18.5967 23.3305 18.8179C24.3027 19.2209 25.1418 21.0643 26.7181 19.684C26.7181 19.684 25.664 22.0112 25.0089 23.1694C25.0089 23.1694 26.0018 21.0238 25.0089 21.0038ZM31.2729 21.0038C30.28 21.024 31.2729 23.1694 31.2729 23.1694C30.6177 22.011 29.5636 19.684 29.5636 19.684C31.1399 21.0643 31.9793 19.2211 32.9517 18.8179C33.4856 18.5967 34.8862 18.8179 34.8862 18.8179V18.8681C34.7937 20.8024 32.2658 20.9835 31.2729 21.0038ZM38.7856 27.1182C35.9299 26.559 34.7937 27.8587 34.7937 27.8587C36.6515 28.1154 37.4471 30.299 37.4471 30.299C36.0859 29.4679 34.5786 29.6571 34.5786 29.6571C36.421 34.2881 30.2873 35.3607 28.1406 37.9067C25.9937 35.3607 19.8605 34.2878 21.7026 29.6571C21.7026 29.6571 20.1954 29.4682 18.8341 30.299C18.8341 30.299 19.63 28.1156 21.4876 27.8587C21.4876 27.8587 20.3513 26.5593 17.4959 27.1182C17.4959 27.1182 18.9851 25.3655 20.8427 25.6976C20.8427 25.6976 19.8906 24.0509 17.1427 23.8845C17.1427 23.8845 17.588 23.2953 19.2153 23.1744C19.2153 23.1744 17.9768 21.769 18.5395 19.1903C18.5395 19.1903 17.5775 18.4351 17.9255 16.1787C17.9255 16.1787 18.2884 18.0087 19.0617 17.7804C19.5991 17.6216 19.3535 16.9517 18.9312 17.0022C18.9312 17.0022 19.0539 16.5037 19.8443 16.1787C20.6352 15.854 20.8424 15.8239 20.8116 15.1967C20.8116 15.1967 21.372 14.9625 21.5716 15.4989C21.7712 16.0353 21.2263 16.2923 20.9497 16.3449C20.6734 16.398 20.2896 16.5113 20.1209 16.8287C20.1209 16.8287 20.7043 17.0252 20.2436 17.5389C19.7831 18.0525 18.1097 21.9055 22.0402 24.58C22.0402 24.58 21.9481 25.8188 23.3452 26.9824C23.3452 26.9824 22.7463 26.9269 22.6417 26.952C22.5367 26.9772 22.5009 28.1054 22.6417 28.1457C22.7824 28.186 24.9726 28.1457 24.9726 28.1457C24.9726 28.1457 22.7667 28.8106 22.6806 28.8886C22.5944 28.9666 22.7057 29.5561 22.7772 29.5658C22.8489 29.5758 24.6348 29.0372 25.5562 28.9768C25.5562 28.9768 23.4681 29.9285 23.115 30.2155C23.115 30.2155 23.4525 30.956 23.9132 31.2128C23.9132 31.2128 26.9327 30.1248 28.1404 29.1427C29.3481 30.1248 32.3678 31.2128 32.3678 31.2128C32.8283 30.9558 33.1661 30.2155 33.1661 30.2155C32.8126 29.9285 30.725 28.9768 30.725 28.9768C31.6462 29.0372 33.4324 29.576 33.5038 29.5658C33.5755 29.5559 33.6866 28.9666 33.6002 28.8886C33.514 28.8106 31.3085 28.1457 31.3085 28.1457C31.3085 28.1457 33.4988 28.186 33.6394 28.1457C33.7801 28.1054 33.7443 26.9772 33.6394 26.952C33.5345 26.9269 32.9358 26.9824 32.9358 26.9824C34.3329 25.8188 34.2409 24.58 34.2409 24.58C38.1713 21.9058 36.4977 18.0525 36.0372 17.5389C35.5767 17.025 36.1602 16.8287 36.1602 16.8287C35.9914 16.5113 35.6076 16.398 35.3313 16.3449C35.0548 16.2923 34.5098 16.0353 34.7094 15.4989C34.909 14.9625 35.4692 15.1967 35.4692 15.1967C35.4386 15.8239 35.6458 15.854 36.4365 16.1787C37.2273 16.5037 37.3501 17.0022 37.3501 17.0022C36.9278 16.9517 36.6824 17.6216 37.2195 17.7804C37.9924 18.0084 38.3558 16.1787 38.3558 16.1787C38.7037 18.4353 37.7417 19.1903 37.7417 19.1903C38.3047 21.769 37.0662 23.1744 37.0662 23.1744C38.6935 23.2953 39.1388 23.8845 39.1388 23.8845C36.3906 24.0509 35.4388 25.6976 35.4388 25.6976C37.2967 25.3653 38.7859 27.1182 38.7859 27.1182H38.7856Z" fill="#FDE192"/>
<path fill-rule="evenodd" clip-rule="evenodd" d="M28.1406 30.7585C28.1406 30.7585 24.7387 30.8956 24.2512 31.9987C24.1617 32.2009 24.2512 33.6459 24.2512 33.6459C24.2512 33.6459 24.5377 33.7063 24.7629 33.5501C24.7629 33.5501 24.7271 34.1896 25.1928 34.512C25.6583 34.8344 26.3903 35.2876 26.4057 35.2876C26.4212 35.2876 26.851 34.9652 27.0967 34.9451C27.3421 34.9249 27.8745 35.8515 28.1409 36.1134C28.4069 35.8515 28.9391 34.9249 29.1845 34.9451C29.4307 34.9652 29.8603 35.2876 29.8757 35.2876C29.8912 35.2876 30.623 34.8341 31.0884 34.512C31.5544 34.1896 31.5185 33.5501 31.5185 33.5501C31.7438 33.7063 32.0303 33.6459 32.0303 33.6459C32.0303 33.6459 32.1198 32.2011 32.0303 31.9987C31.543 30.8953 28.1411 30.7585 28.1411 30.7585" fill="#FDE192"/>
</svg>
