<svg width="100" height="100" viewBox="0 0 100 100" fill="none" xmlns="http://www.w3.org/2000/svg">
<path d="M25.395 64.0676L24.9438 64.5188L26.1863 65.7613L25.9 66.0476L24.6575 64.8051L24.2063 65.2563L23.9738 65.0238L25.1625 63.8351L25.395 64.0676ZM27.3275 63.7601L26.6838 62.3138L27.095 61.9026L28.57 63.3751L28.3013 63.6438L27.1488 62.4913L27.1413 62.4988L27.8538 64.0913L27.6538 64.2913L26.0613 63.5801L26.0538 63.5863L27.2063 64.7388L26.9375 65.0076L25.4638 63.5326L25.875 63.1251L27.3275 63.7601Z" fill="white"/>
<path d="M41.1175 39.9401L42.05 42.8114L39.6075 41.0376L37.1662 42.8114L38.0987 39.9401L35.6575 38.1664H38.6762L39.6075 35.2964L40.54 38.1664H43.5575L41.1175 39.9401Z" fill="white"/>
<path d="M27.0675 39.9401L29.5087 38.1664H26.4912L25.5575 35.2964L24.6262 38.1664H21.6075L24.0487 39.9401L23.1162 42.8114L25.5575 41.0376L27.9987 42.8114L27.0675 39.9401Z" fill="white"/>
<path d="M33.5163 47.5126L32.5838 44.6426L31.6513 47.5126H28.6325L31.0738 49.2863L30.1413 52.1563L32.5838 50.3826L35.0238 52.1563L34.0925 49.2863L36.5325 47.5126H33.5163Z" fill="white"/>
<path d="M24.3838 28.7012L21.615 22.3975H21.5275V30.8112C21.5293 30.8406 21.5249 30.87 21.5145 30.8975C21.5041 30.9251 21.4879 30.9501 21.4671 30.9709C21.4463 30.9917 21.4213 31.0078 21.3938 31.0182C21.3663 31.0286 21.3369 31.0331 21.3075 31.0312H18.825C18.7957 31.0329 18.7664 31.0283 18.7389 31.0178C18.7115 31.0073 18.6866 30.9912 18.6658 30.9704C18.6451 30.9497 18.6289 30.9247 18.6184 30.8973C18.608 30.8699 18.6034 30.8406 18.605 30.8112V16.3112C18.6034 16.282 18.6079 16.2527 18.6184 16.2253C18.6289 16.198 18.6451 16.1731 18.6659 16.1524C18.6867 16.1318 18.7116 16.1158 18.739 16.1054C18.7664 16.0951 18.7957 16.0907 18.825 16.0925H21.44C21.5144 16.0849 21.5891 16.1022 21.6525 16.1418C21.7159 16.1815 21.7643 16.2411 21.79 16.3112L25.5688 24.835H25.6575L29.375 16.3112C29.401 16.2407 29.4498 16.1809 29.5137 16.1413C29.5775 16.1017 29.6528 16.0845 29.7275 16.0925H32.2975C32.3267 16.0907 32.356 16.0951 32.3833 16.1054C32.4107 16.1158 32.4356 16.1318 32.4562 16.1525C32.4769 16.1732 32.493 16.198 32.5033 16.2254C32.5137 16.2528 32.5181 16.282 32.5163 16.3112V30.8112C32.5181 30.8405 32.5137 30.8698 32.5033 30.8972C32.493 30.9247 32.477 30.9496 32.4563 30.9704C32.4356 30.9912 32.4108 31.0073 32.3834 31.0178C32.356 31.0283 32.3268 31.0329 32.2975 31.0312H29.8088C29.7795 31.0329 29.7502 31.0283 29.7228 31.0178C29.6955 31.0073 29.6706 30.9912 29.65 30.9704C29.6293 30.9496 29.6133 30.9247 29.6029 30.8972C29.5926 30.8698 29.5882 30.8405 29.59 30.8112V22.3975H29.5L26.7313 28.7012C26.7022 28.7881 26.6456 28.863 26.57 28.9147C26.4944 28.9664 26.404 28.9919 26.3125 28.9875H24.8C24.7089 28.9916 24.619 28.9659 24.5439 28.9142C24.4687 28.8625 24.4125 28.7878 24.3838 28.7012Z" fill="white"/>
<path d="M34.7412 31.0314H44.4738C44.5031 31.0331 44.5324 31.0285 44.5598 31.018C44.5873 31.0075 44.6122 30.9914 44.6329 30.9706C44.6537 30.9499 44.6698 30.9249 44.6803 30.8975C44.6908 30.8701 44.6954 30.8408 44.6937 30.8114V28.3752C44.6954 28.3459 44.6908 28.3165 44.6803 28.2891C44.6698 28.2617 44.6537 28.2368 44.6329 28.216C44.6122 28.1952 44.5873 28.1791 44.5598 28.1686C44.5324 28.1581 44.5031 28.1536 44.4738 28.1552H37.8838C37.8657 28.1579 37.8473 28.1564 37.83 28.1507C37.8126 28.1451 37.7969 28.1354 37.784 28.1225C37.7711 28.1096 37.7614 28.0938 37.7557 28.0765C37.75 28.0592 37.7485 28.0407 37.7513 28.0227V16.3114C37.7529 16.2822 37.7483 16.2529 37.7378 16.2255C37.7273 16.1982 37.7112 16.1733 37.6904 16.1527C37.6696 16.132 37.6447 16.116 37.6172 16.1056C37.5898 16.0953 37.5605 16.0909 37.5312 16.0927H34.7412C34.712 16.0909 34.6828 16.0953 34.6554 16.1056C34.628 16.116 34.6032 16.132 34.5825 16.1527C34.5618 16.1734 34.5458 16.1982 34.5354 16.2256C34.5251 16.253 34.5207 16.2822 34.5225 16.3114V30.8114C34.5207 30.8407 34.5251 30.87 34.5354 30.8974C34.5458 30.9249 34.5618 30.9498 34.5825 30.9706C34.6031 30.9914 34.628 31.0075 34.6553 31.018C34.6827 31.0285 34.712 31.0331 34.7412 31.0314Z" fill="white"/>
<path d="M52.7987 22.0451L52.0087 21.9351C50.295 21.6938 49.68 21.1451 49.68 20.2888C49.68 19.3426 50.36 18.6638 51.68 18.6638C52.91 18.6638 54.0075 19.0588 55.1512 19.8063C55.1756 19.8224 55.203 19.8334 55.2318 19.8388C55.2605 19.8441 55.2901 19.8436 55.3186 19.8373C55.3472 19.831 55.3742 19.819 55.398 19.8021C55.4219 19.7852 55.4421 19.7637 55.4575 19.7388L56.7987 17.7388C56.9075 17.5851 56.8862 17.4976 56.755 17.4101C55.505 16.4426 53.6562 15.8501 51.68 15.8501C48.45 15.8501 46.385 17.6738 46.385 20.4201C46.385 23.0563 48.0762 24.4838 51.1087 24.9013L51.9 25.0101C53.6787 25.2526 54.2062 25.8026 54.2062 26.6813C54.2062 27.7351 53.3312 28.4601 51.7675 28.4601C50.1862 28.4601 48.8462 27.7101 47.8575 26.9226C47.8353 26.9006 47.8087 26.8836 47.7794 26.8727C47.7501 26.8618 47.7189 26.8571 47.6877 26.8591C47.6565 26.8611 47.6261 26.8697 47.5985 26.8843C47.5709 26.8989 47.5467 26.9192 47.5275 26.9438L45.8587 28.8551C45.8129 28.9081 45.7895 28.9769 45.7935 29.0469C45.7974 29.1169 45.8285 29.1826 45.88 29.2301C47.0437 30.3551 49.3062 31.2738 51.6362 31.2738C55.5025 31.2738 57.5025 29.2738 57.5025 26.5726C57.5025 23.8713 55.8775 22.4638 52.8 22.0463" fill="white"/>
<path d="M88.26 10.8988V9.18384H11.74V10.8988C11.74 10.8988 11.74 39.8076 11.74 39.9801C11.7213 51.495 15.4776 62.6987 22.4337 71.8751C22.5412 72.0176 22.6512 72.1588 22.7612 72.3001L12.7175 82.3426L15.1437 84.7688L24.955 74.9576C27.7537 78.1295 30.9216 80.9554 34.3913 83.3751C39.0096 86.6016 44.1163 89.0651 49.5163 90.6713L50.0062 90.8163L50.4963 90.6713C55.8925 89.0651 60.7787 86.2963 65.6212 83.3751C71.4462 79.8501 74.7463 76.1751 77.5788 71.8751C80.6813 67.1676 83.6287 62.4088 85.4437 57.0963C87.3248 51.5873 88.2814 45.8051 88.275 39.9838C88.2625 39.8076 88.26 10.8988 88.26 10.8988ZM25.1687 69.8001C18.6639 61.2212 15.1511 50.7462 15.1687 39.9801C15.1687 39.8338 15.1687 18.8338 15.1687 12.6151H82.4425L25.2075 69.8501C25.195 69.8338 25.1812 69.8176 25.1687 69.8001ZM82.185 55.9826C79.6562 63.3559 75.4237 70.0287 69.8314 75.4588C64.239 80.8889 57.4445 84.9232 50 87.2338C41.2457 84.5185 33.4174 79.4256 27.3875 72.5226L84.8288 15.0813C84.8288 23.0963 84.8288 39.8488 84.8288 39.9801C84.8353 45.4235 83.942 50.8305 82.185 55.9826Z" fill="white"/>
</svg>
