<svg width="100" height="100" viewBox="0 0 100 100" fill="none" xmlns="http://www.w3.org/2000/svg">
<path d="M93.25 50C93.25 73.8862 73.885 93.25 50 93.25C26.115 93.25 6.75 73.8862 6.75 50C6.75 26.1138 26.1138 6.75 50 6.75C73.8862 6.75 93.25 26.1138 93.25 50Z" fill="#2D2A26"/>
<path d="M50 92.2838C41.6453 92.2822 33.4787 89.8037 26.5325 85.1615C19.5862 80.5194 14.1721 73.9221 10.9747 66.2035C7.77722 58.4849 6.93992 49.9917 8.56862 41.7973C10.1973 33.603 14.2189 26.0754 20.125 20.1663C24.0423 16.216 28.7012 13.0784 33.8342 10.9333C38.9673 8.78821 44.4734 7.67799 50.0366 7.66635C55.5998 7.65471 61.1106 8.74188 66.2525 10.8655C71.3945 12.989 76.0665 16.1072 80.0003 20.041C83.934 23.9748 87.0522 28.6468 89.1758 33.7887C91.2994 38.9307 92.3865 44.4414 92.3749 50.0047C92.3633 55.5679 91.253 61.074 89.108 66.2071C86.9629 71.3401 83.8252 75.999 79.875 79.9163C75.9604 83.8507 71.3044 86.9696 66.1763 89.0925C61.0483 91.2154 55.5501 92.3001 50 92.2838ZM50 8.83126C27.2775 8.83126 8.79249 27.3163 8.79249 50.0388C8.79249 72.7613 27.2775 91.25 50 91.25C72.7225 91.25 91.2075 72.76 91.2075 50.0388C91.2075 27.3175 72.7225 8.83126 50 8.83126Z" fill="#AA9767"/>
<path d="M32.125 28.0212C28.8573 30.6768 26.2229 34.0275 24.4134 37.8296C22.604 41.6316 21.6651 45.7893 21.6651 50C21.6651 54.2107 22.604 58.3683 24.4134 62.1704C26.2229 65.9725 28.8573 69.3232 32.125 71.9787V28.0212Z" fill="#A32035"/>
<path d="M67.7687 27.9363V72.0613C71.0684 69.4084 73.731 66.0491 75.5605 62.2309C77.3899 58.4126 78.3396 54.2327 78.3396 49.9988C78.3396 45.7649 77.3899 41.5849 75.5605 37.7667C73.731 33.9484 71.0684 30.5892 67.7687 27.9363Z" fill="#A32035"/>
<path d="M56.5825 77.5425V22.4575C52.2207 21.3825 47.6619 21.3928 43.305 22.4875V77.5125C47.6619 78.6073 52.2207 78.6176 56.5825 77.5425Z" fill="#A32035"/>
<path d="M58.3537 34.1012L61.1037 28.575H38.8487L41.5987 34.1025L29.7137 69.3525L40.5012 76.4237L42.7512 70.0199H57.3262L59.3925 76.375L70.325 69.3287L58.3537 34.1012ZM47.0112 57.4487L49.9925 48.5L53.0675 57.455L47.0112 57.4487Z" fill="#2D2A26"/>
<path d="M57.2362 34.0249L59.4475 29.6012H40.51L42.72 34.0249L30.6462 69.8312L34.8112 73.7224L36.9737 74.7412L39.5912 75.9074L42.0187 68.9812H58.0775L60.415 76.1724L64.8275 73.8099L69.4525 69.9874L57.2362 34.0249ZM45.5775 58.4837L49.9775 45.2674L54.5137 58.4849L45.5775 58.4837Z" fill="#AA9767"/>
<path d="M45.5775 58.4838L38.2525 63.7388L50 29.5775L61.7475 63.7388L54.5138 58.485L49.9775 45.2675L45.5775 58.4838Z" fill="#716134"/>
<path d="M35.1537 72.7525L38.2525 63.7388H61.7475L64.7738 72.5413L60.1138 75.2475L58.0775 68.9813H42.0187L39.8312 75.22L35.1537 72.7525Z" fill="#716134"/>
<path d="M50 78.6901C34.1788 78.6901 21.3088 65.8151 21.3088 50.0001C21.3088 34.1851 34.18 21.3101 50 21.3101C65.82 21.3101 78.69 34.1801 78.69 50.0001C78.69 65.8201 65.82 78.6901 50 78.6901ZM50 22.4776C34.8225 22.4776 22.475 34.8238 22.475 50.0001C22.475 65.1763 34.8238 77.5238 50 77.5238C65.1763 77.5238 77.5238 65.1763 77.5238 50.0001C77.5238 34.8238 65.1763 22.4776 50 22.4776Z" fill="#AA9767"/>
<path d="M50 77.6537C34.75 77.6537 22.345 65.2499 22.345 49.9999C22.345 34.7499 34.75 22.3462 50 22.3462C65.25 22.3462 77.655 34.7499 77.655 49.9999C77.655 65.2499 65.25 77.6537 50 77.6537ZM50 23.3749C35.3212 23.3749 23.375 35.3174 23.375 49.9999C23.375 64.6824 35.3175 76.6249 50 76.6249C64.6825 76.6249 76.625 64.6824 76.625 49.9999C76.625 35.3174 64.68 23.3749 50 23.3749Z" fill="#716134"/>
<path d="M51.2737 12.0462C51.3521 11.7962 51.43 11.5462 51.5075 11.2962C50.5075 11.2437 49.5075 11.2408 48.5075 11.2875C48.5837 11.5375 48.6612 11.7875 48.7375 12.0375C48.025 14.3708 47.3133 16.7262 46.6025 19.1037C47.1962 19.0412 47.7912 18.9937 48.3862 18.965L48.7162 17.7912C49.5629 17.7587 50.4096 17.7612 51.2562 17.7987C51.3662 18.1904 51.4754 18.5825 51.5837 18.975C52.1787 19.0075 52.7729 19.0579 53.3662 19.1262C52.6712 16.7412 51.975 14.3812 51.2775 12.0462M50 13.2312C50.27 14.2137 50.5408 15.2 50.8125 16.19C50.2641 16.1733 49.7146 16.1712 49.1637 16.1837C49.4429 15.1962 49.7216 14.212 50 13.2312Z" fill="#AA9767"/>
<path d="M69.8362 26.0313C70.2962 26.4113 70.7454 26.8038 71.1837 27.2088L72.2562 26.625C72.8729 27.2084 73.4642 27.8146 74.03 28.4438L73.4162 29.5C73.8087 29.9475 74.1892 30.4059 74.5575 30.875C75.7725 28.7084 76.9692 26.5588 78.1475 24.4263L78.845 24.07C78.2833 23.435 77.6971 22.8242 77.0862 22.2375C74.6896 23.4809 72.2729 24.7455 69.8362 26.0313ZM73.7187 25.8213L76.4087 24.3463C75.8987 25.2288 75.3875 26.1134 74.875 27C74.5025 26.5967 74.1187 26.2034 73.7237 25.82" fill="#AA9767"/>
<path d="M67.6113 15.45C67.3379 15.905 67.0633 16.3595 66.7875 16.8137C67.3525 17.1075 67.9125 17.4112 68.4625 17.73L65.3225 22.935C65.8 23.21 66.2717 23.4945 66.7375 23.7887C67.785 22.0537 68.8317 20.3187 69.8775 18.5837C70.3475 18.8804 70.8113 19.1854 71.2688 19.4987L72.4925 18.4137C70.9344 17.3164 69.3036 16.3262 67.6113 15.45Z" fill="#AA9767"/>
<path d="M62.1337 13.1638C61.7046 14.608 61.2766 16.0534 60.85 17.5C60.55 15.8084 60.2421 14.1446 59.9262 12.5088C59.3362 12.3555 58.7421 12.22 58.1437 12.1025C58.1487 12.3609 58.1529 12.6188 58.1562 12.8763L56.1912 19.5013C56.7329 19.6121 57.2704 19.7371 57.8037 19.8763C58.2312 18.4321 58.6591 16.9884 59.0875 15.545C59.4025 17.1834 59.7096 18.85 60.0087 20.545C60.5087 20.7175 61.0087 20.9034 61.5087 21.1025L63.69 13.7463C63.1775 13.5396 62.6604 13.3475 62.1387 13.17" fill="#AA9767"/>
<path d="M23.0613 22.2375C22.4496 22.8209 21.8629 23.4317 21.3013 24.07L21.9988 24.4263C23.1779 26.5588 24.375 28.7084 25.59 30.875C25.9575 30.405 26.3379 29.9467 26.7313 29.5C26.5263 29.1475 26.3213 28.7976 26.1163 28.4463C26.6829 27.8163 27.2742 27.2101 27.89 26.6276L28.9625 27.2113C29.4 26.8063 29.8496 26.4138 30.3113 26.0338C27.8738 24.7471 25.4571 23.4825 23.0613 22.24M25.2763 27C24.7588 26.1134 24.2459 25.2292 23.7375 24.3475C24.6309 24.835 25.5275 25.3263 26.4275 25.8213C26.0342 26.2046 25.6504 26.598 25.2763 27.0013" fill="#AA9767"/>
<path d="M32.535 15.45L33.3587 16.8137C32.7937 17.1075 32.2337 17.4112 31.6837 17.73L34.825 22.935C34.3458 23.21 33.8737 23.4945 33.4087 23.7887C32.3612 22.0537 31.3146 20.3187 30.2687 18.5837C29.7987 18.8804 29.3342 19.1858 28.875 19.5L27.6512 18.415C29.2073 17.3179 30.8361 16.3277 32.5262 15.4512" fill="#AA9767"/>
<path d="M40.3038 18.8199C39.7463 16.8724 39.1892 14.9245 38.6325 12.9762C38.1063 13.1399 37.5825 13.3174 37.065 13.5049C37.7683 15.9633 38.4717 18.4216 39.175 20.8799C40.5721 20.3732 42 19.9557 43.45 19.6299C43.4625 19.0833 43.4754 18.5379 43.4888 17.9937C42.4138 18.2204 41.3521 18.497 40.3038 18.8237" fill="#AA9767"/>
<path d="M38.1162 78.645C37.6112 78.4267 37.1112 78.1992 36.6162 77.9625L33.4512 84.9525C33.9512 85.1875 34.4512 85.4146 34.9512 85.6338L38.1162 78.645Z" fill="#AA9767"/>
<path d="M45.7275 80.7337C45.6025 81.2512 45.4875 81.7675 45.3675 82.2862C44.7375 82.1962 44.1104 82.0875 43.4862 81.96L42.1112 87.8812C41.5712 87.7712 41.0341 87.6462 40.5 87.5062L41.875 81.585C41.26 81.425 40.6491 81.2467 40.0425 81.05L40.4025 79.5C42.1385 80.0646 43.9202 80.4779 45.7275 80.735" fill="#AA9767"/>
<path d="M49.9225 85.58C50.785 85.585 51.6475 85.5546 52.51 85.4888C52.4992 84.9579 52.4883 84.4267 52.4775 83.895C51.6167 83.9625 50.7542 83.9929 49.89 83.9863C49.8808 83.5371 49.8717 83.0875 49.8625 82.6375C50.9606 82.6436 52.0584 82.5927 53.1512 82.485L52.6325 80.9363C51.1506 81.0596 49.6619 81.078 48.1775 80.9913C48.2283 83.5479 48.28 86.1046 48.3325 88.6613C49.8169 88.748 51.3056 88.7296 52.7875 88.6063C52.94 88.0613 53.09 87.5163 53.2412 86.9688C52.1488 87.0771 51.0515 87.128 49.9537 87.1213C49.9429 86.6079 49.9325 86.0942 49.9225 85.58Z" fill="#AA9767"/>
<path d="M61.6025 80.92C61.31 79.8725 60.245 79.34 59.205 79.6588C58.0507 80.0127 56.8776 80.3024 55.6912 80.5263C55.8354 80.7563 55.9796 80.9854 56.1237 81.2138C56.7437 83.4329 57.3646 85.6521 57.9862 87.8712C59.0943 87.6536 60.1904 87.3787 61.27 87.0475C62.31 86.7287 62.895 85.5575 62.6075 84.5125L61.6075 80.92M61.0487 85.0537C61.0758 85.1512 61.0639 85.2553 61.0156 85.3442C60.9673 85.433 60.8864 85.4996 60.79 85.53C60.2566 85.6925 59.7187 85.8417 59.1762 85.9775C58.7721 84.5375 58.3691 83.0979 57.9675 81.6588C58.51 81.5229 59.0479 81.3733 59.5812 81.21C59.628 81.1953 59.6772 81.1901 59.726 81.1948C59.7749 81.1994 59.8222 81.2138 59.8654 81.2372C59.9085 81.2605 59.9465 81.2922 59.9771 81.3305C60.0078 81.3688 60.0304 81.4128 60.0437 81.46C60.3771 82.6575 60.7104 83.855 61.0437 85.0525" fill="#AA9767"/>
<path d="M32.4325 75.53L29.7362 79.155C30.0037 77.5117 30.2871 75.845 30.5862 74.155C30.1696 73.8217 29.7633 73.4783 29.3675 73.125C27.84 75.1767 26.3133 77.2283 24.7875 79.28C25.2 79.6475 25.6216 80.0033 26.0525 80.3475L28.7487 76.7225C28.4496 78.41 28.1675 80.0767 27.9025 81.7225C28.34 82.0242 28.7854 82.3158 29.2387 82.5975L33.8175 76.4413C33.3475 76.1513 32.8858 75.8496 32.4325 75.5362" fill="#AA9767"/>
<path d="M26.21 69.8262L21.5975 73.4C21.5173 73.4618 21.4161 73.4902 21.3154 73.479C21.2147 73.4678 21.1222 73.4179 21.0575 73.34C20.7842 73.0066 20.5179 72.6658 20.2588 72.3175C20.1992 72.2361 20.1737 72.1346 20.1877 72.0347C20.2017 71.9348 20.2541 71.8443 20.3338 71.7825L24.9463 68.2087C24.5763 67.7004 24.2225 67.18 23.885 66.6475C23.7275 66.8687 23.5688 67.0887 23.4113 67.3087L19.3975 70.4175C18.5388 71.0825 18.3138 72.3737 18.9638 73.2462C19.2454 73.6245 19.5371 73.9962 19.8388 74.3612C20.5288 75.205 21.8388 75.3037 22.6988 74.6387L27.3113 71.065C26.9338 70.6625 26.5679 70.2495 26.2138 69.8262" fill="#AA9767"/>
<path d="M69.8138 75.9763C70.6894 75.3143 71.5313 74.6089 72.3363 73.8625L70.9888 72.9413C69.8249 73.9859 68.5885 74.9466 67.2888 75.8163L67.9513 76.2813L72.2388 81.705C72.6954 81.395 73.1433 81.0738 73.5825 80.7413C72.935 79.9213 72.2871 79.1009 71.6388 78.28C72.3263 77.76 72.9929 77.2129 73.6388 76.6388L72.6513 75.3888C72.0046 75.9629 71.3379 76.5104 70.6513 77.0313L69.815 75.9713" fill="#AA9767"/>
<path d="M77.8512 67.6487C77.6478 67.495 77.4154 67.384 77.1681 67.3222C76.9207 67.2604 76.6634 67.2491 76.4116 67.289C76.1598 67.3289 75.9186 67.4192 75.7025 67.5544C75.4863 67.6897 75.2997 67.8671 75.1537 68.0762C74.8746 68.4562 74.59 68.8312 74.3 69.2012C74.138 69.3983 74.0175 69.626 73.9455 69.8707C73.8736 70.1155 73.8519 70.3722 73.8815 70.6256C73.9111 70.879 73.9916 71.1237 74.1181 71.3453C74.2445 71.5668 74.4144 71.7606 74.6175 71.9149L77.805 74.3287C78.67 74.9849 79.9575 74.8524 80.6275 73.9962C80.9191 73.6245 81.2041 73.2495 81.4825 72.8712C82.125 71.9962 81.9037 70.7187 81.0387 70.0637L80.5387 69.6887C80.2346 70.1487 79.9212 70.602 79.5987 71.0487L80.0987 71.4237C80.1792 71.4843 80.2324 71.5743 80.2469 71.674C80.2615 71.7737 80.236 71.8751 80.1762 71.9562C79.9212 72.3054 79.6604 72.6499 79.3937 72.9899C79.3312 73.0686 79.2404 73.1197 79.1408 73.1326C79.0411 73.1454 78.9404 73.1189 78.86 73.0587L75.6725 70.6437C75.5946 70.5828 75.544 70.4935 75.5316 70.3954C75.5192 70.2974 75.546 70.1983 75.6062 70.1199C75.8729 69.7783 76.1337 69.4337 76.3887 69.0862C76.448 69.007 76.5361 68.9543 76.634 68.9398C76.7319 68.9253 76.8315 68.9501 76.9112 69.0087L77.255 69.2687C77.5775 68.8229 77.8912 68.3699 78.1962 67.9099L77.8512 67.6487Z" fill="#AA9767"/>
<path d="M78.8563 31.235C82.1127 36.253 84.0078 42.0319 84.3554 48.0038C84.703 53.9758 83.4911 59.9355 80.8388 65.2975L81.78 65.7662C84.5585 60.1517 85.8032 53.9025 85.3881 47.6518C84.973 41.4012 82.9128 35.3715 79.4163 30.1737L78.8563 31.235Z" fill="#AA9767"/>
<path d="M21.125 31.235C17.8677 36.2527 15.9722 42.0316 15.6246 48.0038C15.277 53.9759 16.4893 59.9357 19.1425 65.2975L18.2 65.7662C15.4214 60.1518 14.1764 53.9026 14.5913 47.652C15.0062 41.4014 17.0662 35.3716 20.5625 30.1737L21.125 31.235Z" fill="#AA9767"/>
</svg>
