<svg width="100" height="100" viewBox="0 0 100 100" fill="none" xmlns="http://www.w3.org/2000/svg">
<path d="M81.6362 4.59131H15.3575V61.1101C15.3575 70.3429 19.0252 79.1976 25.5538 85.7262C32.0824 92.2548 40.9371 95.9226 50.17 95.9226C59.4028 95.9226 68.2575 92.2548 74.7861 85.7262C81.3148 79.1976 84.9825 70.3429 84.9825 61.1101V4.59131H81.6362Z" fill="black"/>
<path d="M39.3987 12.3312H41.295V21.4137C41.295 21.8779 41.1106 22.323 40.7824 22.6512C40.4542 22.9794 40.0091 23.1637 39.545 23.1637H35.9662C35.737 23.1653 35.5097 23.1209 35.2979 23.0332C35.0861 22.9456 34.8939 22.8164 34.7328 22.6533C34.5717 22.4902 34.4449 22.2965 34.3598 22.0836C34.2747 21.8707 34.2331 21.6429 34.2375 21.4137V12.3312H36.1337V21C36.1342 21.0565 36.146 21.1124 36.1683 21.1644C36.1907 21.2164 36.2232 21.2633 36.2639 21.3026C36.3047 21.3418 36.3529 21.3725 36.4056 21.3929C36.4584 21.4133 36.5147 21.4229 36.5712 21.4212H38.9612C39.0178 21.4229 39.0741 21.4133 39.1269 21.3929C39.1796 21.3725 39.2278 21.3418 39.2685 21.3026C39.3093 21.2633 39.3418 21.2164 39.3641 21.1644C39.3865 21.1124 39.3983 21.0565 39.3987 21V12.3312ZM31.1725 14.075V23.1587H29.2762V19.6075H26.0112V23.1587H24.115V14.075C24.115 13.6109 24.2994 13.1657 24.6276 12.8375C24.9557 12.5094 25.4009 12.325 25.865 12.325H29.4487C29.6776 12.3241 29.9043 12.369 30.1155 12.4569C30.3268 12.5449 30.5183 12.6742 30.6789 12.8372C30.8395 13.0003 30.9659 13.1937 31.0506 13.4063C31.1354 13.6188 31.1768 13.8462 31.1725 14.075ZM29.2762 14.4887C29.2758 14.4322 29.264 14.3763 29.2416 14.3243C29.2193 14.2724 29.1868 14.2254 29.146 14.1861C29.1053 14.1469 29.0571 14.1162 29.0044 14.0958C28.9516 14.0755 28.8953 14.0658 28.8387 14.0675H26.4487C26.3922 14.0658 26.3359 14.0755 26.2831 14.0958C26.2304 14.1162 26.1822 14.1469 26.1414 14.1861C26.1007 14.2254 26.0682 14.2724 26.0458 14.3243C26.0235 14.3763 26.0117 14.4322 26.0112 14.4887V17.7112H29.2762V14.4887ZM53.7562 14.0675H56.4912V23.1587H58.3875V14.0675H61.125V12.3312H53.7562V14.0675ZM63.5687 23.1587H65.465V12.33H63.5687V23.1587ZM49.7675 17.0937C49.155 16.9175 48.6125 16.7787 48.0862 16.6437C47.6175 16.5187 47.175 16.4112 46.7212 16.28C46.5137 16.225 46.2887 16.0725 46.2887 15.8112V14.4887C46.2892 14.4322 46.301 14.3763 46.3233 14.3243C46.3457 14.2724 46.3782 14.2254 46.4189 14.1861C46.4597 14.1469 46.5079 14.1162 46.5606 14.0958C46.6134 14.0755 46.6697 14.0658 46.7262 14.0675H49.0525C49.109 14.0658 49.1653 14.0755 49.2181 14.0958C49.2709 14.1162 49.319 14.1469 49.3598 14.1861C49.4005 14.2254 49.433 14.2724 49.4554 14.3243C49.4778 14.3763 49.4895 14.4322 49.49 14.4887V15.3962H51.3862V14.075C51.3862 13.6119 51.2027 13.1678 50.8759 12.8397C50.5491 12.5117 50.1055 12.3266 49.6425 12.325H46.125C45.8958 12.3236 45.6687 12.3681 45.4571 12.4558C45.2454 12.5436 45.0534 12.6728 44.8924 12.8359C44.7314 12.999 44.6047 13.1926 44.5197 13.4054C44.4347 13.6182 44.3931 13.8459 44.3975 14.075V16.2575C44.3975 17.3287 45.3675 17.7487 46.0962 17.97C46.7912 18.1775 47.2937 18.3075 47.825 18.4462C48.215 18.5475 48.605 18.6475 49.095 18.7837C49.47 18.8775 49.5275 19.1075 49.5275 19.2362V21C49.527 21.0565 49.5153 21.1124 49.4929 21.1644C49.4705 21.2164 49.438 21.2633 49.3973 21.3026C49.3565 21.3418 49.3084 21.3725 49.2556 21.3929C49.2028 21.4133 49.1465 21.4229 49.09 21.4212H46.6937C46.6372 21.4229 46.5809 21.4133 46.5281 21.3929C46.4754 21.3725 46.4272 21.3418 46.3864 21.3026C46.3457 21.2633 46.3132 21.2164 46.2908 21.1644C46.2685 21.1124 46.2567 21.0565 46.2562 21V20.1137H44.36V21.4137C44.36 21.8779 44.5444 22.323 44.8726 22.6512C45.2007 22.9794 45.6459 23.1637 46.11 23.1637H49.695C49.9242 23.1651 50.1514 23.1206 50.3631 23.0329C50.5749 22.9452 50.7669 22.816 50.928 22.6529C51.0891 22.4898 51.2159 22.2962 51.3011 22.0834C51.3862 21.8706 51.4279 21.6429 51.4237 21.4137V18.8062C51.4187 17.9775 50.8625 17.4012 49.7675 17.0937ZM74.3925 12.33V17.58L70.3662 12.33H68.53V23.1587H70.3625V15.9012L74.3925 21.1362V23.1587H76.225V12.33H74.3925Z" fill="white"/>
<path d="M36.27 72.215H34.5537V66.0825C34.5544 65.7025 34.7057 65.3382 34.9744 65.0694C35.2431 64.8007 35.6074 64.6494 35.9875 64.6488H40.065V66.25H36.4137C36.3781 66.2476 36.343 66.2594 36.3161 66.2828C36.2891 66.3063 36.2725 66.3394 36.27 66.375V68.2163H40.065V69.9325H36.27V72.215ZM60.2875 66.0825V70.7813C60.2881 71.1613 60.4394 71.5256 60.7081 71.7943C60.9769 72.0631 61.3412 72.2143 61.7212 72.215H65.7987V70.6138H62.1462C62.1106 70.6162 62.0755 70.6044 62.0486 70.5809C62.0216 70.5575 62.005 70.5244 62.0025 70.4888V66.3813C62.005 66.3456 62.0216 66.3125 62.0486 66.2891C62.0755 66.2657 62.1106 66.2538 62.1462 66.2563H65.7987V64.6488H61.7212C61.3412 64.6494 60.9769 64.8007 60.7081 65.0694C60.4394 65.3382 60.2881 65.7025 60.2875 66.0825ZM73.3087 58.3163L73.2925 58.4563L73.4325 58.4388C74.4504 58.3065 75.3945 57.8365 76.1136 57.104C76.8328 56.3716 77.2853 55.4189 77.3987 54.3988L77.4137 54.2588L77.275 54.2763C76.2573 54.4091 75.3135 54.8793 74.5946 55.6117C73.8756 56.344 73.4228 57.2963 73.3087 58.3163ZM67.2187 51.2675C66.9855 51.3821 66.7623 51.5159 66.5512 51.6675C66.2152 51.9068 65.9133 52.1907 65.6537 52.5113C65.0117 53.3114 64.6554 54.303 64.6412 55.3288V55.47L64.7775 55.4375C65.7773 55.2057 66.6705 54.6452 67.3141 53.8456C67.9578 53.0461 68.3146 52.0538 68.3275 51.0275V50.8863L68.19 50.9188C67.8542 50.9982 67.5284 51.1152 67.2187 51.2675ZM57.7625 48.5638L57.7287 48.4275L57.6037 48.4938C56.7157 48.9659 56.0078 49.7172 55.5894 50.6318C55.171 51.5463 55.0653 52.5732 55.2887 53.5538C55.2975 53.5925 55.3037 53.6325 55.3137 53.6713L55.3487 53.8075L55.4737 53.7413C55.6656 53.6393 55.8499 53.5236 56.025 53.395C56.743 52.872 57.2929 52.1509 57.6075 51.3202C57.9221 50.4894 57.9877 49.585 57.7962 48.7175C57.7837 48.6663 57.7762 48.615 57.7625 48.5638ZM68.625 44.8013L68.7637 44.7775C69.7761 44.6071 70.7019 44.1018 71.3927 43.3425C72.0836 42.5832 72.4995 41.6139 72.5737 40.59L72.5837 40.45L72.445 40.4725C71.4329 40.6435 70.5075 41.149 69.8167 41.9082C69.126 42.6674 68.7099 43.6363 68.635 44.66L68.625 44.8013ZM59.2075 42.25L59.2362 42.3875L59.3612 42.3263C60.2861 41.8819 61.0352 41.14 61.4884 40.2194C61.9417 39.2988 62.073 38.2528 61.8612 37.2488L61.8312 37.11L61.7062 37.1713C60.7814 37.616 60.0324 38.3582 59.5792 39.2789C59.126 40.1997 58.9946 41.2458 59.2062 42.25H59.2075ZM50.1625 42.54V42.5325L50.1687 42.54L50.255 42.4288C50.8891 41.6215 51.2338 40.6247 51.2338 39.5981C51.2338 38.5716 50.8891 37.5748 50.255 36.7675L50.1675 36.6563L50.08 36.7675C49.4467 37.5751 49.1026 38.5718 49.1026 39.5981C49.1026 40.6244 49.4467 41.6211 50.08 42.4288L50.1625 42.54ZM24.2225 57.1038C24.9424 57.8345 25.8855 58.3043 26.9025 58.4388L27.0425 58.4563L27.0275 58.3163C26.9128 57.2965 26.4598 56.3446 25.7409 55.6124C25.0221 54.8801 24.0787 54.4097 23.0612 54.2763L22.9212 54.2588L22.9375 54.3988C23.0524 55.4184 23.5047 56.3705 24.2225 57.1038ZM34.6812 52.5113C34.4218 52.191 34.1203 51.9072 33.785 51.6675C33.5737 51.5156 33.35 51.3818 33.1162 51.2675C32.8067 51.1149 32.4809 50.998 32.145 50.9188L32.0075 50.8863V51.0275C32.0204 52.0538 32.3772 53.0461 33.0208 53.8456C33.6644 54.6452 34.5576 55.2057 35.5575 55.4375L35.695 55.47V55.3288C35.6805 54.3029 35.3237 53.3112 34.6812 52.5113ZM42.7312 48.5L42.6062 48.4338L42.5712 48.57C42.5587 48.6213 42.55 48.6725 42.5387 48.7238C42.3269 49.6998 42.4391 50.7182 42.8582 51.6248C43.2773 52.5313 43.9805 53.2766 44.8612 53.7475L44.9862 53.8138L45.0212 53.6775C45.03 53.6388 45.0362 53.5988 45.045 53.56C45.2691 52.5795 45.164 51.5525 44.7457 50.6379C44.3275 49.7232 43.6195 48.9718 42.7312 48.5ZM28.9462 43.3425C29.6374 44.0993 30.561 44.6043 31.5712 44.7775L31.7112 44.8013L31.7 44.66C31.6251 43.6363 31.209 42.6674 30.5182 41.9082C29.8275 41.149 28.902 40.6435 27.89 40.4725L27.75 40.45L27.76 40.59C27.8376 41.6141 28.2551 42.5829 28.9462 43.3425ZM40.9712 42.3263L41.0962 42.3875L41.125 42.25C41.3364 41.2458 41.2049 40.1998 40.7517 39.2791C40.2985 38.3584 39.5497 37.6162 38.625 37.1713L38.5 37.11L38.4712 37.2488C38.2597 38.2528 38.3911 39.2987 38.8443 40.2193C39.2976 41.1398 40.0465 41.8817 40.9712 42.3263ZM30.2075 49.4688C36.7387 49.4688 38.7537 46.5863 43.4762 46.5863C44.9162 46.5863 46.2362 47.11 47.3512 48.025C47.8828 47.2419 48.4759 46.5025 49.125 45.8138C47.7925 44.1038 46.6725 42.4275 46.6725 39.6888C46.6725 36.5475 48.1625 34.8138 48.9512 33.96L47.6012 31.8225C46.4045 33.0236 45.4754 34.4643 44.875 36.05C43.6662 34.2825 41.5425 33.5625 41 33.5625V36.0888C42.225 36.0888 43.9912 37.9638 44.25 40.6175C44.3777 41.9413 44.7219 43.2352 45.2687 44.4475C44.5972 44.2026 43.8896 44.0712 43.175 44.0588C40.6962 44.0588 38.175 45.1563 38.175 45.1563C36.8275 39.8463 34.63 37.7563 30.8212 36.84V39.3625C32.9962 39.9875 34.5987 41.4513 35.7725 45.98C35.7725 45.98 33.3887 46.9525 31.1475 46.9525C29.57 46.9525 28.1475 46.6163 26.935 44.9613L24.5987 45.875C24.5987 45.875 25.7037 49.4688 30.2075 49.4688ZM17.9087 7.1425H82.4312V61.11C82.4312 78.8988 67.9587 93.375 50.17 93.375C32.3812 93.375 17.9087 78.8988 17.9087 61.11V7.1425ZM46.7137 73.3038C43.9787 78.335 38.4862 84.54 30.4562 84.585C32.832 86.5849 35.4973 88.213 38.3612 89.4138C40.4425 88.0413 46.2025 82.81 46.7137 73.3038ZM69.8837 84.585C61.8537 84.54 56.3612 78.335 53.6262 73.3038C54.1375 82.81 59.8987 88.0413 61.9787 89.4138C64.8428 88.2133 67.5082 86.5852 69.8837 84.585ZM19.5 26.7688H80.8412V8.73375H19.5V26.7688ZM19.5 61.11C19.494 67.5178 21.5058 73.7649 25.25 78.965C38.4412 78.965 46.7 74.7013 46.7 63.5263C46.7 59.4738 44.6087 58.7638 42.1312 58.7638C36.9275 58.7638 32.365 63.3613 28.2037 63.3613C25.4225 63.3613 23.5037 62.2 22.4112 61.6963L23.46 59.415C23.46 59.415 25.85 60.8313 27.7512 60.8313C29.77 60.8313 31.8062 59.5163 31.8062 59.5163C30.685 58.9608 29.7136 58.1441 28.9737 57.135C28.1987 56.0913 27.66 54.485 27.46 53.1425H29.9875C30.3275 54.7225 31.4062 57.7075 34.6962 57.7113C35.8075 57.7113 38.16 56.5038 39.4712 56.5038C37.6137 54.2213 36.7475 50.4413 36.7475 50.4413C36.7475 50.4413 37.8387 50.04 39.1112 49.5463C41.3375 57.6388 43.0987 54.0238 46.815 57.3938C46.815 47.0025 53.6612 46.4675 53.6612 39.6863C53.6612 36.545 52.1725 34.8113 51.3837 33.9575L52.7337 31.82C53.9314 33.0221 54.861 34.4641 55.4612 36.0513C56.6687 34.2838 58.7925 33.5638 59.3362 33.5638V36.09C58.11 36.09 56.3437 37.965 56.0862 40.6188C55.9585 41.9426 55.6144 43.2364 55.0675 44.4488C55.7389 44.2037 56.4466 44.0723 57.1612 44.06C59.64 44.06 62.1612 45.1575 62.1612 45.1575C63.5087 39.8475 65.7062 37.7575 69.5162 36.8413V39.3625C67.3412 39.9875 65.7387 41.4513 64.565 45.98C64.565 45.98 66.9475 46.9525 69.19 46.9525C70.7687 46.9525 72.19 46.6163 73.4025 44.9613L75.7362 45.875C75.7362 45.875 74.6325 49.4663 70.1287 49.4663C63.5962 49.4663 61.5812 46.5838 56.86 46.5838C53.7812 46.5838 49.3475 49.1988 49.3475 58.2538V61.595C49.3475 61.595 49.295 70.8063 49.295 71.1038C49.295 81.335 47.25 88.5 46.125 91.5138C48.8066 91.8688 51.5233 91.8688 54.205 91.5138C53.08 88.5038 51.04 81.335 51.04 71.1063C51.04 70.8088 50.9875 61.5975 50.9875 61.5975C50.9875 60.1825 50.9875 59.2388 50.9875 58.2563C50.9875 53.5063 52.5625 51.575 52.5625 51.575C53.5425 53.93 53.5087 56.91 53.5087 57.4013C57.2312 54.0175 58.9875 57.6513 61.2175 49.5463C61.835 49.7875 63.58 50.4413 63.58 50.4413C63.58 50.4413 62.7287 54.2213 60.875 56.5C62.1875 56.5 64.5387 57.705 65.6512 57.7075C68.94 57.7075 70.0187 54.7188 70.3587 53.1388H72.8875C72.6875 54.4813 72.1487 56.0875 71.3737 57.1313C70.6333 58.1403 69.6615 58.9569 68.54 59.5125C68.54 59.5125 70.5762 60.8275 72.5962 60.8275C74.4975 60.8275 76.8862 59.4113 76.8862 59.4113L77.935 61.6925C76.8425 62.1925 74.9237 63.3575 72.1425 63.3575C67.9812 63.3575 63.42 58.76 58.215 58.76C55.7375 58.76 53.6462 59.47 53.6462 63.5225C53.6462 74.6975 61.905 78.9563 75.0962 78.9613C78.8409 73.7614 80.8528 67.5142 80.8462 61.1063V28.3563H19.5V61.11ZM86.5737 3V61.11C86.5737 70.7649 82.7383 80.0243 75.9113 86.8513C69.0843 93.6784 59.8249 97.5138 50.17 97.5138C40.5151 97.5138 31.2557 93.6784 24.4286 86.8513C17.6016 80.0243 13.7662 70.7649 13.7662 61.11V3H86.5737ZM84.9825 4.59125H15.3575V61.11C15.3575 70.3429 19.0252 79.1976 25.5538 85.7262C32.0824 92.2548 40.9371 95.9225 50.17 95.9225C59.4028 95.9225 68.2575 92.2548 74.7861 85.7262C81.3148 79.1976 84.9825 70.3429 84.9825 61.11V4.59125Z" fill="#00B140"/>
</svg>
