<svg width="100" height="100" viewBox="0 0 100 100" fill="none" xmlns="http://www.w3.org/2000/svg">
<path d="M50 93.375C73.9554 93.375 93.375 73.9554 93.375 50C93.375 26.0446 73.9554 6.625 50 6.625C26.0446 6.625 6.625 26.0446 6.625 50C6.625 73.9554 26.0446 93.375 50 93.375Z" fill="black"/>
<path d="M50 74.29C63.415 74.29 74.29 63.415 74.29 50C74.29 36.585 63.415 25.71 50 25.71C36.585 25.71 25.71 36.585 25.71 50C25.71 63.415 36.585 74.29 50 74.29Z" fill="#0085CA"/>
<path d="M50 90.7725C27.5175 90.7725 9.22748 72.4825 9.22748 50C9.22748 27.5175 27.5175 9.22754 50 9.22754C72.4825 9.22754 90.7725 27.5175 90.7725 50C90.7725 72.4825 72.4825 90.7725 50 90.7725ZM89.905 50C89.905 28 72 10.095 50 10.095C28 10.095 10.095 28 10.095 50C10.095 72 28 89.905 50 89.905C72 89.905 89.905 72 89.905 50Z" fill="white"/>
<path d="M50 77.76C34.6925 77.76 22.24 65.3075 22.24 50C22.24 34.6925 34.6925 22.24 50 22.24C65.3075 22.24 77.76 34.6925 77.76 50C77.76 65.3075 65.3075 77.76 50 77.76ZM76.8925 50C76.8925 35.1712 64.8287 23.1075 50 23.1075C35.1712 23.1075 23.1075 35.1712 23.1075 50C23.1075 64.8287 35.1712 76.8925 50 76.8925C64.8287 76.8925 76.8925 64.8287 76.8925 50Z" fill="white"/>
<path d="M61.1437 62.2938L60.625 63.785C60.5936 63.8765 60.5431 63.9604 60.477 64.0311C60.4108 64.1017 60.3305 64.1576 60.2412 64.195C59.3325 64.57 56.2162 65.64 50.3162 65.64C44.34 65.64 40.745 64.465 39.7262 64.0788C39.6323 64.0435 39.5474 63.9878 39.4778 63.9155C39.4081 63.8433 39.3555 63.7564 39.3237 63.6613L38.8237 62.2025C38.8101 62.1639 38.8073 62.1223 38.8157 62.0822C38.8241 62.0421 38.8433 62.0051 38.8713 61.9751C38.8993 61.9452 38.9349 61.9236 38.9744 61.9125C39.0138 61.9015 39.0556 61.9015 39.095 61.9125C42.6498 62.8741 46.3175 63.3542 50 63.34C53.667 63.3532 57.3209 62.903 60.875 62C60.9147 61.9891 60.9566 61.9895 60.9962 62.0009C61.0357 62.0123 61.0713 62.0344 61.0991 62.0648C61.1269 62.0952 61.1457 62.1326 61.1536 62.173C61.1615 62.2134 61.1581 62.2552 61.1437 62.2938ZM50 61.605C55.895 61.605 60.4237 60.3425 61.6525 59.9638C61.7553 59.9317 61.8491 59.8758 61.9262 59.8007C62.0033 59.7255 62.0616 59.6332 62.0962 59.5313L68.25 41.6988C68.2232 41.6139 68.1793 41.5354 68.1211 41.4681C68.0628 41.4008 67.9914 41.3462 67.9112 41.3075C67.7679 41.2379 67.6035 41.2249 67.451 41.2713C67.2985 41.3176 67.1691 41.4199 67.0888 41.5575C65.7238 43.8675 64.3512 44.5788 63.8988 44.8075L63.8838 44.815C63.7453 44.8875 63.6345 45.0035 63.5683 45.1451C63.5022 45.2867 63.4843 45.446 63.5175 45.5988C63.5175 45.5988 63.5175 45.6125 63.5175 45.6188V45.6363C63.5425 45.7463 63.5762 45.9075 63.6062 46.1138C63.6262 46.2925 63.6462 46.5138 63.665 46.76C63.7083 47.2828 63.6907 47.8088 63.6125 48.3275C62.3275 49.1213 60.5912 49.8888 59.215 49.395C58.125 49 57.2875 47.28 56.9875 43.7088C57.336 43.0304 57.8014 42.419 58.3625 41.9025L58.375 41.8913C58.4897 41.7848 58.5664 41.6437 58.5935 41.4896C58.6206 41.3355 58.5965 41.1767 58.525 41.0375C58.522 41.0315 58.5195 41.0252 58.5175 41.0188L58.5087 41.0025C58.4575 40.9038 58.3837 40.7525 58.3 40.565C58.235 40.3988 58.1587 40.19 58.0775 39.9563C57.845 39.2063 57.645 38.0925 57.7562 36.525C57.7727 36.3656 57.7321 36.2056 57.6417 36.0733C57.5513 35.9411 57.4169 35.8451 57.2625 35.8025C57.1022 35.7644 56.9334 35.7896 56.7913 35.873C56.6492 35.9564 56.5449 36.0915 56.5 36.25C55.7812 38.8438 54.64 39.8963 54.265 40.25L54.2525 40.2613C54.1376 40.3676 54.0608 40.5087 54.0337 40.6629C54.0066 40.817 54.0308 40.9759 54.1025 41.115L54.11 41.1338L54.1187 41.15C54.17 41.2488 54.2437 41.4 54.3275 41.5875C54.3925 41.7538 54.4687 41.9625 54.55 42.1963C54.6798 42.6203 54.7723 43.0548 54.8262 43.495C53 46.8938 51.6637 48.08 50 48.09C48.3362 48.08 47 46.8938 45.1712 43.4913C45.2252 43.0511 45.3177 42.6165 45.4475 42.1925C45.5287 41.9588 45.605 41.75 45.67 41.5838C45.7525 41.3925 45.8275 41.245 45.8787 41.1463L45.8875 41.13L45.895 41.1113C45.9667 40.9721 45.9909 40.8133 45.9638 40.6591C45.9367 40.5049 45.8599 40.3639 45.745 40.2575L45.7325 40.2463C45.3575 39.8988 44.2162 38.8463 43.4975 36.2463C43.4532 36.0873 43.349 35.9516 43.2069 35.8677C43.0647 35.7838 42.8956 35.7582 42.735 35.7963C42.5806 35.8389 42.4462 35.9348 42.3558 36.0671C42.2654 36.1994 42.2248 36.3594 42.2412 36.5188C42.3537 38.0863 42.1525 39.2025 41.92 39.95C41.8387 40.1825 41.7625 40.3925 41.6975 40.5588C41.615 40.75 41.54 40.8975 41.4887 40.9963L41.48 41.0125C41.478 41.019 41.4755 41.0252 41.4725 41.0313C41.401 41.1704 41.3769 41.3292 41.404 41.4833C41.4311 41.6375 41.5078 41.7785 41.6225 41.885L41.635 41.8963C42.1957 42.413 42.6612 43.0244 43.01 43.7025C42.7125 47.28 41.875 49 40.7825 49.395C39.4075 49.8888 37.67 49.1213 36.385 48.3275C36.3065 47.8088 36.2893 47.2827 36.3337 46.76C36.3512 46.51 36.3712 46.2925 36.3912 46.1138C36.4212 45.9075 36.455 45.7463 36.48 45.6363V45.6188C36.48 45.6125 36.48 45.605 36.48 45.5988C36.5132 45.446 36.4953 45.2867 36.4291 45.1451C36.363 45.0035 36.2522 44.8875 36.1137 44.815L36.0987 44.8075C35.6475 44.5738 34.2737 43.8625 32.9087 41.5575C32.8284 41.4199 32.699 41.3176 32.5465 41.2713C32.394 41.2249 32.2296 41.2379 32.0862 41.3075C32.0061 41.3462 31.9347 41.4008 31.8764 41.4681C31.8182 41.5354 31.7743 41.6139 31.7475 41.6988L37.855 59.4088C37.8892 59.5085 37.9461 59.5991 38.0211 59.6732C38.0961 59.7474 38.1873 59.8032 38.2875 59.8363C39.5175 60.2388 44.1087 61.605 50 61.605ZM41.2612 55.48C41.5547 55.48 41.8416 55.567 42.0856 55.7301C42.3296 55.8931 42.5198 56.1248 42.6321 56.3959C42.7444 56.6671 42.7737 56.9654 42.7165 57.2532C42.6592 57.541 42.5179 57.8054 42.3104 58.0129C42.1029 58.2204 41.8385 58.3617 41.5507 58.419C41.2629 58.4762 40.9646 58.4469 40.6934 58.3346C40.4223 58.2223 40.1906 58.0321 40.0276 57.7881C39.8645 57.5441 39.7775 57.2572 39.7775 56.9638C39.7768 56.7684 39.8147 56.5749 39.889 56.3942C39.9632 56.2136 40.0724 56.0493 40.2102 55.9109C40.3481 55.7725 40.5118 55.6626 40.6922 55.5876C40.8725 55.5126 41.0659 55.4739 41.2612 55.4738V55.48ZM58.7387 55.48C59.0323 55.481 59.3189 55.569 59.5624 55.7329C59.8058 55.8968 59.9952 56.1293 60.1066 56.4009C60.2179 56.6724 60.2462 56.9709 60.1879 57.2586C60.1296 57.5462 59.9872 57.8101 59.7789 58.0169C59.5706 58.2236 59.3056 58.364 59.0175 58.4201C58.7294 58.4762 58.4312 58.4457 58.1605 58.3323C57.8897 58.2189 57.6587 58.0277 57.4967 57.783C57.3346 57.5383 57.2488 57.251 57.25 56.9575C57.2502 56.7623 57.2888 56.569 57.3638 56.3887C57.4387 56.2085 57.5484 56.0447 57.6867 55.9069C57.825 55.7691 57.9891 55.6599 58.1696 55.5856C58.3501 55.5113 58.5435 55.4733 58.7387 55.4738V55.48ZM47.0862 56.1688C47.3798 56.1685 47.6668 56.2553 47.9109 56.4182C48.1551 56.5811 48.3455 56.8127 48.4579 57.0838C48.5704 57.3549 48.6 57.6533 48.5429 57.9412C48.4858 58.2291 48.3446 58.4936 48.1371 58.7012C47.9297 58.9089 47.6653 59.0503 47.3774 59.1076C47.0896 59.165 46.7912 59.1357 46.52 59.0234C46.2488 58.9112 46.017 58.721 45.8539 58.477C45.6908 58.2329 45.6037 57.946 45.6037 57.6525C45.6033 57.4573 45.6412 57.264 45.7154 57.0835C45.7897 56.9029 45.8987 56.7388 46.0364 56.6005C46.1741 56.4621 46.3376 56.3522 46.5178 56.2771C46.6979 56.2019 46.8911 56.163 47.0862 56.1625V56.1688ZM52.9125 56.1688C53.206 56.1688 53.4928 56.2558 53.7368 56.4188C53.9808 56.5818 54.171 56.8136 54.2833 57.0847C54.3956 57.3558 54.425 57.6542 54.3677 57.942C54.3105 58.2298 54.1692 58.4942 53.9617 58.7017C53.7542 58.9092 53.4898 59.0505 53.202 59.1077C52.9141 59.165 52.6158 59.1356 52.3447 59.0233C52.0736 58.911 51.8418 58.7208 51.6788 58.4768C51.5158 58.2328 51.4287 57.946 51.4287 57.6525C51.4281 57.4572 51.466 57.2636 51.5402 57.083C51.6145 56.9023 51.7237 56.7381 51.8615 56.5997C51.9993 56.4612 52.1631 56.3514 52.3434 56.2764C52.5238 56.2014 52.7172 56.1627 52.9125 56.1625V56.1688Z" fill="white"/>
<path d="M25.875 29.0513C25.9188 29.735 25.665 30.5725 25.055 31.28C24.155 32.325 22.6188 32.3275 21.4425 31.3138C20.2325 30.2713 20.0513 28.7175 20.9738 27.645C21.4285 27.1257 22.0196 26.7442 22.68 26.5438L22.69 26.5175L21.665 25.6338C21.1715 25.936 20.73 26.3158 20.3575 26.7588C18.8575 28.5088 18.7625 30.9038 20.6075 32.4925C22.1888 33.855 24.3575 33.7863 25.8038 32.1088C26.3468 31.5082 26.7223 30.7754 26.8925 29.9838L25.9013 29.035L25.875 29.0513Z" fill="white"/>
<path d="M31.545 23.5274L29.47 21.0562C28.8875 20.3599 28.595 19.8649 28.345 19.2212L26.8638 20.4599C27.4538 20.8174 27.8888 21.1987 28.4713 21.8949L29.135 22.6887L26.8625 24.5887L26.1988 23.7962C25.6163 23.0999 25.3175 22.6037 25.0738 21.9599L23.5925 23.1987C24.1825 23.5574 24.6175 23.9387 25.2 24.6349L27.2325 27.0637C27.815 27.7599 28.1138 28.2549 28.3575 28.8999L29.79 27.6087C29.2 27.2499 28.765 26.8687 28.1825 26.1724L27.5575 25.4224L29.8313 23.5224L30.4675 24.2862C31.05 24.9824 31.3425 25.4787 31.5925 26.1224L33.1538 24.9687C32.5625 24.6049 32.125 24.2237 31.545 23.5274Z" fill="white"/>
<path d="M44.95 17C45.7288 16.4075 46.0863 15.68 45.9275 14.8037C45.72 13.6525 44.58 12.8525 42.6513 13.2L40.8563 13.5237C41.195 14.1275 41.3863 14.6737 41.5475 15.5675L42.1088 18.6837C42.27 19.5762 42.2825 20.155 42.175 20.8387L44.095 20.395C43.7563 19.7912 43.565 19.2462 43.4038 18.3525L43.195 17.1875C44.0113 18.0362 44.7388 18.745 45.4025 19.3125C45.8813 19.715 46.2925 19.9537 46.5688 20.005L47.81 19.88L47.8038 19.8437C46.6163 18.7737 45.775 17.99 44.95 17ZM43.1713 17.0537L42.625 14.0212C43.58 13.8487 44.4425 14.2837 44.6063 15.1937C44.7313 15.8825 44.2738 16.5725 43.1713 17.0487V17.0537Z" fill="white"/>
<path d="M50.9763 18.9262L51.1475 14.625C51.1838 13.7187 51.2975 13.1512 51.55 12.5075L49.5825 12.4287C49.7838 13.0912 49.8513 13.665 49.815 14.5725L49.69 17.6975C49.6538 18.6037 49.5413 19.1712 49.2875 19.8225L53.1288 19.9562L53.8575 18.3675L53.84 18.3487C53.2038 18.6337 51.9038 18.8912 50.9763 18.9262Z" fill="white"/>
<path d="M60.5112 13.875C58.375 13.25 56.2375 14.4262 55.6462 16.4562C55.1025 18.3212 56.0275 20.5013 58.345 21.1763C60.5062 21.8013 62.6425 20.7363 63.2775 18.5575C63.9125 16.3788 62.5937 14.4875 60.5112 13.875ZM61.7762 18.5C61.3875 19.8337 60.1925 20.6575 58.8937 20.2787C57.325 19.8225 56.7 18.1075 57.1512 16.5562C57.58 15.0837 58.8325 14.4562 59.9825 14.7912C61.4637 15.2162 62.2375 16.9075 61.7762 18.5Z" fill="white"/>
<path d="M69.9863 19.8925L71.25 18.9337L66.2 16.0525L65.0413 17.1687L65.0488 17.1937C65.876 17.2229 66.6831 17.457 67.3975 17.875L65.3125 21.535C64.8625 22.3237 64.5088 22.785 63.98 23.23L65.6913 24.205C65.8163 23.5262 66.0225 22.9837 66.4713 22.195L68.5563 18.535C69.2625 18.9475 69.6825 19.3637 69.9863 19.8925Z" fill="white"/>
<path d="M75.9088 24.8175L77.3512 24.1462L73.0175 20.2712L71.65 21.1175V21.1437C72.4528 21.346 73.1926 21.7451 73.8025 22.305L71 25.425C70.395 26.1012 69.9525 26.4712 69.34 26.8L70.8075 28.1137C71.075 27.4762 71.3888 26.9887 71.9938 26.3137L74.8025 23.1887C75.4 23.74 75.7225 24.2362 75.9088 24.8175Z" fill="white"/>
<path d="M39.5363 19.9612L36.375 17.0312C35.8871 16.6016 35.4325 16.1357 35.015 15.6375L33.9713 16.115C34.0657 16.7634 34.1075 17.4185 34.0963 18.0737V22.4487C34.0963 23.3762 34.0288 23.9075 33.8863 24.4312L33.8975 24.4562L35.715 23.4137C35.6706 23.3444 35.6309 23.2721 35.5963 23.1975C35.4788 22.9387 35.42 22.6037 35.3988 22.0812L38.3888 20.715C38.785 21.1 38.9838 21.34 39.1025 21.6037C39.1385 21.6783 39.1646 21.7573 39.18 21.8387L41.135 21.1187L41.1238 21.0937C40.5376 20.8033 40.0016 20.421 39.5363 19.9612ZM37.5513 19.9062L35.375 20.9L35.3213 17.7837L37.5513 19.9062Z" fill="white"/>
<path d="M78.7025 25.7675C78.3175 26.3412 77.9162 26.7587 77.1925 27.305L74.7063 29.1862C73.9813 29.7337 73.4712 30.005 72.8125 30.2187L75.8275 34.3062L77.4525 33.8825V33.8562C76.6075 33.37 75.8275 32.6587 74.9863 31.5112L74.5775 30.95L76.4025 29.575L76.8213 30.1287C77.29 30.795 77.6537 31.4562 77.755 31.8925L79.23 31.7212L77.1675 29L78.955 27.6462L79.3838 28.1962C79.8819 28.8481 80.2063 29.6158 80.3262 30.4275L81.8375 30.0937L78.7025 25.7675Z" fill="white"/>
<path d="M22.2763 68.8237L23.6713 67.8625C23.9788 68.3075 24.2238 68.8337 24.2563 69.1875L25.285 69.0625L23.5413 66.5325C23.2357 66.9461 22.857 67.3003 22.4238 67.5775L20.5725 68.8525C20.1595 69.1596 19.6933 69.388 19.1975 69.5262L19.99 70.6775C20.296 70.2638 20.6752 69.9096 21.1088 69.6325L21.7188 69.2125C22.0475 69.69 22.2188 70.0587 22.2463 70.3975L23.2588 70.255L22.2763 68.8237Z" fill="white"/>
<path d="M27.7163 71.6837C26.615 70.5525 24.8838 70.53 23.8088 71.5775C22.8213 72.54 22.63 74.21 23.8263 75.4375C24.9413 76.5825 26.635 76.6675 27.7888 75.545C28.9425 74.4225 28.7913 72.7875 27.7163 71.6837ZM26.885 74.9762C26.1788 75.665 25.1525 75.7562 24.4825 75.0675C23.6738 74.2375 23.8863 72.96 24.7075 72.16C25.4875 71.3987 26.48 71.4487 27.0738 72.0587C27.8375 72.8425 27.725 74.1587 26.885 74.9762Z" fill="white"/>
<path d="M32.7188 75.8588C31.4075 74.9838 29.71 75.315 28.8738 76.5625C28.1075 77.7075 28.265 79.3788 29.6888 80.3338C31.015 81.2225 32.6888 80.9588 33.5863 79.6188C34.4838 78.2788 34 76.715 32.7188 75.8588ZM32.585 79.25C32.0363 80.0688 31.0513 80.375 30.2538 79.8363C29.2913 79.1913 29.235 77.8975 29.8788 76.945C30.485 76.0413 31.4663 75.8838 32.1725 76.3575C33.0763 76.9675 33.2375 78.2775 32.585 79.25Z" fill="white"/>
<path d="M35.9113 77.875L35.18 78.75L35.1862 78.7663C35.7726 78.7229 36.3605 78.8255 36.8975 79.065L35.6813 81.875C35.4968 82.3556 35.2228 82.7967 34.8737 83.175L36.1562 83.7312C36.1961 83.2175 36.33 82.7154 36.5513 82.25L37.7675 79.4413C38.2097 79.6157 38.5952 79.909 38.8812 80.2887L39.7025 79.5125L35.9113 77.875Z" fill="white"/>
<path d="M52.7912 85.6337L52.5412 82.5912C52.4809 82.0803 52.5144 81.5626 52.64 81.0637L51.2475 81.18C51.454 81.6512 51.5726 82.1561 51.5975 82.67L51.785 84.9112C51.8453 85.4221 51.8119 85.9398 51.6862 86.4387L54.3887 86.2125L54.7775 84.9837L54.7637 84.9725C54.3362 85.2337 53.4425 85.5287 52.7912 85.6337Z" fill="white"/>
<path d="M57.7037 84.9075L57.0287 81.9287C56.8979 81.4312 56.8589 80.914 56.9137 80.4025L55.5512 80.7112C55.8207 81.1491 56.0084 81.6324 56.105 82.1375L56.605 84.3312C56.7356 84.8288 56.7741 85.346 56.7187 85.8575L59.3637 85.2575L59.5787 83.9875L59.5625 83.9775C59.1762 84.2962 58.3325 84.7112 57.7037 84.9075Z" fill="white"/>
<path d="M67.4075 80.5949C67.1838 81.1439 66.7597 81.5872 66.2212 81.8349C65.325 82.2749 64.3075 81.8537 63.8237 80.8649C63.3237 79.8462 63.6525 78.7737 64.5737 78.3237C65.0228 78.1073 65.5227 78.0187 66.0187 78.0674L66.0337 78.0524L65.6112 77.1899C65.1968 77.2535 64.7951 77.3826 64.4212 77.5724C62.9212 78.3062 62.1712 79.8599 62.9287 81.4099C63.58 82.7412 65.0337 83.2924 66.475 82.5862C67.0072 82.3417 67.4672 81.9636 67.81 81.4887L67.4275 80.5924L67.4075 80.5949Z" fill="white"/>
<path d="M71.8012 77.7338C71.5687 78.175 70.9487 78.8825 70.4425 79.3038L68.6775 76.8125C68.3659 76.4031 68.132 75.9401 67.9875 75.4463L66.8463 76.25C67.264 76.5503 67.6229 76.9249 67.905 77.355L69.205 79.1888C69.5161 79.5985 69.7499 80.0615 69.895 80.555L72.1087 78.9875L71.8187 77.7375L71.8012 77.7338Z" fill="white"/>
<path d="M74.1887 72.0562C73.8176 71.7003 73.5151 71.2791 73.2962 70.8137L72.2962 71.7875C72.7552 72.0198 73.1675 72.3347 73.5125 72.7162L74.8087 74.0512C74.9156 74.1572 75 74.2836 75.0568 74.423C75.1136 74.5623 75.1417 74.7117 75.1393 74.8622C75.137 75.0126 75.1043 75.1611 75.0432 75.2986C74.9821 75.4361 74.8938 75.5599 74.7837 75.6625C74.355 76.08 73.7837 76.075 73.18 75.4525L71.9737 74.2025C71.6026 73.8465 71.3001 73.4253 71.0812 72.96L70.0812 73.9337C70.5402 74.1661 70.9525 74.4809 71.2975 74.8625L72.495 76.095C73.45 77.08 74.3587 77.1937 75.0975 76.4762C75.44 76.1437 75.67 75.66 75.7937 75.0025C75.9233 75.123 76.036 75.2605 76.1287 75.4112L76.975 74.5912C76.516 74.3588 76.1038 74.044 75.7587 73.6625L74.1887 72.0562Z" fill="white"/>
<path d="M42.625 80.315L40.8512 79.8325C40.8851 80.3459 40.8241 80.8612 40.6712 81.3525L40.0812 83.5238C39.9629 84.0249 39.7541 84.5002 39.465 84.9263L41.25 85.4125C42.2762 85.6913 43.2937 85.34 43.53 84.4763C43.68 83.9225 43.4825 83.4675 42.9762 82.9488C43.4512 82.7975 43.8 82.4988 43.9137 82.0825C44.125 81.3238 43.625 80.5863 42.625 80.315ZM42.5837 84.2238C42.4475 84.7238 41.8775 85.0275 41.1312 84.825L40.7375 84.7175L41.2762 82.75C42.39 83.0563 42.7375 83.6738 42.5875 84.2238H42.5837ZM42.98 81.875C42.865 82.2975 42.23 82.5 41.4075 82.2763L41.8487 80.6513L42.2412 80.7588C42.77 80.9013 43.1087 81.4 42.98 81.875Z" fill="white"/>
<path d="M79.6475 68.75C79.1887 68.405 78.6937 68.42 78.0225 68.7C78.0575 68.2 77.9075 67.7675 77.5625 67.5075C76.9375 67.0362 76.0625 67.2287 75.4437 68.0537L74.34 69.5237C74.8308 69.6809 75.2884 69.9271 75.69 70.25L77.4875 71.6C77.91 71.8943 78.2748 72.2638 78.5638 72.69L79.6762 71.21C80.3137 70.3587 80.3637 69.2837 79.6475 68.75ZM75.47 68.9025L75.72 68.5762C76.0488 68.1387 76.6375 68.0087 77.0287 68.3025C77.3775 68.565 77.3325 69.23 76.8187 69.9125L75.47 68.9025ZM79.085 71.1087L78.835 71.4337L77.21 70.2112C77.9037 69.2875 78.605 69.1937 79.0612 69.5362C79.4787 69.8437 79.55 70.4862 79.085 71.105V71.1087Z" fill="white"/>
<path d="M48.415 82.445C48.2565 82.0101 48.1312 81.5638 48.04 81.11L47.2113 81.0463C47.0435 81.4819 46.8398 81.903 46.6025 82.305L45.125 84.9388C44.9069 85.3629 44.6286 85.7532 44.2988 86.0975V86.1163L45.7375 86.2275C45.7338 86.1692 45.7338 86.1108 45.7375 86.0525C45.755 85.8275 45.8525 85.57 46.0638 85.1775L46.0925 85.1238L48.36 85.2975L48.3725 85.3363C48.5238 85.8013 48.5763 86.0513 48.5588 86.275C48.5554 86.3337 48.5445 86.3917 48.5263 86.4475L49.985 86.56V86.5413C49.7142 86.1603 49.5066 85.7383 49.37 85.2913L48.415 82.445ZM46.4875 84.375L47.4638 82.5425H47.5025L48.115 84.495L46.4875 84.375Z" fill="white"/>
<path d="M82 39.235C82.1651 39.1833 82.344 39.1991 82.4975 39.279C82.6509 39.3589 82.7665 39.4963 82.8187 39.6613C82.8458 39.743 82.8561 39.8293 82.8492 39.915C82.8423 40.0008 82.8183 40.0843 82.7786 40.1607C82.7388 40.237 82.6842 40.3046 82.6179 40.3594C82.5516 40.4143 82.4749 40.4553 82.3925 40.48C82.3117 40.5072 82.2263 40.5175 82.1414 40.5104C82.0565 40.5033 81.9739 40.4789 81.8988 40.4388C81.8213 40.4 81.7526 40.3458 81.6967 40.2797C81.6408 40.2135 81.599 40.1366 81.5738 40.0538C81.524 39.8887 81.5408 39.7107 81.6204 39.5577C81.7 39.4048 81.8362 39.289 82 39.235Z" fill="#0085CA"/>
<path d="M81.875 42.3162L83.3563 43.46C83.665 43.7012 83.8288 43.7562 84.0375 43.71C84.27 43.6637 84.3963 43.46 84.34 43.1725C84.29 42.9225 84.1 42.7587 83.8688 42.805C83.7968 42.8207 83.7287 42.8509 83.6688 42.8937L83.365 42.1025C83.4745 42.0309 83.5967 41.9808 83.725 41.955C83.8629 41.9286 84.005 41.9337 84.1407 41.9698C84.2764 42.006 84.4022 42.0722 84.5088 42.1637C84.7709 42.3871 84.9433 42.698 84.9938 43.0387C85.1513 43.8375 84.8575 44.3887 84.2838 44.5025C83.8663 44.5862 83.5338 44.4575 83.05 44.0912L82.265 43.5L82.5338 44.8612L81.8613 44.995L81.3525 42.4225L81.875 42.3162Z" fill="#0085CA"/>
<path d="M84 49.5825C83.7671 49.6049 83.5321 49.5798 83.3091 49.5089C83.0861 49.4381 82.8798 49.3228 82.7025 49.17C82.3754 48.8467 82.1806 48.413 82.1561 47.9537C82.1316 47.4945 82.2792 47.0426 82.57 46.6863C82.8725 46.3513 83.2888 46.1688 83.82 46.1413C84.3513 46.1138 84.7875 46.2513 85.1225 46.5538C85.4486 46.8783 85.6421 47.3126 85.6652 47.7721C85.6883 48.2316 85.5394 48.6832 85.2475 49.0388C85.0868 49.2086 84.8935 49.3443 84.6792 49.4377C84.4648 49.5312 84.2338 49.5804 84 49.5825ZM82.875 47.915C82.8764 48.0341 82.9052 48.1514 82.9592 48.2576C83.0132 48.3638 83.0909 48.4561 83.1863 48.5275C83.4097 48.682 83.6811 48.7511 83.9513 48.7225C84.2258 48.7232 84.4917 48.6262 84.7013 48.4488C84.7873 48.3673 84.8538 48.2674 84.8958 48.1565C84.9378 48.0457 84.9542 47.9268 84.9438 47.8088C84.9428 47.6908 84.9146 47.5746 84.8615 47.4693C84.8084 47.3639 84.7318 47.2722 84.6375 47.2013C84.4155 47.0454 84.1451 46.974 83.875 47C83.6026 46.9996 83.3395 47.0988 83.135 47.2788C83.046 47.3576 82.9768 47.4563 82.9329 47.5668C82.8891 47.6773 82.8718 47.7966 82.8825 47.915H82.875Z" fill="#0085CA"/>
<path d="M82.75 51.0712L83.875 52.5637C84.11 52.88 84.25 52.975 84.465 52.99C84.7013 53.0062 84.8775 52.8437 84.8975 52.5525C84.9163 52.3025 84.7725 52.09 84.54 52.0737C84.4664 52.0691 84.3927 52.0801 84.3238 52.1062L84.25 51.2625C84.3742 51.2225 84.5049 51.2068 84.635 51.2162C84.7751 51.2269 84.911 51.269 85.0326 51.3393C85.1542 51.4096 85.2584 51.5064 85.3375 51.6225C85.5321 51.9084 85.6161 52.2554 85.5738 52.5987C85.5163 53.4112 85.0875 53.865 84.505 53.8237C84.0813 53.7937 83.7913 53.58 83.4225 53.1012L82.825 52.3125L82.7275 53.6962L82.0438 53.6475L82.2275 51.0325L82.75 51.0712Z" fill="#0085CA"/>
<path d="M82.3425 55.2987L83.2725 56.9237C83.4637 57.2662 83.5937 57.3787 83.8025 57.4237C84.0337 57.47 84.23 57.3312 84.2875 57.0487C84.3375 56.7987 84.225 56.575 83.9937 56.5275C83.9217 56.512 83.8471 56.512 83.775 56.5275L83.7987 55.68C83.9272 55.6556 84.0591 55.6556 84.1875 55.68C84.3255 55.7096 84.455 55.7699 84.5665 55.8565C84.6779 55.943 84.7684 56.0536 84.8312 56.18C84.9873 56.4892 85.0259 56.8445 84.94 57.18C84.78 57.9787 84.2962 58.3737 83.7237 58.2575C83.3075 58.1737 83.0475 57.925 82.7437 57.4025L82.25 56.5387L81.9762 57.8987L81.3037 57.7637L81.8212 55.1937L82.3425 55.2987Z" fill="#0085CA"/>
<path d="M82.35 59.6825C82.5145 59.7355 82.6514 59.8516 82.7305 60.0052C82.8097 60.1589 82.8248 60.3377 82.7725 60.5025C82.7474 60.5849 82.706 60.6614 82.6509 60.7275C82.5957 60.7936 82.5278 60.8479 82.4512 60.8873C82.3746 60.9267 82.2909 60.9504 82.205 60.9568C82.1192 60.9633 82.0329 60.9525 81.9513 60.925C81.7868 60.872 81.65 60.7558 81.571 60.6021C81.4921 60.4484 81.4773 60.2696 81.53 60.105C81.5547 60.0233 81.5963 59.9477 81.6521 59.8831C81.7079 59.8185 81.7766 59.7664 81.8538 59.73C81.9286 59.6879 82.0114 59.662 82.0969 59.6538C82.1823 59.6456 82.2685 59.6554 82.35 59.6825Z" fill="#0085CA"/>
<path d="M19.3863 60.2238L16.125 61.11L15.9038 60.2938L18.0288 58.6813L15.375 58.3638L15.1525 57.5475L18.4175 56.6613L18.6175 57.3975L16.8313 57.8825L17.3638 57.9088L18.8088 58.1025L18.9938 58.7838L17.845 59.6813L17.3988 59.9725L19.185 59.4875L19.3863 60.2238Z" fill="#0085CA"/>
<path d="M18.25 55.4775L14.9088 56.0112L14.7838 55.2375L18.125 54.7037L18.25 55.4775Z" fill="#0085CA"/>
<path d="M17.935 53.4924L14.56 53.7037L14.5112 52.9224L16.35 51.5674C16.4299 51.5089 16.5134 51.4554 16.6 51.4074L14.42 51.5424L14.3725 50.7812L17.7475 50.5699L17.7962 51.3512L15.95 52.7062C15.8677 52.7654 15.7817 52.8193 15.6925 52.8674L17.8875 52.7312L17.935 53.4924Z" fill="#0085CA"/>
<path d="M15.0625 49.5001L14.3775 49.4626L14.5263 46.6851L15.2113 46.7213L15.1575 47.7213L17.8488 47.8651L17.8075 48.6463L15.1163 48.5001L15.0625 49.5001Z" fill="#0085CA"/>
<path d="M18.0125 45.9425L14.675 45.3912L15.0775 42.955L15.7537 43.0662L15.48 44.73L16.085 44.83L16.335 43.3L16.9925 43.4087L16.7425 44.9387L17.4625 45.0575L17.74 43.375L18.4175 43.4875L18.0125 45.9425Z" fill="#0085CA"/>
<path d="M18.6337 42.4837L15.3837 41.55L15.685 40.5C15.84 39.9575 16.105 39.56 16.475 39.305C16.845 39.05 17.3012 39.0037 17.83 39.155C18.3587 39.3062 18.7162 39.59 18.895 39.9987C19.0737 40.4075 19.0925 40.89 18.9362 41.4337L18.6337 42.4837ZM18.2762 41.1687C18.4537 40.5512 18.2125 40.08 17.6125 39.9075C17.0125 39.735 16.5587 40.0075 16.3812 40.625L16.2762 40.9925L18.1712 41.5362L18.2762 41.1687Z" fill="#0085CA"/>
</svg>
