<svg width="100" height="100" viewBox="0 0 100 100" fill="none" xmlns="http://www.w3.org/2000/svg">
<path d="M50 6.875C26.2213 6.875 6.875 26.2213 6.875 50C6.875 73.7787 26.2213 93.125 50 93.125C73.7787 93.125 93.125 73.7787 93.125 50C93.125 26.2213 73.7787 6.875 50 6.875Z" fill="#141946"/>
<path d="M50 90.0175C72.1011 90.0175 90.0175 72.1011 90.0175 50C90.0175 27.899 72.1011 9.98254 50 9.98254C27.899 9.98254 9.98251 27.899 9.98251 50C9.98251 72.1011 27.899 90.0175 50 90.0175Z" fill="white"/>
<path d="M70.43 68.9613L77.18 73.8713C89.15 60.2613 89.15 39.7388 77.18 26.1288L70.43 31.0388C69.9583 30.5313 69.4688 30.0417 68.9613 29.57L73.8712 22.82C60.2612 10.85 39.7387 10.85 26.1287 22.82L31.0387 29.57C30.5312 30.0417 30.0417 30.5313 29.57 31.0388L22.82 26.1288C10.85 39.7388 10.85 60.2613 22.82 73.8713L29.57 68.9613C30.0417 69.4688 30.5312 69.9584 31.0387 70.43L26.1287 77.18C39.7387 89.15 60.2612 89.15 73.8712 77.18L68.9613 70.43C69.4688 69.9584 69.9583 69.4688 70.43 68.9613ZM50 75.52C35.9287 75.52 24.48 64.0713 24.48 50C24.48 35.9288 35.9287 24.48 50 24.48C64.0713 24.48 75.52 35.9288 75.52 50C75.52 64.0713 64.0713 75.52 50 75.52Z" fill="#7CCDEF"/>
<path d="M51.5562 47.195L50 40.7438L48.44 47.195L42.2975 45.3738L46.8862 49.9988L42.2975 54.6238L48.44 52.8075L50 59.2563L51.5562 52.8075L57.7037 54.6238L53.1112 49.9988L57.7037 45.3738L51.5562 47.195Z" fill="#FF0000"/>
<path d="M67.4713 45.3501V39.0988L60.9013 32.5288H39.0988L32.5288 39.0988V46.7938L29.3225 50.0001L32.5288 53.2063V60.9013L39.0988 67.4713H60.9013L67.4713 60.9013V54.6501H60.8413V58.8976L58.8975 60.8413H41.1025L39.1588 58.8976V41.1026L41.1025 39.1588H58.8975L60.8413 41.1026V45.3501H67.4713Z" fill="#FF0000"/>
</svg>
