<svg width="100" height="100" viewBox="0 0 100 100" fill="none" xmlns="http://www.w3.org/2000/svg">
<path fill-rule="evenodd" clip-rule="evenodd" d="M83.5738 11.8425C86.06 18.8913 91.48 37.9975 91.1888 54.9525C81.9238 70.3338 66.09 83.875 50 92.5088C33.9125 83.875 18.0775 70.3338 8.8125 54.9525C8.52125 37.9975 13.9375 18.8913 16.4263 11.8425C37.7625 5.80379 62.4113 5.80379 83.5738 11.8425Z" fill="white"/>
<path fill-rule="evenodd" clip-rule="evenodd" d="M83.5738 11.8425C86.06 18.8913 91.48 37.9975 91.1888 54.9525C81.9238 70.3338 66.09 83.875 50 92.5088C33.9125 83.875 18.0775 70.3338 8.81251 54.9525C8.52126 37.9975 13.9375 18.8913 16.4263 11.8425C37.7625 5.80376 62.4113 5.80376 83.5738 11.8425ZM15.105 10.4213C38.1913 3.92126 60.7863 3.92126 84.8938 10.4213C87.6825 17.9575 93.3038 38.1563 92.905 55.4363C83.03 72.5613 64.0463 87.2238 50 94.4563C35.9538 87.2213 16.9663 72.5588 7.09501 55.4338C6.69626 38.1538 12.3163 17.9563 15.105 10.4213Z" fill="#041E42"/>
<path d="M32.4225 48.0675L30.7463 43.1212L28.7188 44.2825V55.3L30.725 54.1512V48.7337L32.3363 53.2287L34.4012 52.0462V41.0275L32.4225 42.1612V48.0675Z" fill="#041E42"/>
<path d="M78.43 15.8088V26.8263L80.6612 25.5488V14.5312L78.43 15.8088Z" fill="#041E42"/>
<path d="M39.335 37.9299C37.71 38.8624 36.6125 40.6537 36.6175 41.7474V47.9099C36.6175 49.0349 37.6963 50.1337 39.39 49.3224C42.0988 48.0249 42.04 46.6399 42.035 45.5462V44.0112L39.815 45.2824V46.8337L38.8388 47.3924V40.5862L39.815 40.0274V42.1849L42.035 40.9237V38.6624C42.03 37.5687 40.9413 37.0099 39.335 37.9299Z" fill="#041E42"/>
<path d="M19.305 49.4025C17.68 50.3362 16.5825 52.1262 16.5875 53.22V59.3837C16.5875 60.5087 17.6662 61.6062 19.36 60.795C22.07 59.5 22.0112 58.1125 22 57.0187V55.4837L19.785 56.75V58.3025L18.81 58.8612V52.0587L19.785 51.5V53.6587L22 52.3962V50.1362C22 49.0425 20.9112 48.4825 19.305 49.4025Z" fill="#041E42"/>
<path d="M44.115 46.4875L46.3463 45.21V34.1925L44.115 35.47V46.4875Z" fill="#041E42"/>
<path d="M24.0862 57.9537L26.3175 56.6762V45.6587L24.0862 46.9362V57.9537Z" fill="#041E42"/>
<path d="M71.0163 22.1637L72.545 21.2887V30.2L74.7763 28.9225V20.01L76.305 19.135V17.0262L71.0163 20.055V22.1637Z" fill="#041E42"/>
<path d="M52.4525 36.6025L50.775 31.6562L48.7487 32.8175V43.8312L50.7537 42.6825V37.27L52.3662 41.76L54.43 40.5775V29.5625L52.4525 30.6963V36.6025Z" fill="#041E42"/>
<path d="M60.4925 31.99L58.815 27.045L56.7888 28.205V39.2188L58.795 38.0713V32.6575L60.4063 37.1475L62.4713 35.965V24.9513L60.4925 26.0838V31.99Z" fill="#041E42"/>
<path d="M65.975 22.9662L64.5363 34.7775L66.7213 33.5275L66.875 31.5675L68.15 30.81L68.375 32.5812L70.5213 31.3525L68.8288 21.3075L65.975 22.9662ZM66.9125 29.5675L67.5113 25.2875L67.9225 28.9437L66.9125 29.5675Z" fill="#041E42"/>
<path fill-rule="evenodd" clip-rule="evenodd" d="M73.2875 13.1826L12.6988 47.8838C13.5625 35.1938 16.9713 22.0088 19.2963 14.8913C37.9338 9.9688 57.05 10.1401 73.2875 13.1826ZM26.5713 20.1826V22.6401H28.0625V24.6401H26.5713V29.5001L24.0863 30.9313V18.2701H28.975V20.1876L26.5713 20.1826ZM36.2788 24.4813V27.2313C36.2788 28.3263 35.1038 29.4876 33.3075 29.4876C31.485 29.4876 30.2563 28.3263 30.2563 27.2313V20.3226C30.2563 19.2288 31.485 18.0726 33.3075 18.0726C35.1038 18.0726 36.2788 19.2338 36.2788 20.3226V21.2138L33.8213 22.6251V19.8613L32.7688 20.4651V27.7063L33.8213 27.1038V25.8938L36.2788 24.4813Z" fill="#003087"/>
<path fill-rule="evenodd" clip-rule="evenodd" d="M20.7137 64.7888L84.3325 28.3525C86.0825 36.1838 87.5337 45.3313 87.5025 53.8938C78.1012 69.0188 63.6087 80.4325 50.0025 88.2913C36.5075 80.4325 28.1775 73.25 20.7137 64.7888ZM64.9137 55.125C65.5297 54.9577 66.1037 54.663 66.5987 54.26C66.5987 54.26 66.6862 55.4038 66.1137 56.385C65.78 55.9066 65.3753 55.4817 64.9137 55.125ZM52.2762 56.125L54.21 55.0188C54.21 55.0188 53.245 54.785 52.5762 54.1063L57.75 51.1375L57.1487 50.3075H65.12L65.6125 51.1438C65.6125 51.1438 66.9337 51.4538 67.6875 52.1988L66.4637 52.3888L67.0687 53.07C66.6112 53.6388 65.4175 54.385 64.2787 54.6163C63.7348 54.2484 63.1606 53.9273 62.5625 53.6563L64.475 52.56C64.475 52.56 63.3675 51.875 60.785 51.1513C61.4848 51.5906 62.1497 52.0834 62.7737 52.625L61.11 53.5775C61.11 53.5775 64.035 54.9188 65.6387 57.8L63.7012 57.8425C63.7012 57.8425 61.4587 61.9925 57.8975 64.3425V61.99C57.8975 61.99 55.5675 61.74 54.2425 60.7213L55.5412 59.9463C55.5412 59.9463 54.06 59.715 52.725 58.3213L54.4262 57.3563C54.4262 57.3563 53.4 57.225 52.2762 56.125ZM63.2762 50.875C63.5062 51.1478 63.7955 51.3643 64.122 51.5082C64.4485 51.652 64.8035 51.7194 65.16 51.705L64.6362 50.9288L63.2762 50.875ZM43.5712 70.9088L43.7625 72.6013C42.6187 73.3575 39.6312 75.065 37.2462 73.8975C35.4562 73.0225 35.0637 70.5 36.405 68.36C37.9637 65.8775 40.4737 65.8263 41.8587 66.735C41.8587 66.735 41.5975 68.3813 39.865 69.4363L40.2337 67.9625C39.39 67.5363 38.2962 67.9213 37.6712 68.9463C36.8312 70.3213 37.0725 71.91 38.2087 72.4838C40.09 73.4363 43.5712 70.9088 43.5712 70.9088ZM73.66 63.9738C73.66 63.9738 74.8662 63.9738 74.9562 65.0263C74.35 64.745 73.9012 64.9363 73.9012 64.9363C72.9186 65.2824 71.8696 65.3987 70.835 65.2763L68.275 68.0138C68.3129 68.4313 68.3755 68.8462 68.4625 69.2563C66.6875 68.6375 65.115 67.675 64.1087 66.9763L65.0175 68.6013C65.0175 68.6013 64.3212 70.3813 60.5787 72.77L60.4287 71.1613C60.4287 71.1613 56.6875 68.815 54.4175 69.2788C52.2725 73.19 48.47 72.7 48.47 72.7L47.4175 76.4588C47.4175 76.4588 50.965 76.94 50.2625 79.7888L49.29 79.2088C49.29 79.2088 49.3812 79.9588 48.7325 80.315L47.9425 79.2238C48.2437 80.1263 46.7737 80.495 46.7737 80.495C46.7737 80.495 46.7 79.5138 46.3987 79.12L45.2587 77.7113L44.1875 68.8288L45.5362 69.3963C48.7612 66.715 50.0125 63.3138 50.0125 63.3138C50.0125 63.3138 54.6025 65.6425 57.8725 65.2775C58.56 65.18 62.15 62.6713 64.235 58.6525L65.8775 58.6163C65.8775 58.6163 67.1587 60.555 67.515 62.815L66.3412 62.595C66.6313 63.2159 66.8546 63.8658 67.0075 64.5338L70.045 62.7713C71.8575 61.7075 74.45 61.5038 74.8312 62.5813C74.8312 62.5813 73.9837 62.515 73.7787 62.9013C73.7787 62.9013 74.9325 62.8175 75.045 63.7763C75.0462 63.7788 74.0687 63.5 73.66 63.9738ZM57.21 78.2325L56.475 77.6925C56.6212 78.265 56.1537 78.63 56.1537 78.63C55.9599 78.319 55.7182 78.0406 55.4375 77.805C55.4587 78.3538 54.6562 78.805 54.6562 78.805C54.5806 78.4612 54.412 78.1446 54.1687 77.89L53.155 76.9225L50.3625 73.185C53.4037 73.0088 55.0087 70.0225 55.0087 70.0225C58.9725 73.7913 54.05 74.6475 54.05 74.6475L54.3537 75.9888C54.3537 75.9888 57.6875 75.7375 57.21 78.2325ZM66.8212 58.35C67.3625 59.08 68.0375 60.7388 68.4175 62.5338L69.875 60.2588L70.3575 61.3625C71.3125 59.6125 72.215 57.995 72.6912 57.1438C72.8917 57.2444 73.111 57.3018 73.335 57.3125V57.9375C73.2666 58.0954 73.2313 58.2655 73.2312 58.4375C73.3768 58.6591 73.5753 58.8408 73.8087 58.9663C74.0422 58.8408 74.2407 58.6591 74.3862 58.4375C74.3849 58.2654 74.3488 58.0953 74.28 57.9375V57.3125C74.465 57.2825 74.6675 57.2213 74.89 57.1613C75.185 56.4275 75.055 55.3438 75.055 55.3438C75.2428 55.1233 75.3862 54.8687 75.4775 54.5938C75.2275 54.3238 74.8075 54.1475 74.2775 54.0663V54L75.6387 53.1713V52.2625L74.78 52.785L74.7737 41.5225L73.7975 40.4813L72.8212 41.4638L72.8287 52.79L71.89 52.2175V53.1713L73.2762 53.9413V54.0175C72.7762 54.0175 72.3562 54.1063 72.08 54.3163C72.1137 54.62 72.2172 54.9118 72.3825 55.1688L66.8212 58.35ZM47.8612 60.7013L43.8612 62.9588C44.7487 63.5763 47.4862 63.1525 49.4775 62.0713C49.4775 62.0713 53.8075 64.4263 57.045 64.4463L57.035 62.6588C51.0587 61.2388 49.31 57.0338 48.1687 54.0638L36.23 60.8888C37.7725 62.1388 42.3475 59.8575 45.98 57.8813C46.0612 58.0425 46.1537 58.2213 46.2587 58.41L39.9387 62.035C41.5125 63.2525 44.705 61.51 47.4637 60.2425C47.5837 60.395 47.7237 60.55 47.8612 60.7013ZM64.6525 47.9825C64.4684 47.702 64.217 47.4721 63.9212 47.3138C63.626 47.473 63.3751 47.7033 63.1912 47.9838C63.1997 48.2425 63.2443 48.4987 63.3237 48.745H62.4875C62.5996 48.3759 62.6614 47.9932 62.6712 47.6075C62.3707 47.1501 61.9603 46.7753 61.4775 46.5175C60.9955 46.7767 60.586 47.1522 60.2862 47.61C60.2959 47.996 60.3585 48.3787 60.4725 48.7475H59.6375C59.7176 48.5014 59.7623 48.2451 59.77 47.9863C59.5854 47.7061 59.3335 47.4767 59.0375 47.3188C58.742 47.4776 58.491 47.7079 58.3075 47.9888C58.316 48.2476 58.361 48.5038 58.4412 48.75V49.6838L64.5212 49.6763V48.75C64.6013 48.5017 64.6455 48.2433 64.6525 47.9825Z" fill="#FE5000"/>
</svg>
