<svg width="100" height="100" viewBox="0 0 100 100" fill="none" xmlns="http://www.w3.org/2000/svg">
<path d="M65.7912 20.8937L50 8.47998L34.2087 20.8937L50 10.1725L65.7912 20.8937Z" fill="white"/>
<path d="M41.5088 79.8712L50 90.0637L58.49 79.8712L50 87.7837L41.5088 79.8712Z" fill="white"/>
<path d="M57.9325 53.3375L50 45.1687L42.0675 53.3375L40.625 52.0587L33.5825 59.3262C33.9158 59.8895 34.2575 60.442 34.6075 60.9837L41.28 53.0937L42.625 54.4612L50 45.7262L57.375 54.4612L58.7237 53.0937L65.395 60.9837C65.7425 60.4412 66.0825 59.8899 66.42 59.3262L59.375 52.0587L57.9325 53.3375Z" fill="white"/>
<path d="M50 63.75C51.3114 63.7495 52.5744 63.2544 53.5368 62.3634C54.4991 61.4724 55.0899 60.2513 55.1912 58.9437L54.8775 58.7687L55.1137 57.58C54.9584 56.7408 54.5993 55.9526 54.0679 55.2848C53.5365 54.6169 52.8491 54.0899 52.0662 53.75L50 55.25L47.935 53.75C47.1518 54.0898 46.4643 54.617 45.9328 55.2851C45.4014 55.9532 45.0424 56.7417 44.8875 57.5812L45.1237 58.7675L44.81 58.9425C44.911 60.25 45.5015 61.4713 46.4636 62.3625C47.4257 63.2537 48.6886 63.7492 50 63.75ZM50 58.1875L52.0675 59.6875L51.2775 62.1188H48.7225L47.9337 59.6875L50 58.1875Z" fill="white"/>
<path d="M35.4562 38.3749L37.0262 37.9149C37.8662 37.6649 38.5525 36.7824 38.5525 35.9437V28.6837C38.5525 27.8412 37.8662 27.3574 37.0262 27.6012L35.4562 28.0612C34.6175 28.3112 33.9312 29.1962 33.9312 30.0349V37.2999C33.9312 38.1387 34.6175 38.6249 35.4562 38.3749ZM35.3087 29.8449C35.3182 29.7039 35.3696 29.569 35.4565 29.4576C35.5435 29.3462 35.6618 29.2634 35.7962 29.2199L36.6862 28.9587C36.7415 28.9358 36.8017 28.9272 36.8612 28.9339C36.9206 28.9406 36.9774 28.9622 37.0263 28.9968C37.0751 29.0314 37.1144 29.0778 37.1404 29.1317C37.1664 29.1856 37.1783 29.2452 37.175 29.3049V36.1337C37.1666 36.2763 37.1155 36.4132 37.0283 36.5264C36.9412 36.6397 36.822 36.7241 36.6862 36.7687L35.7962 37.0262C35.7412 37.0491 35.6813 37.0577 35.6221 37.0511C35.5629 37.0446 35.5063 37.0232 35.4576 36.9888C35.4089 36.9545 35.3698 36.9084 35.3437 36.8548C35.3177 36.8012 35.3056 36.7419 35.3087 36.6824V29.8449Z" fill="white"/>
<path d="M48.5662 34.625V27.3575C48.5684 27.1617 48.5295 26.9675 48.452 26.7876C48.3746 26.6077 48.2602 26.4461 48.1164 26.3131C47.9726 26.1801 47.8025 26.0788 47.6171 26.0156C47.4317 25.9524 47.2351 25.9288 47.04 25.9463L45.4712 26.0713C45.0595 26.1079 44.6758 26.2956 44.394 26.5981C44.1122 26.9006 43.9523 27.2967 43.945 27.71V34.975C43.9424 35.171 43.9811 35.3653 44.0584 35.5454C44.1358 35.7255 44.2501 35.8873 44.394 36.0203C44.5379 36.1534 44.7082 36.2547 44.8937 36.3178C45.0793 36.3808 45.2761 36.4041 45.4712 36.3863L47.04 36.2675C47.4518 36.2292 47.8351 36.0405 48.1166 35.7376C48.3981 35.4346 48.5582 35.0385 48.5662 34.625ZM45.8162 35.105C45.7538 35.1108 45.6909 35.1034 45.6316 35.0833C45.5722 35.0631 45.5178 35.0307 45.4718 34.9882C45.4258 34.9456 45.3893 34.8938 45.3647 34.8362C45.34 34.7786 45.3278 34.7164 45.3287 34.6538V27.82C45.3318 27.688 45.3831 27.5618 45.4729 27.465C45.5627 27.3683 45.6849 27.3078 45.8162 27.295L46.7062 27.2275C46.7686 27.2217 46.8315 27.2291 46.8908 27.2492C46.9501 27.2692 47.0046 27.3015 47.0506 27.3439C47.0967 27.3863 47.1333 27.4379 47.1582 27.4954C47.1831 27.5529 47.1956 27.6149 47.195 27.6775V34.51C47.193 34.6424 47.1419 34.7693 47.0515 34.8661C46.9612 34.9629 46.8382 35.0226 46.7062 35.0338L45.8162 35.105Z" fill="white"/>
<path d="M69.95 30.1101L68.3812 29.4401C67.5412 29.0776 66.855 29.4713 66.855 30.3151V37.5751C66.855 38.4138 67.5412 39.3963 68.3812 39.7551L69.95 40.4251C70.7887 40.7838 71.4762 40.3888 71.4762 39.5501V32.2863C71.4762 31.4463 70.7887 30.4651 69.95 30.1101ZM70.1 38.7501C70.1 39.0176 69.88 39.1451 69.6112 39.0288L68.7212 38.6538C68.5853 38.5917 68.4683 38.4944 68.3824 38.372C68.2965 38.2496 68.2447 38.1066 68.2325 37.9576V31.1176C68.2325 30.8476 68.4525 30.7238 68.7212 30.8363L69.6112 31.2188C69.7476 31.2804 69.8649 31.3775 69.9509 31.5C70.0369 31.6225 70.0884 31.7659 70.1 31.9151V38.7501Z" fill="white"/>
<path d="M32.7112 30.4825C32.7112 29.6438 32.0237 29.2525 31.185 29.6175L30.05 30.11C29.21 30.4713 28.5237 31.455 28.5237 32.295V39.5588C28.5237 40.3975 29.21 40.7888 30.05 40.425L31.185 39.9325C32.0237 39.5713 32.7112 38.5863 32.7112 37.7475V37.0538L32.9175 36.8313V36.6913L31.125 37.465V37.6075L31.3312 37.65V38.125C31.3189 38.2743 31.2673 38.4177 31.1817 38.5406C31.0961 38.6635 30.9795 38.7617 30.8437 38.825L30.385 39.0238C30.1175 39.14 29.8975 39.015 29.8975 38.745V31.915C29.91 31.7658 29.9616 31.6225 30.0472 31.4996C30.1328 31.3767 30.2493 31.2785 30.385 31.215L30.8437 31.0163C31.1125 30.9013 31.3312 31.025 31.3312 31.295V32.1825L31.125 32.4038V32.5463L32.915 31.77V31.625L32.7087 31.5838L32.7112 30.4825Z" fill="white"/>
<path d="M42.9312 35.2237L42.79 35.2475L42.6587 35.4787L41.1487 35.7512V26.9637L41.3562 26.795V26.6525L39.565 26.9787V27.1212L39.7712 27.2125V36.9825L39.565 37.1512V37.2937L42.9312 36.6825V35.2237Z" fill="white"/>
<path d="M65.8425 37.1925V29.925C65.8425 29.09 65.155 28.2175 64.3163 27.9925L61.0163 27.1088V27.25L61.2212 27.4363V37.2088L61.0163 37.2825V37.425L64.3163 38.3088C65.155 38.5325 65.8425 38.0288 65.8425 37.1925ZM63.9775 36.965L62.6025 36.59V28.7875L63.9775 29.155C64.1135 29.1958 64.2335 29.2779 64.3208 29.3898C64.4082 29.5018 64.4585 29.6382 64.465 29.78V36.6113C64.4669 36.6707 64.4543 36.7296 64.4281 36.783C64.402 36.8364 64.3632 36.8825 64.3151 36.9174C64.267 36.9523 64.2111 36.9749 64.1522 36.9832C64.0934 36.9915 64.0334 36.9853 63.9775 36.965Z" fill="white"/>
<path d="M54.3862 36.2287L54.0812 36.0212L52.945 32.1375C53.244 32.0455 53.5055 31.8596 53.6908 31.6075C53.876 31.3554 53.9753 31.0504 53.9738 30.7375V27.5625C53.9692 27.1535 53.8087 26.7616 53.5251 26.4668C53.2415 26.172 52.8561 25.9966 52.4475 25.9762L49.5788 25.86V26L49.7863 26.14V35.9087L49.5788 36.0337V36.1762L51.37 36.1937V36.0512L51.1625 35.9125V32.1487L51.5938 32.17L52.7875 36.2562L54.3862 36.3712V36.2287ZM52.5962 30.465C52.5968 30.5284 52.5845 30.5913 52.5598 30.6498C52.5352 30.7082 52.4989 30.761 52.4531 30.8049C52.4074 30.8489 52.3531 30.8829 52.2936 30.9051C52.2342 30.9272 52.1708 30.937 52.1075 30.9337L51.1625 30.8975V27.18L52.1075 27.2187C52.2384 27.2242 52.3622 27.2798 52.4532 27.3741C52.5442 27.4683 52.5954 27.594 52.5962 27.725V30.465Z" fill="white"/>
<path d="M58.2112 36.7213V36.8638L60.0025 37.2013V37.0588L59.795 36.8963V28.375C59.7802 27.9507 59.6208 27.5442 59.3432 27.2229C59.0656 26.9017 58.6864 26.685 58.2687 26.6088L57.1325 26.4275C56.2937 26.2938 55.6075 26.8725 55.6075 27.7113V36.23L55.4 36.3275V36.47L57.19 36.6975V36.5563L56.9837 36.3926V32.9413L58.4175 33.1688V36.625L58.2112 36.7213ZM56.9837 31.6863V28.15C56.982 28.0886 56.9941 28.0276 57.0192 27.9715C57.0443 27.9154 57.0817 27.8656 57.1287 27.826C57.1757 27.7864 57.231 27.7578 57.2905 27.7425C57.35 27.7272 57.4122 27.7255 57.4725 27.7375L57.93 27.8113C58.0638 27.8356 58.1852 27.9051 58.274 28.0081C58.3627 28.1112 58.4134 28.2416 58.4175 28.3775V31.915L56.9837 31.6863Z" fill="white"/>
<path d="M52.9425 39.7251V39.6538H51.72V39.7251C51.8113 39.7251 51.8862 39.7726 51.8862 39.8313V42.5951C51.8862 42.6513 51.8113 42.7013 51.72 42.7013V42.7726H52.9425V42.7013C52.85 42.7013 52.7762 42.6513 52.7762 42.5951V39.8313C52.7762 39.7726 52.85 39.7251 52.9425 39.7251Z" fill="white"/>
<path d="M54.5575 42.7013V42.7726H56.5575C57.4187 42.7726 58.1175 42.2476 58.1175 41.2138C58.1175 40.1801 57.4187 39.6538 56.5575 39.6538H54.5575V39.7251C54.65 39.7251 54.7237 39.7726 54.7237 39.8313V42.5951C54.7237 42.6513 54.65 42.7013 54.5575 42.7013ZM55.6137 40.3538H56.375C56.8512 40.3538 57.235 40.5851 57.235 41.2138C57.235 41.8426 56.8512 42.0726 56.375 42.0726H55.6162L55.6137 40.3538Z" fill="white"/>
<path d="M49.345 41.7026C49.6105 41.6933 49.862 41.5813 50.0465 41.3902C50.2311 41.1991 50.3342 40.9438 50.3342 40.6782C50.3342 40.4125 50.2311 40.1573 50.0465 39.9662C49.862 39.7751 49.6105 39.6631 49.345 39.6538H47.1137V39.7251C47.205 39.7251 47.28 39.7726 47.28 39.8313V42.5951C47.28 42.6513 47.205 42.7013 47.1137 42.7013V42.7726H48.3362V42.7013C48.245 42.7013 48.17 42.6513 48.17 42.5951V41.7026H49.345ZM48.17 40.3538H49.1537C49.198 40.3511 49.2424 40.3574 49.2842 40.3725C49.3259 40.3875 49.3641 40.411 49.3965 40.4414C49.4288 40.4717 49.4546 40.5084 49.4722 40.5492C49.4898 40.5899 49.4989 40.6338 49.4989 40.6782C49.4989 40.7226 49.4898 40.7665 49.4722 40.8072C49.4546 40.8479 49.4288 40.8846 49.3965 40.915C49.3641 40.9454 49.3259 40.9688 49.2842 40.9839C49.2424 40.999 49.198 41.0053 49.1537 41.0026H48.17V40.3538Z" fill="white"/>
<path d="M40.785 40.6763C40.785 40.5418 40.7585 40.4087 40.7069 40.2844C40.6554 40.1602 40.5798 40.0474 40.4846 39.9524C40.3894 39.8574 40.2764 39.7822 40.1521 39.7309C40.0277 39.6797 39.8945 39.6535 39.76 39.6538H37.375V39.7251C37.4675 39.7251 37.5412 39.7726 37.5412 39.8313V42.5951C37.5412 42.6513 37.4675 42.7013 37.375 42.7013V42.7726H38.5975V42.7013C38.505 42.7013 38.4313 42.6513 38.4313 42.5951V41.7026H39.0288L39.6538 42.5951C39.6938 42.6513 39.6537 42.7013 39.5625 42.7013V42.7726H40.7837V42.7013C40.7386 42.7008 40.6941 42.6911 40.6528 42.6729C40.6116 42.6546 40.5745 42.6281 40.5438 42.5951L39.9062 41.6938C40.1504 41.6578 40.3735 41.5353 40.5348 41.3485C40.6962 41.1617 40.7849 40.9231 40.785 40.6763ZM39.57 41.0001H38.4275V40.3513H39.57C39.6143 40.3486 39.6587 40.3549 39.7004 40.37C39.7422 40.385 39.7804 40.4085 39.8127 40.4389C39.8451 40.4693 39.8708 40.5059 39.8884 40.5467C39.9061 40.5874 39.9151 40.6313 39.9151 40.6757C39.9151 40.7201 39.9061 40.764 39.8884 40.8047C39.8708 40.8454 39.8451 40.8821 39.8127 40.9125C39.7804 40.9429 39.7422 40.9663 39.7004 40.9814C39.6587 40.9965 39.6143 41.0028 39.57 41.0001Z" fill="white"/>
<path d="M44.715 42.7013V42.7726H45.795V42.6926C45.7657 42.6876 45.7379 42.6764 45.7135 42.6595C45.6891 42.6427 45.6687 42.6207 45.6537 42.5951L44.6012 39.8313C44.5775 39.7726 44.6337 39.7251 44.7262 39.7251V39.6538H43.07V39.7251C43.1625 39.7251 43.2187 39.7726 43.195 39.8313L42.1412 42.5951C42.1267 42.6207 42.1065 42.6428 42.0823 42.6597C42.0581 42.6766 42.0304 42.6878 42.0012 42.6926V42.7726H43.0812V42.7013C42.9887 42.7013 42.9325 42.6513 42.9562 42.5951L43.155 42.0726H44.6412L44.84 42.5951C44.8637 42.6513 44.8062 42.7013 44.715 42.7013ZM43.3262 41.6251L43.8975 40.1251L44.47 41.6251H43.3262Z" fill="white"/>
<path d="M59.6375 41.5513L59.2 42.6063L59.2712 42.625C59.2712 42.625 59.3275 42.5475 59.3887 42.5475C59.5712 42.5475 59.8462 42.7975 60.9887 42.7975C61.7712 42.7975 62.6287 42.5925 62.6287 41.7425C62.6287 40.42 60.24 41.0037 60.24 40.535C60.24 40.3187 60.615 40.2262 60.8575 40.2262C61.695 40.2262 62.17 40.4375 62.095 40.6012L62.1662 40.6362L62.575 39.8063L62.5112 39.7825C62.495 39.8106 62.4717 39.8339 62.4436 39.8502C62.4155 39.8664 62.3837 39.875 62.3512 39.875C62.2375 39.875 61.5762 39.625 60.8575 39.625C60.0825 39.625 59.3487 39.975 59.3487 40.5412C59.3487 41.8637 61.7387 41.215 61.7387 41.7487C61.7387 41.9987 61.4887 42.1037 60.9887 42.1037C59.8475 42.1037 59.6312 41.7388 59.6987 41.5825L59.6375 41.5513Z" fill="white"/>
<path d="M50 0L16.5275 28.2175C16.5275 51.5963 31.135 81.75 50 100C68.8637 81.75 83.4725 51.5963 83.4725 28.2175L50 0ZM50 96.9638C31.9137 78.7138 18.875 50.7962 18.5275 29.1038C19.875 27.9688 47.7062 4.50625 50 2.57C52.295 4.50625 80.125 27.9688 81.4725 29.1038C81.125 50.7962 68.0875 78.7138 50 96.9638Z" fill="#C1C5C8"/>
<path d="M50 12.6987L22.625 30.6137C23.75 56.3262 41 76.8075 50 85.8125C59 76.8125 76.25 56.3262 77.375 30.6137L50 12.6987ZM50 83.4225C42.2725 75.66 28.0425 58.6862 24.8037 37.3287C24.4865 35.2521 24.2808 33.1599 24.1875 31.0612L50 14.1425L75.8138 31.0612C75.7192 33.1598 75.5135 35.2519 75.1975 37.3287C71.9575 58.6862 57.7262 75.66 50 83.4225Z" fill="#C1C5C8"/>
<path d="M48.23 70.9613C47.9175 70.9613 47.6637 71.1326 47.6637 71.3363C47.6637 71.5401 47.9137 71.7188 48.23 71.7188C48.5462 71.7188 48.795 71.5501 48.795 71.3363C48.795 71.1226 48.5425 70.9613 48.23 70.9613Z" fill="#C1C5C8"/>
<path d="M41.275 53.0937L34.6025 60.9837C39.2987 68.3162 44.7737 73.7337 49.9987 77.5249V68.4999C47.9239 68.4738 45.9429 67.6313 44.4849 66.1548C43.0269 64.6783 42.2093 62.6868 42.2093 60.6118C42.2093 58.5368 43.0269 56.5453 44.4849 55.0689C45.9429 53.5924 47.9239 52.7498 49.9987 52.7237V45.7262L42.6237 54.4612L41.275 53.0937ZM48.0837 72.6924C48.9312 72.6924 48.9687 71.9774 48.9687 71.9774C48.6728 72.1458 48.3403 72.2393 48 72.2499C47.4337 72.2499 47 71.8749 47 71.3449C47 70.7349 47.625 70.4437 48.2287 70.4437C49.19 70.4437 49.6562 70.9437 49.6562 71.8187C49.6562 72.7112 48.8812 73.1937 48.0825 73.1937C47.7623 73.1952 47.4442 73.1411 47.1425 73.0337C47.0979 73.0367 47.0562 73.0568 47.0262 73.0899L46.9625 73.0624L47.3687 72.3749L47.4212 72.3987C47.3962 72.5237 47.5362 72.6924 48.0837 72.6924Z" fill="#C1C5C8"/>
<path d="M50 7.03625L20.44 29.765C21.6475 55.375 39.81 81.625 50 91.8013C60.19 81.625 78.3512 55.375 79.56 29.765L50 7.03625ZM50 8.48L65.7925 20.8938L50 10.1725L34.2087 20.8938L50 8.48ZM50 12.6988L77.375 30.6138C76.25 56.3263 59 76.8075 50 85.8125C41 76.8125 23.75 56.3263 22.6312 30.6138L50 12.6988ZM50 90.0638L41.5087 79.875L50 87.7838L58.49 79.875L50 90.0638Z" fill="#8AB7E9"/>
<path d="M51.77 72.6625C52.0813 72.6625 52.335 72.4913 52.335 72.28C52.335 72.0688 52.085 71.905 51.77 71.905C51.455 71.905 51.2038 72.0738 51.2038 72.28C51.2038 72.4863 51.4575 72.6625 51.77 72.6625Z" fill="#8AB7E9"/>
<path d="M57.8875 60.6074C57.888 61.6436 57.6843 62.6697 57.2882 63.6272C56.8921 64.5847 56.3112 65.4547 55.5787 66.1876C54.8463 66.9205 53.9766 67.502 53.0194 67.8987C52.0622 68.2955 51.0362 68.4998 50 68.4999V77.5249C55.2275 73.7337 60.7025 68.3162 65.3975 60.9837L58.725 53.0937L57.375 54.4612L50 45.7262V52.7174C51.036 52.7176 52.0618 52.9218 53.0188 53.3184C53.9758 53.715 54.8454 54.2962 55.5778 55.0289C56.3102 55.7615 56.8912 56.6313 57.2875 57.5885C57.6838 58.5456 57.8877 59.5715 57.8875 60.6074ZM51.915 70.9287C51.0688 70.9287 51.0312 71.6424 51.0312 71.6424C51.3278 71.4763 51.6602 71.3845 52 71.3749C52.5675 71.3749 53 71.7499 53 72.2762C53 72.8874 52.375 73.1812 51.7725 73.1812C50.8125 73.1812 50.3438 72.6737 50.3438 71.8062C50.3438 70.9099 51.12 70.4312 51.9175 70.4312C52.2377 70.4297 52.5558 70.4838 52.8575 70.5912C52.9024 70.588 52.9444 70.5679 52.975 70.535L53.0375 70.5624L52.6312 71.2499L52.58 71.2237C52.6025 71.0999 52.4638 70.9287 51.915 70.9287Z" fill="#8AB7E9"/>
<path d="M56.84 59.7976C56.8393 58.4449 56.4375 57.1228 55.6854 55.9985C54.9334 54.8741 53.8649 53.998 52.615 53.4809C51.365 52.9638 49.9899 52.8288 48.6633 53.0932C47.3367 53.3575 46.1183 54.0093 45.1621 54.966C44.2058 55.9228 43.5548 57.1415 43.2912 58.4683C43.0275 59.795 43.1632 61.1701 43.681 62.4197C44.1988 63.6694 45.0755 64.7374 46.2003 65.4888C47.325 66.2402 48.6473 66.6413 50 66.6413C50.8986 66.6413 51.7883 66.4643 52.6184 66.1203C53.4485 65.7763 54.2027 65.2721 54.8379 64.6366C55.4731 64.001 55.9769 63.2466 56.3204 62.4163C56.6639 61.586 56.8405 60.6961 56.84 59.7976ZM44.8087 58.9413L43.8087 59.4988C43.8087 59.4426 43.8087 59.3863 43.8087 59.3288C43.8068 58.2525 44.0869 57.1944 44.6212 56.2601L44.8825 57.5801C45.038 56.7404 45.3976 55.9518 45.9297 55.2839C46.4618 54.616 47.1501 54.0893 47.9337 53.7501L48.0275 53.4626C49.3079 53.0359 50.6921 53.0359 51.9725 53.4626L52.0662 53.7501C52.8487 54.09 53.5357 54.6169 54.0669 55.2845C54.5981 55.9521 54.9571 56.7399 55.1125 57.5788L55.375 56.2601C55.9097 57.1943 56.1903 58.2524 56.1888 59.3288C56.1888 59.3863 56.1888 59.4426 56.1888 59.4988L55.1888 58.9413C55.0781 60.241 54.4837 61.4518 53.5231 62.3341C52.5625 63.2165 51.3056 63.7061 50.0012 63.7061C48.6969 63.7061 47.44 63.2165 46.4794 62.3341C45.5188 61.4518 44.9244 60.241 44.8137 58.9413H44.8087Z" fill="#8AB7E9"/>
<path d="M50 68.5C51.5605 68.5005 53.086 68.0382 54.3837 67.1716C55.6814 66.3049 56.6929 65.0729 57.2903 63.6313C57.8877 62.1898 58.0441 60.6034 57.7398 59.0729C57.4355 57.5424 56.6841 56.1365 55.5807 55.0331C54.4773 53.9297 53.0714 53.1783 51.5409 52.874C50.0104 52.5697 48.424 52.7261 46.9824 53.3235C45.5409 53.9209 44.3088 54.9324 43.4422 56.2301C42.5756 57.5278 42.1133 59.0533 42.1137 60.6138C42.1144 62.7051 42.9455 64.7107 44.4243 66.1895C45.9031 67.6683 47.9086 68.4994 50 68.5ZM50 52.9638C51.3536 52.963 52.677 53.3638 53.8028 54.1153C54.9286 54.8668 55.8062 55.9354 56.3246 57.1858C56.8429 58.4361 56.9788 59.8122 56.715 61.1398C56.4512 62.4674 55.7996 63.687 54.8426 64.6442C53.8855 65.6014 52.6661 66.2533 51.3385 66.5173C50.0109 66.7814 48.6348 66.6457 47.3844 66.1276C46.1339 65.6094 45.0652 64.732 44.3135 63.6063C43.5617 62.4807 43.1608 61.1574 43.1612 59.8038C43.1604 58.9051 43.3367 58.0151 43.68 57.1846C44.0233 56.3541 44.5269 55.5994 45.162 54.9636C45.7971 54.3278 46.5513 53.8234 47.3814 53.4792C48.2115 53.1349 49.1013 52.9577 50 52.9575V52.9638Z" fill="#323E48"/>
<path d="M66.4212 59.3263C66.0837 59.89 65.7437 60.4413 65.3962 60.9838C60.7012 68.3163 55.2262 73.7338 49.9987 77.525C44.7737 73.7338 39.2987 68.3163 34.6025 60.9838C34.2567 60.4413 33.915 59.8888 33.5775 59.3263C29.9387 53.2688 26.8387 45.9863 24.8025 37.3263C28.0412 58.6863 42.2712 75.66 50 83.4225C57.7275 75.66 71.9588 58.6863 75.1988 37.3288C73.1613 45.9863 70.0612 53.2688 66.4212 59.3263Z" fill="#323E48"/>
<path d="M50 2.56995C47.7062 4.5062 19.875 27.9687 18.5262 29.1037C18.875 50.7962 31.9125 78.7137 50 96.9637C68.0887 78.7137 81.125 50.7962 81.4725 29.1037C80.125 27.9687 52.2937 4.5062 50 2.56995ZM20.44 29.7649L50 7.0362L79.56 29.7649C78.3512 55.375 60.19 81.625 50 91.8012C39.81 81.625 21.6475 55.375 20.44 29.7649Z" fill="#8A2432"/>
<path d="M39.57 40.3537H38.4275V41H39.57C39.6143 41.0027 39.6587 40.9964 39.7004 40.9813C39.7422 40.9663 39.7804 40.9428 39.8127 40.9124C39.8451 40.882 39.8708 40.8453 39.8884 40.8046C39.9061 40.7639 39.9151 40.72 39.9151 40.6756C39.9151 40.6312 39.9061 40.5873 39.8884 40.5466C39.8708 40.5058 39.8451 40.4692 39.8127 40.4388C39.7804 40.4084 39.7422 40.3849 39.7004 40.3699C39.6587 40.3548 39.6143 40.3485 39.57 40.3512V40.3537Z" fill="#8A2432"/>
<path d="M69.6112 31.2188L68.7212 30.8363C68.4525 30.7238 68.2325 30.8475 68.2325 31.1175V37.9488C68.2447 38.0978 68.2965 38.2409 68.3824 38.3632C68.4683 38.4856 68.5853 38.5829 68.7212 38.645L69.6112 39.02C69.88 39.1363 70.1 39.0088 70.1 38.7413V31.915C70.0884 31.7658 70.0369 31.6225 69.9509 31.5C69.8649 31.3775 69.7476 31.2804 69.6112 31.2188Z" fill="#8A2432"/>
<path d="M36.6862 28.9562L35.7962 29.2174C35.6618 29.2609 35.5435 29.3437 35.4566 29.4551C35.3696 29.5665 35.3182 29.7015 35.3087 29.8424V36.6737C35.3057 36.7332 35.3177 36.7925 35.3437 36.8461C35.3698 36.8997 35.409 36.9458 35.4576 36.9801C35.5063 37.0144 35.5629 37.0359 35.6221 37.0424C35.6813 37.0489 35.7413 37.0403 35.7962 37.0174L36.6862 36.7599C36.822 36.7153 36.9412 36.6309 37.0284 36.5177C37.1155 36.4044 37.1666 36.2676 37.175 36.1249V29.3024C37.1783 29.2427 37.1664 29.1831 37.1404 29.1292C37.1144 29.0753 37.0751 29.0289 37.0263 28.9943C36.9775 28.9597 36.9206 28.9381 36.8612 28.9314C36.8017 28.9247 36.7415 28.9333 36.6862 28.9562Z" fill="#8A2432"/>
<path d="M63.9775 29.155L62.6025 28.7875V36.5937L63.9775 36.9687C64.0338 36.9892 64.0942 36.9954 64.1535 36.9868C64.2128 36.9783 64.269 36.9553 64.3172 36.9198C64.3655 36.8843 64.4042 36.8374 64.43 36.7834C64.4557 36.7294 64.4678 36.6698 64.465 36.61V29.775C64.4575 29.634 64.4067 29.4988 64.3194 29.3878C64.2322 29.2768 64.1127 29.1955 63.9775 29.155Z" fill="#8A2432"/>
<path d="M49.1537 40.3537H48.17V41H49.1537C49.198 41.0027 49.2424 40.9964 49.2842 40.9813C49.3259 40.9663 49.3641 40.9428 49.3965 40.9124C49.4288 40.882 49.4546 40.8453 49.4722 40.8046C49.4898 40.7639 49.4989 40.72 49.4989 40.6756C49.4989 40.6312 49.4898 40.5873 49.4722 40.5466C49.4546 40.5058 49.4288 40.4692 49.3965 40.4388C49.3641 40.4084 49.3259 40.3849 49.2842 40.3699C49.2424 40.3548 49.198 40.3485 49.1537 40.3512V40.3537Z" fill="#8A2432"/>
<path d="M50 14.1425L24.1862 31.0612C24.2795 33.1599 24.4852 35.2521 24.8025 37.3287C26.8387 45.9862 29.9387 53.2687 33.5775 59.3287L40.625 52.0587L42.0725 53.3375L50 45.1687L57.9337 53.3375L59.375 52.0587L66.4175 59.3262C70.0575 53.2687 73.1575 45.9862 75.1937 37.3262C75.5098 35.2494 75.7155 33.1573 75.81 31.0587L50 14.1425ZM32.9187 31.7675L31.125 32.5462V32.4037L31.3312 32.1825V31.295C31.3312 31.025 31.1125 30.9012 30.8437 31.0162L30.385 31.215C30.2493 31.2784 30.1328 31.3766 30.0472 31.4995C29.9616 31.6224 29.91 31.7657 29.8975 31.915V38.75C29.8975 39.02 30.1175 39.145 30.385 39.0287L30.8437 38.83C30.9795 38.7666 31.0961 38.6685 31.1817 38.5455C31.2673 38.4226 31.3189 38.2792 31.3312 38.13V37.65L31.125 37.6075V37.465L32.915 36.6912V36.8312L32.7087 37.0537V37.75C32.7087 38.5887 32.0212 39.5737 31.1825 39.935L30.0475 40.4275C29.2075 40.7912 28.5212 40.4 28.5212 39.5612V32.295C28.5212 31.455 29.2075 30.4712 30.0475 30.11L31.1825 29.6175C32.0212 29.2525 32.7087 29.6437 32.7087 30.4825V31.5862L32.915 31.6275L32.9187 31.7675ZM39.5662 37.1425L39.7725 36.9737V27.2125L39.5662 27.1212V26.9787L41.3562 26.6525V26.795L41.15 26.9637V35.75L42.66 35.4775L42.7912 35.2462L42.9325 35.2225V36.6812L39.5662 37.2925V37.1425ZM35.4562 38.375C34.6175 38.625 33.9312 38.135 33.9312 37.2962V30.035C33.9312 29.1962 34.6175 28.3062 35.4562 28.0612L37.0262 27.6012C37.8662 27.3575 38.5525 27.8412 38.5525 28.6837V35.9475C38.5525 36.7862 37.8662 37.6725 37.0262 37.9187L35.4562 38.375ZM40.545 42.5912C40.5757 42.6243 40.6128 42.6507 40.6541 42.669C40.6953 42.6873 40.7399 42.697 40.785 42.6975V42.7687H39.5637V42.6975C39.655 42.6975 39.695 42.6475 39.655 42.5912L39.03 41.6987H38.4325V42.5912C38.4325 42.6475 38.5062 42.6975 38.5987 42.6975V42.7687H37.375V42.6975C37.4675 42.6975 37.5412 42.6475 37.5412 42.5912V39.8312C37.5412 39.7725 37.4675 39.725 37.375 39.725V39.6537H39.7637C40.0236 39.6525 40.2742 39.75 40.4649 39.9266C40.6556 40.1032 40.7721 40.3456 40.7908 40.6048C40.8096 40.864 40.7292 41.1206 40.5659 41.3228C40.4026 41.5249 40.1686 41.6575 39.9112 41.6937L40.545 42.5912ZM45.795 42.7687H44.715V42.6975C44.8062 42.6975 44.8637 42.6475 44.84 42.5912L44.6412 42.0687H43.155L42.9562 42.5912C42.9337 42.6475 42.99 42.6975 43.0812 42.6975V42.7687H42V42.6887C42.0291 42.684 42.0568 42.6727 42.0811 42.6559C42.1053 42.639 42.1254 42.6169 42.14 42.5912L43.1937 39.8275C43.2162 39.7687 43.16 39.7212 43.0687 39.7212V39.65H44.725V39.7212C44.6325 39.7212 44.5762 39.7687 44.6 39.8275L45.6525 42.5912C45.6675 42.6168 45.6879 42.6388 45.7123 42.6557C45.7367 42.6725 45.7645 42.6838 45.7937 42.6887L45.795 42.7687ZM45.4712 36.38C45.2761 36.3978 45.0793 36.3745 44.8937 36.3115C44.7082 36.2484 44.5379 36.1471 44.394 36.014C44.2501 35.881 44.1358 35.7192 44.0584 35.5391C43.9811 35.359 43.9424 35.1647 43.945 34.9687V27.7075C43.9523 27.2941 44.1122 26.8981 44.394 26.5955C44.6758 26.293 45.0595 26.1054 45.4712 26.0687L47.04 25.9437C47.2351 25.9262 47.4317 25.9498 47.6171 26.013C47.8025 26.0762 47.9726 26.1775 48.1164 26.3105C48.2602 26.4435 48.3746 26.6052 48.452 26.7851C48.5295 26.965 48.5684 27.1591 48.5662 27.355V34.625C48.5582 35.0385 48.3981 35.4345 48.1166 35.7375C47.8351 36.0405 47.4518 36.2291 47.04 36.2675L45.4712 36.38ZM49.3462 41.6987H48.1712V42.5912C48.1712 42.6475 48.2463 42.6975 48.3375 42.6975V42.7687H47.115V42.6975C47.2062 42.6975 47.2812 42.6475 47.2812 42.5912V39.8312C47.2812 39.7725 47.2062 39.725 47.115 39.725V39.6537H49.3462C49.6117 39.663 49.8633 39.775 50.0478 39.9661C50.2323 40.1572 50.3355 40.4124 50.3355 40.6781C50.3355 40.9437 50.2323 41.199 50.0478 41.3901C49.8633 41.5812 49.6117 41.6932 49.3462 41.7025V41.6987ZM52.9437 39.7212C52.8512 39.7212 52.7775 39.7687 52.7775 39.8275V42.5912C52.7775 42.6475 52.8512 42.6975 52.9437 42.6975V42.7687H51.7212V42.6975C51.8125 42.6975 51.8875 42.6475 51.8875 42.5912V39.8312C51.8875 39.7725 51.8125 39.725 51.7212 39.725V39.6537H52.9437V39.7212ZM54.3862 36.375L52.7875 36.26L51.5937 32.1737L51.1625 32.1525V35.9187L51.37 36.0575V36.2L49.5787 36.1825V36.04L49.7862 35.915V26.1425L49.5787 26V25.8575L52.4475 25.9737C52.856 25.9941 53.2414 26.1695 53.5251 26.4643C53.8087 26.759 53.9692 27.1509 53.9737 27.56V30.735C53.9752 31.0478 53.876 31.3529 53.6908 31.605C53.5055 31.8571 53.244 32.0429 52.945 32.135L54.0812 36.0187L54.3862 36.2262V36.375ZM56.5625 42.7762H54.5625V42.705C54.655 42.705 54.7287 42.655 54.7287 42.5987V39.8312C54.7287 39.7725 54.655 39.725 54.5625 39.725V39.6537H56.5625C57.4238 39.6537 58.1225 40.1787 58.1225 41.2137C58.1225 42.2487 57.4238 42.7725 56.5625 42.7725V42.7762ZM56.9837 32.945V36.3987L57.19 36.5625V36.7037L55.4 36.4762V36.3337L55.6075 36.2362V27.7137C55.6075 26.875 56.2938 26.2962 57.1325 26.43L58.2687 26.6112C58.686 26.6873 59.0648 26.9036 59.3424 27.2244C59.62 27.5451 59.7797 27.9511 59.795 28.375V36.8937L60.0025 37.0562V37.1987L58.2113 36.8612V36.7187L58.4175 36.6212V33.1687L56.9837 32.945ZM60.9837 42.8062C59.8412 42.8062 59.5662 42.5562 59.3838 42.5562C59.3225 42.5562 59.2663 42.6337 59.2663 42.6337L59.195 42.615L59.6325 41.56L59.6937 41.59C59.6262 41.7462 59.8425 42.1112 60.9837 42.1112C61.4837 42.1112 61.7337 42.005 61.7337 41.7562C61.7337 41.2225 59.3438 41.8712 59.3438 40.5487C59.3438 39.9825 60.0775 39.6325 60.8525 39.6325C61.5713 39.6325 62.2275 39.8825 62.3462 39.8825C62.3787 39.8824 62.4105 39.8739 62.4386 39.8576C62.4667 39.8414 62.49 39.818 62.5062 39.79L62.57 39.8137L62.1612 40.6437L62.09 40.6087C62.165 40.4487 61.69 40.2337 60.8525 40.2337C60.6087 40.2337 60.235 40.3262 60.235 40.5425C60.235 41.0112 62.6237 40.4275 62.6237 41.75C62.625 42.5975 61.7712 42.8025 60.9887 42.8025L60.9837 42.8062ZM65.8375 37.1962C65.8375 38.0325 65.15 38.5362 64.3112 38.3112L61.0112 37.4275V37.285L61.2162 37.2112V27.435L61.0163 27.25V27.11L64.3163 27.9937C65.155 28.2187 65.8425 29.0912 65.8425 29.9262L65.8375 37.1962ZM71.4713 39.5537C71.4713 40.3925 70.7837 40.7875 69.945 40.4287L68.3812 39.75C67.5412 39.3912 66.855 38.4087 66.855 37.57V30.3112C66.855 29.4712 67.5412 29.0775 68.3812 29.4362L69.95 30.1062C70.7887 30.4612 71.4762 31.4425 71.4762 32.2825L71.4713 39.5537Z" fill="#8A2432"/>
<path d="M43.3262 41.6226H44.47L43.8975 40.1226L43.3262 41.6226Z" fill="#8A2432"/>
<path d="M52.1075 27.2188L51.1625 27.1801V30.8976L52.1075 30.9338C52.1708 30.937 52.2342 30.9273 52.2936 30.9051C52.3531 30.883 52.4073 30.8489 52.4531 30.805C52.4989 30.7611 52.5352 30.7083 52.5598 30.6498C52.5844 30.5914 52.5968 30.5285 52.5962 30.4651V27.7251C52.5954 27.594 52.5442 27.4684 52.4532 27.3741C52.3622 27.2799 52.2384 27.2243 52.1075 27.2188Z" fill="#8A2432"/>
<path d="M46.7 27.2275L45.81 27.295C45.6786 27.3078 45.5565 27.3683 45.4666 27.465C45.3768 27.5617 45.3255 27.688 45.3225 27.82V34.6512C45.3215 34.7139 45.3338 34.7761 45.3584 34.8337C45.3831 34.8913 45.4196 34.9431 45.4656 34.9856C45.5115 35.0282 45.566 35.0606 45.6253 35.0808C45.6847 35.1009 45.7476 35.1083 45.81 35.1025L46.7 35.0337C46.8319 35.0226 46.955 34.9628 47.0453 34.866C47.1356 34.7693 47.1867 34.6424 47.1887 34.51V27.6775C47.1894 27.6149 47.1768 27.5528 47.152 27.4954C47.1271 27.4379 47.0904 27.3863 47.0444 27.3439C46.9983 27.3015 46.9439 27.2692 46.8845 27.2491C46.8252 27.2291 46.7623 27.2217 46.7 27.2275Z" fill="#8A2432"/>
<path d="M56.375 40.3538H55.6162V42.0725H56.375C56.8512 42.0725 57.235 41.8425 57.235 41.2138C57.235 40.585 56.8487 40.3538 56.375 40.3538Z" fill="#8A2432"/>
<path d="M58.4175 28.375C58.4134 28.239 58.3627 28.1086 58.274 28.0056C58.1853 27.9025 58.0638 27.833 57.93 27.8087L57.4725 27.735C57.4122 27.7229 57.35 27.7246 57.2905 27.7399C57.231 27.7553 57.1757 27.7838 57.1287 27.8234C57.0817 27.8631 57.0443 27.9128 57.0192 27.9689C56.9941 28.025 56.982 28.0861 56.9837 28.1475V31.6837L58.4175 31.9125V28.375Z" fill="#8A2432"/>
<path d="M52.0662 59.6851L50 58.1851L47.9337 59.6851L48.7225 62.1163H51.2762L52.0662 59.6851Z" fill="#8A2432"/>
<path d="M52.0662 53.75L51.9725 53.4625C50.6921 53.0358 49.3079 53.0358 48.0275 53.4625L47.9337 53.75L50 55.25L52.0662 53.75Z" fill="#8A2432"/>
<path d="M44.625 56.26C44.0907 57.1944 43.8105 58.2524 43.8125 59.3288C43.8125 59.3863 43.8125 59.4425 43.8125 59.4988L44.8125 58.9413L45.1262 58.7663L44.89 57.58L44.625 56.26Z" fill="#8A2432"/>
<path d="M55.1125 57.5775L54.875 58.7663L55.1888 58.9413L56.1888 59.4988C56.1888 59.4425 56.1888 59.3863 56.1888 59.3288C56.1903 58.2523 55.9097 57.1943 55.375 56.26L55.1125 57.5775Z" fill="#8A2432"/>
<path d="M48.23 70.4387C47.6262 70.4387 47.0013 70.73 47.0013 71.34C47.0013 71.8687 47.4363 72.245 48.0013 72.245C48.3403 72.2355 48.6719 72.1437 48.9675 71.9775C48.9675 71.9775 48.93 72.6925 48.0825 72.6925C47.535 72.6925 47.395 72.5237 47.4212 72.39L47.3688 72.3662L46.9625 73.0537L47.0262 73.0812C47.0563 73.0481 47.0979 73.028 47.1425 73.025C47.4442 73.1323 47.7623 73.1865 48.0825 73.185C48.8813 73.185 49.6562 72.705 49.6562 71.81C49.6575 70.9437 49.1912 70.4387 48.23 70.4387ZM48.23 71.7225C47.9175 71.7225 47.6637 71.5537 47.6637 71.34C47.6637 71.1262 47.9137 70.965 48.23 70.965C48.5462 70.965 48.795 71.1362 48.795 71.34C48.795 71.5437 48.5425 71.7225 48.23 71.7225Z" fill="#8A2432"/>
<path d="M52.625 71.2575L53.0312 70.57L52.9687 70.5425C52.9381 70.5755 52.8961 70.5956 52.8512 70.5987C52.5495 70.4914 52.2315 70.4372 51.9112 70.4388C51.1137 70.4388 50.3375 70.9163 50.3375 71.8138C50.3375 72.6788 50.8062 73.1888 51.7662 73.1888C52.3687 73.1888 52.9937 72.895 52.9937 72.2838C52.9937 71.76 52.56 71.3825 51.9937 71.3825C51.6555 71.3915 51.3245 71.482 51.0287 71.6462C51.0287 71.6462 51.0662 70.9325 51.9125 70.9325C52.4612 70.9325 52.6 71.1038 52.575 71.235L52.625 71.2575ZM51.7662 71.9013C52.0775 71.9013 52.3312 72.07 52.3312 72.2763C52.3312 72.4825 52.0812 72.6588 51.7662 72.6588C51.4512 72.6588 51.2 72.4875 51.2 72.2763C51.2 72.065 51.4575 71.9013 51.77 71.9013H51.7662Z" fill="#8A2432"/>
</svg>
