<svg width="100" height="100" viewBox="0 0 100 100" fill="none" xmlns="http://www.w3.org/2000/svg">
<g clip-path="url(#clip0_3_4609)">
<path d="M21.9613 11.8337H78.0387L69.6087 92.0275L50 80.7062L30.39 92.0275L21.9613 11.8337Z" fill="#FEDD00"/>
<path d="M24.4675 14.0912L32.2713 88.3349L50 78.0999L67.7275 88.3349L75.5313 14.0912H24.4675Z" fill="black"/>
<path d="M69.5088 33.785L70.625 23.1337L61.775 18.0225H38.2238L29.375 23.1337L35.5525 81.9037L66.3187 64.1387L67.6937 51.05L58.8413 45.9387L57.6975 56.8225L43.1825 65.1975L39.3425 28.6687H60.6562L59.5125 39.5525L69.5088 33.785ZM58.0687 79.1775L57.0812 78.6137V77.7575L58.0675 77.185L58.085 78.185L60.045 78.1737L60.0337 76.1162L58.75 76.885L57.0875 75.9412V72.97L58.0737 72.3962H60.0513L61.0513 72.9612V78.605L60.0513 79.1787L58.0687 79.1775ZM58.08 75.3487L58.7438 75.7237L60.035 74.9662V73.3925L58.0863 73.4037L58.08 75.3487ZM63.0175 79.1775L62.0312 78.6137L62.025 72.97L63.0112 72.3962H64.9887L65.9887 72.9612V73.8162L64.9887 74.3887L64.9713 73.3987L63.0112 73.41L63.0225 75.4575L64.3163 74.7L65.98 75.6412V78.605L64.98 79.1787L63.0175 79.1775ZM63.0175 76.6025L63.0238 78.1862L64.9837 78.175L64.9725 76.2237L64.3238 75.8575L63.0175 76.6025Z" fill="white"/>
<path d="M61.4675 100L59.25 98.73L57.06 100H55.7738L55.7625 91.7213L57.0487 90.9713L57.0663 98.5L58.625 97.595V91.72L59.9163 91.7087L59.9275 97.6038L61.4725 98.5L61.4563 90.9912L62.7662 91.7162V100.005L61.4675 100ZM50.0687 100L50.0575 91.1637L54.025 91.1513L54.775 92.4512L51.3537 92.4675L51.365 94.9425L53.2938 94.9313L54.0438 96.23L51.35 96.25L51.3613 98.7113L54.7612 98.7L54.7725 100.004L50.0687 100ZM47.5088 100L47.5 96.8438L46.4787 96.2575L44.9437 97.145V99.9888L43.6525 100L43.6413 91.1637L47.5062 91.1513L48.8063 91.8887V94.9037L47.7612 95.51L48.8013 96.0863V100H47.5088ZM44.9463 95.6525L47.5 94.1462V92.4563L44.9487 92.4675L44.9463 95.6525ZM38.52 100L37.2337 99.2625L37.2275 91.8988L38.5137 91.1488H41.0938L42.3925 91.8863L42.3988 93L41.1 93.75L41.0825 92.4587L38.52 92.47L38.5312 98.71L41.0938 98.6988L41.0825 97.4175L42.3925 98.1425L42.3988 99.2563L41.0962 100.006L38.52 100ZM71.665 9.0225L70.375 8.285V7.1725L71.6612 6.4225L71.6787 7.72625L74.2412 7.715L74.23 5.9L70.375 3.68375V0.922495L71.6612 0.172495H74.2412L75.5375 0.912495V2.025L74.2387 2.775L74.2225 1.48375L71.66 1.495L71.6712 2.9425L75.5375 5.1475V8.2725L74.2362 9.0225H71.665ZM65.2487 9.0225L63.9625 8.285V0.744995L65.2475 -0.00500488L65.265 7.72625L67.8275 7.715L67.8112 0.00999512L69.125 0.734995V8.27625L67.8238 9.02625L65.2487 9.0225ZM57.5525 9.0225L57.5413 0.187495L61.4062 0.176245L62.705 0.912495L62.7112 3.61L61.6663 4.21625L62.705 4.7925L62.7112 8.27625L61.41 9.02625L57.5525 9.0225ZM58.8388 5.85125V7.72625L61.4013 7.715L61.39 5.545L60.375 4.9675L58.8388 5.85125ZM58.8388 4.35875L61.3963 2.865V1.48L58.845 1.49125L58.8388 4.35875ZM54.99 9.0225L54.9787 1.68375L53.375 2.63125V9.00625L52.0838 9.0175L52.0762 2.625L50.4512 1.69625L50.4675 9.015L49.1763 9.02625L49.16 0.187495L50.4512 0.176245L52.7262 1.5L54.985 0.177495H56.2837L56.295 9.02375L54.99 9.0225ZM44.0363 9.0225L42.75 8.285V0.749995L44.0363 -4.88246e-06L44.0537 7.73125L46.6162 7.72L46.5988 0.00999512L47.9087 0.734995V8.27625L46.6075 9.02625L44.0363 9.0225ZM37.3037 9.0225L37.2925 0.187495L38.5838 0.176245L38.595 7.73125L42 7.72L41.2713 9.0225H37.3037ZM32.1675 9.0225L30.8813 8.285V0.922495L32.1675 0.172495H34.7463L36.0462 0.908745V8.2725L34.745 9.0225H32.1675ZM32.1787 7.73125L34.7412 7.72L34.73 1.48L32.1787 1.49125V7.73125ZM25.75 9.0225L24.4638 8.285V0.922495L25.75 0.172495H28.33L29.625 0.912495V2.025L28.3263 2.775L28.31 1.48375L25.7475 1.495L25.7588 7.735L28.3213 7.72375L28.31 6.44125L29.625 7.1625V8.27625L28.3237 9.02625L25.75 9.0225Z" fill="white"/>
</g>
<defs>
<clipPath id="clip0_3_4609">
<rect width="100" height="100" fill="white"/>
</clipPath>
</defs>
</svg>
