<svg width="100" height="100" viewBox="0 0 100 100" fill="none" xmlns="http://www.w3.org/2000/svg">
<mask id="mask0_3_4617" style="mask-type:luminance" maskUnits="userSpaceOnUse" x="6" y="6" width="88" height="88">
<path d="M93.4037 6.77246H6.59625V93.2275H93.4037V6.77246Z" fill="white"/>
</mask>
<g mask="url(#mask0_3_4617)">
<mask id="mask1_3_4617" style="mask-type:luminance" maskUnits="userSpaceOnUse" x="6" y="6" width="88" height="88">
<path d="M93.4037 6.77246H6.59625V93.2275H93.4037V6.77246Z" fill="white"/>
</mask>
<g mask="url(#mask1_3_4617)">
<path d="M92.0475 13.6475C89.1025 12.58 74.4787 7.78125 50 7.78125C25.5212 7.78125 10.8962 12.58 7.95125 13.6475C7.725 16.665 7.605 19.5925 7.605 22.3975C7.605 65.7912 33.5212 84.5662 50 92.1137C66.48 84.5662 92.3962 65.7912 92.3962 22.3975C92.3962 19.5887 92.2712 16.6613 92.0487 13.6475M89.015 39.375C85.4525 59.2337 76.1512 72.0512 62 81.7862C58.3225 84.3175 54.3187 86.6413 50 88.8213C44.8462 86.2162 40.14 83.4125 35.9025 80.2937C39.25 68.6625 46.9537 63.555 46.9537 63.555C42.3475 58.2463 47.94 54.3613 47.94 54.3613C46.9462 56.43 46.7225 59.4863 49.0837 61.47C51.445 63.4538 53.9587 61.22 55.7587 61.3013C57.5587 61.3825 59.9062 62.725 59.9062 62.725C61.8475 62.1062 62.2087 60.53 62.2087 60.53C62.2087 60.53 61.9137 59.8088 61.2637 59.5737C60.9868 59.5665 60.7125 59.6282 60.4653 59.7532C60.2181 59.8782 60.0058 60.0627 59.8475 60.29C59.7025 59 61.3575 58.0975 61.3575 58.0975C61.8734 58.1009 62.3822 58.2183 62.8475 58.4413C63.3128 58.6643 63.723 58.9874 64.0487 59.3875L66.6275 59.4338C67.1062 58.145 67.9925 58.0112 67.9925 58.0112L63.5287 53.3225C61.1112 50.6675 63.75 48.6125 63.75 48.6125C63.5821 48.077 63.3121 47.5791 62.955 47.1463C62.955 47.1463 66.25 46.9875 68.6787 46.75C74.5775 46.17 75.0912 38.7325 89.0175 39.375C75.625 37.3013 73.1312 43.9362 66.815 44.44C63.565 44.7 60.8 44.6625 60.8 44.6625C60.8 44.6625 58.9612 43.275 57.1437 42.375L48.4175 42.3162C48.4175 42.3162 45.975 43.2025 44.2725 44.9137L34.0725 44.8225C24.9162 44.4862 22.2287 35.4975 10.9537 39.2513C22.6962 37.4725 22.3362 46.4813 33.8825 47.5387L46.5162 48.205C46.5162 48.205 47.57 47.65 46.9862 45.955C47.6112 46.1438 49.6737 48.9938 47.1912 51.4C46.3487 52.2938 43.6387 54.4538 36.2662 55.8662C36.9189 54.1738 38.0274 52.695 39.4687 51.5938C38.5325 51.5062 37.5675 51.41 36.6175 51.315C30.7716 55.1411 25.5314 59.8209 21.0712 65.1988C16.22 58.0975 12.805 49.6338 10.9575 39.25C9.69375 32.1338 9.1625 24.125 9.405 15.025C9.405 15.025 24.6137 9.21875 50 9.21875C75.3862 9.21875 90.595 15.025 90.595 15.025C90.8375 24.1775 90.3 32.2338 89.015 39.3763M56.7175 45.375C56.06 44.7863 55.9137 43.8563 56.9675 43.3338C56.585 44.4375 58.88 44.6362 59.8225 46.0662C61.0162 47.8887 59.3162 48.9 59.4125 50.2038C58.7525 48.315 57.025 48.3013 56.2362 47.6237C55.4475 46.9462 55.4462 46.2663 55.8025 45.8525C56.0962 46.705 57.5275 46.1025 56.715 45.3763M58.635 53.4062C55.1875 51.5488 50.5912 51.9425 50.5912 51.9425C51.1712 50.8357 52.0387 49.9056 53.1025 49.25C55.5862 49.9075 57.0812 50.5 58.6362 53.405" fill="white"/>
<path d="M15.3913 33.8049L18.2125 33.2637V25.6374L20.6838 25.1687V22.4649L18.2125 22.9449V19.4837L20.6838 18.9712V16.1949L15.3913 17.3999V33.8049Z" fill="white"/>
<path d="M25.9175 15.2313C22.9287 15.7138 22.7287 16.1975 22.7 19.0713V29.5238C22.7275 32.21 22.9175 32.5125 25.9175 32.2213C28.9475 31.8463 29.3787 31.535 29.405 28.8575V25.57L26.5837 25.8313V29.0175C26.5837 29.4625 26.3062 29.6063 26.06 29.6425C25.83 29.6525 25.5237 29.6163 25.5237 29.0913V18.75C25.5237 18.3338 25.7562 18.1313 26.0237 18.0988C26.3187 18.0513 26.5875 18.2238 26.5875 18.6413V20.68L29.4087 20.3863V18.275C29.3875 15.275 28.9525 14.8425 25.9212 15.2313" fill="white"/>
<path d="M41.125 13.8262L37.2625 14.1062V31.1875L41.2137 30.9637C43.67 30.8262 44.0637 30.4775 44.1025 28.0887V17.375C44.0512 14.105 43.5812 13.7287 41.12 13.825M41.2812 27.95C41.2812 28.3362 41.2312 28.4712 40.8475 28.4925L40.075 28.56V17.0187L40.8475 16.9487C41.1137 16.9487 41.265 17.0737 41.2812 17.6837V27.95Z" fill="white"/>
<path d="M47.7212 13.635L46.0287 30.8612L48.6325 30.8325L48.85 27.8325L50.3962 27.8125L50.635 30.7775L53.2387 30.7975L51.5337 13.5737L47.7212 13.635ZM48.9962 25.21L49.6412 18.4412L50.255 25.1912L48.9962 25.21Z" fill="white"/>
<path d="M58.155 28.4625V13.7925L55.3325 13.6713V30.8513L60.11 31.0063L60.1075 28.52L58.155 28.4625Z" fill="white"/>
<path d="M65.0037 28.8087L65.0062 14.2875L62.1825 14.0475V31.135L66.8975 31.505V28.9875L65.0037 28.8087Z" fill="white"/>
<path d="M70.4575 14.9187L68.7725 31.645L71.3762 31.895L71.5937 28.83L73.1125 28.965L73.33 32.09L75.9337 32.3862L74.2275 15.4037L70.4575 14.9187ZM71.7325 26.2037L72.3575 19.685L72.9712 26.31L71.7325 26.2037Z" fill="white"/>
<path d="M81.1025 16.3912C78.0837 15.8912 77.9112 16.2825 77.885 19.1662V21.4775C77.9087 22.91 78.1787 23.7175 79.1062 24.5337L81.1425 26.1587C81.5362 26.5012 81.78 26.8912 81.7925 27.4087V30.0825C81.7925 30.4862 81.4675 30.5425 81.2175 30.5262C81.0741 30.4988 80.9448 30.422 80.8521 30.3092C80.7594 30.1964 80.7091 30.0547 80.71 29.9087V27.5075L77.8862 27.1725V29.605C77.9125 32.2962 78.225 32.6975 81.215 33.1562C84.2525 33.5425 84.59 33.3987 84.6112 30.6475V27.2262C84.5812 26.12 84.2362 25.2025 83.3725 24.4537L81.2275 22.735C80.8712 22.4087 80.72 22.1312 80.7075 21.5562V19.625C80.7075 19.2237 80.9862 19.125 81.2162 19.1462C81.46 19.2037 81.7875 19.5325 81.7875 19.9575V21.6075L84.6087 22.0187V20.365C84.5812 17.6275 84.1087 16.98 81.1087 16.3912" fill="white"/>
<path d="M50.5875 74.8312L50.355 71.0262L47.695 74.8312H43.2687L46.18 77.365L43.9075 81.305L48.1525 78.86L51.035 81.2637L50.7525 77.3362L55.03 74.8312H50.5875Z" fill="white"/>
<path d="M47.4288 35.7499H45.0538C43.7638 35.7499 43.1088 35.8587 43.1088 36.7374V37.0462C43.1088 37.6862 43.3975 38.0336 45.0025 38.0336H46.5563C47.2075 38.0336 47.5238 37.9424 47.7938 37.7636V38.1887C47.7938 38.4649 47.555 38.6124 46.9825 38.6124H43.07V39.3749H47C48.78 39.3749 49.375 39.0599 49.375 37.9812V36.9874C49.375 36.0649 48.7313 35.7437 47.4313 35.7437M46.945 37.2924H45.4913C44.8175 37.2924 44.6438 37.2012 44.6438 36.9062C44.6438 36.6112 44.825 36.5074 45.4613 36.5074H46.98C47.6188 36.5074 47.7975 36.5999 47.7975 36.9062C47.7975 37.2124 47.6238 37.2924 46.9425 37.2924" fill="#C3C6C8"/>
<path d="M55.035 37.085H53.4825C52.8312 37.085 52.5125 37.1775 52.2412 37.3525V36.9388C52.2412 36.655 52.4813 36.5037 53.055 36.5037H56.78V35.75H53.045C51.2662 35.75 50.67 36.0638 50.67 37.1425V38.125C50.67 39.0487 51.3213 39.375 52.615 39.375H54.99C56.2825 39.375 56.935 39.2613 56.935 38.3875V38.0788C56.935 37.4363 56.65 37.0875 55.0438 37.0875M54.585 38.6075H53.0563C52.4213 38.6075 52.24 38.515 52.24 38.2113C52.24 37.9075 52.415 37.8225 53.0875 37.8225H54.5462C55.2225 37.8225 55.3937 37.9113 55.3937 38.2113C55.3937 38.5113 55.215 38.6075 54.5775 38.6075" fill="#C3C6C8"/>
<path d="M93.0199 12.9362C93.0199 12.9362 77.9512 6.77246 49.9999 6.77246C22.0487 6.77246 6.97994 12.9362 6.97994 12.9362C3.41494 57.3037 25.2199 82.0512 49.9999 93.2262C74.7787 82.05 96.5837 57.3037 93.0199 12.9362ZM49.9999 92.1137C33.5199 84.5662 7.60494 65.7912 7.60494 22.3975C7.60494 19.5887 7.72994 16.6612 7.95244 13.6475C10.8974 12.5837 25.5237 7.78496 49.9999 7.78496C74.4762 7.78496 89.1037 12.5837 92.0474 13.6512C92.2762 16.6687 92.3949 19.5962 92.3949 22.4012C92.3949 65.79 66.4787 84.565 49.9999 92.1112" fill="#C6093B"/>
<path d="M69.5 49.625L64.9175 50.6488C64.12 51.1912 62.7475 52.3613 63.5225 53.325L67.9913 58C67.145 59.8088 68.8413 60.9137 68.8413 60.9137C68.6163 62.1962 66.935 63.9425 66.935 63.9425L65.1425 64.0512L64.375 65.2875L59.4713 65.6687L58.4325 65.1825C54.535 72.75 57.3425 78.53 62 81.785C76.1513 72.0513 85.4513 59.2337 89.0163 39.375C75.955 40.105 75.845 48.115 69.5 49.625Z" fill="#C6093B"/>
<path d="M10.9587 39.2499C12.8037 49.6249 16.22 58.0924 21.0725 65.1999C25.5341 59.8194 30.7764 55.1375 36.625 51.3099C35.065 51.1512 33.5537 50.9849 32.31 50.8274C21.685 49.4899 21.215 39.4074 10.965 39.2437" fill="#C6093B"/>
<path d="M59.4125 50.1987C59.3137 48.8975 61.0112 47.885 59.82 46.0637C58.88 44.6287 56.5837 44.4387 56.965 43.33C55.915 43.8562 56.0587 44.7837 56.715 45.3725C57.5312 46.1037 56.0975 46.7025 55.8025 45.8475C55.4425 46.2637 55.445 46.945 56.2375 47.6187C57.03 48.2925 58.7512 48.31 59.4125 50.1987Z" fill="#C6093B"/>
<path d="M67.9925 58.0062C67.9925 58.0062 67.1062 58.1387 66.6275 59.4287L64.0487 59.3812C63.723 58.9811 63.3128 58.658 62.8475 58.435C62.3822 58.212 61.8734 58.0946 61.3575 58.0912C61.3575 58.0912 59.7025 58.9987 59.8462 60.2887C60.0047 60.0614 60.217 59.8768 60.4641 59.7514C60.7112 59.626 60.9855 59.5637 61.2625 59.57C61.9137 59.8062 62.2075 60.5287 62.2075 60.5287C62.2075 60.5287 61.8475 62.1037 59.905 62.7225C59.905 62.7225 57.5562 61.3812 55.7575 61.3C53.9587 61.2187 51.445 63.4475 49.0825 61.4687C46.72 59.49 46.945 56.43 47.9387 54.36C47.9387 54.36 42.3462 58.2437 46.9525 63.5525C46.9525 63.5525 39.2487 68.6587 35.9012 80.2925C40.1387 83.41 44.8462 86.2137 49.9987 88.8212C54.315 86.64 58.3187 84.315 61.9987 81.7862C57.3437 78.5362 54.5375 72.7537 58.4287 65.1837L59.4675 65.6687L64.375 65.2875L65.145 64.0575L66.94 63.9487C66.94 63.9487 68.6225 62.1987 68.845 60.9212C68.845 60.9212 67.1475 59.8137 67.9975 58.005M51.0337 81.265L48.1587 78.8612L43.9087 81.3037L46.1862 77.3637L43.2712 74.8325H47.7L50.3612 71.0237L50.5912 74.8325H55.04L50.7612 77.3325L51.0337 81.265Z" fill="#001F5B"/>
<path d="M48.9925 25.2112L50.2512 25.1949L49.6375 18.4412L48.9925 25.2112Z" fill="#001F5B"/>
<path d="M90.5963 15.02C90.5963 15.02 75.3913 9.21875 50 9.21875C24.6087 9.21875 9.40375 15.02 9.40375 15.02C9.1625 24.1163 9.69375 32.125 10.9575 39.24C22.23 35.49 24.9175 44.4762 34.07 44.81L44.27 44.9012C45.97 43.1937 48.415 42.305 48.415 42.305L57.14 42.3638C58.9587 43.2675 60.795 44.655 60.795 44.655C60.795 44.655 63.5587 44.6925 66.8087 44.4325C73.125 43.925 75.625 37.295 89.0137 39.375C90.2988 32.235 90.8388 24.1788 90.5963 15.0212M20.6838 18.9713L18.2075 19.4837V22.9412L20.68 22.4638V25.1663L18.2075 25.6388V33.2637L15.3863 33.8063V17.4062L20.6788 16.1987L20.6838 18.9713ZM29.4062 20.3925L26.585 20.6838V18.6413C26.585 18.2313 26.315 18.0562 26.02 18.0987C25.7563 18.1287 25.52 18.3313 25.52 18.75V29.0888C25.52 29.615 25.8275 29.65 26.0562 29.64C26.3062 29.6012 26.5825 29.4562 26.5825 29.015V25.83L29.4037 25.5662V28.8538C29.3762 31.535 28.945 31.8475 25.915 32.2175C22.915 32.5125 22.7263 32.2087 22.6975 29.5225V19.0713C22.725 16.1963 22.9263 15.7075 25.915 15.2312C28.9538 14.8412 29.3787 15.2725 29.4037 18.275L29.4062 20.3925ZM37.2588 31.1938V14.1025L41.1213 13.8263C43.5825 13.7288 44.0513 14.1037 44.105 17.3762V28.0963C44.0638 30.4825 43.6712 30.8275 41.215 30.9638L37.2588 31.1938ZM49.375 37.9775C49.375 39.055 48.7762 39.3713 47 39.3713H43.0725V38.6025H46.985C47.5588 38.6025 47.7975 38.4575 47.7975 38.1813V37.75C47.5275 37.9287 47.215 38.02 46.56 38.02H45.0088C43.4025 38.02 43.115 37.6738 43.115 37.0325V36.7238C43.115 35.8488 43.7663 35.735 45.06 35.735H47.4287C48.73 35.735 49.3725 36.0612 49.3725 36.9787L49.375 37.9775ZM50.3975 27.8088L48.8537 27.8275L48.6362 30.8275L46.0325 30.8575L47.7238 13.6337L51.54 13.5725L53.25 30.7938L50.6463 30.7738L50.3975 27.8088ZM56.9287 38.3838C56.9287 39.2588 56.2775 39.3713 54.9837 39.3713H52.6087C51.3075 39.3713 50.665 39.045 50.665 38.1213V37.1312C50.665 36.0512 51.2663 35.7375 53.04 35.7375H56.775V36.5H53.055C52.4825 36.5 52.2412 36.6463 52.2412 36.9275V37.3475C52.5125 37.1712 52.8275 37.0775 53.4825 37.0775H55.035C56.6425 37.0775 56.9263 37.4262 56.9263 38.0687L56.9287 38.3838ZM55.3325 30.85V13.6713L58.1538 13.7963V28.4625L60.1063 28.52V31.0063L55.3325 30.85ZM62.1825 31.135V14.0425L65 14.2812V28.805L66.8938 28.9837V31.5L62.1825 31.135ZM73.33 32.0838L73.1125 28.9587L71.5938 28.8225L71.375 31.89L68.7712 31.64L70.455 14.915L74.225 15.4L75.9337 32.375L73.33 32.0838ZM84.6137 22.0163L81.7925 21.605V19.955C81.7925 19.53 81.4675 19.1962 81.2213 19.1437C80.9912 19.1237 80.7113 19.2212 80.7113 19.6225V21.5575C80.725 22.1325 80.8775 22.4125 81.2312 22.7337L83.375 24.4538C84.25 25.2038 84.585 26.1175 84.615 27.225V30.645C84.59 33.395 84.2538 33.5412 81.2188 33.155C78.23 32.6975 77.9163 32.2938 77.89 29.6038V27.1725L80.7113 27.5112V29.9088C80.7101 30.055 80.7603 30.1969 80.853 30.31C80.9457 30.4231 81.0751 30.5 81.2188 30.5275C81.4688 30.5438 81.7937 30.4862 81.7937 30.0837V27.4062C81.7862 26.8875 81.5438 26.4988 81.1438 26.1562L79.1087 24.5312C78.1813 23.7175 77.915 22.9062 77.8875 21.4788V19.1637C77.9125 16.2812 78.085 15.8875 81.1038 16.3875C84.1038 16.9788 84.5825 17.6238 84.615 20.3638L84.6137 22.0163Z" fill="#001F5B"/>
<path d="M54.5475 37.8187H53.0887C52.415 37.8187 52.24 37.91 52.24 38.2062C52.24 38.5025 52.4225 38.6025 53.0587 38.6025H54.5775C55.2137 38.6025 55.395 38.51 55.395 38.2062C55.395 37.9025 55.2237 37.8187 54.5475 37.8187Z" fill="#001F5B"/>
<path d="M71.7312 26.2062L72.9675 26.3125L72.3538 19.6825L71.7312 26.2062Z" fill="#001F5B"/>
<path d="M40.8525 16.95L40.08 17.0187V28.5637L40.8525 28.4962C41.2275 28.47 41.2775 28.3325 41.2863 27.9537V17.685C41.2725 17.0712 41.1213 16.945 40.8525 16.95Z" fill="#001F5B"/>
<path d="M46.98 36.5H45.4613C44.8225 36.5 44.6413 36.5925 44.6413 36.8988C44.6413 37.205 44.815 37.285 45.4888 37.285H46.9412C47.6225 37.285 47.7962 37.1963 47.7962 36.8988C47.7962 36.6013 47.6175 36.5 46.9787 36.5" fill="#001F5B"/>
<path d="M68.6762 46.75C66.2475 46.9863 62.95 47.1463 62.95 47.1463C63.3086 47.578 63.5803 48.075 63.75 48.61C63.75 48.61 61.1175 50.6663 63.5325 53.3213C62.76 52.3575 64.1275 51.1838 64.9262 50.645L69.5 49.625C75.84 48.125 75.95 40.1088 89.0112 39.3825C75.085 38.7313 74.57 46.1725 68.6725 46.7575" fill="#001F5B"/>
<path d="M36.6175 51.3075C37.5675 51.4038 38.5325 51.5 39.4688 51.5875C38.0288 52.6889 36.921 54.1665 36.2675 55.8575C43.6425 54.4475 46.3525 52.2875 47.195 51.3938C49.675 48.99 47.6125 46.1438 46.99 45.945C47.5713 47.6388 46.5188 48.195 46.5188 48.195L33.885 47.5313C22.3413 46.4725 22.6988 37.4638 10.9575 39.2413C21.2075 39.4088 21.6788 49.4913 32.3038 50.8288C33.5463 50.9863 35.0538 51.1538 36.6175 51.3113" fill="#001F5B"/>
<path d="M58.64 53.3974C57.0862 50.4974 55.5912 49.8974 53.105 49.2437C52.0411 49.898 51.1735 50.8273 50.5938 51.9337C50.5938 51.9337 55.19 51.5399 58.6375 53.3974" fill="#001F5B"/>
</g>
</g>
</svg>
