<svg width="100" height="100" viewBox="0 0 100 100" fill="none" xmlns="http://www.w3.org/2000/svg">
<mask id="mask0_3_4653" style="mask-type:luminance" maskUnits="userSpaceOnUse" x="8" y="5" width="84" height="90">
<path d="M91.825 5.59131H8.17499V94.4076H91.825V5.59131Z" fill="white"/>
</mask>
<g mask="url(#mask0_3_4653)">
<mask id="mask1_3_4653" style="mask-type:luminance" maskUnits="userSpaceOnUse" x="8" y="5" width="84" height="90">
<path d="M91.8262 5.59131H8.17499V94.4076H91.8262V5.59131Z" fill="white"/>
</mask>
<g mask="url(#mask1_3_4653)">
<path d="M91.8188 22.2726C91.7564 24.9559 90.8311 27.5477 89.18 29.6638C89.6819 31.5046 89.9341 33.4045 89.93 35.3126C89.9188 41.2026 87.1625 44.3251 86.465 45.3851C87.0588 49.2876 86.3163 53.0363 84.825 55.9688C82.98 59.5938 80.4675 62.1001 76.5163 64.0938C76.5163 64.0938 73.525 71.5513 69.62 76.9051C61.2625 88.3626 51.62 93.8513 49.9413 94.4051C48.1088 93.8238 38.7625 88.4051 30.37 76.9051C26.4663 71.5513 23.475 64.0976 23.475 64.0976C19.5225 62.0976 17.0113 59.5976 15.1663 55.9726C13.675 53.0376 12.9338 49.2913 13.525 45.3888C12.8275 44.3288 10.0713 41.2051 10.0613 35.3163C10.0576 33.4083 10.3098 31.5085 10.8113 29.6676C9.16516 27.549 8.24399 24.9573 8.18376 22.2751C8.13376 20.3101 8.31876 17.3913 9.96001 14.2351C10.1594 13.873 10.3815 13.524 10.625 13.1901C10.8897 14.1858 11.2715 15.1467 11.7625 16.0526C12.23 16.8863 12.7425 17.6376 13.8713 18.6688C14.9547 19.6679 16.2387 20.4247 17.6375 20.8888L17.625 8.60006C23.2575 7.35631 34.6463 5.59131 49.96 5.59131C65.2738 5.59131 76.5613 7.35631 82.375 8.59756L82.3613 20.8863C83.7602 20.4218 85.0441 19.6646 86.1275 18.6651C87.2525 17.6338 87.7625 16.8838 88.2363 16.0501C88.7277 15.1425 89.1099 14.18 89.375 13.1826C89.6198 13.5163 89.8424 13.8658 90.0413 14.2288C91.6825 17.3813 91.8688 20.3038 91.8175 22.2688" fill="white"/>
<path d="M37.42 53.9563L38.1912 56.3313H40.6912L38.67 57.7976L39.4475 60.1726L37.4275 58.7063L35.405 60.1763L36.1762 57.8013L34.1562 56.3313H36.6562L37.42 53.9563ZM49.1125 56.3313H46.625L48.6462 57.7976L47.8687 60.1726L49.8962 58.7088L51.9137 60.175L51.1425 57.8L53.1587 56.3313H50.6587L49.8912 53.9563L49.1125 56.3313ZM61.415 56.3313H58.9212L60.9412 57.7976L60.17 60.1726L62.1887 58.7063L64.2112 60.1763L63.4337 57.8013L65.455 56.3313H62.955L62.1837 53.9563L61.415 56.3313ZM41.0975 77.8938C40.25 79.4476 39.1812 80.7501 38.695 81.4538H61.435C60.9475 80.7526 59.9162 79.42 58.9825 77.895C58.2887 76.7588 57.6737 75.6451 57.2737 74.3426H42.6937C42.3287 75.5501 41.7462 76.7175 41.1062 77.895M65.1375 65.0001C68.5675 63.8901 72.6475 62.4938 72.6475 62.4938H27.3025C27.3025 62.4938 31.495 63.9688 34.9512 65.0138C37.92 65.9138 41.5012 67.1938 42.5987 69.6488H57.395C58.5987 67.1938 62.185 65.9513 65.1375 65.0013" fill="#EB0029"/>
<path d="M53.545 39.3038C53.2868 39.1324 53.004 39.0013 52.7062 38.9151C52.3125 38.7901 51.8088 38.6988 50.69 38.7401C50.0025 38.7651 49.1063 38.7401 49.1063 38.7401C49.1063 38.7401 49.875 39.7838 50.2225 40.0438C50.7775 40.4638 51.7025 40.0863 52.4613 39.7663C52.8237 39.5913 53.545 39.3038 53.545 39.3038ZM63.795 46.6251C64.17 46.1563 64.4613 45.3051 64.4725 44.4138C64.4838 42.8888 63.9175 40.8776 62.8475 38.3951C62.1875 36.8613 61.0887 34.4038 61.2487 32.1201C61.36 30.5463 62.5425 29.0888 64.2787 28.1476C67.1837 26.5726 71.1712 25.6476 71.1712 25.6476C64.8862 25.0163 57.5238 24.5226 49.9212 24.5226C42.8386 24.539 35.7613 24.9124 28.7163 25.6413C28.7163 25.6413 32.6525 26.5638 35.6088 28.1413C37.3513 29.0701 38.5313 30.5401 38.6413 32.1138C38.7988 34.3976 37.7025 36.8551 37.0425 38.3888C35.9713 40.8726 35.4075 42.8888 35.4175 44.4076C35.425 45.2963 35.6975 46.1476 36.0513 46.6351C36.52 47.2851 37.235 47.9451 38.8263 47.9451C41.4987 47.9451 42.515 45.5601 42.515 44.1388C42.515 42.7176 41.7787 42.0588 41.265 41.6138C40.5978 41.0699 39.8346 40.6557 39.015 40.3926C39.015 40.3926 42.0938 39.4038 42.0938 37.6101C42.0938 36.1388 41.2 34.4588 40.0463 33.2351L40.1225 33.1563C40.4388 33.3338 41.5825 33.7651 42.565 33.9426C44.0001 34.1852 45.4533 34.3048 46.9087 34.3001C49.275 34.3001 50.35 34.0201 52.1025 34.0201C53.9263 34.0201 55.5438 34.8826 55.9388 36.5351C56.5805 36.4528 57.229 36.4386 57.8737 36.4926C60.0437 36.7138 61.525 38.2351 61.5638 40.2213C61.6388 44.1338 58.2925 45.3951 57.6512 45.4888C57.7384 45.2341 57.759 44.9613 57.7113 44.6963C57.6437 44.2288 57.2113 43.6026 56.4987 43.6026C55.4837 43.6026 54.9762 44.4363 55.01 45.2676C55.0837 47.0863 57.1275 47.8626 59.1787 47.9763C59.49 47.9926 59.71 48.0013 60.0025 47.9926C61.9075 47.9426 63.1038 47.4713 63.7938 46.6176M91.8225 22.2751C91.7599 24.9579 90.8356 27.5494 89.1862 29.6663C89.6882 31.5063 89.9405 33.4054 89.9362 35.3126C89.925 41.2051 87.1688 44.3276 86.4713 45.3876C87.0625 49.2901 86.3187 53.0376 84.83 55.9701C82.98 59.5951 80.4688 62.0951 76.5163 64.0951C76.5163 64.0951 73.525 71.5526 69.62 76.9051C61.2638 88.3613 51.62 93.8488 49.9425 94.4051C48.115 93.8238 38.7638 88.4051 30.3713 76.9051C26.4663 71.5538 23.475 64.1001 23.475 64.1001C19.5225 62.1001 17.01 59.6001 15.1663 55.9751C13.675 53.0401 12.9313 49.2926 13.525 45.3888C12.8275 44.3288 10.0713 41.2063 10.0613 35.3138C10.0576 33.4067 10.3099 31.5076 10.8113 29.6676C9.16143 27.5508 8.23667 24.9593 8.17375 22.2763C8.1225 20.3113 8.31 17.3913 9.95 14.2363C10.1525 13.8723 10.3779 13.5216 10.625 13.1863C10.8898 14.183 11.2712 15.1451 11.7613 16.0526C12.2313 16.8863 12.7413 17.6376 13.87 18.6688C14.9535 19.6679 16.2374 20.4247 17.6363 20.8888L17.625 8.60006C23.26 7.35006 34.6475 5.59131 49.9637 5.59131C65.28 5.59131 76.5625 7.35631 82.375 8.59881L82.3613 20.8876C83.7601 20.4235 85.044 19.6667 86.1275 18.6676C87.2525 17.6363 87.7625 16.8851 88.2363 16.0513C88.7279 15.1443 89.1101 14.1822 89.375 13.1851C89.6198 13.5188 89.8424 13.8683 90.0413 14.2313C91.6825 17.3826 91.8675 20.3063 91.8175 22.2713M89.56 16.1763C89.01 17.5713 87.8012 18.8851 86.5987 19.9263C85.155 21.1763 82.6738 22.3088 81.18 22.5513V9.47756C79.2875 9.08256 68.235 6.75006 49.9888 6.75006C31.7425 6.75006 20.7188 9.08381 18.8213 9.47756V22.5588C17.3213 22.3088 14.8413 21.1776 13.4025 19.9338C12.2 18.8901 10.99 17.5763 10.4425 16.1838C9.7 17.9151 9.415 20.1251 9.47125 22.0001C9.57375 25.3363 10.6925 27.2288 12.2288 29.4626C12.2288 29.4626 11.1188 31.8376 11.3675 36.4988C11.5763 40.4476 13.86 43.6588 14.9075 45.1238C13.7138 52.0951 16.9338 56.8251 18.915 59.0988C21.3363 61.8738 24.6125 63.3388 24.6125 63.3388C25.655 66.0788 28.34 72.1176 31.9713 76.8226C36.375 82.5263 42.7513 89.2151 49.935 92.9476C57.12 89.2101 63.6287 82.5226 68.0312 76.8226C71.665 72.1176 74.35 66.0726 75.3913 63.3388C75.3913 63.3388 78.6675 61.8788 81.0875 59.0988C83.0687 56.8251 86.2863 52.0988 85.0875 45.1238C86.1363 43.6638 88.4188 40.4526 88.6275 36.5051C88.8775 31.8426 87.7675 29.4688 87.7675 29.4688C89.3063 27.2338 90.4212 25.3438 90.5175 22.0063C90.575 20.1313 90.2887 17.9288 89.5488 16.1876M86.365 30.9151C87.1825 33.8988 86.7962 36.8676 86.2688 38.6651C84.6363 44.2351 79.9625 46.2963 76.3938 48.3088C74.6875 49.2701 73.3612 50.1151 72.4025 50.9513C69.0725 53.8663 69.6813 55.9513 69.6813 55.9513C70.8825 53.5551 74.4875 51.9876 77.64 50.4001C81.94 48.2251 83.3125 46.2488 83.3125 46.2488C83.9375 49.9876 82.7938 53.4651 81.2925 55.8938C78.065 61.1113 72.8463 62.4176 72.6913 62.4963H27.3163C27.16 62.4176 21.9413 61.1088 18.72 55.8938C17.22 53.4688 16.07 49.9876 16.6988 46.2488C16.6988 46.2488 18.0738 48.2251 22.3763 50.3976C25.5288 51.9888 29.1338 53.5563 30.335 55.9476C30.335 55.9476 30.9438 53.8626 27.615 50.9476C26.6563 50.1113 25.3288 49.2676 23.6238 48.3051C20.0488 46.2926 15.3738 44.2313 13.7488 38.6613C13.2238 36.8663 12.8363 33.8976 13.6525 30.9113C13.6525 30.9113 14.4163 33.4913 19.9925 36.2651C24.0363 38.2801 26.7963 40.1863 28.01 42.9526C28.01 42.9526 28.9463 39.5326 25.2475 36.7551C24.1875 35.9601 23.3163 35.4226 20.965 34.1301C19.4113 33.2688 15.8763 31.4913 13.3663 27.8263C11.7763 25.5201 10.75 22.7626 11.25 19.8301C11.25 19.8301 11.7575 20.9351 13.67 22.1163C15.9838 23.5463 18.505 24.2713 22.0563 25.2338C25.4113 26.1413 31.16 27.2688 34.5463 29.1626C36.08 30.0176 37.0575 31.2388 37.0775 32.6038C37.1325 36.2288 33.875 39.6676 33.875 44.3788C33.875 47.3363 35.4038 49.2838 38.7063 49.2838C40.2612 49.2838 41.475 48.7288 42.37 47.9088C43.48 46.9013 44.07 45.5013 44.07 44.2913C44.07 41.2913 41.9275 40.6276 41.445 40.3788C42.5975 39.9076 43.3925 39.1513 43.5037 38.0038C43.5938 37.0926 43.4125 36.4488 43.2375 36.0776C43.0589 35.6855 42.8353 35.3155 42.5713 34.9751C43.3572 35.2316 44.1686 35.4022 44.9912 35.4838C48.5438 35.8588 49.7863 35.2876 51.5625 35.2876C53.2713 35.2876 54.86 36.1163 54.79 37.8051C55.444 37.6288 56.119 37.5426 56.7962 37.5488C59.3862 37.5488 60.3225 39.1088 60.3225 40.5151C60.3225 42.6138 58.9362 43.6238 58.5725 43.7338C58.3612 42.7901 57.24 42.3026 56.3625 42.3026C55.1125 42.3026 53.5863 43.1138 53.5863 45.1463C53.5902 45.6696 53.7005 46.1867 53.9104 46.6661C54.1204 47.1455 54.4256 47.5772 54.8075 47.9351C55.5238 48.5601 56.975 49.3201 59.915 49.3201C63.8613 49.3201 66.14 47.3363 66.14 44.3776C66.14 39.6676 62.8562 36.2526 62.9362 32.6038C62.965 31.2288 63.9088 30.0376 65.48 29.1613C68.8688 27.2626 74.605 26.1426 77.9575 25.2326C81.51 24.2713 84.0287 23.5463 86.3438 22.1151C88.2562 20.9338 88.7637 19.8301 88.7637 19.8301C89.2637 22.7613 88.2362 25.5176 86.6537 27.8226C84.1475 31.4863 80.615 33.2626 79.0563 34.1263C76.705 35.4238 75.8363 35.9601 74.7763 36.7513C71.0763 39.5263 72.0125 42.9476 72.0125 42.9476C73.2275 40.1826 75.985 38.2763 80.03 36.2613C85.6075 33.4851 86.3688 30.9076 86.3688 30.9076M38.665 57.8013L40.6862 56.3338H38.1863L37.415 53.9588L36.6438 56.3338H34.1438L36.165 57.8013L35.3925 60.1763L37.4113 58.7088L39.4325 60.1763L38.665 57.8013ZM51.1312 57.8013L53.1525 56.3338H50.6525L49.8875 53.9588L49.11 56.3338H46.61L48.6312 57.8013L47.8587 60.1763L49.8825 58.7088L51.9025 60.1763L51.1312 57.8013ZM53.3525 48.4263C53.1463 48.2388 52.1562 46.9588 52.115 45.3501C52.0475 42.6301 53.92 41.0013 56.365 41.0013C58.1725 41.0013 58.715 42.0676 58.715 42.0676C58.9012 41.8451 59.215 41.0551 59.1037 40.3763C58.9062 39.2263 57.9388 38.7513 56.4038 38.7513C54.805 38.7513 53.81 39.1951 53.81 39.1951L53.6125 39.2701C53.6125 39.2701 53.905 37.8401 52.8625 37.0063C52.0562 36.3613 50.6663 36.5726 49.4575 36.7776C47.9438 37.0276 45.6187 37.0276 44.4087 36.4251C44.8069 37.074 44.9845 37.8344 44.915 38.5926C44.805 39.5026 44.13 40.1463 43.76 40.4101C44.395 40.8813 45.5988 41.7101 45.5988 44.0988C45.5988 46.0488 44.2962 47.9076 43.735 48.3588C44.875 48.1476 46.1325 48.0801 46.9475 48.3763C48.8662 49.0713 49.1975 50.4426 49.4475 51.1088L49.6263 51.0326C49.4575 50.1301 49.4038 48.5201 50.3338 48.0188C51.07 47.6238 52.4438 48.0688 53.3338 48.5401C53.3338 48.5401 53.3338 48.4088 53.3713 48.4301M63.4512 57.8051L65.4713 56.3376H62.9712L62.2 53.9626L61.4275 56.3376H58.9212L60.9412 57.8051L60.165 60.1801L62.185 58.7126L64.2113 60.1801L63.4512 57.8051ZM34.7075 67.0813C32.43 66.3701 29.8638 65.5263 27.0738 64.4563C28.0213 66.8638 29.7738 70.1551 31.1813 72.3438C32.7363 74.7613 34.8375 77.5613 37.0863 79.9113C38.2113 78.7476 41.7412 74.5488 41.7412 71.5551C41.7412 69.2501 37.6325 68.0026 34.71 67.0851M58.29 71.5376C58.0225 74.5188 61.9775 78.8651 62.975 79.8638C65.225 77.5176 67.3 74.7451 68.85 72.3276C70.2575 70.1401 72.0075 66.8476 72.9587 64.4401C70.1675 65.5138 67.6888 66.2888 65.3238 67.0413C62.4025 67.9663 58.505 69.1776 58.2925 71.5413M42.5988 69.6501C42.9088 70.1888 43.0137 70.9001 43.0725 71.6738C43.1512 72.7088 42.8225 73.9888 42.6975 74.3438H57.275C57.15 73.9888 56.8225 72.7088 56.9 71.6738C56.9575 70.9051 57.0775 70.1888 57.3875 69.6501H42.5988ZM49.9338 90.7751C53.325 88.9788 58.6838 83.9713 61.45 81.4488H38.6913C41.3738 84.4888 46.85 89.1426 49.9412 90.7751M27.9225 13.5113C27.9225 13.1451 27.8888 12.3213 27.6463 11.8938C27.4616 11.5466 27.1639 11.2727 26.8025 11.1176C26.4863 10.9926 26.015 10.9338 25.09 11.0638C24.215 11.1751 22.1325 11.5076 22.1325 11.5076L22.1438 23.9013C22.1438 23.9013 23.3938 23.7401 23.845 23.6788C24.32 23.6113 25.79 23.4288 26.1225 23.3638C26.8113 23.2201 27.0725 22.9688 27.2763 22.7813C27.6913 22.4063 27.9325 21.8338 27.9325 21.1151L27.9225 13.5113ZM25.695 22.1363C25.5544 22.2418 25.3865 22.3047 25.2113 22.3176L24.2113 22.4426V12.3601L25.2675 12.2188C25.505 12.1863 25.6425 12.2326 25.735 12.3363C25.8275 12.4401 25.8463 12.6588 25.8463 13.0301L25.8538 21.5976C25.8538 21.7851 25.8463 21.9813 25.6938 22.1226M77.8187 14.3963C77.8187 14.1026 77.855 13.0938 77.7075 12.6463C77.5112 12.0876 77.25 11.8751 76.875 11.6376C76.5 11.4001 75.875 11.3051 74.9775 11.1563C74.08 11.0076 72.0675 10.7726 72.0675 10.7726V23.2813C72.0675 23.2813 73.35 23.4463 73.7738 23.5163C74.1975 23.5863 75.7588 23.7988 76.0912 23.8051C76.7825 23.8138 76.96 23.6676 77.165 23.5376C77.58 23.2763 77.8187 22.7738 77.8187 22.0551V14.3963ZM75.7375 21.9413C75.7375 22.1838 75.695 22.3026 75.6125 22.3626C75.4875 22.4576 75.2988 22.4413 75.0938 22.4101L74.1363 22.2726V12.2726L75.1687 12.4188C75.4775 12.4613 75.5675 12.5438 75.6462 12.7113C75.7012 12.8363 75.7337 13.0163 75.7337 13.3913L75.7375 21.9413ZM29.3513 23.1251C29.4487 23.118 29.5436 23.0906 29.6297 23.0445C29.7159 22.9984 29.7913 22.9347 29.8513 22.8576C29.9799 22.7038 30.0434 22.5059 30.0282 22.306C30.013 22.1062 29.9204 21.9201 29.77 21.7876C29.6348 21.6617 29.4554 21.5945 29.2708 21.6006C29.0862 21.6067 28.9116 21.6856 28.785 21.8201L28.7425 21.8688C28.6126 22.0232 28.5488 22.2227 28.565 22.4238C28.5716 22.5231 28.5978 22.6201 28.6422 22.7092C28.6867 22.7983 28.7484 22.8776 28.8238 22.9426C28.8941 23.0093 28.9779 23.0603 29.0695 23.0922C29.1611 23.1241 29.2584 23.1362 29.355 23.1276M38.125 22.3851C38.2224 22.3784 38.3173 22.3513 38.4035 22.3054C38.4896 22.2595 38.5651 22.1959 38.625 22.1188C38.7521 21.9641 38.8144 21.7662 38.799 21.5666C38.7837 21.367 38.6917 21.181 38.5425 21.0476C38.471 20.9791 38.3854 20.9271 38.2917 20.8951C38.198 20.8632 38.0984 20.852 38 20.8626C37.9025 20.8695 37.8076 20.8969 37.7215 20.943C37.6353 20.9891 37.5599 21.0528 37.5 21.1301C37.3719 21.2839 37.3088 21.4816 37.3243 21.6812C37.3397 21.8808 37.4323 22.0665 37.5825 22.1988C37.6527 22.2656 37.7362 22.3167 37.8275 22.3488C37.9189 22.3809 38.016 22.3932 38.1125 22.3851M33.8938 10.0188C33.5275 10.0451 32.3688 10.1163 31.6613 10.8426C31.0075 11.5088 31.0475 12.3826 31.0525 12.6901V20.6251C31.0638 21.3388 31.3288 21.9163 31.8088 22.2901C32.0313 22.4676 32.53 22.8576 33.8725 22.7351C35.0088 22.6301 35.635 22.2688 35.9825 21.9651C36.195 21.7736 36.3619 21.5371 36.4712 21.2728C36.5804 21.0085 36.6291 20.7231 36.6138 20.4376V17.5001L34.5688 18.3638V20.4738C34.5688 21.1138 34.34 21.4013 33.85 21.4626C33.5275 21.5013 33.0913 21.4538 33.0913 20.6526V12.0638C33.0913 11.5763 33.3413 11.2876 33.765 11.2463C34.1888 11.2051 34.5425 11.3863 34.5425 11.9563V14.4176L36.5825 13.5426V12.3388C36.5825 11.7013 36.52 11.1976 36.2913 10.8463C35.835 10.1438 34.7375 9.95756 33.89 10.0176M45.8013 9.50756L43.6975 9.56006V20.0676C43.6975 20.8063 43.2725 20.9426 42.85 20.9426C42.3287 20.9513 42.0375 20.7201 42.0375 20.1501V9.61631L39.965 9.71131V20.0488C39.965 21.1288 40.4088 21.4501 40.61 21.6363C41.0063 21.9876 41.8962 22.2263 42.8312 22.1913C43.9275 22.1463 44.545 21.9151 45.0812 21.5176C45.5812 21.1426 45.8088 20.5613 45.8088 19.8926V9.50756M53.875 9.50006L51.7988 9.47881V14.0713L49.7175 9.45881L47.7912 9.46756V21.9301H49.85V13.3176L51.85 17.2813V21.9226L53.8737 21.9626V9.50006M58.125 9.62506L56.0675 9.55506V22.0113L58.125 22.1363V9.62506ZM70.8375 21.7026L68.305 21.4076V16.9076L69.6588 17.0463L70.4088 15.6138L68.2988 15.3913V11.6438L70.5 11.8751L70.5088 10.5726C70.5088 10.5726 69.0937 10.4263 68.465 10.3563C67.95 10.3026 66.25 10.1363 66.25 10.1363V22.6363C66.25 22.6363 67.8225 22.7938 68.415 22.8576L70.8475 23.1176L70.8375 21.7026ZM65.25 10.0651C65.25 10.0651 63.1587 9.91506 62.315 9.86381L59.5213 9.69881L58.9038 10.9488L61.14 11.0738V22.2626C61.14 22.2626 63.24 22.4063 63.195 22.4063V11.1913L65.2613 11.3351L65.25 10.0651Z" fill="#2E2A25"/>
</g>
</g>
</svg>
