<svg width="100" height="100" viewBox="0 0 100 100" fill="none" xmlns="http://www.w3.org/2000/svg">
<mask id="mask0_3_4697" style="mask-type:luminance" maskUnits="userSpaceOnUse" x="9" y="0" width="82" height="100">
<path d="M90.5238 0.375H9.47501V99.625H90.5238V0.375Z" fill="white"/>
</mask>
<g mask="url(#mask0_3_4697)">
<path d="M90.345 25.054L50.1975 0.431467C50.1382 0.394715 50.0698 0.375244 50 0.375244C49.9302 0.375244 49.8618 0.394715 49.8025 0.431467L9.65626 25.0565C9.60128 25.0896 9.55575 25.1364 9.52401 25.1922C9.49228 25.248 9.4754 25.311 9.47501 25.3752V74.6252C9.47498 74.6898 9.49165 74.7534 9.5234 74.8097C9.55516 74.866 9.60092 74.9131 9.65626 74.9465L49.8025 99.5715C49.8618 99.6082 49.9302 99.6277 50 99.6277C50.0698 99.6277 50.1382 99.6082 50.1975 99.5715L90.345 74.9465C90.4001 74.9129 90.4456 74.8657 90.4772 74.8095C90.5087 74.7532 90.5252 74.6897 90.525 74.6252V25.3752C90.5254 25.3105 90.509 25.2468 90.4775 25.1903C90.4459 25.1338 90.4003 25.0864 90.345 25.0527" fill="#101820"/>
</g>
<path d="M50 97.0462L11.6663 73.535V26.465L50 2.95374L88.3338 26.465V73.535L50 97.0462ZM13.125 72.6612L50 95.2787L86.875 72.6612V27.3387L50 4.72124L13.125 27.3387V72.6612Z" fill="#FF6B00"/>
<path d="M63.9488 21.915L65.7375 20.1263L64.7163 19.1025L62.5025 21.3163V24.6463H63.9488V21.915Z" fill="#FF6B00"/>
<path d="M59.8162 24.6463H61.2625V21.3163L59.0487 19.1038L58.0262 20.1263L59.8162 21.915V24.6463Z" fill="#FF6B00"/>
<path d="M38.1875 27.3325V25.8863H30.2587L27.4775 23.0675L26.455 24.09L29.6975 27.3325H38.1875Z" fill="#FF6B00"/>
<path d="M68.7225 25.8862H44.8012V27.3325H68.1237L72.9825 32.19V43.3425L68.085 48.2387H65.1762V49.685H68.6837L74.4287 43.9425V31.5912L68.7225 25.8862Z" fill="#FF6B00"/>
<path d="M58.5762 48.2388H29.6975L26.455 51.4425L27.4775 52.5038L30.2962 49.6838H58.5762V48.2388Z" fill="#FF6B00"/>
<path d="M31.1438 28.5725H29.6975V46.9988H31.1438V28.5725Z" fill="#FF6B00"/>
<path d="M38.1875 30.0188V28.5725H32.3838V46.9988H58.5763V45.5525H33.8288V30.0188H38.1875Z" fill="#FF6B00"/>
<path d="M66.9662 45.5525H65.1775V46.9988H67.565L71.7425 42.8213V32.695L67.6162 28.5725H44.8012V30.0188H67.0175L70.2937 33.295V42.2213L66.9662 45.5525Z" fill="#FF6B00"/>
<path d="M39.4287 53.655L37.6387 55.4438L38.6612 56.4675L40.875 54.2538V50.925H39.4287V53.655Z" fill="#FF6B00"/>
<path d="M43.5612 50.925H42.115V54.2538L44.3275 56.4663L45.35 55.445L43.5612 53.655V50.925Z" fill="#FF6B00"/>
<path d="M59.8175 35.7188H43.5612V22.1025V21.915L45.35 20.1263L44.3287 19.1038L42.115 21.3163V24.6463V37.165H61.2637V31.2588H59.8175V35.7188Z" fill="#FF6B00"/>
<path d="M42.115 44.3125H43.5612V39.8512H59.8175V53.655L58.0275 55.445L59.05 56.4663L61.2625 54.2537V38.4062H42.115V44.3125Z" fill="#FF6B00"/>
<path d="M63.9437 40.4563L66.615 37.785L63.95 35.12V31.2588H62.5037V35.7188L64.57 37.785L62.4987 39.8575V54.2363L64.7113 56.4488L65.7337 55.4275L63.9437 53.6375V40.4563Z" fill="#FF6B00"/>
<path d="M39.4287 35.1575L36.8 37.7863L39.4262 40.4113V44.3125H40.8725V39.8125L38.845 37.7863L40.875 35.7563V24.645V21.3163L38.6612 19.1038L37.6387 20.1263L39.4287 21.915V35.1575Z" fill="#FF6B00"/>
<path d="M54.5387 84.6849H50.9675L53.445 79.6637L47.49 86.1674H51.0612L48.5837 91.1887L54.5387 84.6849Z" fill="#FF6B00"/>
<path d="M24.535 63.8499H20.9763V59.9399H19.23V69.7787H20.9763V65.4849H24.535V69.7787H26.2813V59.9399H24.535V63.8499Z" fill="white"/>
<path d="M30.275 59.9399L28.6175 61.5974V68.1249L30.275 69.7812H34.25L35.905 68.1249V61.5974L34.25 59.9399H30.275ZM31.11 68.1424L30.36 67.3924V62.3212L31.11 61.5712H33.4125L34.1625 62.3212V67.3974L33.4125 68.1474L31.11 68.1424Z" fill="white"/>
<path d="M43.685 67.3974L42.9387 68.1424H40.7337L39.9875 67.3974V59.9399H38.2425V68.1212L39.8987 69.7787H43.6912L45.3487 68.1212V59.9399H43.685V67.3974Z" fill="white"/>
<path d="M49.9837 64.0162L49.2375 63.2699V62.3212L49.9837 61.5749H52.0662L53.185 62.6649L54.4125 61.4374L52.8987 59.9399H49.1475L47.4912 61.5974V63.9949L49.1475 65.6512H52.12L52.865 66.3974V67.3974L52.12 68.1424H49.675L48.43 66.9437L47.2037 68.1699L48.8437 69.7787H52.955L54.6112 68.1212V65.6724L52.955 64.0162H49.9837Z" fill="white"/>
<path d="M55.5875 61.5749H58.35V69.7787H60.0962V61.5749H62.86V59.9399H55.5875V61.5749Z" fill="white"/>
<path d="M65.7288 59.9399L64.0725 61.5974V68.1249L65.7288 69.7812H69.7025L71.3588 68.1249V61.5974L69.7025 59.9399H65.7288ZM66.5638 68.1424L65.8138 67.3924V62.3212L66.5638 61.5712H68.8675L69.6175 62.3212V67.3974L68.8675 68.1474L66.5638 68.1424Z" fill="white"/>
<path d="M79.1125 59.9399V66.6349L75.7475 59.9399H73.725V69.7787H75.3875V63.0862L75.4425 63.2262L78.8088 69.7787H80.775V59.9399H79.1125Z" fill="white"/>
<path d="M31.9237 72.2063L32.7012 72.9838V76.3588L31.9237 77.1363H28.6487V72.2063H31.9237ZM31.3575 73.4438L31.145 73.2313H29.9925V76.1163H31.145L31.3575 75.905V73.4438Z" fill="white"/>
<path d="M35.755 74.0163L35.8687 74.5675H35.9037L36.0312 74.0163L36.7662 72.2063H38.0037L36.505 75.5225V77.1425H35.02V75.5225L33.5212 72.2063H35.0487L35.755 74.0163Z" fill="white"/>
<path d="M41.045 77.1425L40.1613 74.625L40.04 74.03H39.9763V77.1425H38.8238V72.2063H40.5913L41.4763 74.7238L41.5963 75.3175H41.66V72.2063H42.8125V77.1425H41.045Z" fill="white"/>
<path d="M46.5812 76.2088H45.375L45.1488 77.1425H43.875L45.2325 72.2063H46.8237L48.295 77.1425H46.8075L46.5812 76.2088ZM45.555 75.2088H46.43L46.14 74.0488L46.0412 73.44H45.9712L45.8575 74.0488L45.555 75.2088Z" fill="white"/>
<path d="M51.1913 72.2063L51.8913 74.795L52.025 75.4163H52.075L52.2025 74.795L52.9088 72.2063H54.705V77.1425H53.3613V74.165H53.305L53.185 74.8088L52.485 77.1425H51.445L50.71 74.8088L50.5888 74.165H50.5325V77.1425H49.38V72.2063H51.1913Z" fill="white"/>
<path d="M56.0975 72.9488L56.875 72.1713H59.385L60.1638 72.9488V76.4L59.385 77.1775H56.875L56.0975 76.4V72.9488ZM58.6075 73.1988H57.6538L57.4413 73.4113V75.9425L57.6538 76.155H58.6075L58.82 75.9425V73.4088L58.6075 73.1988Z" fill="white"/>
<path d="M63.1113 72.2063H66.4425V73.2813H64.455V74.4125H66.2025V75.4238H64.455V77.1425H63.1113V72.2063Z" fill="white"/>
<path d="M67.4887 76.4V72.9488L68.2662 72.1713H70.735L71.4487 72.9063L70.48 73.7263L69.9562 73.1963H69.045L68.8325 73.4075V75.94L69.045 76.1525H69.9987L70.6137 75.565L71.52 76.435L70.7775 77.1775H68.2662L67.4887 76.4Z" fill="white"/>
</svg>
