<svg width="100" height="100" viewBox="0 0 100 100" fill="none" xmlns="http://www.w3.org/2000/svg">
<mask id="mask0_3_4782" style="mask-type:luminance" maskUnits="userSpaceOnUse" x="10" y="0" width="80" height="100">
<path d="M89.3388 0H10.6613V100H89.3388V0Z" fill="white"/>
</mask>
<g mask="url(#mask0_3_4782)">
<mask id="mask1_3_4782" style="mask-type:luminance" maskUnits="userSpaceOnUse" x="10" y="0" width="80" height="100">
<path d="M89.3388 0.0012207H10.6613V100H89.3388V0.0012207Z" fill="white"/>
</mask>
<g mask="url(#mask1_3_4782)">
<path d="M50 100C25.875 87.395 10.9075 53.0938 10.6613 24.6388C18.875 22.75 35.2013 19.375 50 0C64.7988 19.375 81.125 22.75 89.3388 24.64C89.0888 53.0938 74.125 87.39 50 100Z" fill="#FFCE00"/>
<path d="M15.7725 28.4C16.3775 40.8463 19.8975 54.3788 25.6638 66.025C31.9313 78.6813 40.5238 88.525 50 94.1C59.4738 88.53 68.0675 78.6813 74.3338 66.025C80.1013 54.375 83.625 40.845 84.225 28.4C76.11 26.4125 62.6413 22.0963 50 7.54626C37.36 22.0963 23.8888 26.4125 15.7725 28.4Z" fill="#004987"/>
<path d="M18.2687 30.1512C19.0375 41.8887 22.3425 54.1912 27.6812 64.9725C33.4225 76.5662 41.3237 85.8187 50 91.2062C58.675 85.8175 66.575 76.5662 72.3187 64.9725C77.6537 54.1912 80.9612 41.8862 81.7312 30.1512C73.26 27.9375 61.385 23.4012 50 10.9487C38.61 23.4025 26.735 27.9375 18.2687 30.1512Z" fill="#15284B"/>
<path d="M48.8888 5.395L50 4.115V0C35.2 19.375 18.875 22.75 10.6588 24.6388L13.3963 26.6513L14.3263 26.425C22.9138 24.3225 37.4438 19.5275 48.8863 5.39625" fill="#EDAA00"/>
<path d="M89.2937 24.625L86.485 26.6362L86.44 27.6225C86.3913 40.4437 81.99 55.6325 76.1338 67.455C69.805 80.2338 60.485 90.4863 50.75 96.21L50 96.6488V100C74.125 87.395 89.09 53.0938 89.3375 24.6388C89.3228 24.6334 89.3078 24.6293 89.2925 24.6262" fill="#EDAA00"/>
<path d="M46.4388 60.6763H33.61C32.771 60.671 31.9679 60.3353 31.3747 59.7419C30.7816 59.1485 30.4462 58.3453 30.4413 57.5063V38.4425H35.1913V56.23H46.4413L46.4388 60.6763Z" fill="#DADBE1"/>
<path d="M31.3075 39V56.9663C31.313 57.5149 31.5331 58.0395 31.9208 58.4278C32.3084 58.8162 32.8326 59.0372 33.3812 59.0438H45.11V56.7863H33.86V39H31.3075Z" fill="white"/>
<path d="M48.57 60.6837H53.435L55.3388 55.82H62.7138L61.125 51.75H56.9663L59.935 44.215L66.2775 60.68H71.3225C71.3225 60.68 63.8 42.1362 63.5125 41.3574C62.9213 39.7574 61.9938 38.45 59.9325 38.45H59.89C57.8313 38.45 56.975 39.7462 56.39 41.3475L48.57 60.6837Z" fill="#DADBE1"/>
<path d="M49.925 59.0512H52.385C52.7762 58.0512 54.2875 54.1762 54.2875 54.1762H61.2737C60.9337 53.3012 60.7475 52.825 60.5437 52.3012H55.0187L59.6775 40.3875L65.15 54.4325C65.1587 54.4512 66.3262 57.6187 66.85 59.0487H69.5287C68.485 56.4875 62.975 42.75 62.385 41.31C61.795 39.87 61.11 39.1387 59.985 39.1387H59.93C58.2787 39.11 57.6875 39.8587 57.1 41.3062C57.1 41.3062 50.75 57.015 49.9275 59.0562" fill="white"/>
<path d="M73.6463 68.5C66.5063 67.125 58.4763 66.3562 49.985 66.3562C41.1025 66.3562 32.735 67.1962 25.3513 68.6862C22.2075 69.3187 19.3875 69.9462 17.4763 70.5612C19.2913 73.3975 21.375 76.6937 23.125 79.375C24.875 78.9412 26.7313 78.5325 28.6438 78.1462C35.03 76.865 42.2888 76.135 49.9888 76.135C57.35 76.135 64.3113 76.8012 70.4963 77.9862C72.7638 78.4225 74.91 78.8612 76.8938 79.3087C78.7138 76.5325 80.725 73.3637 82.5388 70.5975C80.445 69.9612 77.3213 69.1975 73.6538 68.495" fill="#FFCE00"/>
<path d="M27.1875 72.3488C27.1875 73.2025 27.505 73.7925 28.13 74.0988C28.755 74.405 29.3412 74.36 30.0462 74.2638L32.9512 73.8888V71.0263L30.34 71.3338V72.3225C31.0312 72.265 31.1612 72.2588 31.465 72.215V73L30.0437 73.1813C29.3425 73.275 28.8737 73.1238 28.8737 72.0863C28.8737 70.885 29.435 70.645 30.0437 70.5638L32.9487 70.1888V69.125L30.0437 69.5C28.1237 69.7575 27.185 70.6888 27.185 72.3438M38.0412 68.5938L35.485 73.5663L37.1425 73.4275C37.1425 73.4275 37.3925 72.875 37.4712 72.6938L40.065 72.4775C40.1487 72.645 40.4113 73.1563 40.4113 73.1563L42.125 73.01L39.5425 68.4675L38.0412 68.5938ZM37.9725 71.4888L38.75 69.815C38.9625 70.2225 39.3925 71.055 39.5513 71.3563L37.9725 71.4888ZM46.0725 71.5913C45.9237 71.4663 45.9113 71.2238 45.9113 70.8763V68.1088L44.3638 68.1775V70.9813C44.3638 71.6138 44.4513 72.0313 44.9263 72.4C45.4913 72.8488 46.1163 72.8563 46.9388 72.8163L48.625 72.7413V71.7175L47.0387 71.7925C46.515 71.8175 46.2637 71.7638 46.0725 71.5925M53.2075 68.11L50.6425 72.7913L52.3063 72.8438L52.6488 72.1238L55.2113 72.2013C55.2925 72.375 55.5663 72.9513 55.5663 72.9513L57.2913 73.0063L54.71 68.1638L53.2075 68.11ZM53.1325 70.985C53.285 70.675 53.7113 69.8125 53.9175 69.4013C54.13 69.83 54.5738 70.7188 54.7313 71.0425L53.1325 70.985ZM64.9163 68.9L63.11 68.75C63.11 68.75 62.2638 69.7025 62.0375 69.9588C61.8113 69.6613 60.9575 68.5638 60.9575 68.5638L59.125 68.4113C59.125 68.4113 61.0475 70.8025 61.1763 70.9575C61.0513 71.0988 59.0513 73.1638 59.0513 73.1638L60.9087 73.3188C60.9087 73.3188 61.8425 72.2588 62.0812 71.9838C62.305 72.2975 63.18 73.515 63.18 73.515L65.0475 73.6763L62.9625 71.0513C63.0875 70.9188 64.9138 68.9 64.9138 68.9M71.57 69.83C71.57 69.83 70.485 70.9888 70.235 71.2425C69.9988 70.9163 68.9325 69.4613 68.9325 69.4613L67.1488 69.2113L69.485 72.2263V74.295L71.0363 74.515V72.4475C71.1 72.3863 73.395 70.0925 73.395 70.0925L71.57 69.83Z" fill="#15284B"/>
<path d="M79.305 71.5825C77.77 74.005 75.6337 76.9575 75.6337 76.9575C73.7412 76.5825 71.6912 76.2213 69.5337 75.8588C63.6287 74.8588 56.985 74.3125 49.97 74.3125C42.6312 74.3125 35.7075 74.9175 29.6087 75.99C27.7862 76.3125 26.0187 76.655 24.3462 77.015L23.11 79.375C24.4375 79.0463 26.5187 78.5938 27.235 78.4325C27.2475 78.4325 28.7737 80.7275 28.8062 80.6825C28.855 80.6088 29.895 79.5713 30.5287 79.0088C31.1591 78.4567 31.8171 77.9369 32.5 77.4513C37.9112 76.7138 43.7925 76.13 49.9737 76.13C57.335 76.13 64.2975 76.795 70.4812 77.9838C73.5275 78.5663 75.7312 79.06 76.9475 79.34C78.78 76.5263 80.6125 73.5525 82.5237 70.6125L79.305 71.5825Z" fill="#EDAA00"/>
<path d="M49.8812 15.0937C49.8844 19.0963 48.3064 22.9382 45.4908 25.783C42.6752 28.6279 38.8499 30.2455 34.8475 30.2837C34.8093 30.2872 34.7737 30.3048 34.7478 30.3331C34.7219 30.3615 34.7076 30.3985 34.7076 30.4368C34.7076 30.4752 34.7219 30.5122 34.7478 30.5406C34.7737 30.5689 34.8093 30.5865 34.8475 30.59C38.8449 30.6233 42.667 32.2357 45.4804 35.0756C48.2938 37.9154 49.8703 41.7524 49.8662 45.75C49.8671 45.7747 49.8738 45.7989 49.8858 45.8206C49.8977 45.8423 49.9146 45.8609 49.935 45.875C49.9569 45.8891 49.9821 45.8974 50.0082 45.8989C50.0343 45.9005 50.0603 45.8952 50.0837 45.8837L50.1187 45.8675C50.1446 45.8545 50.1664 45.8347 50.1818 45.8103C50.1972 45.7858 50.2057 45.7576 50.2062 45.7287C50.2041 41.7264 51.7844 37.8856 54.6024 35.0437C57.4205 32.2017 61.2478 30.5891 65.25 30.5575C65.2697 30.5578 65.2892 30.5542 65.3076 30.547C65.3259 30.5398 65.3426 30.529 65.3568 30.5153C65.3709 30.5016 65.3823 30.4853 65.3901 30.4672C65.398 30.4491 65.4022 30.4297 65.4025 30.41C65.4037 30.3893 65.4006 30.3686 65.3935 30.3491C65.3863 30.3296 65.3753 30.3119 65.361 30.2969C65.3467 30.2819 65.3294 30.27 65.3103 30.2619C65.2913 30.2538 65.2707 30.2498 65.25 30.25C61.2489 30.2213 57.4211 28.6132 54.6 25.7757C51.7789 22.9382 50.193 19.1012 50.1875 15.1C50.1894 15.0787 50.1869 15.0573 50.1801 15.037C50.1732 15.0168 50.1623 14.9982 50.1479 14.9824C50.1335 14.9666 50.1159 14.9541 50.0964 14.9454C50.0768 14.9368 50.0557 14.9324 50.0344 14.9324C50.013 14.9324 49.9919 14.9368 49.9723 14.9454C49.9528 14.9541 49.9353 14.9666 49.9208 14.9824C49.9064 14.9982 49.8955 15.0168 49.8887 15.037C49.8818 15.0573 49.8793 15.0787 49.8812 15.1" fill="#004987"/>
<path d="M50 20.265C50.0066 20.2653 50.013 20.2669 50.019 20.2698C50.0249 20.2726 50.0303 20.2765 50.0347 20.2814C50.0391 20.2863 50.0425 20.292 50.0447 20.2982C50.0469 20.3044 50.0479 20.3109 50.0475 20.3175C50.2455 22.9089 51.3556 25.3463 53.1807 27.1966C55.0059 29.0469 57.4278 30.1903 60.0163 30.4238C60.0229 30.4234 60.0296 30.4244 60.0359 30.4267C60.0422 30.429 60.0479 30.4325 60.0528 30.4371C60.0577 30.4416 60.0616 30.4471 60.0644 30.4532C60.0671 30.4593 60.0686 30.4658 60.0688 30.4725C60.0688 30.5025 60.0338 30.5175 60.0113 30.5175C57.4289 30.748 55.0113 31.8846 53.1864 33.7262C51.3615 35.5678 50.2469 37.9956 50.04 40.58C50.04 40.5938 50.03 40.6288 49.9988 40.6288C49.9675 40.6288 49.9575 40.5938 49.9563 40.58C49.7497 37.9959 48.6356 35.5683 46.8111 33.7267C44.9867 31.8851 42.5695 30.7483 39.9875 30.5175C39.965 30.5175 39.9288 30.5038 39.9288 30.4725C39.9288 30.4413 39.955 30.43 39.9813 30.4238C42.5697 30.1903 44.9917 29.0469 46.8168 27.1966C48.6419 25.3463 49.7521 22.9089 49.95 20.3175C49.9495 20.3108 49.9504 20.3041 49.9526 20.2977C49.9548 20.2914 49.9583 20.2855 49.9629 20.2806C49.9675 20.2757 49.973 20.2717 49.9792 20.2691C49.9854 20.2664 49.992 20.265 49.9988 20.265" fill="#FFCE00"/>
<path d="M50 20.265C49.9775 20.265 49.955 20.2813 49.9512 20.3175C49.7535 22.9094 48.643 25.3472 46.8173 27.1976C44.9917 29.048 42.569 30.1911 39.98 30.4238C39.9733 30.4234 39.9666 30.4244 39.9604 30.4267C39.9541 30.429 39.9483 30.4325 39.9435 30.4371C39.9386 30.4416 39.9346 30.4471 39.9319 30.4532C39.9291 30.4593 39.9276 30.4658 39.9275 30.4725H50V20.265Z" fill="#EDAA00"/>
<path d="M50 40.625C50.03 40.625 50.0387 40.59 50.0412 40.5762C50.2482 37.9919 51.3627 35.564 53.1876 33.7224C55.0125 31.8808 57.4301 30.7442 60.0125 30.5138C60.035 30.5138 60.07 30.5 60.07 30.4688H50V40.625Z" fill="#EDAA00"/>
<path d="M56.6988 30.4363C53.0275 30.4038 50.04 27.4475 50.04 23.845C50.0409 23.8404 50.0409 23.8356 50.0399 23.8309C50.039 23.8262 50.0371 23.8218 50.0345 23.8178C50.0318 23.8139 50.0284 23.8105 50.0244 23.8079C50.0204 23.8053 50.0159 23.8034 50.0113 23.8025C50.0066 23.8016 50.0018 23.8017 49.9971 23.8026C49.9924 23.8036 49.988 23.8054 49.9841 23.8081C49.9801 23.8108 49.9767 23.8142 49.9741 23.8182C49.9715 23.8222 49.9697 23.8266 49.9688 23.8313C49.9675 23.8358 49.9675 23.8405 49.9688 23.845C49.9668 25.5928 49.2743 27.269 48.0421 28.5085C46.8099 29.748 45.1377 30.4503 43.39 30.4625C43.3805 30.4629 43.3715 30.4668 43.3647 30.4735C43.358 30.4802 43.3541 30.4893 43.3538 30.4988C43.3544 30.5079 43.3585 30.5163 43.3653 30.5224C43.3721 30.5284 43.3809 30.5316 43.39 30.5313C45.1423 30.5569 46.8145 31.2698 48.0462 32.5165C49.2779 33.7631 49.9706 35.4438 49.975 37.1963C49.9748 37.2004 49.9755 37.2045 49.9769 37.2084C49.9783 37.2122 49.9805 37.2157 49.9833 37.2188C49.9861 37.2218 49.9894 37.2242 49.9931 37.2259C49.9969 37.2277 50.0009 37.2286 50.005 37.2288C50.0094 37.2291 50.0139 37.2286 50.0181 37.2272C50.0224 37.2258 50.0263 37.2236 50.0296 37.2207C50.033 37.2178 50.0358 37.2143 50.0378 37.2103C50.0398 37.2063 50.0409 37.202 50.0413 37.1975C50.0497 35.4322 50.7523 33.7411 51.9973 32.4895C53.2423 31.238 54.9298 30.5265 56.695 30.5088C56.7041 30.5082 56.7127 30.5043 56.7191 30.4979C56.7255 30.4914 56.7294 30.4829 56.73 30.4738C56.73 30.4644 56.7264 30.4554 56.7198 30.4486C56.7133 30.4418 56.7044 30.4379 56.695 30.4375" fill="white"/>
</g>
</g>
</svg>
