<svg width="100" height="100" viewBox="0 0 100 100" fill="none" xmlns="http://www.w3.org/2000/svg">
<mask id="mask0_3_4734" style="mask-type:luminance" maskUnits="userSpaceOnUse" x="15" y="2" width="70" height="96">
<path d="M84.4788 2.75623H15.5225V97.2437H84.4788V2.75623Z" fill="white"/>
</mask>
<g mask="url(#mask0_3_4734)">
<mask id="mask1_3_4734" style="mask-type:luminance" maskUnits="userSpaceOnUse" x="15" y="2" width="70" height="96">
<path d="M84.4788 2.75623H15.5225V97.2437H84.4788V2.75623Z" fill="white"/>
</mask>
<g mask="url(#mask1_3_4734)">
<path d="M65.2675 84.5275C64.6113 84.645 63.9788 84.7412 63.3588 84.8375C58.8213 85.5675 54.135 86.3162 50 90.0387C45.8663 86.3187 41.1825 85.5662 36.6438 84.8425C36.03 84.7462 35.3938 84.6462 34.7375 84.5312C20.8488 82.17 20.8625 78.0712 20.8538 69.6L20.8613 8.12498H79.1325L79.1513 69.6062C79.1063 78.0675 79.1513 82.17 65.2675 84.5275ZM18.2 5.44498L18.1925 69.6325C18.1925 74.2387 18.2025 77.87 20.455 80.9512C22.7075 84.0325 26.8513 85.905 34.2925 87.165C34.9642 87.2825 35.6088 87.3887 36.2263 87.4837C40.5725 88.18 44.6775 88.8375 48.2263 92.0387L50 93.6362L51.7725 92.0387C55.3225 88.835 59.4275 88.18 63.7725 87.4837L63.985 87.4512C64.5488 87.3625 65.12 87.2712 65.705 87.1687C73.125 85.9087 77.25 84.0625 79.5075 80.9862C81.765 77.91 81.785 74.3162 81.8088 69.7512L81.7888 5.44373L18.2 5.44498Z" fill="#C39F6C"/>
<path d="M32.6388 19.6862H30.7738V16.2662H29.6013V20.68H32.6388V19.6862Z" fill="#C39F6C"/>
<path d="M35.1362 17.24C35.8725 17.24 36.2912 17.7788 36.2912 18.4725C36.2912 19.1663 35.8725 19.7113 35.1362 19.7113C34.4 19.7113 33.9837 19.1663 33.9837 18.4725C33.9837 17.7788 34.4025 17.24 35.1362 17.24ZM35.1362 20.74C36.4 20.74 37.49 19.8075 37.49 18.475C37.49 17.1425 36.4 16.2175 35.1362 16.2175C33.8725 16.2175 32.785 17.145 32.785 18.475C32.785 19.805 33.8737 20.74 35.1362 20.74Z" fill="#C39F6C"/>
<path d="M39.3375 19.7637C38.9012 19.7637 38.6387 19.55 38.4237 19.2837L37.5737 19.9275C37.845 20.29 38.4 20.745 39.3912 20.745C40.5512 20.745 41.0525 20.155 41.0525 19.35C41.0525 18.725 40.7575 18.305 39.8812 18.0125L39.3025 17.8175C39.0875 17.745 38.99 17.6612 38.99 17.4925C38.99 17.3237 39.1337 17.1887 39.4175 17.1887C39.5538 17.1843 39.6894 17.2105 39.8142 17.2655C39.939 17.3204 40.0499 17.4027 40.1387 17.5062L40.81 16.7975C40.5512 16.4937 40.1262 16.215 39.3525 16.215C38.5787 16.215 37.8587 16.6637 37.8587 17.5312C37.8587 18.2575 38.31 18.6475 38.9475 18.8625L39.4612 19.0362C39.7525 19.1362 39.8925 19.2262 39.8925 19.4112C39.8925 19.6612 39.6875 19.765 39.3387 19.765" fill="#C39F6C"/>
<path d="M44.2637 18.395L44.7125 19.4188H43.825L44.2637 18.395ZM43.4487 20.3038H45.1025L45.2687 20.6788H46.4812L44.3562 16.1913C44.3375 16.1475 44.2987 16.1475 44.28 16.1913L42.1437 20.6788H43.2925L43.4487 20.3038Z" fill="#C39F6C"/>
<path d="M47.9925 18.4788L50.7425 20.7575C50.8125 20.8163 50.83 20.7963 50.83 20.745V16.265H49.7288V18.4788L46.9788 16.195C46.9088 16.1363 46.89 16.1688 46.89 16.2088V20.6788H47.9925V18.4788Z" fill="#C39F6C"/>
<path d="M53.7362 20.7374C54.7112 20.7374 55.2362 20.4649 55.645 20.1262V18.2837H53.7325V19.1924H54.6075V19.5674C54.3409 19.6975 54.0464 19.7602 53.75 19.7499C52.975 19.7499 52.5787 19.1699 52.5787 18.4762C52.5787 17.7824 52.9712 17.2424 53.6887 17.2424C53.8753 17.2381 54.0602 17.2787 54.2278 17.361C54.3953 17.4432 54.5406 17.5646 54.6512 17.7149L55.4787 17.0062C55.0962 16.5062 54.4925 16.2212 53.7187 16.2212C52.455 16.2212 51.3862 17.1474 51.3862 18.4787C51.3862 19.8099 52.455 20.7437 53.7475 20.7437" fill="#C39F6C"/>
<path d="M59.3938 19.6862H57.4063V19.225H58.9913V18.285H57.4063V17.26H59.305V16.2662H56.2313V20.68H59.3938V19.6862Z" fill="#C39F6C"/>
<path d="M63 19.6862H61.1375V16.2662H59.9625V20.68H63V19.6862Z" fill="#C39F6C"/>
<path d="M66.705 19.6862H64.7137V19.225H66.3V18.285H64.7137V17.26H66.615V16.2662H63.54V20.68H66.705V19.6862Z" fill="#C39F6C"/>
<path d="M69.225 18.0113L68.6438 17.8163C68.4338 17.7438 68.3338 17.6588 68.3338 17.4913C68.3338 17.3238 68.4775 17.1863 68.7613 17.1863C68.8978 17.1818 69.0335 17.2081 69.1586 17.263C69.2836 17.3179 69.3947 17.4002 69.4838 17.5038L70.1525 16.795C69.895 16.49 69.4713 16.2125 68.6975 16.2125C67.9238 16.2125 67.1975 16.6613 67.1975 17.53C67.1975 18.255 67.6513 18.645 68.2888 18.86L68.8038 19.0325C69.0925 19.135 69.2375 19.2225 69.2375 19.4075C69.2375 19.6575 69.03 19.7613 68.6813 19.7613C68.5013 19.7623 68.3238 19.7191 68.1644 19.6354C68.0051 19.5517 67.8688 19.4301 67.7675 19.2813L66.9188 19.9238C67.1863 20.2863 67.745 20.7413 68.7363 20.7413C69.895 20.7413 70.3963 20.1513 70.3963 19.345C70.3963 18.72 70.1 18.3 69.225 18.0075" fill="#C39F6C"/>
<path d="M29.605 75.2737H30.5712V74.1162H31.8837V73.3012H30.5712V72.4575H32.06V71.6375H29.605V75.2737Z" fill="#C39F6C"/>
<path d="M34.25 74.4762C33.6475 74.4762 33.305 74.0299 33.305 73.4549C33.305 72.8799 33.6513 72.4387 34.25 72.4387C34.8488 72.4387 35.195 72.8862 35.195 73.4549C35.195 74.0237 34.85 74.4762 34.25 74.4762ZM34.25 71.6012C33.2088 71.6012 32.3125 72.3649 32.3125 73.4587C32.3125 74.5524 33.2088 75.3237 34.25 75.3237C35.2912 75.3237 36.1862 74.5537 36.1862 73.4587C36.1862 72.3637 35.29 71.6012 34.2513 71.6012" fill="#C39F6C"/>
<path d="M38.395 74.4762C37.7887 74.4762 37.45 74.0299 37.45 73.4549C37.45 72.8799 37.795 72.4387 38.395 72.4387C38.995 72.4387 39.3487 72.8862 39.3487 73.4549C39.3487 74.0237 39 74.4762 38.395 74.4762ZM38.395 71.6012C37.3537 71.6012 36.4587 72.3649 36.4587 73.4587C36.4587 74.5524 37.3537 75.3237 38.395 75.3237C39.4362 75.3237 40.3312 74.5524 40.3312 73.4587C40.3312 72.3649 39.4362 71.6012 38.395 71.6012Z" fill="#C39F6C"/>
<path d="M40.405 72.4575H41.3612V75.2737H42.325V72.4575H43.2825V71.6375H40.405V72.4575Z" fill="#C39F6C"/>
<path d="M45.2337 74.5062H44.65V73.6875H45.235C45.61 73.6875 45.725 73.84 45.725 74.09C45.725 74.34 45.6075 74.505 45.235 74.505M44.65 72.4087H45.1312C45.2003 72.3995 45.2703 72.4179 45.3258 72.4601C45.3813 72.5023 45.4178 72.5647 45.4275 72.6337C45.4306 72.6557 45.4306 72.678 45.4275 72.7C45.4275 72.8725 45.3312 72.9787 45.1162 72.9787H44.6437L44.65 72.4087ZM45.9637 73.23C46.2 73.1175 46.3775 72.9312 46.3775 72.5212C46.3775 71.965 45.905 71.6312 45.1962 71.6312H43.72V75.275H45.25C46.145 75.275 46.6825 74.88 46.6825 74.1837C46.6929 73.965 46.6256 73.7496 46.4924 73.5757C46.3593 73.4018 46.1689 73.2807 45.955 73.2337" fill="#C39F6C"/>
<path d="M48.0963 74.2349L48.4575 73.3912L48.8325 74.2349H48.0963ZM48.4713 71.5749L46.7213 75.2749H47.6663L47.8 74.9649H49.1563L49.2963 75.2749H50.2963L48.5463 71.5762C48.53 71.5374 48.4988 71.5374 48.4813 71.5762" fill="#C39F6C"/>
<path d="M51.5375 71.6375H50.5737V75.2737H53.0725V74.455H51.5375V71.6375Z" fill="#C39F6C"/>
<path d="M54.3437 71.6375H53.3787V75.2737H55.8775V74.455H54.3437V71.6375Z" fill="#C39F6C"/>
<path d="M59.2875 74.4763C58.735 74.4763 58.4 74.03 58.4 73.455C58.4 72.88 58.725 72.4388 59.2562 72.4388C59.4192 72.429 59.5817 72.4643 59.7259 72.5409C59.8701 72.6174 59.9904 72.7321 60.0737 72.8725L60.8025 72.3725C60.5 71.9238 60.0212 71.5925 59.2425 71.5925C59.0028 71.5924 58.7655 71.6394 58.544 71.731C58.3225 71.8225 58.1212 71.9568 57.9516 72.1262C57.7821 72.2955 57.6475 72.4966 57.5556 72.718C57.4638 72.9393 57.4164 73.1766 57.4162 73.4163V73.4513C57.4126 73.6944 57.457 73.9359 57.5469 74.1618C57.6368 74.3878 57.7704 74.5938 57.94 74.768C58.1097 74.9422 58.3121 75.0811 58.5356 75.177C58.7591 75.2728 58.9993 75.3235 59.2425 75.3263H59.295C60.0275 75.3263 60.5262 75.0625 60.8837 74.4513L60.1337 73.9738C60.0587 74.1329 59.9375 74.2657 59.7859 74.3549C59.6342 74.4441 59.4592 74.4855 59.2837 74.4738" fill="#C39F6C"/>
<path d="M62.115 71.6375H61.1512V75.2737H63.6487V74.455H62.115V71.6375Z" fill="#C39F6C"/>
<path d="M66 73.8575C66 74.27 65.8087 74.5087 65.4025 74.5087C64.9962 74.5087 64.8025 74.2725 64.8025 73.8575V71.6375H63.8337V73.8675C63.8337 74.8437 64.4962 75.3237 65.4012 75.3237C66.3062 75.3237 66.9662 74.8437 66.9662 73.8675V71.6375H66V73.8575Z" fill="#C39F6C"/>
<path d="M68.94 74.5062H68.3575V73.6875H68.94C69.305 73.6875 69.4287 73.84 69.4287 74.09C69.4287 74.34 69.31 74.505 68.94 74.505M68.3575 72.4087H68.83C68.8991 72.3995 68.969 72.4179 69.0245 72.4601C69.08 72.5023 69.1166 72.5647 69.1262 72.6337C69.1294 72.6557 69.1294 72.678 69.1262 72.7C69.1262 72.8725 69.0312 72.9787 68.8187 72.9787H68.3462L68.3575 72.4087ZM69.6675 73.23C69.9037 73.1175 70.0812 72.9312 70.0812 72.5212C70.0812 71.965 69.6087 71.6312 68.9 71.6312H67.4225V75.275H68.9587C69.855 75.275 70.3937 74.88 70.3937 74.1837C70.4039 73.965 70.3365 73.7498 70.2034 73.576C70.0703 73.4021 69.88 73.2809 69.6662 73.2337" fill="#C39F6C"/>
<path d="M47.5438 59.8325H35.9625V30.2075L29.6013 25.1687V66.23H49.2188C48.4412 64.1609 47.8799 62.017 47.5438 59.8325Z" fill="#C39F6C"/>
<path d="M49.2187 52.1763C49.015 56.8363 49.7187 62.0513 51.4412 66.2313H57.7725C57.7725 66.2313 55.0862 60.375 55.3562 55.3838C54.9725 55.1838 50.9625 53.0838 49.2137 52.1775" fill="#C39F6C"/>
<path d="M53.19 36.5124L57.69 41.5474C59.135 38.6549 61.255 36.2849 64.04 34.6112V51.1374L40.75 25.1649V31.2899C46.1625 36.1574 55.16 44.9362 60.6763 49.9149V50.2499L42.5662 34.1737V38.0712C48.0775 42.2712 55.0862 47.9462 60.675 52.2024V52.5299L44.3838 40.2499V43.9112C49.7925 47.1862 55.46 51.0124 60.675 54.1512V54.4924L46.2075 45.7874V48.7399C52.5075 51.9399 57.8325 54.8724 64.0413 58.0149V66.2324H70.3938V25.1674C62.7688 25.6849 56.2687 30.9849 53.19 36.5124Z" fill="#C39F6C"/>
<path d="M80.8925 82.025C78.3325 85.4925 73.875 87.5425 65.9925 88.875C65.4387 88.9712 64.89 89.0587 64.3512 89.1462L64.0475 89.1937C59.7825 89.8737 56.0975 90.4612 52.9225 93.3275L50 95.9687L47.0762 93.3337C43.8987 90.4662 40.2175 89.8787 35.9512 89.1987C35.3337 89.1025 34.6812 88.9987 34 88.88C26.0875 87.535 21.625 85.4712 19.0687 81.9837C16.4812 78.4412 16.47 74.3587 16.47 69.6362L16.4762 3.70123H83.5137L83.5325 69.765C83.5075 74.4537 83.4825 78.505 80.8925 82.015M84.4562 2.75623H15.5325L15.5237 69.6312C15.5237 74.5225 15.535 78.7487 18.3075 82.5425C21.0175 86.2475 25.6637 88.4175 33.84 89.8125C34.525 89.93 35.1825 90.035 35.8037 90.1337C39.92 90.7912 43.4737 91.3575 46.445 94.0362L50 97.25L53.5562 94.0462C56.5237 91.3687 60.08 90.7962 64.1975 90.1487L64.4987 90.1025C65.0454 90.0191 65.5967 89.9283 66.1525 89.83C74.3012 88.4475 78.9325 86.2875 81.6525 82.6037C84.425 78.8362 84.45 74.6412 84.4775 69.7625L84.4562 2.75623Z" fill="#C39F6C"/>
<path d="M79.5075 80.9862C77.2438 84.0612 73.1175 85.9049 65.7087 87.1687C65.1187 87.2724 64.5525 87.3624 63.9912 87.4512L63.7762 87.4837C59.4275 88.1799 55.32 88.8349 51.7762 92.0387L50 93.6374L48.2275 92.0387C44.675 88.8374 40.5713 88.1799 36.2275 87.4837C35.61 87.3887 34.9654 87.2824 34.2938 87.1649C26.8538 85.9049 22.72 84.0474 20.4562 80.9512C18.1925 77.8549 18.2063 74.2349 18.1938 69.6324L18.2013 5.44492H81.7887L81.8087 69.7499C81.7837 74.3149 81.7637 77.9224 79.5075 80.9849M16.475 3.70117L16.4688 69.6249C16.4688 74.3487 16.4787 78.4299 19.0662 81.9724C21.625 85.4649 26.0825 87.5274 34 88.8749C34.6812 88.9924 35.3337 89.0962 35.9525 89.1924C40.2188 89.8724 43.9 90.4612 47.0775 93.3262L50 95.9674L52.9238 93.3324C56.1 90.4662 59.785 89.8787 64.0488 89.1974L64.3512 89.1512C64.8913 89.0649 65.4388 88.9762 65.9938 88.8787C73.8788 87.5412 78.3338 85.4912 80.8938 82.0287C83.4825 78.5112 83.5075 74.4612 83.5338 69.7724L83.5125 3.70117H16.475Z" fill="#010101"/>
<path d="M38.395 72.4413C37.7888 72.4413 37.45 72.8875 37.45 73.4575C37.45 74.0275 37.795 74.4788 38.395 74.4788C38.995 74.4788 39.3488 74.0325 39.3488 73.4575C39.3488 72.8825 39 72.4413 38.395 72.4413Z" fill="#010101"/>
<path d="M34.25 72.4413C33.6475 72.4413 33.305 72.8875 33.305 73.4575C33.305 74.0275 33.6512 74.4788 34.25 74.4788C34.8487 74.4788 35.195 74.0325 35.195 73.4575C35.195 72.8825 34.85 72.4413 34.25 72.4413Z" fill="#010101"/>
<path d="M48.0963 74.235H48.83L48.4588 73.3912L48.0963 74.235Z" fill="#010101"/>
<path d="M45.4275 72.7012C45.4353 72.6318 45.4151 72.5621 45.3715 72.5075C45.3279 72.4529 45.2645 72.4178 45.195 72.41C45.1738 72.4081 45.1525 72.4081 45.1313 72.41H44.65V72.9787H45.125C45.3388 72.9787 45.4363 72.8737 45.4363 72.7012" fill="#010101"/>
<path d="M69.1338 72.7012C69.1378 72.6669 69.135 72.6321 69.1255 72.5989C69.116 72.5657 69.1001 72.5346 69.0786 72.5076C69.0571 72.4805 69.0305 72.458 69.0003 72.4412C68.9701 72.4245 68.9369 72.4138 68.9025 72.41C68.8805 72.4075 68.8583 72.4075 68.8363 72.41H68.3638V72.9787H68.8313C69.045 72.9787 69.1375 72.8737 69.1375 72.7012" fill="#010101"/>
<path d="M44.2638 18.395L43.825 19.42H44.7125L44.2638 18.395Z" fill="#010101"/>
<path d="M45.2338 73.6887H44.65V74.5075H45.235C45.61 74.5075 45.725 74.3437 45.725 74.0925C45.725 73.8412 45.6075 73.69 45.235 73.69" fill="#010101"/>
<path d="M68.94 73.6887H68.3575V74.5075H68.94C69.315 74.5075 69.4287 74.3437 69.4287 74.0925C69.4287 73.8412 69.31 73.69 68.94 73.69" fill="#010101"/>
<path d="M68.735 20.75C67.7475 20.75 67.185 20.295 66.9175 19.9312L67.7675 19.2887C67.9787 19.555 68.24 19.7687 68.6825 19.7687C69.0362 19.7687 69.2375 19.6637 69.2375 19.415C69.2375 19.2275 69.0925 19.14 68.8037 19.04L68.2887 18.8675C67.6525 18.6525 67.1975 18.2625 67.1975 17.5375C67.1975 16.6625 67.915 16.22 68.6975 16.22C69.48 16.22 69.8937 16.4987 70.1512 16.8025L69.4812 17.5C69.3922 17.3964 69.281 17.3141 69.156 17.2592C69.031 17.2042 68.8952 17.178 68.7587 17.1825C68.4737 17.1825 68.3312 17.3075 68.3312 17.4875C68.3312 17.6675 68.4312 17.7375 68.6412 17.8125L69.2225 18.0075C70.0975 18.3 70.395 18.7162 70.395 19.345C70.395 20.155 69.895 20.7412 68.7337 20.7412M70.395 66.2262H64.0437V58.0125C57.8362 54.8699 52.5062 51.9387 46.2087 48.7374V45.785L60.6775 54.4887V54.1575C55.4625 51.0175 49.795 47.1887 44.3862 43.9174V40.2562L60.6775 52.5387V52.2125C55.0925 47.9475 48.08 42.275 42.5687 38.0712V34.1737L60.6775 50.25V49.9162C55.1587 44.9312 46.1637 36.1537 40.7512 31.2912V25.1662L64.0437 51.1375V34.61C61.2587 36.2837 59.1375 38.6537 57.6925 41.5475L53.1925 36.5125C56.2687 30.985 62.77 25.6849 70.3937 25.1674L70.395 66.2262ZM68.96 75.275H67.4237V71.6374H68.8975C69.6137 71.6374 70.0787 71.97 70.0787 72.5262C70.0787 72.9325 69.8962 73.1162 69.665 73.235C69.8788 73.2822 70.069 73.4034 70.2021 73.5772C70.3352 73.751 70.4026 73.9663 70.3925 74.185C70.3925 74.8812 69.8537 75.2775 68.9575 75.2775M66.9575 73.8712C66.9575 74.8475 66.2937 75.3287 65.3925 75.3287C64.4912 75.3287 63.825 74.8487 63.825 73.8712V71.6374H64.7925V73.8575C64.7925 74.27 64.9812 74.5087 65.3925 74.5087C65.8037 74.5087 65.99 74.2725 65.99 73.8575V71.6374H66.9562L66.9575 73.8712ZM63.65 75.2775H61.15V71.6374H62.1137V74.455H63.65V75.2775ZM59.2937 75.3275C58.8041 75.3341 58.3318 75.1465 57.9804 74.8055C57.6289 74.4646 57.4269 73.9983 57.4187 73.5087V73.46C57.41 72.9761 57.5938 72.5086 57.9297 72.1603C58.2656 71.812 58.7261 71.6113 59.21 71.6025H59.245C60.025 71.6025 60.5025 71.9312 60.805 72.38L60.0762 72.88C59.9933 72.7391 59.8731 72.6238 59.7288 72.5469C59.5846 72.4699 59.4219 72.4342 59.2587 72.4437C58.7275 72.4437 58.4025 72.8925 58.4025 73.4612C58.4025 74.03 58.7387 74.4812 59.29 74.4812C59.4657 74.494 59.6411 74.453 59.7929 74.3637C59.9448 74.2744 60.0658 74.141 60.14 73.9812L60.8837 74.4612C60.5287 75.0662 60.0275 75.3362 59.295 75.3362M55.875 75.275H53.375V71.6374H54.34V74.455H55.875V75.275ZM53.0687 75.275H50.5687V71.6374H51.5312V74.455H53.0662L53.0687 75.275ZM49.2825 75.275L49.1425 74.965H47.7887L47.655 75.275H46.71L48.46 71.5749C48.4762 71.5362 48.5075 71.5362 48.5237 71.5749L50.2737 75.275H49.2825ZM45.255 75.275H43.7225V71.6374H45.1937C45.9112 71.6374 46.375 71.97 46.375 72.5262C46.375 72.9325 46.1925 73.1162 45.9612 73.235C46.1751 73.2819 46.3655 73.4031 46.4987 73.577C46.6318 73.7508 46.6991 73.9662 46.6887 74.185C46.6887 74.8812 46.1512 75.2775 45.2562 75.2775M43.2812 72.4612H42.3237V75.275H41.3587V72.4575H40.4025V71.6374H43.2775L43.2812 72.4612ZM38.3937 75.325C37.3525 75.325 36.4575 74.555 36.4575 73.46C36.4575 72.365 37.3525 71.6025 38.3937 71.6025C39.435 71.6025 40.33 72.3662 40.33 73.46C40.33 74.5537 39.435 75.325 38.3937 75.325ZM34.2437 75.325C33.2025 75.325 32.3062 74.555 32.3062 73.46C32.3062 72.365 33.2025 71.6025 34.2437 71.6025C35.285 71.6025 36.1812 72.36 36.1812 73.455C36.1812 74.55 35.285 75.32 34.2462 75.32M32.0612 72.4562H30.5712V73.3012H31.8837V74.115H30.5712V75.275H29.605V71.6374H32.06L32.0612 72.4562ZM57.7737 66.23H51.4412C49.7175 62.045 49.015 56.8349 49.2175 52.1749C50.9675 53.0812 54.9675 55.1749 55.3587 55.38C55.09 60.3699 57.7762 66.2287 57.7762 66.2287M29.6025 25.165L35.9637 30.2037V59.8287H47.5375C47.8748 62.013 48.4361 64.1568 49.2125 66.2262H29.6025V25.165ZM29.6025 16.265H30.775V19.69H32.6387V20.6812H29.6025V16.265ZM35.1362 16.2137C36.4 16.2137 37.49 17.1412 37.49 18.4725C37.49 19.8037 36.4 20.7362 35.1362 20.7362C33.8725 20.7362 32.785 19.8037 32.785 18.4725C32.785 17.1412 33.8737 16.2137 35.1362 16.2137ZM39.46 19.035L38.9462 18.8625C38.3075 18.6475 37.8575 18.2575 37.8575 17.5312C37.8575 16.6637 38.5662 16.215 39.3512 16.215C40.1362 16.215 40.55 16.4937 40.8087 16.7975L40.1375 17.5062C40.0487 17.4027 39.9378 17.3204 39.8129 17.2655C39.6881 17.2105 39.5525 17.1843 39.4162 17.1887C39.1325 17.1887 38.9887 17.3137 38.9887 17.4937C38.9887 17.6737 39.0862 17.7437 39.3012 17.8187L39.88 18.0137C40.755 18.3062 41.0512 18.7225 41.0512 19.3512C41.0512 20.1612 40.5512 20.7475 39.39 20.7475C38.4037 20.7475 37.8437 20.2925 37.5725 19.9287L38.4225 19.2862C38.6375 19.5525 38.895 19.7662 39.3362 19.7662C39.6912 19.7662 39.89 19.6612 39.89 19.4125C39.89 19.225 39.7487 19.1362 39.4587 19.0375M44.2762 16.19C44.295 16.1462 44.3325 16.1462 44.3525 16.19L46.4775 20.6787H45.2662L45.1 20.3037H43.4475L43.2887 20.6787H42.14L44.2762 16.19ZM46.8862 16.2112C46.8862 16.1725 46.905 16.14 46.975 16.1987L49.725 18.4825V16.265H50.8262V20.75C50.8262 20.8012 50.81 20.82 50.7387 20.7625L47.9887 18.4837V20.6837H46.8862V16.2112ZM53.71 16.2112C54.4837 16.2112 55.085 16.5037 55.47 16.9962L54.6437 17.705C54.533 17.5547 54.3877 17.4333 54.2202 17.3511C54.0527 17.2689 53.8678 17.2282 53.6812 17.2325C52.9625 17.2325 52.5712 17.7712 52.5712 18.4662C52.5712 19.1612 52.9675 19.7387 53.7425 19.7387C54.037 19.75 54.3299 19.69 54.5962 19.5637V19.1887H53.7325V18.275H55.6462V20.1175C55.2412 20.455 54.7125 20.7275 53.7362 20.7275C52.4487 20.7275 51.3737 19.7962 51.3737 18.4637C51.3737 17.1312 52.4375 16.205 53.7062 16.205M56.225 16.2562H59.2962V17.2562H57.4062V18.2825H58.99V19.2275H57.4062V19.6875H59.395V20.68H56.2312L56.225 16.2562ZM59.9575 16.2562H61.125V19.6812H63V20.6737H59.9625L59.9575 16.2562ZM63.5337 16.2562H66.605V17.2562H64.7025V18.2825H66.3V19.2275H64.7125V19.6875H66.705V20.68H63.54L63.5337 16.2562ZM20.8537 8.1062L20.845 69.5812C20.8537 78.0512 20.845 82.1537 34.7287 84.5125C35.3887 84.6312 36.0287 84.7287 36.635 84.8237C41.18 85.5675 45.8662 86.3237 50 90.0387C54.135 86.3162 58.8237 85.5662 63.3612 84.8425C63.9862 84.7449 64.6112 84.6462 65.2712 84.5312C79.1587 82.17 79.11 78.07 79.155 69.61L79.1362 8.12495L20.8537 8.1062Z" fill="#010101"/>
<path d="M35.1363 19.7125C35.8725 19.7125 36.2913 19.1675 36.2913 18.4737C36.2913 17.78 35.8725 17.2412 35.1363 17.2412C34.4 17.2412 33.9838 17.78 33.9838 18.4737C33.9838 19.1675 34.4025 19.7125 35.1363 19.7125Z" fill="#010101"/>
</g>
</g>
</svg>
