<svg width="100" height="100" viewBox="0 0 100 100" fill="none" xmlns="http://www.w3.org/2000/svg">
<path d="M50 93.5825C74.0699 93.5825 93.5825 74.0699 93.5825 50C93.5825 25.93 74.0699 6.41748 50 6.41748C25.93 6.41748 6.41748 25.93 6.41748 50C6.41748 74.0699 25.93 93.5825 50 93.5825Z" fill="#231F20"/>
<path d="M50 94.375C25.5312 94.375 5.625 74.4688 5.625 50C5.625 25.5312 25.5312 5.625 50 5.625C74.4688 5.625 94.375 25.5312 94.375 50C94.375 74.4688 74.4688 94.375 50 94.375ZM50 7.21C26.4062 7.21 7.21 26.4062 7.21 50C7.21 73.5938 26.4062 92.79 50 92.79C73.5938 92.79 92.79 73.5938 92.79 50C92.79 26.4062 73.5938 7.21 50 7.21Z" fill="#F7B5CD"/>
<path d="M73.14 78.9925L72.6375 76.725L72.1375 78.9937L69.8625 79.4937L72.1387 79.9912L72.6412 82.2587L73.14 79.9912L75.4162 79.49L73.14 78.9925Z" fill="#F7B5CD"/>
<path d="M27.8613 78.9925L27.3588 76.725L26.86 78.9937L24.585 79.4937L26.86 79.9912L27.3625 82.2587L27.8625 79.9912L30.1375 79.49L27.8613 78.9925Z" fill="#F7B5CD"/>
<path d="M50 81.3425C67.31 81.3425 81.3425 67.31 81.3425 50C81.3425 32.69 67.31 18.6575 50 18.6575C32.69 18.6575 18.6575 32.69 18.6575 50C18.6575 67.31 32.69 81.3425 50 81.3425Z" fill="#231F20"/>
<path d="M50 81.7387C32.5 81.7387 18.2612 67.5 18.2612 50C18.2612 32.5 32.5 18.2612 50 18.2612C67.5 18.2612 81.7387 32.5 81.7387 50C81.7387 67.5 67.5 81.7387 50 81.7387ZM50 19.0537C32.9362 19.0537 19.0537 32.9362 19.0537 50C19.0537 67.0637 32.9362 80.9462 50 80.9462C67.0637 80.9462 80.9462 67.0637 80.9462 50C80.9462 32.9362 67.0637 19.0537 50 19.0537Z" fill="#F7B5CD"/>
<path d="M27.5775 23.9463V49.5113C27.5776 56.5221 29.5671 63.389 33.315 69.314C37.0629 75.239 42.4152 79.9788 48.75 82.9825L50.0488 83.5975L51.4238 82.9375C57.7139 79.9156 63.0224 75.1781 66.7378 69.271C70.4531 63.3638 72.4241 56.5272 72.4238 49.5488V23.9463H27.5775Z" fill="#231F20"/>
<path d="M65.585 68.5563C69.1666 62.8664 71.066 56.2796 71.0637 49.5563V25.3063H28.9387V49.5188C28.9381 56.2738 30.8547 62.8903 34.4657 68.5992C38.0766 74.3081 43.2337 78.8749 49.3375 81.7688L50.0462 82.105L50.8337 81.73C56.8951 78.8183 62.0092 74.2512 65.585 68.5563ZM50.4875 81.01L50.0425 81.2238L49.675 81.05C43.707 78.2208 38.6646 73.7559 35.134 68.1742C31.6033 62.5925 29.7293 56.1234 29.73 49.5188V26.1038H70.27V49.5563C70.2703 56.1302 68.4136 62.5705 64.9136 68.1353C61.4137 73.7002 56.413 78.1631 50.4875 81.01Z" fill="#F7B5CD"/>
<path d="M50 45.9388C48.795 45.9388 47.75 45.405 47.25 44.63C47.2507 45.3593 47.541 46.0586 48.0572 46.5738C48.5734 47.0891 49.2732 47.3782 50.0025 47.3775C50.7318 47.3768 51.4311 47.0865 51.9463 46.5703C52.4616 46.0541 52.7507 45.3543 52.75 44.625C52.25 45.405 51.205 45.9388 50 45.9388Z" fill="#F7B5CD"/>
<path d="M55.5225 44.625L52.7725 43.49L54.7287 41.7575L52.0675 42.4525L52.765 39.8275L50.7325 41.7187L50 39.105L49.2675 41.72L47.235 39.8287L47.9325 42.4537L45.2712 41.7587L47.2275 43.5L44.4775 44.635H47.25C47.25 43.9056 47.5397 43.2062 48.0554 42.6904C48.5712 42.1747 49.2706 41.885 50 41.885C50.7293 41.885 51.4288 42.1747 51.9445 42.6904C52.4602 43.2062 52.75 43.9056 52.75 44.635L55.5225 44.625Z" fill="#F7B5CD"/>
<path d="M61.915 43.8413C61.6587 43.5839 61.3541 43.3798 61.0185 43.2407C60.683 43.1017 60.3232 43.0305 59.96 43.0313H58.75C58.5424 43.034 58.3415 42.9583 58.1874 42.8192C58.0332 42.6802 57.9373 42.4881 57.9187 42.2813C57.9114 42.1713 57.9267 42.061 57.9636 41.9571C58.0006 41.8533 58.0585 41.7581 58.1337 41.6775C58.2089 41.5969 58.2999 41.5326 58.4009 41.4885C58.502 41.4444 58.611 41.4216 58.7212 41.4213H66.0387L60.3012 40.3838C60.2427 40.2233 60.1363 40.0846 59.9963 39.9867C59.8563 39.8887 59.6896 39.8362 59.5187 39.8363H54.71L57.0662 40.4988C56.8297 40.7243 56.6419 40.996 56.5146 41.297C56.3874 41.598 56.3232 41.922 56.3262 42.2488C56.3406 42.8851 56.6048 43.4902 57.0615 43.9334C57.5183 44.3766 58.1311 44.6223 58.7675 44.6176H59.96C60.1488 44.6135 60.3356 44.6565 60.5037 44.7426C60.7341 44.8625 60.9186 45.0549 61.0288 45.2901C61.1389 45.5254 61.1685 45.7903 61.113 46.044C61.0576 46.2978 60.9201 46.5262 60.7219 46.694C60.5236 46.8618 60.2756 46.9597 60.0162 46.9726H56.2812C55.2603 46.9719 54.2565 47.2357 53.3678 47.7382C52.4791 48.2407 51.7357 48.9648 51.21 49.8401C50.6969 50.7058 50.4294 51.695 50.4362 52.7013L54.5675 48.5763H55.8175L50.4425 53.9513V55.8588L57.7275 48.5751H58.9775L50.4475 57.1051V59.2576L61.2175 48.4888L61.95 47.7326C62.4596 47.2123 62.7431 46.5118 62.7389 45.7836C62.7347 45.0553 62.4431 44.3582 61.9275 43.8438L61.915 43.8413ZM58.5312 40.3676H59.4862V40.8963H58.5312V40.3676Z" fill="white"/>
<path d="M37.2737 45.7988C37.2728 46.5211 37.5561 47.2149 38.0625 47.73L38.795 48.4863L49.565 59.255V57.105L41.0337 48.575H42.2837L49.5687 55.8588V53.9513L44.1937 48.5763H45.4437L49.575 52.7013C49.5819 51.6949 49.3144 50.7057 48.8012 49.84C48.2755 48.9648 47.5321 48.2407 46.6434 47.7382C45.7547 47.2356 44.751 46.9719 43.73 46.9725H39.9837C39.7271 46.9563 39.4828 46.8569 39.2878 46.6893C39.0927 46.5217 38.9576 46.2951 38.9029 46.0439C38.8483 45.7926 38.8769 45.5304 38.9847 45.2969C39.0924 45.0634 39.2733 44.8714 39.5 44.75C39.6681 44.664 39.8549 44.621 40.0437 44.625H41.2362C41.8731 44.6288 42.4858 44.3817 42.9419 43.9373C43.3981 43.4928 43.6609 42.8867 43.6737 42.25C43.6768 41.9232 43.6126 41.5993 43.4853 41.2982C43.358 40.9972 43.1703 40.7255 42.9337 40.5L45.29 39.8375H40.4862C40.3154 39.8375 40.1487 39.89 40.0087 39.9879C39.8687 40.0859 39.7622 40.2245 39.7037 40.385L33.9662 41.4225H41.2837C41.394 41.4228 41.503 41.4457 41.6041 41.4897C41.7051 41.5338 41.7961 41.5981 41.8713 41.6787C41.9465 41.7593 42.0044 41.8545 42.0413 41.9583C42.0783 42.0622 42.0936 42.1725 42.0862 42.2825C42.0677 42.4893 41.9717 42.6814 41.8176 42.8204C41.6635 42.9595 41.4626 43.0352 41.255 43.0325H40.04C39.3062 43.0329 38.6026 43.3246 38.0839 43.8435C37.5651 44.3625 37.2737 45.0663 37.2737 45.8V45.7988ZM41.4687 40.8963H40.5137V40.3675H41.4687V40.8963Z" fill="white"/>
<path d="M57.9725 56.51V52.9375L57.18 53.7313V56.1813L55.555 57.8063V55.3563L54.7625 56.1488V58.6L50.005 63.3563L45.25 58.5975V56.165L44.4575 55.375V57.8063L42.8325 56.1813V53.75L42.0388 52.9562V56.51L44.455 58.925V71.5312H42.0275V72.3238H45.25V59.7188L49.4463 63.915L47.3513 66.0113L50.0088 68.665L52.6638 66.0113L50.5675 63.915L54.765 59.7188V72.3238H57.9725V71.5312H55.5575V58.925L57.9725 56.51ZM51.5425 66.01L50.0088 67.5437L48.4725 66.0088L50.0075 64.4737L51.5425 66.01Z" fill="#F7B5CD"/>
<path d="M45.0288 30.5601H43.4213V36.1288H45.0288V30.5601Z" fill="#F7B5CD"/>
<path d="M40.36 30.5601V30.5626L40.3575 30.5601L38.1275 32.7901L35.9 30.5626V30.5601H35.8988H35.8975H34.2913V36.1301H35.9V32.7351L38.1275 34.9626L40.36 32.7301V36.1301H41.9675V30.5601H40.36Z" fill="#F7B5CD"/>
<path d="M51.1425 30.5601H48.8575L46.115 36.1251H47.825L48.575 34.6126L50 36.0463L51.4287 34.6176L52.1787 36.1301H53.8887L51.1425 30.5601ZM50 34.2213L49.1725 33.3938L50 31.7126L50.8275 33.3938L50 34.2213Z" fill="#F7B5CD"/>
<path d="M65.7075 30.5601H64.1V36.1288H65.7075V30.5601Z" fill="#F7B5CD"/>
<path d="M61.0387 30.5601V30.5626L61.0362 30.5601L58.8062 32.7901L56.5787 30.5626V30.5601H56.5775H56.5762H54.97V36.1301H56.5787V32.7351L58.8062 34.9626L61.0387 32.7301V36.1301H62.6462V30.5601H61.0387Z" fill="#F7B5CD"/>
<path d="M19.5737 71.5675C19.1003 71.8511 18.5463 71.9702 17.9982 71.9061C17.45 71.842 16.9385 71.5983 16.5433 71.213C16.1482 70.8277 15.8916 70.3224 15.8137 69.7761C15.7358 69.2297 15.8408 68.6729 16.1125 68.1925L17.0412 68.7212C16.876 68.9961 16.808 69.3185 16.8482 69.6367C16.8885 69.9549 17.0346 70.2503 17.2631 70.4754C17.4916 70.7004 17.7892 70.8421 18.1079 70.8775C18.4267 70.9129 18.7481 70.84 19.0204 70.6706C19.2928 70.5011 19.5002 70.245 19.6092 69.9434C19.7183 69.6418 19.7228 69.3123 19.6218 69.0078C19.5209 68.7034 19.3205 68.4418 19.0528 68.2651C18.7852 68.0884 18.4658 68.0069 18.1462 68.0337L18.0837 66.9662C18.634 66.9368 19.1785 67.0901 19.6327 67.4021C20.0868 67.7142 20.4252 68.1675 20.5951 68.6917C20.765 69.2159 20.757 69.7815 20.5723 70.3007C20.3876 70.8198 20.0366 71.2634 19.5737 71.5625V71.5675Z" fill="white"/>
<path d="M13.7725 66.09L13.375 65.1L16.8475 63.695L16.1075 61.865L17.0537 61.4825L18.195 64.3013L13.7725 66.09Z" fill="white"/>
<path d="M14.7225 60.4375L11.9213 61.105L11.6713 60.0662L14.4863 59.3962C15.0413 59.2637 15.2963 58.8312 15.1738 58.315C15.0513 57.7987 14.6275 57.5275 14.0725 57.66L11.2575 58.33L11.0075 57.2912L13.815 56.625C14.97 56.35 15.9175 56.9662 16.1825 58.0762C16.4475 59.1862 15.875 60.1625 14.7225 60.4375Z" fill="white"/>
<path d="M10.555 53.9351L10.4525 52.1463C10.4314 51.7716 10.5598 51.4038 10.8097 51.1237C11.0595 50.8436 11.4103 50.6742 11.785 50.6526C11.9373 50.6423 12.0901 50.6632 12.2341 50.7139C12.3781 50.7647 12.5102 50.8441 12.6225 50.9476C12.716 50.7347 12.8674 50.5523 13.0594 50.4213C13.2515 50.2902 13.4764 50.2157 13.7088 50.2063C13.8964 50.1964 14.0842 50.2241 14.261 50.2879C14.4378 50.3517 14.6001 50.4502 14.7382 50.5776C14.8764 50.705 14.9876 50.8588 15.0654 51.0299C15.1432 51.201 15.186 51.3859 15.1913 51.5738L15.3163 53.6638L10.555 53.9351ZM12.3825 52.1576C12.3812 52.0937 12.3672 52.0308 12.3412 51.9724C12.3153 51.9141 12.2779 51.8615 12.2313 51.8178C12.1847 51.7741 12.1298 51.7402 12.0699 51.7181C12.01 51.6959 11.9463 51.686 11.8825 51.6888C11.818 51.6926 11.7549 51.7092 11.6969 51.7378C11.6389 51.7663 11.5871 51.8061 11.5448 51.8549C11.5024 51.9037 11.4702 51.9605 11.45 52.0219C11.4299 52.0833 11.4222 52.1481 11.4275 52.2126L11.4625 52.8151L12.4138 52.7601L12.3825 52.1576ZM14.2188 51.7163C14.2185 51.6511 14.205 51.5867 14.179 51.527C14.1529 51.4673 14.1149 51.4135 14.0673 51.369C14.0197 51.3245 13.9635 51.2902 13.9022 51.2683C13.8408 51.2463 13.7756 51.2371 13.7106 51.2413C13.6456 51.2455 13.5821 51.263 13.524 51.2926C13.466 51.3223 13.4147 51.3635 13.3732 51.4137C13.3317 51.4639 13.3009 51.5221 13.2827 51.5847C13.2645 51.6473 13.2594 51.7129 13.2675 51.7776L13.32 52.7088L14.2713 52.6538L14.2188 51.7163Z" fill="white"/>
<path d="M10.9238 43.4863L11.1113 42.4351L15.8038 43.2776L15.615 44.3276L10.9238 43.4863Z" fill="white"/>
<path d="M17.5 37.3663L13.955 38.5888L16.7362 39.5588L16.385 40.5663L11.8837 39L12.1862 38.125L15.7237 36.9063L12.9487 35.9388L13.3025 34.925L17.8025 36.4938L17.5 37.3663Z" fill="white"/>
<path d="M16.0887 31.5688L15.4925 32.625L14.605 32.125L16.33 29.0613L17.2175 29.5613L16.6162 30.6313L19.8787 32.4688L19.3512 33.4038L16.0887 31.5688Z" fill="white"/>
<path d="M17.9475 26.6887L19.81 24.3137L20.6125 24.9387L19.4075 26.475L20.0788 27.0012L21.035 25.7812L21.8375 26.4062L20.8813 27.6262L21.5525 28.1525L22.7563 26.625L23.5588 27.25L21.6963 29.625L17.9475 26.6887Z" fill="white"/>
<path d="M22.3038 21.6375L23.7038 20.3875C24.3738 19.7875 25.2338 19.8875 25.7613 20.4725C26.1738 20.9325 26.1925 21.4475 25.8863 22.01L28.5413 22.4512L27.5875 23.3062L25.095 22.8975L24.97 23.0137L26.2813 24.4787L25.4863 25.1912L22.3038 21.6375ZM24.875 21.875C25.11 21.665 25.1588 21.375 24.975 21.1725C24.7913 20.97 24.5013 20.985 24.2663 21.195L23.75 21.655L24.3588 22.3362L24.875 21.875Z" fill="white"/>
<path d="M33.115 19.49L29.6063 18.165L31.125 20.6887L30.2113 21.2387L27.75 17.1575L28.5375 16.6837L32.0375 18.0062L30.52 15.4887L31.44 14.9337L33.8988 19.015L33.115 19.49Z" fill="white"/>
<path d="M36.2 12.8625L37.11 12.5363L40.6375 16.3338L39.5888 16.7088L38.8513 15.9038L37 16.57L36.9413 17.66L35.8925 18.035L36.2 12.8625ZM38.1725 15.1638L37.1263 14.0138L37.0488 15.5663L38.1725 15.1638Z" fill="white"/>
<path d="M42.1025 13.5451C42.0293 12.9989 42.1385 12.4439 42.4133 11.9662C42.688 11.4886 43.1129 11.1151 43.6218 10.9038C44.1307 10.6925 44.6952 10.6553 45.2275 10.798C45.7597 10.9406 46.2299 11.2551 46.565 11.6926L45.7138 12.3376C45.5264 12.0769 45.2568 11.8868 44.9484 11.7979C44.6399 11.709 44.3105 11.7265 44.0132 11.8475C43.7158 11.9686 43.4679 12.1862 43.3093 12.4653C43.1506 12.7444 43.0905 13.0687 43.1386 13.3861C43.1866 13.7035 43.3401 13.9955 43.5743 14.2151C43.8085 14.4347 44.1097 14.5691 44.4295 14.5967C44.7494 14.6243 45.0692 14.5434 45.3375 14.3672C45.6058 14.1909 45.807 13.9295 45.9088 13.6251L46.9088 13.9876C46.7188 14.5047 46.3633 14.9447 45.8975 15.239C45.4317 15.5333 44.8818 15.6655 44.3331 15.6151C43.7844 15.5646 43.2678 15.3343 42.8635 14.96C42.4593 14.5856 42.19 14.0882 42.0975 13.5451H42.1025Z" fill="white"/>
<path d="M49.5 10.3938H50.5663V15.1588H49.4988L49.5 10.3938Z" fill="white"/>
<path d="M53.1575 12.8288C53.229 12.3468 53.4419 11.8968 53.7692 11.5358C54.0966 11.1749 54.5237 10.9191 54.9964 10.801C55.4692 10.6829 55.9663 10.7077 56.425 10.8722C56.8837 11.0368 57.2832 11.3337 57.573 11.7255C57.8628 12.1172 58.0299 12.5861 58.0531 13.0728C58.0763 13.5596 57.9545 14.0422 57.7033 14.4598C57.452 14.8773 57.0826 15.2109 56.6416 15.4183C56.2007 15.6257 55.7081 15.6977 55.2263 15.625C54.5816 15.5275 54.0019 15.1784 53.6142 14.6543C53.2264 14.1302 53.0622 13.4737 53.1575 12.8288ZM56.96 13.4013C56.992 13.1309 56.9437 12.8572 56.8212 12.6141C56.6986 12.371 56.5072 12.1694 56.2708 12.0344C56.0344 11.8995 55.7634 11.8371 55.4918 11.855C55.2202 11.873 54.9599 11.9706 54.7433 12.1356C54.5268 12.3005 54.3636 12.5256 54.2741 12.7827C54.1847 13.0398 54.1729 13.3176 54.2403 13.5813C54.3076 13.8451 54.4512 14.0832 54.653 14.2659C54.8548 14.4486 55.1059 14.5679 55.375 14.6088C55.7452 14.6579 56.1197 14.5584 56.4167 14.3321C56.7137 14.1058 56.9091 13.7712 56.96 13.4013Z" fill="white"/>
<path d="M62.86 17.585L61.6587 14.03L60.6712 16.8063L59.665 16.4488L61.2637 11.9575L62.125 12.2663L63.3212 15.8125L64.3075 13.0425L65.3187 13.4025L63.7212 17.8925L62.86 17.585Z" fill="white"/>
<path d="M69.8038 15.6913L70.6338 16.185L69.9525 21.3225L69 20.75L69.1513 19.6688L67.4563 18.6613L66.5813 19.31L65.6163 18.75L69.8038 15.6913ZM69.285 18.6775L69.5063 17.1375L68.2563 18.0675L69.285 18.6775Z" fill="white"/>
<path d="M74.7087 19.0138L75.52 19.7075L73.085 22.5538L74.585 23.8375L73.9212 24.6125L71.61 22.635L74.7087 19.0138Z" fill="white"/>
<path d="M81.225 25.5637L82.165 26.8875C82.3517 27.1424 82.4859 27.4318 82.5597 27.739C82.6334 28.0463 82.6454 28.3651 82.5948 28.677C82.5442 28.9889 82.4321 29.2876 82.265 29.5557C82.0978 29.8238 81.8791 30.0561 81.6213 30.2388C81.3636 30.4216 81.0721 30.5513 80.7638 30.6204C80.4555 30.6894 80.1365 30.6965 79.8254 30.6411C79.5144 30.5857 79.2174 30.469 78.9519 30.2978C78.6863 30.1266 78.4575 29.9042 78.2787 29.6437L77.34 28.3187L81.225 25.5637ZM79.0787 29.0775C79.5437 29.7337 80.3775 29.8087 81.0025 29.3662C81.6275 28.9237 81.8312 28.1162 81.3662 27.455L81.0437 27L78.7562 28.625L79.0787 29.0775Z" fill="white"/>
<path d="M84.9863 31.365L86.3125 34.0787L85.395 34.5262L84.5375 32.7762L83.7713 33.1512L84.4525 34.5437L83.5363 34.9925L82.855 33.5987L82.0888 33.9737L82.9463 35.7237L82.03 36.1725L80.7025 33.4587L84.9863 31.365Z" fill="white"/>
<path d="M88.3838 40.1062L89.0175 42.9712L88.0175 43.1912L87.6175 41.375L86.7788 41.5612L87.0938 42.9837L86.0938 43.2037L85.7788 41.7812L83.9575 42.185L83.7263 41.1425L88.3838 40.1062Z" fill="white"/>
<path d="M86.5375 45.75L89.4125 45.5725L89.4788 46.6375L86.5913 46.8163C86.0213 46.8513 85.695 47.235 85.7275 47.7638C85.76 48.2925 86.1313 48.6325 86.7 48.5975L89.5888 48.42L89.6538 49.485L86.7788 49.6625C85.5938 49.7363 84.765 48.9663 84.695 47.8275C84.625 46.6888 85.3513 45.8238 86.5375 45.75ZM91 47.5875L91.0688 48.6988L89.965 47.9275L89.9188 47.1838L91 47.5875Z" fill="white"/>
<path d="M88.46 53.1637L88.575 51.9537L89.59 52.05L89.2575 55.55L88.2425 55.4525L88.3587 54.23L84.6312 53.875L84.7325 52.8062L88.46 53.1637Z" fill="white"/>
<path d="M88.7725 58.2675L88.3288 60C88.2357 60.3638 88.002 60.6758 87.6789 60.8673C87.3559 61.0588 86.9701 61.1142 86.6062 61.0213C86.4582 60.9847 86.3192 60.9184 86.1975 60.8264C86.0759 60.7345 85.9743 60.6187 85.8987 60.4863C85.7443 60.6596 85.5446 60.7866 85.322 60.8528C85.0995 60.919 84.8629 60.922 84.6387 60.8613C84.4568 60.8143 84.2862 60.7313 84.1368 60.6173C83.9875 60.5033 83.8625 60.3605 83.7693 60.1974C83.6761 60.0342 83.6165 59.8541 83.5941 59.6675C83.5717 59.481 83.5869 59.2918 83.6387 59.1113L84.1575 57.0825L88.7725 58.2675ZM84.6087 59.275C84.5906 59.3366 84.585 59.4011 84.5923 59.4649C84.5996 59.5287 84.6197 59.5903 84.6513 59.6462C84.6829 59.702 84.7254 59.751 84.7763 59.7901C84.8272 59.8292 84.8854 59.8576 84.9475 59.8738C85.0107 59.8886 85.0762 59.8907 85.1402 59.8797C85.2041 59.8688 85.2652 59.8452 85.3199 59.8102C85.3746 59.7753 85.4217 59.7297 85.4584 59.6762C85.4951 59.6227 85.5208 59.5623 85.5338 59.4988L85.765 58.595L84.8412 58.3588L84.6087 59.275ZM86.4925 59.41C86.4744 59.4711 86.4687 59.5351 86.4757 59.5984C86.4827 59.6617 86.5023 59.723 86.5332 59.7786C86.5642 59.8342 86.606 59.8832 86.6561 59.9225C86.7062 59.9618 86.7636 59.9907 86.825 60.0075C86.8876 60.0233 86.9527 60.0264 87.0164 60.0168C87.0802 60.0071 87.1415 59.9848 87.1965 59.9511C87.2516 59.9175 87.2994 59.8732 87.3371 59.8208C87.3748 59.7685 87.4017 59.7091 87.4163 59.6463L87.565 59.06L86.6425 58.825L86.4925 59.41Z" fill="white"/>
<path d="M84.8488 63.3375C85.291 63.5416 85.6628 63.8722 85.9171 64.2876C86.1714 64.703 86.2969 65.1845 86.2776 65.6711C86.2582 66.1578 86.095 66.6278 85.8086 67.0217C85.5221 67.4157 85.1253 67.7158 84.6683 67.8841C84.2112 68.0525 83.7145 68.0816 83.241 67.9676C82.7674 67.8537 82.3383 67.6019 82.0079 67.2441C81.6774 66.8863 81.4605 66.4385 81.3846 65.9574C81.3087 65.4763 81.3771 64.9835 81.5813 64.5413C81.855 63.9484 82.353 63.4885 82.9657 63.2628C83.5785 63.037 84.2558 63.0639 84.8488 63.3375ZM83.2375 66.8288C83.4883 66.9351 83.7649 66.9651 84.0327 66.9152C84.3005 66.8652 84.5477 66.7374 84.7433 66.5478C84.9389 66.3582 85.0743 66.1152 85.1326 65.8491C85.1909 65.583 85.1695 65.3056 85.0711 65.0516C84.9726 64.7976 84.8016 64.5782 84.5792 64.4208C84.3568 64.2635 84.093 64.1751 83.8207 64.1668C83.5484 64.1585 83.2797 64.2306 83.0482 64.3742C82.8166 64.5177 82.6325 64.7262 82.5188 64.9738C82.37 65.3153 82.3621 65.7017 82.4967 66.0491C82.6312 66.3965 82.8975 66.6766 83.2375 66.8288Z" fill="white"/>
<path d="M83.4413 71.27L82.8375 72.145L79.75 70.0325L78.6338 71.6575L77.7938 71.0812L79.5125 68.575L83.4413 71.27Z" fill="white"/>
<path d="M38.5113 84.9062L37.7038 87.7937L36.69 87.4475L37.985 82.835L38.9263 83.15L39.7938 85.5L41.7575 83.9437L42.725 84.165L41.4288 88.79L40.3838 88.54L41.1938 85.6487L39.335 87.1375L38.5113 84.9062Z" fill="white"/>
<path d="M45.7738 86.4488L45.5638 89.4488L44.5 89.305L44.8375 84.52L45.8187 84.645L47.1463 86.7775L48.7713 84.84L49.7525 84.8575L49.4162 89.6538L48.3413 89.6413L48.5513 86.6413L47.0312 88.465L45.7738 86.4488Z" fill="white"/>
<path d="M54.1387 87.75L53.0912 89.545L51.8875 89.6238L53.4037 86.9988L51.4412 84.8213L52.715 84.7313L53.9437 86.1063L54.8187 84.495L56.0862 84.2863L54.675 86.8525L56.75 89.0688L55.5675 89.265L54.1387 87.75Z" fill="white"/>
<path d="M60.5113 86.4562L59.7825 88.4062L58.61 88.6924L59.6588 85.8387L57.3463 84.0224L58.5888 83.7187L60.0375 84.8662L60.6338 83.1162L61.8413 82.6949L60.8888 85.4737L63.31 87.3087L62.1688 87.6987L60.5113 86.4562Z" fill="white"/>
</svg>
