<svg width="100" height="100" viewBox="0 0 100 100" fill="none" xmlns="http://www.w3.org/2000/svg">
<mask id="mask0_3_4857" style="mask-type:luminance" maskUnits="userSpaceOnUse" x="18" y="0" width="64" height="100">
<path d="M81.9738 0H18.025V100H81.9738V0Z" fill="white"/>
</mask>
<g mask="url(#mask0_3_4857)">
<mask id="mask1_3_4857" style="mask-type:luminance" maskUnits="userSpaceOnUse" x="18" y="-1" width="64" height="101">
<path d="M81.9738 -0.0012207H18.025V100H81.9738V-0.0012207Z" fill="white"/>
</mask>
<g mask="url(#mask1_3_4857)">
<path d="M60.3525 8.75L59.1913 14.3225C58.8488 15.9475 58.4213 17.97 57.9413 20.215L57.6625 20.34C58.1975 14.34 58.1825 9.55625 57.1188 7.26625C56.185 5.29755 54.8144 3.56783 53.1113 2.20875C50.67 0.24 49.095 0 49.095 0L49.125 24.3188L21.76 37.0488C18.0313 38.7988 18.025 43.1875 18.025 43.1875V85.0537L50 100L81.9738 85.0537V9.03625L65.8038 16.5575C65.2045 15.0425 64.4265 13.6044 63.4863 12.2738C63.1113 11.7213 62.7288 11.2125 62.3613 10.745C61.7063 9.9125 60.3525 8.745 60.3525 8.745" fill="#C4C7C9"/>
<path d="M31.1138 18.7213L32.5838 22.9725L34.055 18.7213L38.4688 19.575L35.5238 16.1763L38.4688 12.7775L34.055 13.6313L32.5838 9.38L31.1138 13.6313L26.6988 12.7775L29.645 16.1763L26.6988 19.575L31.1138 18.7213Z" fill="#C4C7C9"/>
<path d="M21.76 57.3988C18.0313 59.1488 18.025 63.535 18.025 63.535V83.8663C18.025 83.8663 18.025 79.475 21.76 77.73L81.975 49.7138V29.3838L21.76 57.3988Z" fill="#8AC8EC"/>
<path d="M75.4238 59.75C77.2838 57.5412 77.6738 55.4762 77.6738 55.4762C77.6738 55.4762 61.7663 60.6512 56.5313 62.375C57.8425 61.7975 58.7925 61.47 59.3663 61.2237C61.5 60.3075 75.3438 55.6512 76.8938 52.75C78.405 49.9187 78.3513 47.5837 78.3513 47.5837C78.3513 47.5837 62.835 56.5587 57.265 59.7975C58.5675 58.86 59.53 58.28 60.1 57.8775C62.2063 56.3887 76.1775 48.1275 77.1888 44.615C78.1775 41.1887 77.5813 38.6637 77.5813 38.6637C77.5813 38.6637 62.8313 51.9637 57.5088 56.7887C58.6113 55.585 59.4563 54.7887 59.955 54.2562C61.9 52.1487 75.175 39.945 75.4663 35.89C75.745 31.9375 74.5163 29.3312 74.5163 29.3312C74.5163 29.3312 61.1963 47.6937 56.6963 53.9275C57.6425 52.3225 58.3938 51.2425 58.8213 50.53C60.4463 47.7925 72.0575 31.4637 71.435 26.9912C70.8288 22.63 68.8888 20.0825 68.8888 20.0825C68.8888 20.0825 58.7938 42.7987 55.2713 50.7687C55.9513 48.72 56.5438 47.3225 56.8488 46.425C57.9838 43.075 66.83 22.6475 65.12 17.925C64.3925 15.9175 63.62 14.6512 62.6588 13.21C62.1263 12.3956 61.5195 11.6324 60.8463 10.93C60.375 13.1487 56.875 29.7012 54.5788 40.5825L53.2363 48.2587C52.7525 51.0325 53.2075 52.8837 53.425 53.5475L53.5963 54.0362C56.15 61.6025 54.1813 65.2675 53.2088 66.5L53.17 66.5487C52.7849 67.0479 52.3075 67.4684 51.7638 67.7875C51.1989 68.0875 50.5697 68.2462 49.93 68.25C49.5567 68.2497 49.1855 68.1936 48.8288 68.0837C45.4638 66.9725 46.6875 63.1837 46.6963 63.1475C46.4175 64.725 46.8213 65.7512 47.2025 66.335C47.4806 66.762 47.8605 67.1132 48.3081 67.3569C48.7556 67.6006 49.2567 67.7292 49.7663 67.7312C51.4763 67.7312 52.415 66.57 52.7225 66.1862L52.7613 66.14C53.6875 64.9675 55.5638 61.4287 52.96 53.9437C52.8888 53.7337 52.1225 51.3187 52.5925 48.6125L54.395 38.2275C55.6975 29.9525 58.4038 12.7275 56.2613 8.12121C55.2713 5.99621 53.8613 4.49621 52.5288 3.40996C51.7502 2.76394 50.8965 2.21414 49.9863 1.77246L50.04 42.8037C50.04 44.9962 50.115 46.8037 50.2188 48.2837C50.2188 48.2837 50.2963 49.3237 50.4113 50.4087C50.5263 51.4937 51.0363 53.7125 51.3238 54.7212L51.6788 55.9037C53.0113 60.5725 52.3938 63.5287 51.32 64.8837C51.0625 65.2012 50.6338 65.7662 49.7888 65.7662C48.8413 65.7662 47.83 64.6412 49.0388 61.8137C50.2475 58.9862 50.8575 56.0062 48.2888 53.4525C48.0446 53.1956 47.78 52.959 47.4975 52.745C46.2398 51.7759 44.905 50.9114 43.5063 50.16C42.9188 49.84 39.7163 50.4975 39.7163 50.4975L32.0438 47.0637L32.03 47.2037C32.03 47.2037 43.0413 55.125 45.0438 56.8062C46.8875 58.3487 45.9188 60.79 44.1463 62.1812C42.1225 63.7725 36.1338 67.1375 36.1338 67.1375V67.5C36.1338 71.5 36.725 73.1525 39.45 76.5C44.7 82.9425 47.075 85.5375 47.075 92.25C47.3738 92.4562 48.4325 92.9162 48.4325 92.9162V81.5512C48.4325 76.395 49.775 72.9337 56.0288 72.9337L51.6538 68.8387C52.2888 69.3112 52.6938 69.68 52.9775 69.8925C54.0775 70.7125 60.5338 76.4162 62.4775 76.3512C64.3725 76.2875 65.5425 75.5725 65.5425 75.5725C65.5425 75.5725 55.45 69.75 52.635 68.14C53.5688 68.5537 54.185 68.8987 54.5763 69.0775C55.9613 69.715 64.3063 74.4225 66.4063 73.9025C68.4475 73.3937 69.5625 72.3437 69.5625 72.3437C69.5625 72.3437 57.1113 68.3087 53.75 67.2325C54.9013 67.4737 55.6775 67.7137 56.1563 67.82C57.8088 68.195 67.9688 71.3812 70.1263 70.3312C72.2313 69.3087 73.2013 67.9087 73.2013 67.9087C73.2013 67.9087 58.9988 66.455 54.8013 66.0337C55.8163 66.0475 56.8013 66.1087 57.2638 66.1125C59.1388 66.14 70.9238 67.255 73.025 65.6125C75.0763 64.0137 75.8063 62.2712 75.8063 62.2712C75.8063 62.2712 60.4025 63.8962 55.6988 64.4125C56.9575 64.1487 57.8563 64.0375 58.4075 63.9287C60.4575 63.52 73.5163 62.0125 75.4225 59.745" fill="black"/>
<path d="M44.4775 53.1325C44.4775 53.1325 43.8338 53.3038 43.345 53.0075C42.8563 52.7113 42.705 52.0638 42.705 52.0638C42.705 52.0638 43.3488 51.8925 43.8375 52.1888C44.3263 52.485 44.4775 53.13 44.4775 53.13" fill="#D14F53"/>
<path d="M73.1113 80.525C73.1113 80.525 73.4676 80.3712 73.4676 79.8437V79.075L69.5551 80.9062V87.5087L70.7451 86.9487V84.535L72.1113 83.8912C72.2157 83.8167 72.2992 83.7167 72.3539 83.6007C72.4086 83.4847 72.4327 83.3566 72.4238 83.2287V82.5525L70.7501 83.3425V81.6387L73.1113 80.525Z" fill="black"/>
<path d="M77.1113 78.6087C77.26 78.54 77.38 78.5912 77.38 78.7337V79.25C77.3795 79.2855 77.3861 79.3208 77.3993 79.3539C77.4124 79.3869 77.432 79.417 77.4569 79.4424C77.4817 79.4679 77.5114 79.4881 77.5441 79.5021C77.5768 79.516 77.612 79.5234 77.6475 79.5237H77.6563C77.6887 79.5212 77.7204 79.5132 77.75 79.5L78.5238 79.1362V78.3C78.5179 78.0296 78.4051 77.7727 78.2102 77.5853C78.0153 77.3978 77.7541 77.2953 77.4838 77.3C77.3556 77.3009 77.2286 77.3246 77.1088 77.37L74.8975 78.3987C74.6627 78.5165 74.4652 78.6971 74.3269 78.9204C74.1885 79.1437 74.1147 79.401 74.1138 79.6637V83.9225C74.1134 84.0418 74.1366 84.16 74.182 84.2704C74.2274 84.3808 74.294 84.4812 74.3782 84.5658C74.4623 84.6504 74.5623 84.7176 74.6725 84.7636C74.7826 84.8095 74.9007 84.8334 75.02 84.8337H75.04C75.1733 84.8327 75.3047 84.8024 75.425 84.745L77.7388 83.66C77.9726 83.5424 78.1692 83.3623 78.3067 83.1396C78.4442 82.9169 78.5172 82.6604 78.5175 82.3987V81.1912L77.625 81.605C77.5488 81.6469 77.4853 81.7086 77.4413 81.7836C77.3973 81.8587 77.3744 81.9442 77.375 82.0312V82.34C77.3683 82.4218 77.34 82.5005 77.293 82.5679C77.2461 82.6353 77.182 82.6891 77.1075 82.7237L75.57 83.465C75.42 83.5362 75.3025 83.4825 75.3025 83.34V79.7662C75.3097 79.6845 75.3382 79.606 75.3851 79.5387C75.4321 79.4714 75.4958 79.4175 75.57 79.3825L77.1113 78.6087Z" fill="black"/>
<path d="M61.7362 89.0275L59.4787 85.6162L58.2762 86.1762V92.785C58.2762 92.785 58.7762 92.5462 59.1262 92.3825C59.195 92.3438 59.4687 92.1613 59.4687 91.6988V87.7425L61.7825 91.1425L62.94 90.6012V84L62.1112 84.3875C62.0287 84.44 61.7475 84.5587 61.7475 85.06L61.7362 89.0275Z" fill="black"/>
<path d="M56.1113 93.225V89.9113L54.95 93.125L53.9375 93.5988L52.5838 91.3975V94.9125C52.5949 95.0571 52.5633 95.2017 52.4928 95.3284C52.4223 95.4551 52.3162 95.5582 52.1875 95.625L51.4375 95.98V89.375L52.5175 88.875L54.2675 91.9663L55.9263 87.28L57.2663 86.655V93.25L56.625 93.55C56.5327 93.587 56.4294 93.5858 56.338 93.5466C56.2466 93.5075 56.1745 93.4336 56.1375 93.3413C56.1232 93.304 56.1143 93.2648 56.1113 93.225Z" fill="black"/>
<path d="M63.9475 83.5275V88.7162C63.9475 88.9526 64.0414 89.1793 64.2086 89.3465C64.3757 89.5136 64.6024 89.6075 64.8388 89.6075H64.85C64.9796 89.6051 65.1074 89.5757 65.225 89.5212L67.7113 88.365C67.9575 88.2541 68.1666 88.0747 68.3135 87.8481C68.4605 87.6216 68.5391 87.3575 68.54 87.0875V81.375L67.71 81.7637C67.3963 81.91 67.3463 82.255 67.3463 82.4575V87.0375C67.3391 87.119 67.3106 87.1971 67.2637 87.264C67.2167 87.331 67.1529 87.3843 67.0788 87.4187L65.3975 88.2025C65.2488 88.2712 65.13 88.2175 65.13 88.07V83.57C65.13 83.4705 65.0905 83.3752 65.0202 83.3048C64.9498 83.2345 64.8545 83.195 64.755 83.195C64.7034 83.1954 64.6524 83.206 64.605 83.2262L63.9475 83.5275Z" fill="black"/>
</g>
</g>
</svg>
