<svg width="100" height="100" viewBox="0 0 100 100" fill="none" xmlns="http://www.w3.org/2000/svg">
<g clip-path="url(#clip0_3_4877)">
<mask id="mask0_3_4877" style="mask-type:luminance" maskUnits="userSpaceOnUse" x="0" y="0" width="100" height="100">
<path d="M100 0H0V100H100V0Z" fill="white"/>
</mask>
<g mask="url(#mask0_3_4877)">
<path d="M50 100C77.6142 100 100 77.6142 100 50C100 22.3858 77.6142 0 50 0C22.3858 0 0 22.3858 0 50C0 77.6142 22.3858 100 50 100Z" fill="#003DA6"/>
<path d="M50 75.7408C64.2162 75.7408 75.7408 64.2162 75.7408 50C75.7408 35.7837 64.2162 24.2592 50 24.2592C35.7837 24.2592 24.2592 35.7837 24.2592 50C24.2592 64.2162 35.7837 75.7408 50 75.7408Z" fill="black"/>
<path d="M96.9908 50C96.9908 24.0508 75.9538 3.00928 50 3.00928C24.0463 3.00928 3.00928 24.0508 3.00928 50C3.00928 54.6065 3.67594 59.0556 4.91205 63.2592L3.47686 63.7546C9.40742 83.8425 27.9908 98.5 50 98.5C72.0092 98.5 90.5925 83.8425 96.5231 63.7546L95.0879 63.2592C96.3242 59.0508 96.9908 54.6019 96.9908 49.9954V50ZM5.1389 50C5.1389 25.2223 25.2223 5.1389 50 5.1389C74.7777 5.1389 94.8611 25.2223 94.8611 50C94.8611 54.361 94.2361 58.5788 93.0742 62.5694L49.9954 47.7129L6.92594 62.5648C5.7639 58.5788 5.1389 54.361 5.1389 50Z" fill="black"/>
<path d="M50 0C22.3842 0 0 22.3842 0 50C0 77.6158 22.3842 100 50 100C77.6158 100 100 77.6158 100 50C100 22.3842 77.6158 0 50 0ZM50 96.9908C24.0462 96.9908 3.00925 75.9538 3.00925 50C3.00925 24.0462 24.0462 3.00925 50 3.00925C75.9538 3.00925 96.9908 24.0462 96.9908 50C96.9908 75.9538 75.9538 96.9908 50 96.9908Z" fill="#C1C5C8"/>
<path d="M24.7129 59.1943L20.5972 60.6158V83.8889C25.7546 88.3658 31.9444 91.6852 38.7592 93.4443V74.4443C32.2685 71.4537 27.1713 65.9583 24.7129 59.1943Z" fill="#003DA6"/>
<path d="M79.3935 60.611L75.2825 59.1943C72.8242 65.9583 67.7269 71.4537 61.2361 74.4443V93.4398C68.0508 91.6806 74.2408 88.361 79.3981 83.8841V60.611H79.3935Z" fill="#003DA6"/>
<path d="M50 76.8981C45.986 76.8981 42.1806 76.0185 38.7592 74.4443V93.4443C42.3519 94.3704 46.1204 94.8656 50 94.8656C53.8796 94.8656 57.6481 94.3704 61.2408 93.4443V74.4489C57.8194 76.0231 54.0139 76.9027 50 76.9027V76.8981Z" fill="black"/>
<path d="M7.72687 65.0509C10.3426 72.4027 14.8241 78.8705 20.6019 83.8842V60.6111L7.72687 65.0509Z" fill="black"/>
<path d="M92.2731 65.0556L79.3936 60.6158V83.889C85.1713 78.875 89.6527 72.4075 92.2731 65.0556Z" fill="black"/>
<path d="M39.8981 83.8008C40.0742 83.7823 40.3194 83.7454 40.4769 83.7917L41.0556 83.9583C41.2408 84.0139 41.2777 84.0694 41.236 84.2223L39.8704 88.9444C39.8242 89.0973 39.7592 89.125 39.5787 89.0739L38.6204 88.7962C38.4352 88.7454 38.3981 88.6852 38.4398 88.5325L39.4306 85.1019L38.3425 84.7917C38.1575 84.736 38.1204 84.6806 38.1621 84.5277L38.264 84.1712C38.2871 84.0833 38.3148 84.0277 38.4492 83.9954C38.4492 83.9954 39.7223 83.8194 39.8981 83.8008Z" fill="white"/>
<path d="M44.0417 86.5C44.1436 85.4629 45.0973 84.6852 46.3704 84.8148C48.25 85.0046 48.6158 86.2408 48.4675 87.7223C48.3148 89.2454 47.5277 90.4815 45.7038 90.2962C44.9629 90.2223 44.3981 89.9121 43.9121 89.3842C43.7963 89.2592 43.8379 89.2083 43.9675 89.0973L44.5 88.6667C44.6296 88.5648 44.6992 88.5417 44.8194 88.6758C45.1065 88.9954 45.4075 89.1852 45.9258 89.236C46.5277 89.2962 47.0092 88.8102 47.0925 87.986C46.9075 88.1758 46.5694 88.4212 45.6806 88.3333C44.6898 88.236 43.9398 87.5925 44.0463 86.4954L44.0417 86.5ZM45.389 86.5508C45.3473 86.9908 45.7038 87.3704 46.1852 87.4167C46.7269 87.4723 47.0925 87.1621 47.139 86.7223C47.1852 86.2592 46.8842 85.9027 46.3425 85.8473C45.8194 85.7962 45.4352 86.0833 45.389 86.5462V86.5508Z" fill="white"/>
<path d="M51.25 86.9584C51.1527 85.9213 51.9398 84.9769 53.2129 84.8565C55.0973 84.6807 55.6898 85.8242 55.8288 87.3102C55.9723 88.8334 55.4352 90.1992 53.6111 90.3705C52.8704 90.4398 52.2546 90.2455 51.6758 89.8194C51.5417 89.7175 51.5694 89.6621 51.6758 89.5277L52.1158 89.0046C52.2223 88.8796 52.2871 88.8425 52.4306 88.9538C52.7731 89.213 53.1065 89.3425 53.6204 89.2917C54.2223 89.2361 54.6019 88.6667 54.5277 87.838C54.3796 88.0602 54.0973 88.3659 53.2083 88.4492C52.2175 88.5417 51.3565 88.0557 51.2546 86.9584H51.25ZM52.5833 86.75C52.625 87.1898 53.0463 87.4955 53.5325 87.4492C54.0742 87.3982 54.375 87.0277 54.3333 86.588C54.2917 86.125 53.9258 85.8334 53.3842 85.8842C52.861 85.9352 52.5417 86.2917 52.5833 86.7546V86.75Z" fill="white"/>
<path d="M59.5231 87.0462C59.3519 87.0924 59.2917 87.0647 59.25 86.9075L59.0925 86.3518C59.0508 86.1991 59.0833 86.1389 59.2546 86.0924L59.9258 85.9074C60.4908 85.7499 60.6435 85.4306 60.5694 85.1575C60.4629 84.7777 60.1758 84.6204 59.611 84.7777C59.111 84.9166 58.9629 85.1389 58.7408 85.5277C58.6575 85.6712 58.5742 85.6712 58.4306 85.5924L57.861 85.2685C57.7175 85.1806 57.6667 85.1389 57.7592 84.9954C58.1481 84.3889 58.5371 83.9629 59.3194 83.7454C60.236 83.486 61.5325 83.6064 61.8333 84.6852C61.9769 85.2037 61.7592 85.6712 61.4583 85.9814V85.9908C61.9167 86.0693 62.4121 86.2314 62.5925 86.875C62.8935 87.9537 62.0325 88.7222 60.8056 89.0647C60.0231 89.2824 59.361 89.1527 58.7175 88.8379C58.5648 88.7639 58.5833 88.7037 58.6621 88.5508L58.9815 87.986C59.0648 87.8425 59.139 87.8056 59.2825 87.8795C59.6944 88.0741 60.0185 88.1712 60.514 88.0325C61.2408 87.8287 61.3658 87.5091 61.2592 87.1295C61.1852 86.8564 60.861 86.6712 60.2962 86.8287L59.514 87.0462H59.5231Z" fill="white"/>
<path d="M16.1528 40.5601C16.0509 40.3889 16.0972 40.3056 16.2593 40.1991L16.9815 39.7314C17.1482 39.6249 17.2176 39.6018 17.3194 39.7731C17.7361 40.5045 17.8796 41.5508 17.6806 42.4814C17.2732 44.3749 15.5046 45.6341 13.7685 45.2591C12.0324 44.8841 10.9352 43.0139 11.338 41.1204C11.537 40.1897 12.0972 39.2916 12.7778 38.7962C12.9398 38.6806 12.9907 38.7314 13.1019 38.8981L13.5694 39.6204C13.6713 39.7824 13.6806 39.8749 13.5185 39.9908C13.0185 40.3241 12.6991 40.7916 12.5694 41.3841C12.3148 42.5741 13.1389 43.4674 14.1065 43.6758C15.0602 43.8795 16.1898 43.412 16.4491 42.2174C16.5787 41.6204 16.4769 41.0693 16.1574 40.5556L16.1528 40.5601Z" fill="white"/>
<path d="M19.9676 35.0231C20.1342 35.1111 20.1528 35.1898 20.0556 35.3704L19.5556 36.3194C19.4583 36.5 19.3842 36.5277 19.2176 36.4444L14.1065 33.764C13.9398 33.6759 13.9213 33.5973 14.0185 33.4167L16.0926 29.4629C16.1898 29.2825 16.2639 29.2546 16.4306 29.3379L17.0972 29.6852C17.2639 29.7731 17.2824 29.8519 17.1852 30.0325L15.7315 32.8009L16.8472 33.3842L18.2546 30.7038C18.3518 30.5231 18.4259 30.4954 18.5926 30.5834L19.2592 30.9306C19.4259 31.0186 19.4444 31.0925 19.3472 31.2777L17.9398 33.9584L19.9676 35.0231Z" fill="white"/>
<path d="M30.8193 22.5925C30.8193 22.7777 30.8193 22.8935 30.7454 22.9444L30.6435 23.0185C30.5693 23.0694 30.4629 23.0371 30.2871 22.9769L27.0602 21.9723L28.2777 24.2777C28.3704 24.4537 28.3704 24.5092 28.2037 24.6296L27.3333 25.2546C27.1666 25.375 27.0556 25.375 26.9768 25.2129L24.1341 19.8055C24.1064 19.75 24.1018 19.7268 24.1573 19.6898L24.2223 19.6435C24.2546 19.6203 24.2871 19.6157 24.3656 19.6435L29.4352 21.2269L29.5556 15.9166C29.5556 15.8379 29.5739 15.8055 29.6064 15.7824L29.6712 15.7361C29.7268 15.6944 29.7454 15.7037 29.7916 15.75L34 20.1759C34.1204 20.3102 34.0925 20.4074 33.9258 20.5277L33.0556 21.1527C32.8889 21.2731 32.8287 21.2592 32.6989 21.111L30.9258 19.162L30.8287 22.5973L30.8193 22.5925Z" fill="white"/>
<path d="M38.6064 11.9583C40.4629 11.4028 42.4167 12.3472 42.9258 14.0509C43.4352 15.7546 42.3242 17.6204 40.4675 18.1759C38.611 18.7315 36.6575 17.787 36.1481 16.0833C35.6389 14.3796 36.75 12.5139 38.6064 11.9583ZM40.1064 16.9676C41.3102 16.6065 41.6527 15.4491 41.375 14.5185C41.0925 13.5695 40.1758 12.8056 38.9675 13.1667C37.8008 13.5139 37.4167 14.6667 37.6992 15.6157C37.9769 16.5509 38.9352 17.3148 40.1064 16.9676Z" fill="white"/>
<path d="M63.2083 12.5694C63.4073 12.625 63.449 12.6898 63.3981 12.875L63.1806 13.6574C63.1296 13.8379 63.0602 13.875 62.861 13.8194L60.9954 13.3009L59.736 17.8472C59.6852 18.0277 59.6156 18.0648 59.4167 18.0092L58.3842 17.7222C58.1852 17.6666 58.1435 17.6018 58.1944 17.4213L59.4538 12.875L57.5879 12.3564C57.389 12.3009 57.3473 12.2361 57.3981 12.0509L57.6156 11.2685C57.6667 11.0879 57.736 11.0509 57.9352 11.1064L63.2083 12.5648V12.5694ZM48.5323 16.4768C48.5323 16.6666 48.4723 16.7175 48.2685 16.7175H47.199C46.9906 16.7175 46.9352 16.662 46.9352 16.4768V10.4259C46.9352 10.3657 46.9538 10.3472 47.0231 10.3472H47.1204C47.1898 10.3472 47.236 10.375 47.3056 10.4259L51.4723 13.8472V10.7036C51.4723 10.5138 51.5323 10.4629 51.736 10.4629H52.8056C53.014 10.4629 53.0694 10.5185 53.0694 10.7036V16.7546C53.0694 16.8148 53.0508 16.8333 52.9815 16.8333H52.8842C52.8148 16.8333 52.7685 16.8055 52.699 16.7546L48.5323 13.287V16.4768Z" fill="white"/>
<path d="M69.5092 19.7593L69.7408 22.6065C69.7546 22.875 69.5648 22.8656 69.3842 22.7592L68.5325 22.25C68.3564 22.1436 68.2917 22.0231 68.2685 21.8102L68.0462 19.0417L67.5742 18.7593L66.4121 20.6991C66.3148 20.8611 66.236 20.875 66.0602 20.7685L65.1389 20.2176C64.9629 20.1111 64.9398 20.037 65.0371 19.875L68 14.9213C68.0973 14.7593 68.1758 14.7454 68.3519 14.8519L70.4537 16.1065C71.4167 16.6806 72.3842 17.7593 71.6389 19.0046C71.125 19.8657 70.2962 19.9722 69.5046 19.7593H69.5092ZM69.1064 18.2685C69.6992 18.6204 70.0742 18.6065 70.3102 18.2083C70.5508 17.8102 70.3842 17.4722 69.7917 17.1204L68.8796 16.5741L68.1898 17.7222L69.1019 18.2685H69.1064Z" fill="white"/>
<path d="M72.5694 25.3935C72.4258 25.2454 72.4258 25.1666 72.5602 25.037L76.7315 21.0462C76.8658 20.9166 76.9444 20.9212 77.0879 21.0693L80.1712 24.2916C80.3148 24.4397 80.3148 24.5185 80.1806 24.6481L79.639 25.1666C79.5046 25.2962 79.4258 25.2916 79.2825 25.1435L77.1204 22.8841L76.2083 23.7545L78.2823 25.9212C78.4258 26.0693 78.4258 26.1481 78.2917 26.2777L77.75 26.7962C77.6158 26.9258 77.5371 26.9212 77.3935 26.7731L75.3194 24.6064L74.3842 25.5L76.5462 27.7591C76.6898 27.9075 76.6898 27.986 76.5556 28.1158L76.014 28.6341C75.8796 28.7639 75.8008 28.7591 75.6573 28.611L72.574 25.3889L72.5694 25.3935ZM79.9583 22.0787C79.8102 22.0556 79.6806 21.9908 79.5694 21.8795L79 21.2825C78.8796 21.1527 78.9075 21.0693 79.1992 21.0787L80.9398 21.1158C81.1296 21.111 81.1806 21.2408 81.139 21.4397L81.0046 22.0741C80.9629 22.236 80.9167 22.2777 80.699 22.2454L79.9629 22.0833L79.9583 22.0787Z" fill="white"/>
<path d="M81.4212 37.6806C81.3519 37.7962 81.1992 37.7731 81.1296 37.6435L80.5463 36.5277C80.4629 36.3704 80.486 36.2962 80.6019 36.111L81.1758 35.2222L79.8935 32.7731L78.8379 32.736C78.6204 32.7268 78.5463 32.6991 78.4629 32.5416L77.8796 31.4258C77.8102 31.2962 77.8842 31.1666 78.014 31.1666L84.8288 31.486C85.0092 31.5045 85.1019 31.486 85.1435 31.5648L85.1575 31.5925C85.1992 31.6712 85.1342 31.736 85.0417 31.8981L81.4167 37.6758L81.4212 37.6806ZM83.1992 32.5462L81.1019 32.5139L82.0417 34.3102L83.2083 32.5693L83.1992 32.5508V32.5462Z" fill="white"/>
<path d="M84.2314 44.9815C84.2731 45.1853 84.2314 45.25 84.0508 45.2917L83.3148 45.4444C83.1296 45.4815 83.0648 45.4353 83.0231 45.2361L82.1852 41.2732C82.1435 41.0694 82.1852 41.0046 82.3658 40.963L88.0139 39.7732C88.1992 39.7361 88.2639 39.7823 88.3056 39.9815L88.5277 41.0278C88.5694 41.2315 88.5277 41.2963 88.3473 41.338L83.6667 42.324L84.2269 44.9769L84.2314 44.9815Z" fill="white"/>
<path d="M61.2408 68.0417C62.3333 66.588 63.3565 65.014 64.2917 63.3334C68.4398 55.8705 70.6758 46.8982 70.764 37.389C70.7731 36.1482 70.736 34.6944 70.6575 33.2777C68.7871 32.6992 65.4213 31.7592 61.236 31.0557L61.2408 68.0509V68.0417ZM61.2408 72.2546C60.8242 72.7175 60.4027 73.1667 59.9723 73.5973L59.9629 73.6065C59.1065 74.4675 58.2269 75.2686 57.3148 76.014C57.3008 76.0232 57.2871 76.0371 57.2731 76.0463C56.5925 76.5973 55.8981 77.1159 55.1944 77.5973C55.1898 77.5973 55.1852 77.6065 55.1758 77.6065C54.9537 77.7592 54.7315 77.9027 54.5092 78.0463C54.4815 78.0648 54.4583 78.0788 54.4306 78.0973C54.2083 78.2361 53.9908 78.375 53.7685 78.5092C53.7592 78.514 53.7454 78.5232 53.736 78.5325C53.2592 78.8194 52.7731 79.088 52.2871 79.338C52.2685 79.3473 52.2454 79.3565 52.2269 79.3705C52.014 79.4815 51.7963 79.588 51.5788 79.6898C51.5371 79.7084 51.5 79.7269 51.4583 79.7455C51.2454 79.8473 51.0325 79.9444 50.8194 80.0371C50.7917 80.0509 50.7685 80.0602 50.7408 80.0742C50.4954 80.1807 50.25 80.2825 50.0046 80.3842C49.9167 80.3473 49.8288 80.3102 49.7408 80.2732C49.611 80.2175 49.4769 80.1667 49.3473 80.1111C49.2315 80.0602 49.111 80.0092 48.9954 79.9538C48.8842 79.9027 48.7777 79.8565 48.6667 79.8009C48.5463 79.7455 48.4258 79.6852 48.3056 79.6296C48.1992 79.5788 48.0973 79.5277 47.9908 79.4723C47.8704 79.4121 47.7454 79.3519 47.625 79.2871C47.5231 79.2361 47.4258 79.1807 47.3288 79.125C47.1019 79 46.8704 78.875 46.6435 78.7455C46.5508 78.6944 46.4629 78.6436 46.3704 78.588C46.2408 78.514 46.1158 78.4352 45.9908 78.3565C45.9027 78.3009 45.8102 78.2455 45.7223 78.1898C45.5925 78.1111 45.4675 78.0277 45.3425 77.9444C45.2546 77.889 45.1712 77.8334 45.0833 77.7732C44.9538 77.6852 44.8242 77.6019 44.6944 77.514C44.6296 77.4675 44.5602 77.4213 44.4954 77.375C44.2223 77.1852 43.9538 76.9907 43.6898 76.7917C43.6342 76.75 43.5788 76.7084 43.5185 76.6667C43.3842 76.5648 43.2546 76.463 43.1204 76.3565C43.0463 76.3009 42.9723 76.2407 42.9027 76.1852C42.7731 76.0788 42.6435 75.9723 42.514 75.8657C42.4444 75.8102 42.375 75.75 42.3056 75.6898C42.1713 75.5788 42.0371 75.463 41.9027 75.3473C41.861 75.3148 41.8242 75.2777 41.7825 75.2409C41.4815 74.9769 41.1806 74.7038 40.8842 74.4259C40.8565 74.4027 40.8288 74.375 40.8056 74.3519C40.6713 74.2223 40.5325 74.0925 40.3981 73.9584C40.3425 73.9027 40.2825 73.8473 40.2269 73.7917C40.0973 73.6621 39.9629 73.5277 39.8333 73.3982C39.7777 73.3425 39.7269 73.2871 39.6712 73.2315C39.5371 73.0925 39.4027 72.949 39.2685 72.8057C39.25 72.7871 39.236 72.7686 39.2175 72.75C39.0648 72.5834 38.9121 72.4213 38.7592 72.25C38.5371 72 38.3148 71.7455 38.0973 71.4907C38.0463 71.4307 37.9954 71.3705 37.9444 71.3057C37.5092 70.7871 37.0833 70.2546 36.6667 69.7038C36.6158 69.639 36.5694 69.5742 36.5185 69.5046C36.1065 68.9538 35.7038 68.3842 35.3148 67.8009C35.2685 67.7315 35.2175 67.6575 35.1713 67.588C34.9769 67.2963 34.7871 67 34.5973 66.6992C34.4075 66.3982 34.2223 66.0925 34.0417 65.7871C33.9954 65.713 33.9492 65.6342 33.9075 65.5557C33.7269 65.2455 33.5462 64.9352 33.3704 64.6205C29.0046 56.7686 26.6527 47.3519 26.5602 37.3982C26.5508 36.3194 26.5787 35.1296 26.6296 33.9584C26.6712 33.0417 26.7269 32.1296 26.7962 31.2825C26.7962 31.2825 26.8056 31.2825 26.8242 31.2732C26.8333 31.2732 26.8425 31.264 26.8565 31.2592C26.8658 31.2592 26.8796 31.25 26.8935 31.2455C26.9075 31.2409 26.9258 31.2361 26.9444 31.2269C26.9583 31.2223 26.9769 31.2175 26.9954 31.2084C27.0092 31.2038 27.0231 31.1992 27.0371 31.1944C27.0602 31.1852 27.0833 31.1759 27.111 31.1713C27.125 31.1713 27.1342 31.1621 27.1481 31.1575C27.1898 31.1436 27.2315 31.1296 27.2777 31.1111C27.2917 31.1111 27.3008 31.1019 27.3148 31.0973C27.3519 31.0834 27.3935 31.0694 27.4398 31.0557C27.4537 31.0509 27.4723 31.0463 27.486 31.0417C27.6019 31.0046 27.7315 30.9584 27.875 30.9121C27.889 30.9075 27.9075 30.9027 27.9213 30.8982C27.986 30.8796 28.0508 30.8565 28.1204 30.8334C28.1342 30.8334 28.1435 30.8242 28.1575 30.8194C28.2408 30.7917 28.3287 30.764 28.4167 30.7361C28.4167 30.7361 28.4167 30.7361 28.4212 30.7361C28.5092 30.7084 28.5973 30.6807 28.6898 30.6527C28.7037 30.6482 28.7223 30.6436 28.7408 30.639C28.8333 30.6111 28.9258 30.5834 29.0231 30.5509C29.0277 30.5509 29.0325 30.5509 29.0371 30.5509C29.1435 30.5186 29.2546 30.4861 29.3658 30.4538C29.375 30.4538 29.3842 30.4492 29.3935 30.4444C29.4954 30.4121 29.6019 30.3842 29.7129 30.3519C29.7269 30.3519 29.7454 30.3425 29.7592 30.338C29.9954 30.2686 30.25 30.1992 30.514 30.125C30.5277 30.125 30.5462 30.1159 30.5602 30.1111C30.6806 30.0788 30.801 30.0463 30.926 30.0092C30.9398 30.0092 30.9538 30 30.9723 29.9955C31.25 29.9213 31.5371 29.8425 31.8379 29.7686C31.8565 29.764 31.875 29.7592 31.8981 29.7546C32.0417 29.7175 32.1852 29.6807 32.3333 29.6436C32.3425 29.6436 32.3473 29.6436 32.3565 29.639C32.5185 29.5973 32.6806 29.5602 32.8473 29.5186C32.8473 29.5186 32.8519 29.5186 32.8565 29.5186C33.014 29.4815 33.1712 29.4444 33.3333 29.4027C33.3565 29.3982 33.375 29.3936 33.3981 29.389C33.736 29.3102 34.0833 29.2315 34.4398 29.1527C34.4583 29.1527 34.4769 29.1436 34.4954 29.139C34.6575 29.1019 34.8242 29.0694 34.986 29.0325C35.0092 29.0277 35.0277 29.0232 35.0508 29.0186C35.4167 28.9398 35.7871 28.8659 36.1712 28.7871C36.1992 28.7825 36.2315 28.7777 36.2592 28.7686C36.4352 28.7361 36.611 28.6992 36.7917 28.6667C36.8056 28.6667 36.8242 28.6621 36.8379 28.6575C37.0371 28.6205 37.2408 28.5834 37.4444 28.5463C37.4538 28.5463 37.4583 28.5463 37.4675 28.5463C37.6575 28.514 37.8473 28.4815 38.0371 28.4444C38.0694 28.4398 38.1065 28.4307 38.139 28.4259C38.3379 28.3936 38.5417 28.3565 38.7408 28.3242C38.7408 28.3242 38.764 28.3242 38.7731 28.3194C39.1435 28.2592 39.5185 28.2038 39.9027 28.1482C39.9492 28.139 40 28.1342 40.0463 28.1296C40.4213 28.0742 40.8008 28.0232 41.1852 27.9723C41.2129 27.9723 41.2408 27.963 41.2685 27.963C41.6667 27.9121 42.0742 27.8659 42.4815 27.8194C42.5277 27.8148 42.5742 27.8102 42.6204 27.8057C43.0231 27.764 43.4352 27.7223 43.8473 27.6852C43.8658 27.6852 43.889 27.6852 43.9075 27.6807C44.3333 27.6436 44.7592 27.6111 45.1944 27.5788C45.236 27.5788 45.2825 27.5742 45.3288 27.5694C45.7592 27.5417 46.1944 27.514 46.6342 27.4955C46.6435 27.4955 46.6575 27.4955 46.6667 27.4955C47.111 27.4723 47.5648 27.4584 48.014 27.4492C48.0556 27.4492 48.0925 27.4492 48.1342 27.4492C48.5925 27.4398 49.0508 27.4307 49.514 27.4307C49.639 27.4307 49.986 27.4307 49.986 27.4307C49.986 27.4307 50.3288 27.4307 50.4583 27.4307C50.9258 27.4307 51.389 27.4352 51.8473 27.4492C51.8796 27.4492 51.9121 27.4492 51.9444 27.4492C52.8704 27.4723 53.7777 27.514 54.6758 27.5742C54.6992 27.5742 54.7223 27.5742 54.7454 27.5742C55.6527 27.6342 56.5417 27.7175 57.4075 27.8102C57.4167 27.8102 57.4212 27.8102 57.4306 27.8102C58.75 27.9538 60.0185 28.1296 61.2269 28.3242C61.4306 28.3565 61.6344 28.3936 61.8379 28.4259C61.8704 28.4307 61.9027 28.4352 61.9352 28.4444C62.1296 28.4769 62.3194 28.5092 62.5092 28.5463C62.5185 28.5463 62.5231 28.5463 62.5325 28.5463C62.736 28.5834 62.9444 28.6205 63.1435 28.6575C63.1575 28.6575 63.1712 28.6621 63.1852 28.6667C63.3658 28.6992 63.5463 28.7361 63.7223 28.7686C63.75 28.7732 63.7777 28.7777 63.8102 28.7871C64.1944 28.8611 64.5694 28.9398 64.9306 29.0186C64.9538 29.0186 64.9723 29.0277 64.9954 29.0325C65.1621 29.0694 65.3242 29.1019 65.486 29.139C65.5046 29.139 65.5231 29.1482 65.5463 29.1527C65.9027 29.2315 66.25 29.3102 66.5833 29.389C66.6065 29.3936 66.625 29.3982 66.6481 29.4027C66.8102 29.4398 66.9675 29.4769 67.1204 29.5186C67.1204 29.5186 67.1296 29.5186 67.1342 29.5186C67.3008 29.5602 67.4675 29.6019 67.6296 29.639C67.6342 29.639 67.639 29.639 67.6435 29.639C67.7917 29.6759 67.9398 29.713 68.0833 29.75C68.1019 29.7546 68.125 29.7592 68.1435 29.764C68.4444 29.8425 68.736 29.9167 69.014 29.9955C69.0277 29.9955 69.0417 30.0046 69.0556 30.0046C69.1806 30.0371 69.3056 30.0742 69.4258 30.1065C69.4444 30.1065 69.4583 30.1159 69.4769 30.1205C69.7408 30.1944 69.9908 30.264 70.2269 30.3334C70.2454 30.338 70.2592 30.3425 70.2777 30.3473C70.389 30.3796 70.4954 30.4121 70.5973 30.4398C70.6019 30.4398 70.611 30.4398 70.6158 30.4444C70.7315 30.4769 70.8425 30.5092 70.9492 30.5417C70.9492 30.5417 70.9583 30.5417 70.9629 30.5417C71.0602 30.5694 71.1575 30.6019 71.25 30.6296C71.264 30.6342 71.2825 30.639 71.2962 30.6436C71.389 30.6713 71.4815 30.6992 71.5694 30.7269C71.6621 30.7546 71.7454 30.7825 71.8288 30.8102C71.8425 30.8102 71.8565 30.8194 71.8704 30.8242C71.9352 30.8473 72 30.8659 72.0602 30.8842C72.0788 30.889 72.0973 30.8936 72.111 30.9027C72.2546 30.9492 72.3842 30.9909 72.5 31.0325C72.514 31.0371 72.5325 31.0417 72.5462 31.0463C72.5879 31.0602 72.6296 31.0742 72.6667 31.088C72.6806 31.088 72.6944 31.0973 72.7083 31.1019C72.7546 31.1159 72.7963 31.1342 72.8379 31.1482C72.8519 31.1527 72.8658 31.1575 72.875 31.1621C72.9027 31.1713 72.9258 31.1807 72.9492 31.1898C72.9629 31.1944 72.9769 31.1992 72.9908 31.2038C73.0092 31.2084 73.0231 31.2175 73.0371 31.2223C73.0602 31.2315 73.0833 31.2409 73.1019 31.2455C73.111 31.2455 73.1204 31.25 73.125 31.2546C73.1667 31.2686 73.1898 31.2777 73.1898 31.2777C73.2871 32.4769 73.361 33.8148 73.4027 35.1205C73.4258 35.9027 73.4352 36.6713 73.4258 37.3936C73.3425 46.5186 71.3565 55.1898 67.6667 62.6205C67.3287 63.2963 66.9815 63.963 66.6204 64.6159C66.4444 64.9307 66.2685 65.2409 66.0879 65.5463C66.0417 65.625 65.9954 65.6992 65.9538 65.7777C65.7731 66.0834 65.5879 66.389 65.3981 66.6898C65.2083 66.9909 65.0185 67.2825 64.8242 67.5742C64.7777 67.6482 64.7269 67.7175 64.6806 67.7917C64.2917 68.375 63.889 68.9398 63.4769 69.4909C63.4258 69.5602 63.375 69.625 63.3242 69.6944C62.9121 70.2407 62.486 70.7732 62.0508 71.2917C62 71.3565 61.9444 71.4167 61.8935 71.4815C61.6758 71.7361 61.4583 71.9907 61.2315 72.2407L61.2408 72.2546ZM38.764 68.0417V31.0509C38.764 31.0509 38.7592 31.0509 38.7546 31.0509C34.5788 31.7546 31.2129 32.6898 29.3425 33.2732C29.264 34.6898 29.2269 36.1436 29.236 37.3842C29.3242 46.8936 31.5602 55.8657 35.7083 63.3288C36.6435 65.0092 37.6667 66.5834 38.7592 68.0417H38.764Z" fill="black"/>
<path d="M29.3425 33.2731C29.264 34.6897 29.2269 36.1435 29.236 37.3841C29.3242 46.8935 31.5602 55.8658 35.7083 63.3287C36.6435 65.0091 37.6667 66.5833 38.7592 68.0416V31.0508C34.5788 31.7545 31.2129 32.6897 29.3425 33.2731Z" fill="#003DA6"/>
<path d="M64.2917 63.3334C68.4398 55.8705 70.6758 46.8982 70.764 37.389C70.7731 36.1482 70.7361 34.6944 70.6575 33.2777C68.7871 32.6992 65.4213 31.7592 61.2361 31.0557V68.0463C62.3333 66.5925 63.3565 65.0186 64.2917 63.338V63.3334Z" fill="#003DA6"/>
<path d="M70.1712 48.5972C65.5787 47.8564 61.2175 51.912 57.9583 59.6389C56.1852 63.8472 55.5046 66.5648 54.889 69.9491C53.7777 69.9583 52.0556 69.9491 52.0556 69.9491C52.0556 69.9491 52.375 67.7037 53.125 64.5091C53.8704 61.3193 56.875 53.3241 57.9583 49.5185C58.111 48.9908 58.2269 48.4722 58.3148 47.9629C59.6481 40.2083 53.9537 35.0231 50 32.4166C46.0417 35.0231 40.3425 40.2083 41.6806 47.9629C41.7685 48.4768 41.8796 48.9954 42.0325 49.5185C43.1158 53.3287 46.1204 61.3193 46.8704 64.5091C47.6158 67.7037 47.9398 69.9491 47.9398 69.9491C47.9398 69.9491 46.2129 69.9583 45.1064 69.9491C44.486 66.5648 43.8056 63.8518 42.0325 59.6389C38.7777 51.912 34.4167 47.861 29.8194 48.5972C29.3935 48.6666 28.9769 48.7777 28.5742 48.9258C29.5462 53.7825 31.1064 58.3795 33.2223 62.5648C33.236 62.5648 33.2454 62.5602 33.2592 62.5602C35.5371 62.1991 37.7639 62.8056 39.3425 64.2545C41.7871 66.5 41.7962 69.9443 41.7962 69.9443H37.9075C39.0787 71.4212 40.3287 72.7777 41.6389 73.9954C43.9675 73.9954 46.5417 73.9954 47.2962 73.9954C47.111 75.0833 46.3242 76.0741 45.2037 76.8564C46.75 77.9166 48.3564 78.8008 50 79.486C51.6435 78.8056 53.25 77.9212 54.7917 76.861C53.6712 76.0787 52.8796 75.0833 52.6944 73.9954C53.4492 73.9954 56.0325 73.9954 58.361 73.9954C59.6712 72.7777 60.9212 71.4258 62.0925 69.9443H58.1898C58.1898 69.9443 58.1992 66.5 60.6481 64.2545C62.2269 62.8056 64.4444 62.1991 66.7269 62.5602C66.7454 62.5602 66.7592 62.5648 66.7777 62.5693C68.8935 58.3841 70.4583 53.787 71.4306 48.9306C71.0185 48.7777 70.6019 48.6666 70.1712 48.5972Z" fill="white"/>
<path d="M41.6758 47.9584C41.764 48.4723 41.875 48.9909 42.0277 49.514C43.111 53.3242 46.1158 61.3148 46.8658 64.5046C47.611 67.6992 47.9352 69.9444 47.9352 69.9444H49.9954V32.4121C46.0371 35.0186 40.3379 40.2038 41.6758 47.9584Z" fill="#C1C5C8"/>
<path d="M93.3148 61.7315L76.75 56.0186C77.1852 54.0834 77.4167 52.0694 77.4167 50C77.4167 45.4028 76.2825 41.0648 74.2825 37.2592C74.2917 35.4167 74.2037 33.1807 74.0417 31.2269L74 30.6944L73.5 30.5092C73.449 30.4909 71.0648 29.6159 67.264 28.6992C62.5508 24.875 56.5462 22.5834 50.0046 22.5834C43.4629 22.5834 37.4537 24.875 32.7408 28.6992C28.9444 29.6159 26.5556 30.4909 26.5046 30.5092L26.0046 30.6944L25.9629 31.2269C25.8008 33.1807 25.7129 35.4167 25.7223 37.2592C23.7223 41.0648 22.5833 45.4028 22.5833 50C22.5833 52.0694 22.8194 54.0788 23.25 56.014L6.68518 61.7269C6.83333 62.2732 6.99072 62.8102 7.15739 63.3473L23.6667 57.6528C26.1852 66.3242 32.8704 73.2223 41.4075 76.0371C43.986 78.2686 46.7777 80.0046 49.6898 81.1667L50 81.2917L50.3102 81.1667C53.2223 80.0046 56.014 78.264 58.5925 76.0371C67.1296 73.2223 73.8148 66.3242 76.3333 57.6575L92.8425 63.3519C93.0092 62.8148 93.1667 62.2732 93.3148 61.7315ZM50 24.2592C54.6667 24.2592 59.1435 25.4955 63.0602 27.8057C59.4027 27.1296 55.0556 26.588 50.4723 26.588H50H49.5325C44.9492 26.588 40.6019 27.125 36.9398 27.8057C40.8565 25.4909 45.3333 24.2592 50 24.2592ZM31.7962 68.2038C26.9352 63.3425 24.2546 56.8796 24.2546 50C24.2546 46.8936 24.8056 43.8705 25.8519 41.0417C26.4167 49.7917 28.736 58.0278 32.6342 65.0417C34.2592 67.963 36.1342 70.6019 38.2037 72.8936C35.8704 71.6853 33.7083 70.1159 31.7962 68.2038ZM31.4352 58.6159C31.611 59.0557 31.7917 59.4909 31.9815 59.9259C31.7962 59.4955 31.611 59.0557 31.4352 58.6159ZM31.9815 59.9307C32.3704 60.8242 32.7825 61.7038 33.2175 62.5603C32.7825 61.6992 32.3704 60.8242 31.9815 59.9307ZM45.2825 76.9167C45.4492 77.0325 45.6158 77.1436 45.7825 77.2546C45.6758 77.1852 45.5648 77.1159 45.4583 77.0417C45.3981 77 45.3425 76.9584 45.2825 76.9167ZM50 79.4909V73.9723L47.2962 74C47.111 75.088 46.3194 76.0788 45.2037 76.8659C44.1944 76.1713 43.2083 75.4075 42.2546 74.5648C39.1481 71.8242 36.3704 68.3242 34.0973 64.2315C33.7962 63.6853 33.5 63.1342 33.2175 62.5742C33.2315 62.5742 33.2454 62.5694 33.2592 62.5648C35.5371 62.2038 37.764 62.8103 39.3425 64.2592C41.1621 65.9307 41.6342 68.264 41.7546 69.3519C40.9908 59.764 34.9444 55.7686 30.889 57.1944C28.6806 51.1852 27.4908 44.5602 27.4027 37.6621C27.4027 37.5788 27.4027 37.4955 27.4027 37.4121C27.3935 36.4955 27.4121 35.4675 27.4537 34.4213C27.486 33.5788 27.5325 32.7315 27.5925 31.9167C28.0973 31.7455 28.9675 31.463 30.1296 31.1296C31.0742 30.8611 32.2129 30.5557 33.5092 30.25C37.639 29.2732 43.3658 28.2732 49.5371 28.2732H50.0046H50.4769C56.6481 28.2732 62.375 29.2732 66.5046 30.25C67.8008 30.5557 68.9398 30.8611 69.8842 31.1296C71.0462 31.463 71.9167 31.7455 72.4212 31.9167C72.4815 32.7315 72.5277 33.5834 72.5602 34.4259C72.6019 35.4723 72.6204 36.5 72.611 37.4167C72.611 37.5 72.611 37.5834 72.611 37.6713C72.5231 44.5694 71.3287 51.1944 69.125 57.1992C65.0694 55.7825 59.0277 59.7778 58.2685 69.3611C58.389 68.2732 58.861 65.9398 60.6806 64.2686C62.2592 62.8194 64.4815 62.213 66.764 62.5742C66.7731 62.5742 66.7871 62.5742 66.7962 62.5788C66.514 63.139 66.2223 63.6944 65.9167 64.2409C63.6435 68.3334 60.8658 71.8334 57.7592 74.5742C56.7269 75.4861 55.6575 76.3148 54.5556 77.0509C53.0879 78.0371 51.5694 78.8565 50.014 79.5046L50 79.4909ZM45.7871 77.2546C45.9769 77.3796 46.1667 77.5 46.361 77.6159C46.1712 77.4955 45.9769 77.375 45.7871 77.2546ZM46.3796 77.6296C46.5648 77.7409 46.75 77.8519 46.9306 77.963C46.7454 77.8565 46.5602 77.7455 46.3796 77.6296ZM47.5787 78.3334C47.7454 78.4213 47.9075 78.5092 48.0742 78.5973C47.9075 78.5092 47.7454 78.4259 47.5787 78.3334ZM48.1852 78.6528C48.3425 78.7315 48.5 78.8103 48.6527 78.889C48.4954 78.8103 48.3379 78.7361 48.1852 78.6528ZM48.7917 78.9538C48.9444 79.0278 49.0973 79.0973 49.2546 79.1667C49.1019 79.0973 48.9444 79.0278 48.7917 78.9538ZM69.1019 57.213C68.9398 57.6528 68.7731 58.0925 68.5973 58.5278C68.7685 58.0925 68.9398 57.6528 69.1019 57.213ZM68.5648 58.6111C68.0231 59.963 67.4258 61.2825 66.7825 62.5648C67.4306 61.2825 68.0231 59.9675 68.5648 58.6111ZM68.1992 68.2038C66.2871 70.1159 64.1296 71.6853 61.7917 72.8936C63.861 70.6019 65.736 67.963 67.361 65.0417C71.2592 58.0278 73.5788 49.7917 74.1435 41.0463C75.1898 43.875 75.7408 46.8982 75.7408 50.0046C75.7408 56.8796 73.0648 63.3425 68.1992 68.2084V68.2038Z" fill="#C1C5C8"/>
</g>
</g>
<defs>
<clipPath id="clip0_3_4877">
<rect width="100" height="100" fill="white"/>
</clipPath>
</defs>
</svg>
