<svg width="100" height="100" viewBox="0 0 100 100" fill="none" xmlns="http://www.w3.org/2000/svg">
<path d="M62.5863 2.96997H37.7988L17.25 20.1062V80.2087L37.7988 97.345H62.5863L83.135 80.2087V20.1062L62.5863 2.96997Z" fill="#ECE83A"/>
<path d="M61.7625 5.2325L80.8663 21.1625V79.1525L61.7625 95.0825H38.625L19.5188 79.1525V21.1625L38.625 5.2325H61.7625ZM62.1725 4.09875H38.2125L18.3863 20.6325V79.6825L38.2125 96.2163H62.1725L82 79.6825V20.6325L81.5925 20.2925L62.1725 4.09875Z" fill="#1F1646"/>
<path d="M45.6475 61.2687V42.9637L54.2675 61.2687H59.2813L41.1025 22.6637V61.2687H45.6475Z" fill="#1F1646"/>
<path d="M54.7375 12.0074V30.3124L46.1175 12.0074H41.1025L59.2813 50.6112V12.0074H54.7375Z" fill="#1F1646"/>
<path d="M36.5587 18.165H33.1512V55.11H36.5587V18.165Z" fill="#1F1646"/>
<path d="M28.6075 24.3225H26.335V48.9525H28.6075V24.3225Z" fill="#1F1646"/>
<path d="M63.8263 55.1112H67.2338V18.1662H63.8263L63.8263 55.1112Z" fill="#1F1646"/>
<path d="M71.7775 48.9537H74.05V24.3237H71.7775V48.9537Z" fill="#1F1646"/>
<path d="M49.5 83.945L46.9775 81.4213V79.5925H47.905V81.4213H49.4275V78.9738L48.64 78.1863H46.2437L45.4562 78.9738V82.185L47.9487 84.6775V86.855H46.9925V84.6775H45.4562V87.5313L46.2437 88.3188H48.7125L49.5 87.5313V83.945Z" fill="#1F1646"/>
<path d="M50.9575 78.9738V87.5313L51.745 88.3188H54.1412L54.9287 87.5313V84.6775H53.4212V86.855H52.5075V79.5925H53.4212V81.4213H54.9287V78.9738L54.1412 78.1863H51.745L50.9575 78.9738Z" fill="#1F1646"/>
<path d="M44.3775 71.5538L41.8562 69.03V67.2025H42.7825V69.03H44.305V66.5838L43.5162 65.7963H41.1212L40.3337 66.5838V69.7938L42.8262 72.2863V74.4638H41.87V72.2863H40.3337V75.14L41.1212 75.9275H43.59L44.3775 75.14V71.5538Z" fill="#1F1646"/>
<path d="M30.0275 65.7963L31.8825 71.33V65.7963H33.4038V75.9213H32.0288L30.115 70.4013V75.9213H28.6063V65.7963H30.0275Z" fill="#1F1646"/>
<path d="M47.3562 65.7963V69.9725H48.3425V65.7963H49.8637V75.9213H48.3425V71.4363H47.3562V75.9275H45.835V65.8025L47.3562 65.7963Z" fill="#1F1646"/>
<path d="M52.625 65.7963L53.55 73.7688L54.4737 65.7963H55.9487L54.59 75.9213H52.5125L51.1537 65.7963H52.625Z" fill="#1F1646"/>
<path d="M58.75 65.7963V75.9213H57.24V65.7963H58.75Z" fill="#1F1646"/>
<path d="M61.7612 65.7963V74.435H63.1975V75.9275H60.2387V65.8025L61.7612 65.7963Z" fill="#1F1646"/>
<path d="M65.875 65.7963V74.435H67.3125V75.9275H64.3563V65.8025L65.875 65.7963Z" fill="#1F1646"/>
<path d="M71.7775 67.2887H70V69.9725H71.6788V71.4362H70V74.4362H71.7825V75.9287H68.4738V65.8037H71.7775V67.2887Z" fill="#1F1646"/>
<path d="M37.815 75.9275H39.29L37.9312 65.8025H35.85L34.4925 75.9275H35.9675L36.1637 74.235H37.625L37.815 75.9275ZM36.3325 72.7712L36.8912 67.955L37.4487 72.7712H36.3325Z" fill="#1F1646"/>
</svg>
