<svg width="100" height="100" viewBox="0 0 100 100" fill="none" xmlns="http://www.w3.org/2000/svg">
<path d="M50 7.5112C58.4016 7.51497 66.6136 10.0088 73.5984 14.6776C80.5833 19.3464 86.0277 25.9807 89.2438 33.7424C92.4599 41.504 93.3034 50.0448 91.6677 58.2856C90.032 66.5264 85.9904 74.0975 80.0537 80.0425C76.1166 84.0019 71.433 87.1408 66.2741 89.2772C61.1152 91.4137 55.5837 92.5053 50 92.4887C38.6462 92.4887 27.9762 88.0762 19.9575 80.065C11.9387 72.0537 7.51125 61.375 7.51125 50C7.50944 44.4197 8.60721 38.8939 10.7418 33.7381C12.8764 28.5823 16.0061 23.8976 19.9519 19.9518C23.8977 16.006 28.5823 12.8764 33.7381 10.7418C38.8939 8.60716 44.4198 7.50939 50 7.5112ZM50 5.57245C38.115 5.57245 26.9512 10.1974 18.5625 18.5987C14.4306 22.7154 11.1552 27.6099 8.92561 32.9996C6.69601 38.3893 5.55637 44.1673 5.5725 50C5.5725 61.8875 10.1975 73.0525 18.5875 81.4362C26.9775 89.82 38.125 94.4275 50 94.4275C58.7875 94.4262 67.3774 91.8194 74.6835 86.9365C81.9896 82.0537 87.6838 75.1141 91.0461 66.9953C94.4085 58.8764 95.288 49.9429 93.5735 41.3242C91.8589 32.7056 87.6273 24.7888 81.4137 18.575C77.297 14.4388 72.401 11.1599 67.0089 8.92805C61.6168 6.69621 55.8357 5.55568 50 5.57245Z" fill="#0A2240"/>
<path d="M50 7.51123C58.4016 7.515 66.6136 10.0088 73.5985 14.6776C80.5834 19.3464 86.0278 25.9808 89.2439 33.7424C92.4599 41.5041 93.3034 50.0448 91.6677 58.2856C90.032 66.5264 85.9905 74.0976 80.0538 80.0425C76.1166 84.0019 71.433 87.1408 66.2741 89.2773C61.1152 91.4137 55.5837 92.5053 50 92.4887C38.6463 92.4887 27.9763 88.0762 19.9575 80.065C11.9388 72.0537 7.51126 61.375 7.51126 50C7.50946 44.4198 8.60723 38.8939 10.7418 33.7381C12.8765 28.5823 16.0061 23.8977 19.9519 19.9519C23.8977 16.0061 28.5823 12.8764 33.7381 10.7418C38.8939 8.6072 44.4198 7.50943 50 7.51123Z" fill="white"/>
<path d="M15.7912 47.2338C14.7912 47.2338 14.06 47.9088 14.06 48.8475C14.06 49.7863 14.765 50.375 15.615 50.375C15.8182 50.3824 16.0203 50.3409 16.2041 50.2539C16.3879 50.1668 16.5482 50.0369 16.6712 49.875C16.6125 50.6963 16.055 51.165 15.2337 51.165C14.9484 51.1565 14.6683 51.0866 14.4125 50.96L14.1775 51.75C14.4125 51.8963 14.8525 51.985 15.2337 51.985C16.7887 51.985 17.6087 51.0163 17.6087 49.4025C17.61 47.9388 16.7887 47.2338 15.7912 47.2338ZM15.7625 49.5525C15.3225 49.5525 14.97 49.2588 14.97 48.8188C14.9781 48.6142 15.0651 48.4207 15.2127 48.2788C15.3603 48.137 15.5571 48.0577 15.7619 48.0577C15.9666 48.0577 16.1634 48.137 16.311 48.2788C16.4586 48.4207 16.5456 48.6142 16.5537 48.8188C16.5505 48.9191 16.5275 49.0178 16.4858 49.1091C16.4442 49.2004 16.3849 49.2826 16.3113 49.3508C16.2377 49.4191 16.1513 49.472 16.0571 49.5067C15.9629 49.5413 15.8628 49.5569 15.7625 49.5525Z" fill="#0A2240"/>
<path d="M10.4225 48.2024V48.8474H11.5087V51.8987H12.4762V47.3512H11.625C11.5375 47.8212 11.0675 48.2024 10.4225 48.2024Z" fill="#0A2240"/>
<path d="M83.5 47.2338C82.5 47.2338 81.77 47.9088 81.77 48.8188C81.77 49.7575 82.4737 50.3438 83.325 50.3438C83.7937 50.3438 84.2 50.1388 84.3812 49.875C84.3225 50.6963 83.765 51.1363 82.9437 51.1363C82.6603 51.1358 82.38 51.0758 82.1212 50.96L81.8875 51.7225C82.2122 51.8969 82.5751 51.988 82.9437 51.9875C84.4975 51.9875 85.3187 51.0188 85.3187 49.3763C85.3237 47.9388 84.5 47.2338 83.5 47.2338ZM83.4712 49.5525C83.3695 49.5581 83.2678 49.5422 83.1726 49.5058C83.0775 49.4694 82.9911 49.4133 82.9191 49.3412C82.8472 49.2691 82.7912 49.1827 82.755 49.0875C82.7187 48.9923 82.703 48.8905 82.7087 48.7888C82.7085 48.6899 82.7283 48.592 82.7669 48.501C82.8055 48.4099 82.8621 48.3277 82.9333 48.2591C83.0046 48.1905 83.089 48.1371 83.1814 48.102C83.2739 48.067 83.3725 48.051 83.4712 48.055C83.9112 48.055 84.2637 48.3488 84.2637 48.7888C84.2675 49.2588 83.915 49.5525 83.475 49.5525H83.4712Z" fill="#0A2240"/>
<path d="M88.4625 48.8476C88.2514 48.8364 88.0409 48.8789 87.8508 48.9711C87.6606 49.0634 87.4969 49.2024 87.375 49.3751C87.4625 48.5238 88.1075 48.0538 88.875 48.0538C89.1384 48.0606 89.3978 48.1206 89.6375 48.2301L89.9013 47.4388C89.6015 47.289 89.2685 47.2181 88.9337 47.2326C87.4337 47.2326 86.41 48.2601 86.41 49.9026C86.41 51.2526 87.2613 51.9863 88.2588 51.9863C89.2563 51.9863 90.0188 51.3113 90.0188 50.3726C90.0188 49.4338 89.375 48.8476 88.4625 48.8476ZM88.2575 51.1651C88.1549 51.1691 88.0525 51.1524 87.9565 51.1159C87.8605 51.0794 87.7728 51.0238 87.6988 50.9526C87.6248 50.8814 87.566 50.796 87.5258 50.7015C87.4856 50.6069 87.4649 50.5053 87.465 50.4026C87.465 49.9338 87.8175 49.6401 88.2575 49.6401C88.6975 49.6401 89.0488 49.9338 89.0488 50.4026C89.0488 50.8713 88.6975 51.1651 88.2575 51.1651Z" fill="#0A2240"/>
<path d="M38.03 80.2987L34.92 83.5262L35.36 79.0662L34.245 78.5375L33.805 84.5812L34.8325 85.08L39.0862 80.7675L38.03 80.2987Z" fill="#0A2240"/>
<path d="M28.0838 74.1663L26.4413 72.6663L22.5975 76.8038L23.42 77.5663L24.8863 75.9525L25.2975 76.3638L24.6513 78.71L25.5613 79.5313L26.2363 77.0375C26.9113 77.3613 27.6738 77.2138 28.2363 76.6563C28.9063 75.9275 28.875 74.93 28.0838 74.1663ZM27.375 75.8975C27.0525 76.25 26.6125 76.2788 26.1725 75.8688L25.5263 75.2813L26.6125 74.1375L27.2575 74.7238C27.6738 75.105 27.7025 75.575 27.375 75.8975Z" fill="#0A2240"/>
<path d="M27.2625 80.8262L30.1962 82.7924L30.7837 81.9412L28.7587 80.5624L29.4637 79.5062L31.3412 80.7087L31.8687 79.8874L30.02 78.6849L30.725 77.6287L32.7787 78.9787L33.365 78.0975L30.4312 76.1324L27.2625 80.8262Z" fill="#0A2240"/>
<path d="M61.8825 80.4449L63.9937 85.6962L65.0212 85.2862L62.9087 80.0337L61.8825 80.4449Z" fill="#0A2240"/>
<path d="M66.5463 78.0688C65.2263 78.8313 64.61 80.5038 65.52 82.0875C66.43 83.6713 68.19 83.9363 69.51 83.2025C70.86 82.4113 71.4763 80.7388 70.5663 79.1538C69.625 77.57 67.8675 77.3063 66.5463 78.0688ZM68.9813 82.2638C68.2488 82.675 67.1338 82.6163 66.5175 81.5013C65.8725 80.3863 66.3125 79.4475 67.075 78.9788C67.8375 78.5675 68.9238 78.6263 69.5688 79.7113C70.2138 80.8263 69.75 81.795 68.9813 82.2638Z" fill="#0A2240"/>
<path d="M72.855 73.4913L75.3775 76.2788L71.1238 75.0463L70.0675 75.9563L73.8525 80.21L74.6738 79.4775L71.9738 76.455L76.58 77.7463L77.46 76.9838L73.705 72.7588L72.855 73.4913Z" fill="#0A2240"/>
<path d="M42.3425 81.56C40.8425 81.2075 39.2325 81.97 38.8225 83.76C38.3525 85.55 39.4388 86.9588 40.935 87.31C42.435 87.685 44.0438 86.9 44.455 85.1388C44.925 83.35 43.8388 81.9125 42.3425 81.56ZM43.375 84.8463C43.0513 86.1075 42.025 86.46 41.2038 86.2838C40.3525 86.0775 39.6188 85.2563 39.9125 84.0238C40.235 82.7625 41.2625 82.4113 42.0838 82.6163C42.93 82.7925 43.6625 83.6138 43.375 84.8463Z" fill="#0A2240"/>
<path d="M47.4762 82.5287L46.3625 82.4399L46.01 88.1024L49.795 88.3662L49.8537 87.2812L47.1837 87.1337L47.4762 82.5287Z" fill="#0A2240"/>
<path d="M60.7675 80.915L56.2487 82.1463L56.5137 83.1438L58.2438 82.675L59.4475 87.1338L60.5025 86.8413L59.3 82.3813L61.06 81.9413L60.7675 80.915Z" fill="#0A2240"/>
<path d="M55.1337 82.3225L54.0487 82.47L54.4012 85.99C54.4887 86.7238 54.1075 87.1638 53.4625 87.2225C52.8175 87.2813 52.3475 86.9288 52.2587 86.195L51.9662 82.675L50.8512 82.7625L51.2025 86.4013C51.32 87.7763 52.3475 88.425 53.55 88.3075C54.7525 88.19 55.6625 87.34 55.515 85.9613L55.1337 82.3225Z" fill="#0A2240"/>
<path d="M23.8013 29.7775L20.75 27.225L25.4725 27.8412L26.2363 26.9325L21.8938 23.2937L21.19 24.145L24.065 26.5512L19.6638 25.9349L18.7838 26.9912L23.0975 30.6287L23.8013 29.7775Z" fill="#0A2240"/>
<path d="M33.2475 21.5038L32.485 17.3388L35.5362 20.3013L36.505 19.7738L35.2425 14.0813L34.2162 14.5213L35.1837 18.4825L32.2212 15.6075L31.2237 16.165L31.9575 20.1838L29.14 17.2213L28.2312 17.8663L32.2212 22.0625L33.2475 21.5038Z" fill="#0A2240"/>
<path d="M30.2262 23.5287L29.5513 22.7362L27.6737 24.2912L26.8225 23.265L28.5238 21.8562L27.9088 21.0937L26.2062 22.5312L25.3563 21.5037L27.2625 19.95L26.5888 19.1575L23.86 21.4162L27.4688 25.7587L30.2262 23.5287Z" fill="#0A2240"/>
<path d="M72.7662 20.8L72.18 25.5538L73.06 26.3163L76.6975 21.9738L75.8475 21.27L73.4412 24.115L74.0575 19.7438L73.0012 18.8638L69.3637 23.2063L70.2137 23.91L72.7662 20.8Z" fill="#0A2240"/>
<path d="M65.5488 19.4801L67.5488 20.5951L67.3737 21.9451L68.4 22.5313L69.25 16.5463L68.1637 15.9301L63.4987 19.8051L64.5263 20.3626L65.5488 19.4801ZM68.1012 17.3088L67.7262 19.5388L66.375 18.8051L68.1012 17.3088Z" fill="#0A2240"/>
<path d="M63.1138 18.57L60.7675 17.72L62.2925 13.3775L61.2363 12.9962L59.3887 18.3362L62.7912 19.5675L63.1138 18.57Z" fill="#0A2240"/>
<path d="M78.6338 23.9399L74.2337 27.4899L75.5238 29.0737C76.5238 30.3349 78.1063 30.6287 79.485 29.5137C80.8938 28.3699 80.9225 26.7562 79.925 25.5237L78.6338 23.9399ZM78.7513 28.6037C77.8125 29.3674 76.9037 29.1037 76.2875 28.3987L75.7 27.7237L78.5462 25.4362L79.1038 26.1099C79.69 26.8437 79.72 27.8124 78.75 28.6037H78.7513Z" fill="#0A2240"/>
<path d="M50.9688 11.3237L49.8538 11.3537L50 15.1087L47.5063 11.4412L46.1275 11.5L46.3325 17.1325L47.4475 17.0737L47.3013 13.1137L50 17.0162L51.1738 16.9575L50.9688 11.3237Z" fill="#0A2240"/>
<path d="M42.225 16.8688L41.9613 15.5788L44.1325 15.1375L43.8975 14.17L41.7562 14.61L41.4625 13.3488L43.8688 12.85L43.6338 11.8225L40.1712 12.5863L41.375 18.13L44.8363 17.3975L44.6312 16.37L42.225 16.8688Z" fill="#0A2240"/>
<path d="M56.895 16.9862L56.865 17.6312L57.74 17.7787L58.215 14.875L55.4275 14.4062L55.2813 15.345L57.0413 15.6675C56.9238 16.02 56.425 16.6675 55.3688 16.5187C54.4588 16.3425 53.7263 15.55 53.9025 14.2887C54.1363 12.9687 55.1638 12.5287 55.985 12.675C56.895 12.8212 57.2763 13.4962 57.335 13.995L58.42 13.79C58.2738 12.88 57.6275 11.915 56.1613 11.6475C54.635 11.3837 53.11 12.2937 52.8163 14.1125C52.5238 15.9025 53.6375 17.2512 55.1638 17.4575C55.9563 17.6025 56.6013 17.3087 56.895 16.9862Z" fill="#0A2240"/>
<path d="M79.9913 49.8575C79.9921 47.0548 79.2392 44.3034 77.8112 41.8917C76.3832 39.4801 74.3329 37.4969 71.875 36.15C72.2075 35.0196 72.2289 33.8205 71.9369 32.679C71.645 31.5375 71.0504 30.4959 70.216 29.6641C69.3816 28.8322 68.3382 28.2409 67.1958 27.9524C66.0534 27.6639 64.8543 27.689 63.725 28.025C62.3769 25.5506 60.3851 23.4867 57.9603 22.0514C55.5355 20.6161 52.7678 19.863 49.95 19.8715C47.1323 19.8801 44.3693 20.6501 41.9532 22.1001C39.5372 23.5502 37.558 25.6262 36.225 28.1087C35.1164 27.8124 33.9495 27.8125 32.841 28.1089C31.7324 28.4054 30.7212 28.9877 29.9085 29.7978C29.0958 30.6079 28.5101 31.6172 28.21 32.7247C27.91 33.8323 27.9061 34.9992 28.1988 36.1087C25.7248 37.4478 23.6579 39.4296 22.2161 41.8451C20.7743 44.2607 20.011 47.0205 20.0067 49.8336C20.0023 52.6467 20.7571 55.4089 22.1914 57.8289C23.6257 60.2489 25.6864 62.2371 28.1563 63.5837C27.8172 64.7148 27.7903 65.9165 28.0784 67.0616C28.3665 68.2067 28.9589 69.2525 29.7929 70.0884C30.6268 70.9243 31.6713 71.5191 32.8158 71.8099C33.9602 72.1006 35.1619 72.0765 36.2938 71.74C37.6419 74.1962 39.6253 76.2451 42.0365 77.6722C44.4477 79.0993 47.1981 79.8522 50 79.8522C52.8019 79.8522 55.5523 79.0993 57.9635 77.6722C60.3747 76.2451 62.3581 74.1962 63.7063 71.74C64.84 72.0808 66.045 72.108 67.193 71.8188C68.341 71.5295 69.3892 70.9345 70.2261 70.0971C71.063 69.2597 71.6573 68.2112 71.9459 67.063C72.2345 65.9148 72.2065 64.7098 71.865 63.5762C74.3264 62.2298 76.3799 60.2454 77.8098 57.8315C79.2396 55.4175 79.9932 52.6631 79.9913 49.8575Z" fill="#0A2240"/>
<path d="M43.7313 53.3575L39.8563 56.5475C39.8569 56.5508 39.8569 56.5542 39.8563 56.5575L32.9813 62.2175C30.3169 58.5416 28.9137 54.1021 28.9813 49.5627C29.0489 45.0232 30.5836 40.6275 33.3563 37.0325C33.4075 36.965 33.4612 36.8988 33.5137 36.8325L33.6387 36.675C33.9125 36.335 34.1962 36.0025 34.4912 35.6813C27.5375 36.3063 22.0788 42.4225 22.0788 49.88C22.0788 57.3375 27.5375 63.4563 34.4912 64.0788L35.75 64.195C35.75 64.195 35.8438 65.59 35.8563 65.71C36.625 72.5188 42.67 77.8213 50.02 77.8213C57.4775 77.8213 63.5962 72.3625 64.2188 65.41C63.8975 65.7038 63.565 65.9875 63.2188 66.2625L63.0625 66.3875C62.995 66.44 62.9288 66.4938 62.8613 66.545C59.2664 69.3173 54.8709 70.8519 50.3317 70.9195C45.7925 70.9871 41.3533 69.5841 37.6775 66.92L48.0275 54.42C47.7775 54.045 47.5137 53.7488 47.245 53.5925L43.9225 53.205L43.7325 53.36M24.25 49.875C24.25 43.85 27.8037 38.7788 32.6362 37.26C29.1025 39.7025 26.705 44.435 26.705 49.875C26.705 55.315 29.1025 60.0525 32.6362 62.5C27.8037 60.9763 24.25 55.9063 24.25 49.875ZM50.015 75.645C43.99 75.645 38.9188 72.0925 37.4 67.2588C39.8425 70.7938 44.575 73.19 50.015 73.19C55.455 73.19 60.1875 70.7938 62.625 67.2588C61.1113 72.0925 56.0412 75.645 50.015 75.645ZM65.9313 35.725H65.9163C65.775 35.71 65.6338 35.6938 65.4912 35.6825L64.32 35.5725C64.32 35.5725 64.2088 34.35 64.2138 34.355C63.5888 27.4013 57.4725 21.9425 50.015 21.9425C42.5575 21.9425 36.4388 27.4013 35.8162 34.355C36.1388 34.06 36.4721 33.7754 36.8162 33.5013L36.9738 33.3763C37.04 33.3238 37.1063 33.27 37.1738 33.2188C40.7689 30.446 45.1648 28.9112 49.7045 28.8436C54.2442 28.776 58.6839 30.1793 62.36 32.8438L60.225 35.4463L57.7038 38.5L49.6087 48.375C51.4637 48.3838 53.0562 48.3913 53.8787 48.3913H53.9775L67.1762 37.7088C69.7826 41.3832 71.1407 45.7972 71.0507 50.3012C70.9607 54.8052 69.4273 59.1614 66.6762 62.7288C66.625 62.7963 66.5725 62.8625 66.5188 62.93L66.3938 63.0863C66.1188 63.4263 65.835 63.7588 65.5413 64.08C72.4938 63.455 77.9525 57.3388 77.9525 49.8813C77.9562 42.5613 72.6988 36.5363 65.9313 35.725ZM50.015 26.57C44.575 26.57 39.8425 28.9663 37.4 32.5013C38.9188 27.6675 43.99 24.115 50.015 24.115C56.04 24.115 61.1113 27.6688 62.625 32.5C60.1875 28.9663 55.455 26.57 50.015 26.57ZM67.39 62.495C70.925 60.0525 73.3213 55.32 73.3213 49.88C73.3213 44.5313 71.0037 39.8675 67.5713 37.3913L67.6075 37.3625L67.5687 37.3238C72.3187 38.9088 75.7812 43.9275 75.7812 49.88C75.78 55.9063 72.2275 60.9763 67.3938 62.5L67.39 62.495ZM70.1813 65.4638C70.182 66.1553 70.0262 66.838 69.7255 67.4608C69.4248 68.0835 68.9871 68.6301 68.445 69.0596C67.903 69.489 67.2708 69.7902 66.5958 69.9405C65.9208 70.0908 65.2205 70.0864 64.5475 69.9275C64.7624 69.3805 64.946 68.8217 65.0975 68.2538C65.5057 68.3285 65.9254 68.3124 66.3267 68.2065C66.728 68.1007 67.1011 67.9077 67.4193 67.6414C67.7376 67.375 67.9933 67.0418 68.1682 66.6654C68.3431 66.2891 68.4329 65.8788 68.4313 65.4638C68.4306 65.296 68.4147 65.1286 68.3838 64.9638C68.9515 64.8123 69.5103 64.6291 70.0575 64.415C70.1406 64.7585 70.1834 65.1104 70.185 65.4638H70.1813ZM34.5275 29.8388C34.8166 29.8388 35.1049 29.8664 35.3887 29.9213C35.179 30.4735 35.0012 31.0373 34.8563 31.61C34.7472 31.596 34.6374 31.5889 34.5275 31.5888C33.7756 31.5897 33.0547 31.8889 32.5231 32.4206C31.9914 32.9523 31.6922 33.6731 31.6912 34.425C31.691 34.5248 31.6964 34.6246 31.7075 34.7238C31.1347 34.8713 30.5709 35.0516 30.0187 35.2638C29.9675 34.9871 29.9416 34.7064 29.9412 34.425C29.9439 33.2093 30.4286 32.0442 31.2891 31.1854C32.1496 30.3266 33.3155 29.8441 34.5312 29.8438L34.5275 29.8388ZM68.395 34.75C68.4204 34.5984 68.4337 34.445 68.435 34.2913C68.4374 33.877 68.3485 33.4673 68.1746 33.0913C68.0008 32.7153 67.7462 32.3822 67.429 32.1157C67.1118 31.8492 66.7398 31.6559 66.3394 31.5495C65.939 31.4431 65.5201 31.4262 65.1125 31.5C64.9631 30.9314 64.7816 30.3718 64.5687 29.8238C65.3246 29.6489 66.1125 29.6689 66.8585 29.8818C67.6045 30.0948 68.2842 30.4936 68.8339 31.0411C69.3836 31.5886 69.7853 32.2666 70.0013 33.0118C70.2173 33.7569 70.2405 34.5447 70.0687 35.3013C69.5217 35.086 68.9629 34.902 68.395 34.75ZM35.5062 70.07C34.7436 70.2362 33.9512 70.2049 33.204 69.9791C32.4568 69.7534 31.7797 69.3406 31.2366 68.7799C30.6936 68.2193 30.3027 67.5292 30.101 66.7752C29.8992 66.0212 29.8933 65.2282 30.0837 64.4713C30.5938 64.6651 31.1137 64.832 31.6413 64.9713C31.6109 65.1362 31.5954 65.3035 31.595 65.4713C31.596 66.2234 31.8953 66.9444 32.4273 67.4761C32.9592 68.0079 33.6804 68.3069 34.4325 68.3075C34.5892 68.3065 34.7455 68.2927 34.9 68.2663C35.0647 68.8794 35.2672 69.4818 35.5062 70.07Z" fill="#CE0E2D"/>
<path d="M41.7588 64.975L43.8188 61.2563C44.1938 64.2 45.6713 65.9113 45.6713 65.9113L44.5363 67.295L41.7588 64.975ZM37.415 53.25C37.415 52.7363 37.5013 51.7975 38.665 51.7975H39.9725V54.25C39.9827 55.0168 39.943 55.7834 39.8538 56.545L43.7288 53.3525V51.7938H47.7675C48.7974 52.2422 49.6951 52.9471 50.375 53.8413C53.6938 58.1825 55.665 64.6913 60.2 65.5763L65.8538 59.97L64.245 58.5338C64.245 58.5338 61.9463 60.8025 60.035 60.7088C57.7663 60.5988 56.8538 57.5538 55.575 55.2513C54.9213 54.0428 54.1749 52.8868 53.3425 51.7938H53.5C53.5 51.7938 56.9575 51.905 58.9488 50.8263C61.6163 49.3813 63.2863 46.81 63.6863 43.6638L58.2275 46.5C57.34 47.6725 55.9138 48.3938 53.8813 48.3938C52.2313 48.3938 47.48 48.3663 43.7313 48.3425V38.5088C45.5213 37.4538 48.4075 35.845 52.4713 36.1675C54.7963 36.3513 56.545 37.2638 57.7 38.5063L60.21 35.4425C59.3046 34.7445 58.2991 34.187 57.2275 33.7888C50.6 31.2625 44.2163 34.5 41.625 36C38.7763 37.66 36.4538 36.775 36.4538 36.775L35.8725 39.65C37.1497 40.2467 38.5853 40.4159 39.9663 40.1325V48.315L38.71 48.3075C37.5488 48.3075 37.46 47.3675 37.46 46.855V44.8038H35.4138L35.3625 55.3038H37.415V53.25Z" fill="white"/>
</svg>
