<svg width="108" height="100" viewBox="0 0 108 100" fill="none" xmlns="http://www.w3.org/2000/svg">
<g filter="url(#filter0_d_3_4999)">
<path d="M67.62 67.5424L70.25 71.0312L71.3025 70.2412L68.67 66.7524L67.62 67.5424Z" fill="white"/>
<path d="M60.8025 24.085H59.6362V21.92H59.9712C60.3956 21.92 60.8026 21.7514 61.1026 21.4513C61.4027 21.1513 61.5713 20.7443 61.5713 20.32C61.5713 19.8956 61.4027 19.4887 61.1026 19.1886C60.8026 18.8885 60.3956 18.72 59.9712 18.72H58.3138V27.8912H60.8025C61.3067 27.8912 61.7903 27.6909 62.1469 27.3344C62.5034 26.9778 62.7038 26.4942 62.7038 25.99C62.7038 25.4857 62.5034 25.0021 62.1469 24.6456C61.7903 24.289 61.3067 24.0887 60.8025 24.0887" fill="white"/>
<path d="M50.04 25.7313C50.04 24.3438 49.05 23.2188 47.8288 23.2188C46.6075 23.2188 45.6162 24.3438 45.6162 25.7313C45.6162 27.1188 46.6063 28.2437 47.8288 28.2437C49.0513 28.2437 50.04 27.1188 50.04 25.7313Z" fill="white"/>
<path d="M38.25 23.2188C37.3675 23.2188 36.6075 23.8 36.25 24.6488H40.25C39.8937 23.8 39.1337 23.2188 38.25 23.2188Z" fill="white"/>
<path d="M62.1987 70.4575L65.9637 79.7787L67.1813 79.2825L63.4162 69.965L62.1987 70.4575Z" fill="white"/>
<path d="M44.21 49.5C44.6888 49.5 45.3888 50.4475 45.4725 51.0962C45.5163 51.435 45.4262 51.7212 45.69 51.7212C45.8725 51.7212 46.01 51.2025 46.01 50.74C46.01 50.2775 45.7175 49.695 45.25 49.1725C44.7825 48.65 44.7413 48.1312 44.2038 48.1312C43.8888 48.1312 43.8887 48.645 43.44 49.37C43.3025 49.5937 43.1563 49.935 43.285 50.245C43.3963 50.32 43.7938 49.495 44.21 49.495" fill="white"/>
<path d="M43.2325 55.7687C44.0425 55.7687 44.2425 55.6362 44.2425 54.9575C44.2425 54.62 44.0988 54.61 43.95 54.61C43.385 54.61 42.8425 55.4237 42.8425 55.6275C42.8425 55.685 42.9112 55.7687 43.2325 55.7687Z" fill="white"/>
<path d="M37.75 44.9625C38.235 43.3463 37.5 41.785 36.9287 41.785C36.8864 41.7848 36.8445 41.7932 36.8056 41.8099C36.7666 41.8266 36.7316 41.8512 36.7026 41.882C36.6736 41.9129 36.6513 41.9494 36.6371 41.9893C36.6229 42.0292 36.6171 42.0716 36.62 42.1138C36.62 42.6413 37.2512 42.6025 37.62 44.98L37.75 44.9625Z" fill="white"/>
<path d="M102.891 59.465C102.859 58.0275 102.066 57.285 101.408 57.4075C101.414 57.2059 101.364 57.0066 101.264 56.8313C101.165 56.6561 101.019 56.5116 100.842 56.4137L100.186 55.9412C99.9662 55.7512 99.72 55.5412 99.2575 55.5412C98.4675 55.5412 98.0963 56.5587 98.0963 56.5587C97.4713 56.14 97.3788 55.8612 97.1038 55.035C96.6425 53.7575 95.9037 53.7337 95.1888 53.7112C94.725 53.6862 94.5762 53.6512 93.585 53.05C93.585 53.05 94.3988 51.4762 94.2738 49.6962C94.7912 49.8403 95.3254 49.9155 95.8625 49.92C98.7125 49.92 100.415 47.7312 100.415 45.6162C100.415 43.23 98.82 42.1937 97.0525 40.7675C98.7275 40.8812 100.893 39.635 100.893 37.385C100.893 36.3087 100.074 35.4525 100.074 35.4525C99.1513 36.255 98.305 36.73 97.0875 37.035C96.1825 37.1937 93.7775 37.6087 93.7775 39.8862C93.7775 42.5625 97.7225 43.3187 97.7225 45.5987C97.7195 45.8166 97.673 46.0318 97.586 46.2315C97.4989 46.4313 97.3729 46.6118 97.2154 46.7623C97.0578 46.9129 96.8718 47.0306 96.6683 47.1085C96.4648 47.1864 96.2478 47.2231 96.03 47.2162C93.57 47.2162 92.1413 44.6112 89.2125 43.7287V10.0787H18.5375V43.7287C15.6112 44.6112 14.18 47.2162 11.72 47.2162C11.5022 47.2231 11.2852 47.1864 11.0817 47.1085C10.8781 47.0306 10.6922 46.9129 10.5346 46.7623C10.3771 46.6118 10.2511 46.4313 10.164 46.2315C10.077 46.0318 10.0305 45.8166 10.0275 45.5987C10.0275 43.3187 13.97 42.5625 13.97 39.8862C13.97 37.6087 11.5675 37.1937 10.6613 37.035C9.54806 36.7714 8.52114 36.2265 7.67875 35.4525C7.67875 35.4525 6.86 36.3087 6.86 37.385C6.86 39.635 9.025 40.885 10.6975 40.7675C8.9325 42.1937 7.3325 43.23 7.3325 45.6162C7.3325 47.7312 9.035 49.92 11.8875 49.92C12.4246 49.9155 12.9588 49.8403 13.4762 49.6962C13.3512 51.4762 14.1637 53.05 14.1637 53.05C13.1712 53.6512 13.025 53.6862 12.5612 53.7112C11.8462 53.7337 11.1075 53.7575 10.6462 55.035C10.3725 55.8612 10.2712 56.14 9.65375 56.5587C9.65375 56.5587 9.27875 55.5412 8.49375 55.5412C8.03 55.5412 7.78125 55.7512 7.56375 55.9412L6.905 56.4137C6.72927 56.512 6.58389 56.6567 6.4847 56.8319C6.38551 57.0071 6.33633 57.2062 6.3425 57.4075C5.685 57.2825 4.89125 58.0325 4.85625 59.465C4.85625 59.465 4.5 59.8612 4.5 60.3037C4.5 60.9575 5.26625 61.2175 6.8 61.455L6.8575 61.255L8.61625 61.5287C10.2013 61.5287 10.3775 60.2787 10.945 59.7137L11.875 59.8987C14.3 59.4812 14.2438 58.1487 15.47 58.1487C16.0438 58.1487 17.1687 58.4125 17.7612 58.4125C18.0222 58.4109 18.2817 58.3735 18.5325 58.3012V66.5725C18.5325 75.5875 34.7062 89.9387 53.87 89.9387C73.0338 89.9387 89.2125 75.5912 89.2125 66.5762V58.305C89.4637 58.3773 89.7236 58.4148 89.985 58.4162C90.5788 58.4162 91.7038 58.1525 92.2725 58.1525C93.5013 58.1525 93.445 59.4812 95.8712 59.9025L96.805 59.7175C97.37 60.2837 97.5488 61.5325 99.1338 61.5325L100.893 61.25L100.948 61.45C102.484 61.2125 103.25 60.95 103.25 60.2987C103.25 59.8562 102.891 59.46 102.891 59.46M6.33625 60.7012C6.33625 60.7012 5.1575 60.485 5.1575 60.3037C5.1575 60.0462 5.4775 59.9025 5.51125 59.52C5.5775 58.77 5.5025 58.4337 6.1875 58.0387C6.38375 58.0387 6.9025 58.545 6.9025 58.655C6.9025 58.905 6.6275 59.5375 6.33625 60.7012ZM19.195 10.7362H88.5575V43.5675C88.2093 43.4978 87.8561 43.456 87.5013 43.4425V11.7925H20.25V43.4475C19.896 43.4614 19.5437 43.5032 19.1962 43.5725L19.195 10.7362ZM56.7762 57.4337C56.5262 57.7462 56.51 58.7275 57.6512 58.7275C59.7262 58.7275 60.3938 57.8525 61.3925 57.0612C62.1425 57.7037 62.79 58.0262 63.3725 58.0262L64.4588 57.94C65.655 57.94 66.6 58.7275 67.8425 58.7275C67.8875 58.7275 67.925 58.7175 67.9675 58.715C66.259 60.8008 64.1087 62.4813 61.6719 63.6353C59.2351 64.7892 56.5725 65.3878 53.8763 65.3878C51.18 65.3878 48.5174 64.7892 46.0806 63.6353C43.6438 62.4813 41.4935 60.8008 39.785 58.715C39.8275 58.715 39.865 58.7275 39.91 58.7275C41.1525 58.7275 42.0963 57.94 43.2938 57.94L44.38 58.0262C44.965 58.0262 45.605 57.7037 46.36 57.0612C47.36 57.8475 48.0262 58.7275 50.1012 58.7275C51.2412 58.7275 51.2262 57.7462 50.9762 57.4337C51.9487 57.6075 52.6475 56.8925 52.0925 55.9725C50.36 55.4637 50.375 53.875 48.8613 52.5612C47.2888 48.7925 47.8687 46.355 46.6237 44.695C44.2738 41.57 43.8013 40.9325 42.3737 39.745C40.5513 38.1987 40.1488 37.8037 38.8025 36.9412C40.8565 33.9176 43.7711 31.5804 47.1688 30.2325C45.0238 29.9037 43.3812 28.0162 43.3812 25.7325C43.3812 23.2162 45.3713 21.1762 47.83 21.1762C49.005 21.1762 49.705 21.7037 50.0425 22.0587V15.8612H52.445V27.7362C50.2956 28.059 48.3199 29.1033 46.8425 30.6975C45.3651 32.2918 44.4739 34.3411 44.3154 36.5088C44.1568 38.6766 44.7403 40.8338 45.97 42.626C47.1996 44.4182 49.0023 45.7389 51.0819 46.371C53.1615 47.0032 55.3942 46.9091 57.4133 46.1044C59.4324 45.2997 61.1177 43.8321 62.1923 41.9429C63.2669 40.0536 63.667 37.855 63.3268 35.7082C62.9865 33.5615 61.9262 31.5944 60.32 30.13C63.8293 31.4602 66.8438 33.8389 68.9538 36.9425C67.6063 37.805 67.2038 38.2 65.38 39.7462C63.95 40.9337 63.4775 41.57 61.13 44.6962C59.88 46.3562 60.4663 48.7937 58.8925 52.5625C57.385 53.8725 57.3925 55.465 55.6625 55.9737C55.1125 56.8937 55.8088 57.6087 56.7812 57.435M20.75 57.205C21.8125 56.58 22.5263 54.725 22.5263 54.205L22.7388 54.2575V66.575C22.7388 72.885 37.15 85.735 53.8713 85.735C70.5925 85.735 84.9962 72.885 84.9962 66.575V54.2587L85.21 54.2062C85.21 54.725 85.9238 56.5812 86.9837 57.2062V66.5812C86.9837 74.5487 71.5062 87.7287 53.8587 87.7287C36.2113 87.7287 20.75 74.5437 20.75 66.5762V57.205ZM45.3 73.425L46.3425 73.785C46.0737 75.2162 45.9387 76.65 45.4675 78.7075L48.56 69.95L49.825 70.375L45.2938 82.2262L44.135 81.8287L45.2425 75.335L42.0863 81.125L40.9263 80.7275L44.65 68.6025L45.91 69.035L42.955 77.8375C43.855 75.9325 44.6325 74.7125 45.3 73.425ZM42.61 68.875L40.4562 67.3625L37.9562 70.94L39.5687 72.0725L38.8187 73.1475L37.2012 72.0225L34.7013 75.6025L36.8525 77.1112L36.1025 78.185L33.95 76.6775C33.8084 76.5788 33.6877 76.4532 33.5948 76.3078C33.502 76.1624 33.4387 76.0001 33.4087 75.8301C33.3788 75.6602 33.3827 75.486 33.4202 75.3176C33.4578 75.1492 33.5282 74.9898 33.6275 74.8487L39.375 66.6062C39.4741 66.465 39.6 66.3446 39.7456 66.252C39.8911 66.1594 40.0535 66.0964 40.2235 66.0666C40.3934 66.0368 40.5675 66.0407 40.736 66.0782C40.9044 66.1156 41.0638 66.1859 41.205 66.285L43.3613 67.7937L42.61 68.875ZM27.565 70.8375L26.69 69.865L36.1113 61.375L36.9425 62.2987L31.935 68.865L37.875 63.3325L38.75 64.3087L29.3275 72.7912L28.4937 71.8675L33.5 65.3037L27.565 70.8375ZM38.19 54.7312C37.94 54.395 37.6538 53.8212 37.3763 53.1925C37.735 53.1925 38.2075 53.0675 38.8037 52.8337C39.0527 52.8369 39.3015 52.8194 39.5475 52.7812C39.4861 52.9445 39.4352 53.1115 39.395 53.2812C38.9938 53.7275 38.4137 54.1275 38.19 54.73M30.7712 55.6325C31.2325 55.6325 31.98 55.5362 32.0938 55.5362C32.2075 55.5362 32.4625 55.5637 32.5212 56.0362C32.58 56.5087 32.8813 56.7687 32.8813 56.9625C32.8813 57.1562 32.3088 57.525 31.6775 57.525C31.1687 57.525 31.1125 56.3612 30.5987 56.08C30.2237 55.8687 30.3113 55.6375 30.7712 55.6375M57.35 70.41L58.655 70.25L59.28 75.3612C59.4512 76.7712 58.2038 77.3725 58.2038 77.3725L58.8925 82.9975L57.59 83.1587L56.8988 77.5337C56.8988 77.5337 55.5363 77.2337 55.3675 75.845L54.7425 70.7312L56.0438 70.575L56.74 76.2312L58.045 76.07L57.35 70.41ZM75.1875 64.3912L72.75 62.3487C72.4732 62.0956 72.2592 61.7815 72.125 61.4312L72.9925 60.395C73.0611 60.6958 73.2102 60.9723 73.4238 61.195C73.4238 61.195 74.1362 61.795 75.5587 62.9825C77.3575 64.4937 76.1513 66.16 76.1513 66.16C77.545 64.5 79.14 65.9887 79.14 65.9887L81.54 68C81.8637 68.2902 82.2651 68.4797 82.695 68.545L81.8275 69.5787C81.3275 69.5787 80.87 69.1512 80.87 69.1512C80.87 69.1512 78.6987 67.33 77.9812 66.7312C77.1425 66.0262 76.3063 67.0337 76.3063 67.0337L80.7988 70.8025L79.9662 71.8025L70.25 63.6625L71.0912 62.6625L75.2763 66.17C76.1513 65.1212 75.1925 64.3962 75.1925 64.3962M72.1387 69.1712C72.5037 69.6525 72.4287 69.9987 72.2825 70.3312C72.61 70.2362 72.985 70.2925 73.4575 70.9175L75.9987 74.2925C76.2125 74.5775 76.485 74.7062 76.8187 74.8525L75.7425 75.6662C75.437 75.5352 75.1658 75.3354 74.95 75.0825L72.0963 71.2962L71.0437 72.0887L74.46 76.625L73.4125 77.4137L65.78 67.2887L67.875 65.7C68.0129 65.5962 68.1698 65.5206 68.3369 65.4775C68.504 65.4344 68.678 65.4247 68.8489 65.4488C69.0197 65.4729 69.1842 65.5305 69.3328 65.6182C69.4814 65.7059 69.6113 65.8221 69.715 65.96L72.1387 69.1712ZM68.1988 78.285C68.395 78.7697 68.3907 79.3125 68.1867 79.794C67.9828 80.2755 67.5959 80.6562 67.1113 80.8525C66.6266 81.0487 66.0838 81.0444 65.6023 80.8405C65.1208 80.6365 64.74 80.2497 64.5438 79.765L61.1912 71.465C60.995 70.9803 60.9993 70.4375 61.2033 69.956C61.4072 69.4745 61.7941 69.0937 62.2788 68.8975C62.7634 68.7012 63.3062 68.7055 63.7877 68.9095C64.2692 69.1134 64.65 69.5003 64.8462 69.985L68.1988 78.285ZM76.975 55.6337C77.4388 55.6337 77.5287 55.865 77.1462 56.0762C76.635 56.3575 76.58 57.5212 76.0687 57.5212C75.4437 57.5212 74.8675 57.1462 74.8675 56.9587C74.8675 56.7712 75.1663 56.5012 75.2262 56.0325C75.2862 55.5637 75.54 55.5325 75.6537 55.5325C75.7675 55.5325 76.5125 55.6287 76.975 55.6287M68.35 53.2775C68.31 53.1076 68.2586 52.9405 68.1963 52.7775C68.4444 52.8157 68.6952 52.8333 68.9463 52.83C69.5413 53.07 70.0163 53.1837 70.3725 53.1887C70.095 53.8137 69.8137 54.3912 69.5587 54.7275C69.335 54.125 68.755 53.7275 68.3538 53.2787M38.25 28.25C39.06 28.25 39.7687 27.75 40.155 27.015L41.98 28.22C41.5831 28.8513 41.033 29.3719 40.3808 29.7334C39.7287 30.0948 38.9957 30.2855 38.25 30.2875C35.7913 30.2875 33.7987 28.2475 33.7987 25.7312C33.7987 23.215 35.785 21.175 38.25 21.175C40.715 21.175 42.7 23.215 42.7 25.7312C42.7 25.8562 42.6937 25.9937 42.6825 26.12H36.0575C36.225 27.3225 37.14 28.245 38.245 28.245M30.9325 24.475L34.52 30.0562H31.3237L28.4713 25.625V22.4412H29.305C29.7904 22.4287 30.2518 22.227 30.5907 21.8792C30.9296 21.5314 31.1193 21.065 31.1193 20.5794C31.1193 20.0937 30.9296 19.6273 30.5907 19.2795C30.2518 18.9317 29.7904 18.7301 29.305 18.7175H27.625V30.0537H24.875V16.5537H29.9237C32.0975 16.5537 33.8575 18.3562 33.8575 20.5787C33.8644 21.4599 33.581 22.3189 33.0509 23.0229C32.5209 23.7269 31.7738 24.2368 30.925 24.4737M65.3963 25.9875C65.3963 28.2375 63.6163 30.055 61.4238 30.055H60.235C58.919 28.8755 57.3007 28.0856 55.5612 27.7737V16.555H60.6C62.63 16.555 64.2775 18.2412 64.2775 20.3175C64.2878 20.7648 64.2033 21.2092 64.0297 21.6215C63.856 22.0338 63.5971 22.4048 63.27 22.71C63.915 22.9773 64.4641 23.4335 64.8449 24.0187C65.2258 24.6039 65.4206 25.2907 65.4038 25.9887M61.3325 32.4162C62.0282 33.5046 62.4773 34.7321 62.6482 36.0124C62.8192 37.2928 62.7078 38.5951 62.3221 39.8278C61.9363 41.0606 61.2854 42.194 60.415 43.1485C59.5447 44.103 58.476 44.8555 57.284 45.3532C56.092 45.8508 54.8055 46.0815 53.5148 46.0292C52.2242 45.9768 50.9606 45.6427 49.8128 45.0501C48.665 44.4576 47.6608 43.6211 46.8706 42.5992C46.0804 41.5774 45.5234 40.3949 45.2388 39.135L46.625 40.57L48.365 43.375C49.5117 43.8459 50.7392 44.0887 51.9787 44.09L53.125 42.4825L56.9512 42.38L57.0438 42.6425C58.569 41.6917 59.7962 40.3312 60.585 38.7162C60.0606 38.9349 59.5203 39.1133 58.9688 39.25C58.9688 39.25 57.9188 37.4737 57.1437 35.8525C57.6403 34.8359 58.2106 33.8571 58.85 32.9237C58.85 32.9237 60.6437 33.7675 61.4875 34.4562C61.5178 34.5598 61.54 34.6655 61.5537 34.7725C61.5537 34.6912 61.565 34.6112 61.565 34.53C61.5655 33.8206 61.4876 33.1134 61.3325 32.4212M51.0825 32.8525C52.235 34.165 53.3325 35.9237 53.3325 35.9237C52.8013 36.9562 51.2687 39.4025 51.2687 39.4025C49.2 38.9025 47.785 38.4025 47.785 38.4025C47.6517 37.073 47.6404 35.7341 47.7513 34.4025C48.6488 33.9337 51.08 32.8475 51.08 32.8475M51.08 28.7887C53.0641 28.1305 55.2167 28.192 57.16 28.9625L56.6675 30.195C55.3734 30.0602 54.0697 30.043 52.7725 30.1437L51.08 28.7887ZM46.4738 33.3075L45.325 34.92C45.758 33.2869 46.6499 31.812 47.895 30.67L46.4738 33.3075ZM70.0987 27.9962C70.5527 27.9903 70.9858 27.8046 71.3031 27.4798C71.6204 27.1551 71.7959 26.7177 71.7913 26.2637V21.6387H74.1913V26.1012C74.1913 28.4162 72.36 30.2925 70.0987 30.2925C67.8375 30.2925 66 28.4137 66 26.0987V21.6362H68.4025V26.2612C68.3961 26.7155 68.5703 27.1536 68.8866 27.4796C69.203 27.8056 69.6358 27.9927 70.09 28M75.7875 15.865H78.1925V30.0562H75.7875V15.865ZM80.4625 15.865H82.8675V30.0562H80.4625V15.865ZM22.7425 14.285V42.185C21.9212 42.9 21.2738 43.31 20.7537 43.4087V12.2987H87V43.4087C86.4825 43.3125 85.835 42.9 85.0125 42.185V14.285H22.7425ZM7.2425 56.9825C8.10125 56.4825 8.09625 56.1937 8.5 56.1937C8.76625 56.1937 8.9875 56.675 8.9875 56.675C8.595 57.3337 8.2025 58.03 7.6775 58.03C7.33875 58.03 7.0075 57.8137 7.0075 57.605C7.0075 57.3962 6.9525 57.15 7.2425 56.98M17.7725 57.7575C17.0837 57.76 16.375 57.5 15.475 57.5C14.1438 57.5 14.1138 58.2112 13.3125 58.6487C12.5112 59.0862 12.25 59.2387 11.875 59.2387C11.5788 59.2387 11.2375 59.0587 10.9412 59.0587C9.98625 59.0587 10.0825 60.8712 8.61125 60.8712C7.9975 60.8712 7.62375 60.6712 7.11125 60.6387C7.18875 59.45 7.76 58.7537 7.76 58.7537C8.66875 58.7275 9.19 57.6012 9.19 57.6012C10.9925 56.6012 10.895 56.2687 11.26 55.2575C11.6488 54.1762 12.07 54.44 13.185 54.335C14.3313 53.8175 15.0138 53.4325 14.81 52.9037C14.6063 52.375 14.1337 51.4487 14.1337 50.25C14.1337 49.2362 14.1412 48.9462 13.8837 48.9462C13.5962 48.9462 12.9 49.2662 11.8837 49.2662C9.375 49.2662 7.98625 47.3912 7.98625 45.62C7.98625 42.495 11.5462 41.665 11.5462 40.565C11.5462 40.19 11.0887 40.1025 10.5563 40.1025C8.615 40.1025 7.51125 38.7275 7.51125 37.3887C7.52305 37.0458 7.62619 36.7122 7.81 36.4225C7.81 36.4225 8.995 37.4225 10.5475 37.6875C12.1 37.9525 13.3112 38.4475 13.3112 39.89C13.3112 42.175 9.36625 42.9075 9.36625 45.6025C9.36846 45.9072 9.43145 46.2084 9.55154 46.4884C9.67163 46.7684 9.84639 47.0217 10.0656 47.2333C10.2848 47.445 10.544 47.6107 10.8281 47.7209C11.1122 47.8311 11.4154 47.8835 11.72 47.875C15.0262 47.875 16.175 44.1912 20.6038 44.0887C22.8988 43.8225 23.6138 41.2825 26.1238 41.325C26.4663 41.34 26.955 41.535 27.7325 40.7812C28.51 40.0275 28.6687 39.4825 31.095 38.8275C33.6912 38.1237 34.0638 36.7462 36.365 36.7462C38.165 36.7462 40.5638 39.0987 41.9525 40.2537C43.3412 41.4087 43.8462 42.0037 46.0863 45.0812C47.0938 46.4962 46.7438 49.365 48.3025 52.9362C49.8425 54.2325 49.6838 55.6862 51.6025 56.4837C51.7488 56.7987 51.2825 56.79 51.0775 56.79C48.93 56.79 48.7188 54.2262 47.2912 53.5775C46.9387 53.4175 46.9738 53.5612 47.13 53.8125C48.695 55.82 47.6112 56.3312 50.1 57.57C50.815 57.9262 50.3187 58.07 50.1 58.07C47.5487 58.07 47.0312 56.2812 46.225 56.32C45.725 56.7825 44.9987 57.37 44.3775 57.37C44.1912 57.37 43.5875 57.2862 43.2912 57.2862C41.8575 57.2862 41.1163 58.075 39.9075 58.075C39.0225 58.075 39.04 57.3787 39.04 57.3787C38.9791 57.1471 38.9373 56.9109 38.915 56.6725C38.915 56.15 39.505 55.7187 39.505 55.5575C39.505 55.0387 38.745 55.8075 38.745 55.2637C38.745 54.7637 39.2025 54.4075 39.975 53.6387C40.1 53.0723 40.357 52.5434 40.725 52.095C40.725 51.7062 39.8162 52.2362 38.7113 52.1762C37.1975 52.84 36.6362 52.4687 36.9113 52.0625C37.2288 51.59 37.6375 50.875 37.6375 49.4725C37.6375 48.7062 37.33 48.715 37.2625 49.1162C36.7062 51.4837 36.3237 52.0462 35.035 52.2212C34.6162 52.2775 34.0862 52.4475 34.425 53.055L35.9775 55.8637C36.145 56.1687 35.4575 57.7187 35.69 57.7187C35.9225 57.7187 37.075 56.4562 36.6475 55.58L35.3288 52.955C35.655 52.58 36.2337 52.83 36.5962 52.985C36.8262 53.61 37.1975 54.4637 37.4912 54.8662C37.785 55.2687 37.88 55.4712 37.88 55.9737C37.88 56.4762 37.3862 57.1762 36.995 57.8125C36.6037 58.4487 36.1062 58.4837 35.1362 58.475C33.6225 59.2037 31.6525 59.9425 31.035 59.9425C29.465 59.9425 29.5675 58.0887 28.7362 58.0887C28.55 58.0887 28.0737 58.155 27.955 58.02C27.955 58.02 26.9237 56.3625 26.9237 56.18C26.9237 55.805 27.5362 55.6687 28.7987 55.6687C30.0312 55.6687 30.4112 58.1925 31.4875 58.1925C32.5987 58.1925 33.845 57.5175 33.845 56.8325C33.845 55.4112 32.1937 54.765 31.1475 53.9362C29.9787 53.01 30.3162 52.025 29.9088 52.025C29.3713 52.025 29.8463 53.1312 29.8463 53.3925C29.8463 53.6537 29.5763 53.79 29.0837 53.79C27.1237 53.79 26.765 53.3775 25.53 53.3775C24.4525 53.3775 24.0163 53.67 23.2087 53.67C20.9475 53.67 21.8263 50.68 21.8263 49.9487C21.8263 49.85 21.7013 49.7425 21.545 49.7425C21.2825 49.7425 21.1625 50.97 20.875 52.7737C20.6637 53.71 19.515 55.8475 16.1587 55.9412C13.49 56.015 12.1587 56.8837 11.4275 58.1187C11.3225 58.2587 11.4862 58.5962 11.7463 58.28C12.4825 57.5462 13.7362 56.455 16.2463 56.53C18.9412 56.6062 20.3713 55.6787 21.4263 53.7525C21.6213 53.7525 21.7738 53.965 21.8988 54.095C21.8988 54.6612 21.5463 54.8912 21.3463 55.3787C21.19 55.7537 20.7925 56.5637 20.3888 56.6775C19.4375 56.9375 18.8787 57.7625 17.7638 57.7625M88.555 66.5787C88.555 75.285 72.3375 89.29 53.8725 89.29C35.4075 89.29 19.1925 75.29 19.1925 66.5787V58.0362C19.5675 57.8325 19.9012 57.5925 20.2463 57.4287V66.5762C20.2463 74.735 35.9613 88.2312 53.8713 88.2312C71.7812 88.2312 87.4962 74.7312 87.4962 66.5762V57.4287C87.8438 57.5937 88.17 57.8325 88.5525 58.0362L88.555 66.5787ZM99.1338 60.875C97.665 60.875 97.7588 59.0625 96.8037 59.0625C96.5075 59.0625 96.1662 59.2425 95.8712 59.2425C95.5062 59.2425 95.24 59.0837 94.4375 58.6475C93.635 58.2112 93.6038 57.5 92.2725 57.5C91.3812 57.5 90.6637 57.765 89.985 57.765C88.8713 57.765 88.3125 56.94 87.36 56.68C86.9563 56.5662 86.5587 55.7562 86.4037 55.3812C86.2025 54.8937 85.8525 54.6637 85.8525 54.0975C85.9775 53.9725 86.1275 53.755 86.3225 53.755C87.3725 55.6812 88.8088 56.6087 91.5038 56.5325C94.0038 56.4612 95.2625 57.5525 95.9962 58.2825C96.2562 58.5987 96.4212 58.2612 96.315 58.1212C95.5775 56.8862 94.2525 56.0175 91.5863 55.9437C88.225 55.85 87.0788 53.7125 86.8675 52.7762C86.5825 50.9725 86.46 49.745 86.1975 49.745C86.0375 49.745 85.915 49.8525 85.915 49.9512C85.915 50.6825 86.79 53.6725 84.5338 53.6725C83.7288 53.6725 83.29 53.38 82.215 53.38C80.975 53.38 80.6175 53.7925 78.6562 53.7925C78.1687 53.7925 77.8962 53.6587 77.8962 53.395C77.8962 53.1312 78.3712 52.0275 77.8337 52.0275C77.4262 52.0275 77.7612 53.0125 76.5925 53.9387C75.5488 54.7675 73.8962 55.4137 73.8962 56.835C73.8962 57.52 75.1462 58.195 76.255 58.195C77.3312 58.195 77.7137 55.6712 78.9437 55.6712C80.2137 55.6712 80.8187 55.8112 80.8187 56.1825C80.8187 56.365 79.79 58.0225 79.79 58.0225C79.665 58.1575 79.19 58.0912 79.0062 58.0912C78.175 58.0912 78.2775 59.945 76.7075 59.945C76.0912 59.945 74.1225 59.2062 72.6087 58.4775C71.6375 58.4862 71.135 58.45 70.7475 57.815C70.36 57.18 69.875 56.4775 69.875 55.975C69.875 55.4725 69.9675 55.2687 70.2613 54.8675C70.555 54.4662 70.9287 53.6175 71.1588 52.9862C71.52 52.8312 72.1 52.5762 72.4262 52.9562L71.1075 55.5812C70.68 56.4562 71.82 57.72 72.0675 57.72C72.315 57.72 71.6075 56.17 71.775 55.865L73.33 53.0562C73.6675 52.4487 73.1387 52.2787 72.72 52.2225C71.4313 52.0475 71.0488 51.485 70.4938 49.1175C70.4263 48.7162 70.1188 48.7075 70.1188 49.4737C70.1188 50.8762 70.525 51.5912 70.845 52.0637C71.12 52.47 70.5587 52.8412 69.045 52.1775C67.9375 52.2375 67.0312 51.7075 67.0312 52.0962C67.4004 52.5439 67.6575 53.0731 67.7812 53.64C68.5537 54.4075 69.0113 54.765 69.0113 55.265C69.0113 55.8037 68.2513 55.04 68.2513 55.5587C68.2513 55.72 68.8412 56.1512 68.8412 56.6737C68.8189 56.9122 68.7771 57.1484 68.7162 57.38C68.7162 57.38 68.7337 58.0762 67.8488 58.0762C66.6425 58.0762 65.8988 57.2875 64.465 57.2875C64.1662 57.2875 63.565 57.3712 63.3787 57.3712C62.7537 57.3712 62.025 56.7837 61.5312 56.3212C60.7287 56.2875 60.2088 58.0712 57.6562 58.0712C57.4375 58.0712 56.9437 57.9225 57.6562 57.5712C60.145 56.3325 59.0613 55.8212 60.6263 53.8137C60.7812 53.5637 60.82 53.4187 60.4675 53.5787C59.0375 54.2275 58.825 56.7912 56.6787 56.7912C56.4712 56.7912 56.0088 56.8 56.1538 56.485C58.0713 55.6862 57.9113 54.235 59.4538 52.9375C61.015 49.3662 60.665 46.4975 61.6675 45.0825C63.91 42.0075 64.4175 41.41 65.8037 40.255C67.19 39.1 69.5913 36.7475 71.3938 36.7475C73.6925 36.7475 74.065 38.1225 76.6625 38.8287C79.0875 39.4837 79.2438 40.0287 80.0212 40.7825C80.7987 41.5362 81.29 41.3412 81.6325 41.3262C84.1425 41.2837 84.8575 43.8262 87.1525 44.09C91.5812 44.1925 92.7275 47.8762 96.0362 47.8762C96.3401 47.883 96.6423 47.8292 96.9251 47.718C97.2079 47.6067 97.4657 47.4402 97.6834 47.2281C97.9012 47.0161 98.0745 46.7628 98.1932 46.483C98.312 46.2033 98.3737 45.9027 98.375 45.5987C98.375 42.9037 94.435 42.1712 94.435 39.8862C94.435 38.4437 95.6463 37.95 97.1988 37.6837C98.7513 37.4175 99.9362 36.4187 99.9362 36.4187C100.119 36.7089 100.221 37.0424 100.232 37.385C100.232 38.725 99.1287 40.0987 97.185 40.0987C96.6525 40.0987 96.1975 40.1825 96.1975 40.5612C96.1975 41.6612 99.7562 42.4912 99.7562 45.6162C99.7562 47.3837 98.3713 49.2625 95.86 49.2625C94.8425 49.2625 94.1462 48.9425 93.86 48.9425C93.61 48.9425 93.61 49.2325 93.61 50.2462C93.61 51.4487 93.135 52.3787 92.9313 52.9037C92.7275 53.4287 93.41 53.8175 94.5563 54.335C95.6712 54.44 96.09 54.1762 96.4812 55.2575C96.8462 56.2687 96.7512 56.6 98.5512 57.6012C98.5512 57.6012 99.075 58.7262 99.9812 58.7537C99.9812 58.7537 100.552 59.45 100.631 60.6387C100.114 60.6712 99.7425 60.8712 99.1312 60.8712M100.75 57.605C100.75 57.8137 100.416 58.03 100.081 58.03C99.5575 58.03 99.1625 57.3337 98.77 56.675C98.77 56.675 98.9912 56.1937 99.2588 56.1937C99.6612 56.1937 99.6562 56.4825 100.515 56.9825C100.805 57.15 100.75 57.39 100.75 57.6075M101.415 60.7037C101.121 59.54 100.846 58.9112 100.846 58.6575C100.846 58.5475 101.368 58.0412 101.561 58.0412C102.249 58.4362 102.175 58.7775 102.24 59.5225C102.274 59.905 102.596 60.0487 102.596 60.3062C102.596 60.4875 101.415 60.7037 101.415 60.7037Z" fill="white"/>
<path d="M63.7988 54.61C63.6525 54.61 63.5062 54.62 63.5062 54.9575C63.5062 55.6362 63.7088 55.7675 64.5163 55.7675C64.8388 55.7675 64.9087 55.685 64.9087 55.6275C64.9087 55.4237 64.3638 54.61 63.7988 54.61Z" fill="white"/>
<path d="M70.8225 41.7837C70.255 41.7837 69.5212 43.3487 70.0012 44.9625L70.1262 44.9787C70.5012 42.6037 71.1262 42.64 71.1262 42.1125C71.129 42.07 71.1229 42.0273 71.1084 41.9873C71.0939 41.9472 71.0713 41.9106 71.0419 41.8797C71.0126 41.8488 70.9771 41.8244 70.9379 41.8079C70.8986 41.7913 70.8563 41.7831 70.8137 41.7837" fill="white"/>
<path d="M64.4637 50.2412C64.595 49.93 64.4487 49.5887 64.3112 49.3662C63.8625 48.6375 63.865 48.1262 63.545 48.1262C63.01 48.1262 62.965 48.6462 62.4987 49.1662C62.0325 49.6862 61.7388 50.2762 61.7388 50.7337C61.7388 51.1912 61.8763 51.715 62.0588 51.715C62.3225 51.715 62.235 51.43 62.2762 51.09C62.3612 50.4437 63.0637 49.495 63.5387 49.495C63.9575 49.495 64.3525 50.315 64.4637 50.245" fill="white"/>
<path d="M61.3325 32.4163C61.4876 33.1076 61.5655 33.814 61.565 34.5225C61.565 34.6063 61.5563 34.6863 61.5563 34.7725C61.6338 35.2475 61.7338 36.3125 61.59 38.25C61.2654 38.4251 60.9316 38.5824 60.59 38.7213C59.8008 40.336 58.5737 41.6964 57.0488 42.6475L57.6975 44.47C56.25 45.3288 54.5 45.7775 54.5 45.7775C52.675 45.38 51.625 44.5863 51.625 44.5863L51.98 44.0863C50.74 44.0888 49.5116 43.8472 48.365 43.375L48.5575 43.6888L48.1987 43.9788C49.8216 45.3326 51.8752 46.0613 53.9884 46.0332C56.1016 46.005 58.135 45.2219 59.7212 43.8253C61.3074 42.4287 62.3417 40.5108 62.6372 38.4182C62.9327 36.3256 62.47 34.1962 61.3325 32.415" fill="#C1C5C7"/>
<path d="M68.945 52.8324C68.6941 52.8362 68.4433 52.8199 68.195 52.7837C68.2601 52.9459 68.3119 53.1131 68.35 53.2837C68.7512 53.7299 69.3313 54.1312 69.555 54.7324C69.805 54.3974 70.0913 53.8224 70.3688 53.1924C70.0125 53.1924 69.5375 53.0749 68.9425 52.8337" fill="#FFC72C"/>
<path d="M37.375 53.1912C37.6513 53.8162 37.935 54.3962 38.1888 54.7312C38.4113 54.13 38.9913 53.7312 39.3925 53.2825C39.4329 53.1125 39.4847 52.9455 39.5475 52.7825C39.2993 52.8201 39.0484 52.8364 38.7975 52.8312C38.2025 53.0725 37.7275 53.1862 37.37 53.19" fill="#FFC72C"/>
<path d="M64.4575 57.94L63.3713 58.025C62.7887 58.025 62.1462 57.7037 61.3913 57.0612C60.3913 57.8475 59.725 58.7275 57.65 58.7275C56.51 58.7275 56.525 57.7462 56.775 57.4325C55.8025 57.6062 55.1063 56.8913 55.6562 55.9725C57.3888 55.4637 57.3787 53.8688 58.8862 52.56C60.4625 48.7913 59.8775 46.355 61.125 44.695C63.475 41.57 63.9475 40.935 65.375 39.745C67.1963 38.1987 67.6013 37.8037 68.9488 36.94C66.8405 33.8362 63.8278 31.4568 60.32 30.125C61.7408 31.42 62.7386 33.113 63.1833 34.9832C63.628 36.8535 63.4991 38.8144 62.8133 40.6103C62.1276 42.4063 60.9167 43.954 59.3386 45.0519C57.7605 46.1497 55.8883 46.7468 53.966 46.7652C52.0436 46.7837 50.1603 46.2226 48.5614 45.1553C46.9625 44.0879 45.7222 42.5637 45.0021 40.7812C44.282 38.9988 44.1154 37.0408 44.5242 35.1623C44.933 33.2838 45.8981 31.572 47.2938 30.25C47.25 30.25 47.21 30.2375 47.1688 30.2313C43.7712 31.5789 40.8567 33.9156 38.8025 36.9388C40.1475 37.8025 40.5525 38.1975 42.3737 39.7438C43.8062 40.9338 44.2762 41.5662 46.6237 44.6937C47.8737 46.3537 47.2913 48.79 48.8638 52.5588C50.3713 53.8675 50.3637 55.4625 52.0925 55.9712C52.6475 56.89 51.9487 57.605 50.9762 57.4313C51.2262 57.745 51.2425 58.7262 50.1012 58.7262C48.0287 58.7262 47.3588 57.8513 46.3613 57.06C45.6113 57.7025 44.9675 58.0238 44.3825 58.0238L43.2962 57.9388C42.1 57.9388 41.1537 58.7262 39.9125 58.7262C39.8706 58.7239 39.8288 58.7189 39.7875 58.7113C41.4959 60.7973 43.6461 62.478 46.0829 63.632C48.5198 64.7861 51.1824 65.3848 53.8787 65.3848C56.5751 65.3848 59.2377 64.7861 61.6746 63.632C64.1114 62.478 66.2616 60.7973 67.97 58.7113C67.9287 58.719 67.887 58.724 67.845 58.7262C66.6025 58.7262 65.6575 57.9388 64.4613 57.9388" fill="#FFC72C"/>
<path d="M27.625 18.72H29.3013C29.7946 18.72 30.2677 18.916 30.6165 19.2648C30.9653 19.6136 31.1612 20.0867 31.1612 20.58C31.1612 21.0733 30.9653 21.5464 30.6165 21.8952C30.2677 22.2441 29.7946 22.44 29.3013 22.44H28.47V25.625L31.3225 30.0613H34.5175L30.9312 24.475C31.7801 24.2381 32.5274 23.7283 33.0577 23.0243C33.5879 22.3203 33.8716 21.4613 33.865 20.58C33.865 18.3575 32.1037 16.5563 29.9312 16.5563H24.885V30.0563H27.625V18.72Z" fill="#B91F31"/>
<path d="M61.4313 30.0563C63.6263 30.0563 65.4062 28.2375 65.4062 25.9888C65.4224 25.2906 65.2272 24.6038 64.8462 24.0185C64.4652 23.4332 63.9162 22.9767 63.2713 22.7088C63.5974 22.4034 63.8551 22.0325 64.0275 21.6203C64.1998 21.2081 64.2829 20.7641 64.2713 20.3175C64.2713 18.2388 62.6263 16.5563 60.595 16.5563H55.5713V27.7763C57.3096 28.0875 58.9268 28.877 60.2412 30.0563H61.4313ZM58.3125 18.72H59.9712C60.3956 18.72 60.8026 18.8886 61.1026 19.1887C61.4027 19.4887 61.5713 19.8957 61.5713 20.32C61.5713 20.7444 61.4027 21.1513 61.1026 21.4514C60.8026 21.7515 60.3956 21.92 59.9712 21.92H59.6362V24.085H60.8025C61.3071 24.085 61.791 24.2855 62.1478 24.6423C62.5046 24.999 62.705 25.4829 62.705 25.9875C62.705 26.4921 62.5046 26.976 62.1478 27.3328C61.791 27.6896 61.3071 27.89 60.8025 27.89H58.3125V18.72Z" fill="#B91F31"/>
<path d="M82.8662 15.8638H80.4613V30.0563H82.8662V15.8638Z" fill="#B91F31"/>
<path d="M78.1937 15.8638H75.7887V30.0563H78.1937V15.8638Z" fill="#B91F31"/>
<path d="M70.09 30.29C72.3512 30.29 74.1825 28.415 74.1825 26.0987V21.6362H71.7825V26.2612C71.7825 26.7101 71.6042 27.1406 71.2868 27.458C70.9694 27.7754 70.5389 27.9537 70.09 27.9537C69.6411 27.9537 69.2106 27.7754 68.8932 27.458C68.5758 27.1406 68.3975 26.7101 68.3975 26.2612V21.6362H66V26.0987C66 28.4125 67.8338 30.29 70.095 30.29" fill="#B91F31"/>
<path d="M38.25 30.2875C38.9962 30.2848 39.7296 30.0933 40.3819 29.7306C41.0341 29.368 41.5839 28.8462 41.98 28.2138L40.155 27.0063C39.7625 27.75 39.0563 28.25 38.25 28.25C37.145 28.25 36.23 27.3288 36.0625 26.125H42.6875C42.6987 26 42.705 25.865 42.705 25.7338C42.705 23.2163 40.7138 21.1763 38.255 21.1763C35.7963 21.1763 33.8037 23.2163 33.8037 25.7338C33.8037 28.2513 35.7838 30.2875 38.25 30.2875ZM38.25 23.2188C39.1312 23.2188 39.8913 23.8 40.25 24.6488H36.25C36.6063 23.8 37.3663 23.2188 38.25 23.2188Z" fill="#B91F31"/>
<path d="M50.04 22.0562C49.7025 21.7025 49.0025 21.1712 47.8275 21.1712C45.375 21.1712 43.375 23.2137 43.375 25.7312C43.375 28.0175 45.0175 29.9025 47.1625 30.2312C47.205 30.2375 47.2462 30.2462 47.2875 30.2537C48.7047 28.9038 50.5042 28.0246 52.44 27.7362V15.8612H50.04V22.0562ZM47.8275 28.2425C46.6075 28.2425 45.6175 27.1175 45.6175 25.7312C45.6175 24.345 46.6075 23.2187 47.8275 23.2187C49.0475 23.2187 50.04 24.3437 50.04 25.7312C50.04 27.1187 49.05 28.2425 47.8275 28.2425Z" fill="#B91F31"/>
<path d="M31.68 57.52C32.3113 57.52 32.885 57.145 32.885 56.9563C32.885 56.7675 32.585 56.5 32.5238 56.035C32.4625 55.57 32.2087 55.535 32.095 55.535C31.9812 55.535 31.2363 55.6313 30.7738 55.6313C30.3113 55.6313 30.22 55.8638 30.6025 56.0738C31.1138 56.355 31.1713 57.5188 31.68 57.5188" fill="#B91F31"/>
<path d="M7.67125 58.03C8.195 58.03 8.59 57.3338 8.98125 56.675C8.98125 56.675 8.76 56.1963 8.49375 56.1963C8.09 56.1963 8.09625 56.4813 7.2375 56.9825C6.945 57.15 7.00125 57.39 7.00125 57.6075C7.00125 57.825 7.33375 58.035 7.67125 58.035" fill="#B91F31"/>
<path d="M6.18875 58.0387C5.50375 58.4349 5.57875 58.7749 5.5125 59.5224C5.4775 59.9037 5.1575 60.0487 5.1575 60.3062C5.1575 60.4862 6.335 60.7012 6.335 60.7012C6.62875 59.5374 6.90375 58.9074 6.90375 58.6549C6.90375 58.5474 6.38375 58.0387 6.18875 58.0387Z" fill="#B91F31"/>
<path d="M48.3037 52.9312C46.7412 49.3599 47.0938 46.4912 46.09 45.0762C43.8488 42.0024 43.34 41.4037 41.9525 40.2487C40.565 39.0937 38.165 36.7412 36.365 36.7412C34.0625 36.7412 33.6912 38.1162 31.095 38.8224C28.6687 39.4799 28.5125 40.0249 27.735 40.7762C26.9575 41.5274 26.465 41.3374 26.1262 41.3199C23.6137 41.2787 22.9013 43.8199 20.6025 44.0837C16.1775 44.1862 15.0287 47.8712 11.7275 47.8712C11.4228 47.8798 11.1195 47.8275 10.8353 47.7173C10.5512 47.6071 10.2919 47.4412 10.0727 47.2294C9.85356 47.0176 9.67895 46.7641 9.55913 46.4838C9.43931 46.2036 9.37671 45.9022 9.375 45.5974C9.375 42.9049 13.3175 42.1724 13.3175 39.8849C13.3175 38.4424 12.1038 37.9512 10.5538 37.6824C9.00375 37.4137 7.815 36.4199 7.815 36.4199C7.63251 36.7101 7.53028 37.0436 7.51875 37.3862C7.51875 38.7237 8.62125 40.0999 10.5638 40.0999C11.0988 40.0999 11.5525 40.1837 11.5525 40.5599C11.5525 41.6587 7.99125 42.4899 7.99125 45.6124C7.99125 47.3824 9.37875 49.2637 11.8888 49.2637C12.9075 49.2637 13.605 48.9437 13.8888 48.9437C14.1463 48.9437 14.1388 49.2324 14.1388 50.2449C14.1388 51.4487 14.6137 52.3787 14.8175 52.9074C15.0213 53.4362 14.3363 53.8174 13.1925 54.3349C12.0763 54.4399 11.655 54.1762 11.2663 55.2562C10.9013 56.2674 10.9975 56.5987 9.19625 57.5987C9.19625 57.5987 8.675 58.7237 7.76625 58.7524C7.37336 59.3049 7.14811 59.9589 7.1175 60.6362C7.625 60.6749 8 60.8749 8.61625 60.8749C10.0875 60.8749 9.99125 59.0599 10.9463 59.0599C11.2425 59.0599 11.5838 59.2424 11.88 59.2424C12.2438 59.2424 12.505 59.0837 13.3125 58.6474C14.12 58.2112 14.1462 57.4999 15.4775 57.4999C16.3687 57.4999 17.085 57.7662 17.7662 57.7662C18.8787 57.7662 19.435 56.9424 20.3913 56.6824C20.795 56.5687 21.1925 55.7587 21.3487 55.3787C21.5487 54.8949 21.9013 54.6637 21.9013 54.0962C21.7763 53.9712 21.6237 53.7549 21.4287 53.7549C20.375 55.6799 18.9388 56.6024 16.25 56.5262C13.75 56.4574 12.4925 57.5474 11.75 58.2824C11.4925 58.5962 11.325 58.2612 11.4325 58.1187C12.1687 56.8837 13.4937 56.0162 16.1637 55.9437C19.52 55.8487 20.6712 53.7124 20.8787 52.7737C21.165 50.9699 21.2875 49.7437 21.5487 49.7437C21.71 49.7437 21.8325 49.8512 21.8325 49.9499C21.8325 50.6824 20.9575 53.6699 23.2075 53.6699C24.015 53.6699 24.45 53.3774 25.5287 53.3774C26.7638 53.3774 27.1212 53.7924 29.085 53.7924C29.5737 53.7924 29.845 53.6562 29.845 53.3924C29.845 53.1287 29.37 52.0287 29.9075 52.0287C30.315 52.0287 29.9825 53.0124 31.1462 53.9362C32.1912 54.7662 33.8425 55.4137 33.8425 56.8349C33.8425 57.5174 32.5925 58.1937 31.4875 58.1937C30.4112 58.1937 30.0287 55.6712 28.7962 55.6712C27.53 55.6712 26.9212 55.8087 26.9212 56.1799C26.9212 56.3649 27.9525 58.0224 27.9525 58.0224C28.07 58.1574 28.5487 58.0937 28.7337 58.0937C29.565 58.0937 29.4625 59.9437 31.0312 59.9437C31.6475 59.9437 33.6187 59.2037 35.1313 58.4749C36.1038 58.4837 36.6038 58.4499 36.9925 57.8137C37.3813 57.1774 37.875 56.4787 37.875 55.9737C37.875 55.4687 37.785 55.2674 37.4888 54.8674C37.1925 54.4674 36.8213 53.6174 36.5913 52.9862C36.23 52.8324 35.65 52.5749 35.3237 52.9549L36.6425 55.5799C37.07 56.4549 35.93 57.7187 35.685 57.7187C35.44 57.7187 36.1438 56.1662 35.975 55.8637L34.42 53.0549C34.0825 52.4462 34.6112 52.2774 35.03 52.2187C36.3175 52.0424 36.7 51.4824 37.2562 49.1137C37.3212 48.7149 37.6312 48.7062 37.6312 49.4699C37.6312 50.8724 37.2262 51.5874 36.9062 52.0599C36.6313 52.4687 37.1913 52.8399 38.705 52.1762C39.8138 52.2337 40.7225 51.7037 40.7225 52.0949C40.3535 52.5427 40.0964 53.0718 39.9725 53.6387C39.2012 54.4049 38.7438 54.7637 38.7438 55.2637C38.7438 55.8024 39.5025 55.0399 39.5025 55.5574C39.5025 55.7187 38.9113 56.1524 38.9113 56.6749C38.9339 56.9133 38.9757 57.1495 39.0363 57.3812C39.0363 57.3812 39.0213 58.0749 39.9113 58.0749C41.1163 58.0749 41.8587 57.2887 43.2938 57.2887C43.59 57.2887 44.1937 57.3724 44.3825 57.3724C45.0075 57.3724 45.7325 56.7824 46.2275 56.3224C47.0325 56.2899 47.55 58.0724 50.1025 58.0724C50.3213 58.0724 50.8175 57.9249 50.1025 57.5724C47.615 56.3337 48.6975 55.8224 47.1325 53.8137C46.9775 53.5637 46.9388 53.4187 47.2938 53.5774C48.7213 54.2287 48.9338 56.7899 51.0788 56.7899C51.2875 56.7899 51.7513 56.7987 51.605 56.4849C49.685 55.6862 49.8463 54.2349 48.3063 52.9362M37.75 44.9637L37.6188 44.9787C37.25 42.6037 36.6188 42.6399 36.6188 42.1124C36.616 42.07 36.622 42.0275 36.6365 41.9875C36.6509 41.9476 36.6734 41.911 36.7026 41.8801C36.7319 41.8493 36.7671 41.8248 36.8063 41.8082C36.8454 41.7916 36.8875 41.7832 36.93 41.7837C37.4975 41.7837 38.2337 43.3487 37.75 44.9637ZM43.235 55.7699C42.9125 55.7699 42.8462 55.6862 42.8462 55.6262C42.8462 55.4237 43.3887 54.6099 43.9525 54.6099C44.1025 54.6099 44.2438 54.6212 44.2438 54.9574C44.2438 55.6349 44.0425 55.7699 43.235 55.7699ZM45.6937 51.7199C45.4287 51.7199 45.52 51.4324 45.475 51.0949C45.39 50.4462 44.69 49.4999 44.2137 49.4999C43.795 49.4999 43.4 50.3199 43.2887 50.2499C43.1575 49.9412 43.305 49.5987 43.4412 49.3749C43.89 48.6462 43.89 48.1349 44.2075 48.1349C44.7425 48.1349 44.7875 48.6549 45.255 49.1774C45.7225 49.6999 46.0112 50.2849 46.0112 50.7449C46.0112 51.2049 45.8762 51.7262 45.6937 51.7262" fill="#B91F31"/>
<path d="M75.6537 55.5363C75.54 55.5363 75.2787 55.5663 75.2262 56.0363C75.1737 56.5063 74.8675 56.7688 74.8675 56.96C74.8675 57.1513 75.4387 57.5238 76.0687 57.5238C76.5787 57.5238 76.635 56.36 77.1462 56.0788C77.5287 55.8688 77.4387 55.6363 76.9762 55.6363C76.5137 55.6363 75.7675 55.54 75.6537 55.54" fill="#B91F31"/>
<path d="M100.514 56.9812C99.655 56.4812 99.66 56.1949 99.2575 56.1949C98.99 56.1949 98.7688 56.6737 98.7688 56.6737C99.1613 57.3337 99.5563 58.0287 100.08 58.0287C100.415 58.0287 100.749 57.8149 100.749 57.6012C100.749 57.3874 100.804 57.1487 100.514 56.9762" fill="#B91F31"/>
<path d="M102.239 59.5212C102.174 58.7712 102.249 58.4337 101.561 58.0387C101.366 58.0387 100.846 58.5487 100.846 58.6549C100.846 58.9049 101.119 59.5374 101.415 60.7024C101.415 60.7024 102.595 60.4849 102.595 60.3049C102.595 60.0474 102.272 59.9049 102.239 59.5212Z" fill="#B91F31"/>
<path d="M98.555 57.5999C96.755 56.5999 96.85 56.2687 96.485 55.2574C96.0963 54.1749 95.6775 54.4387 94.5612 54.3337C93.4162 53.8162 92.7312 53.4362 92.9362 52.9062C93.1413 52.3762 93.6175 51.4499 93.6175 50.2449C93.6175 49.2312 93.6087 48.9437 93.8675 48.9437C94.1562 48.9437 94.8512 49.2637 95.8675 49.2637C98.3775 49.2637 99.765 47.3824 99.765 45.6137C99.765 42.4887 96.2063 41.6599 96.2063 40.5587C96.2063 40.1837 96.6612 40.1012 97.1937 40.1012C99.135 40.1012 100.241 38.7262 100.241 37.3862C100.229 37.0432 100.126 36.7097 99.9425 36.4199C99.9425 36.4199 98.755 37.4199 97.205 37.6824C95.655 37.9449 94.4413 38.4437 94.4413 39.8862C94.4413 42.1712 98.3812 42.9037 98.3812 45.5987C98.38 45.9035 98.3179 46.205 98.1984 46.4855C98.079 46.7659 97.9046 47.0197 97.6857 47.2318C97.4667 47.4438 97.2075 47.61 96.9234 47.7205C96.6393 47.8309 96.336 47.8834 96.0312 47.8749C92.7225 47.8749 91.5737 44.1899 87.1475 44.0862C84.85 43.8199 84.135 41.2799 81.6275 41.3237C81.2838 41.3399 80.7937 41.5362 80.0162 40.7799C79.2387 40.0237 79.08 39.4812 76.6562 38.8262C74.0575 38.1237 73.6863 36.7449 71.3863 36.7449C69.585 36.7449 67.1862 39.0987 65.7962 40.2512C64.4062 41.4037 63.905 42.0012 61.6625 45.0787C60.6625 46.4937 61.0075 49.3624 59.4462 52.9337C57.9075 54.2337 58.0713 55.6837 56.1463 56.4812C56.0025 56.7974 56.4662 56.7887 56.6725 56.7887C58.82 56.7887 59.03 54.2274 60.46 53.5762C60.8125 53.4174 60.7762 53.5574 60.6188 53.8099C59.0563 55.8174 60.14 56.3287 57.6512 57.5687C56.9362 57.9249 57.43 58.0749 57.6512 58.0749C60.2 58.0749 60.72 56.2887 61.5262 56.3187C62.0262 56.7799 62.7512 57.3712 63.375 57.3712C63.5587 57.3712 64.1625 57.2849 64.4587 57.2849C65.8937 57.2849 66.6362 58.0724 67.845 58.0724C68.73 58.0724 68.7112 57.3774 68.7112 57.3774C68.7721 57.1454 68.8139 56.9088 68.8362 56.6699C68.8362 56.1487 68.245 55.7174 68.245 55.5562C68.245 55.0387 69.0075 55.8062 69.0075 55.2624C69.0075 54.7624 68.55 54.4074 67.775 53.6374C67.6509 53.071 67.3938 52.5423 67.025 52.0949C67.025 51.7049 67.9312 52.2349 69.0375 52.1774C70.5512 52.8387 71.1112 52.4662 70.8362 52.0612C70.5187 51.5887 70.1112 50.8737 70.1112 49.4712C70.1112 48.7049 70.4175 48.7137 70.4862 49.1149C71.0437 51.4812 71.4262 52.0437 72.7125 52.2199C73.1313 52.2762 73.6625 52.4474 73.3225 53.0549L71.77 55.8612C71.6025 56.1662 72.2925 57.7187 72.06 57.7187C71.8275 57.7187 70.6725 56.4562 71.1 55.5799L72.4187 52.9549C72.0925 52.5799 71.515 52.8299 71.1537 52.9874C70.9225 53.6124 70.55 54.4649 70.2562 54.8624C69.9625 55.2599 69.875 55.4737 69.875 55.9749C69.875 56.4762 70.3688 57.1787 70.76 57.8149C71.1512 58.4512 71.6512 58.4849 72.6212 58.4762C74.135 59.2037 76.105 59.9449 76.7213 59.9449C78.2925 59.9449 78.1875 58.0912 79.0212 58.0912C79.205 58.0912 79.6825 58.1587 79.8025 58.0212C79.8025 58.0212 80.8313 56.3649 80.8313 56.1799C80.8313 55.8049 80.2213 55.6712 78.9563 55.6712C77.725 55.6712 77.3437 58.1924 76.27 58.1924C75.155 58.1924 73.91 57.5187 73.91 56.8362C73.91 55.4112 75.5612 54.7674 76.6062 53.9362C77.775 53.0112 77.4375 52.0274 77.8463 52.0274C78.385 52.0274 77.9075 53.1312 77.9075 53.3937C77.9075 53.6562 78.1812 53.7924 78.67 53.7924C80.6325 53.7924 80.99 53.3787 82.2262 53.3787C83.3025 53.3787 83.74 53.6699 84.545 53.6699C86.8062 53.6699 85.9287 50.6812 85.9287 49.9487C85.9287 49.8524 86.0537 49.7449 86.21 49.7449C86.4712 49.7449 86.5937 50.9712 86.8812 52.7749C87.0925 53.7112 88.2388 55.8499 91.5975 55.9424C94.265 56.0174 95.5975 56.8849 96.3262 58.1199C96.4337 58.2612 96.2687 58.5962 96.0088 58.2812C95.2738 57.5487 94.02 56.4574 91.5163 56.5312C88.8213 56.6087 87.3912 55.6837 86.3337 53.7549C86.1387 53.7549 85.9862 53.9699 85.8637 54.0962C85.8637 54.6624 86.2138 54.8924 86.4163 55.3787C86.57 55.7537 86.9675 56.5674 87.3712 56.6799C88.3225 56.9387 88.8812 57.7637 89.9962 57.7637C90.6762 57.7637 91.3938 57.4999 92.285 57.4999C93.6163 57.4999 93.6463 58.2112 94.4475 58.6487C95.2488 59.0862 95.5175 59.2462 95.8825 59.2462C96.1763 59.2462 96.5175 59.0624 96.8138 59.0624C97.77 59.0624 97.675 60.8749 99.1438 60.8749C99.7575 60.8749 100.131 60.6799 100.644 60.6412C100.564 59.4537 99.9925 58.7587 99.9925 58.7587C99.0863 58.7324 98.5625 57.6049 98.5625 57.6049M62.2775 51.0937C62.2337 51.4324 62.3225 51.7187 62.0575 51.7187C61.875 51.7187 61.74 51.1974 61.74 50.7374C61.74 50.2774 62.0325 49.6899 62.4975 49.1687C62.9625 48.6474 63.0112 48.1287 63.5462 48.1287C63.8637 48.1287 63.8612 48.6399 64.3125 49.3674C64.45 49.5887 64.5938 49.9324 64.4625 50.2424C64.3537 50.3174 63.9562 49.4987 63.54 49.4987C63.0625 49.4987 62.3612 50.4462 62.2775 51.0949M64.5162 55.7699C63.7087 55.7699 63.5075 55.6362 63.5075 54.9574C63.5075 54.6212 63.6512 54.6099 63.8 54.6099C64.3625 54.6099 64.9075 55.4237 64.9075 55.6274C64.9075 55.6862 64.8387 55.7699 64.5162 55.7699ZM70.1325 44.9812L70.0075 44.9637C69.5262 43.3487 70.2575 41.7862 70.83 41.7862C70.8724 41.7856 70.9145 41.7937 70.9537 41.8102C70.9928 41.8267 71.0281 41.851 71.0573 41.8818C71.0865 41.9126 71.1091 41.9491 71.1235 41.989C71.138 42.0289 71.144 42.0713 71.1412 42.1137C71.1412 42.6424 70.5075 42.6062 70.1412 44.9812" fill="#B91F31"/>
<path d="M19.195 43.5662C19.5426 43.4982 19.8949 43.4564 20.2488 43.4412V11.7912H87.5V43.4462C87.8543 43.4617 88.2069 43.5034 88.555 43.5712V10.735H19.195V43.5662Z" fill="#182852"/>
<path d="M87.5 66.5775C87.5 74.735 71.7825 88.2312 53.875 88.2312C35.9675 88.2312 20.25 74.7312 20.25 66.5775V57.4275C19.9038 57.59 19.5737 57.8337 19.1912 58.035V66.5775C19.1912 75.2825 35.4088 89.2862 53.8763 89.2862C72.3438 89.2862 88.5563 75.2862 88.5563 66.5775V58.035C88.1813 57.8337 87.8475 57.5925 87.5025 57.4275L87.5 66.5775Z" fill="#182852"/>
<path d="M87 43.4087V12.2999H20.75V43.4087C21.27 43.3124 21.9187 42.8999 22.7412 42.1849V14.2837H85.0062V42.1849C85.8288 42.8999 86.4775 43.3099 86.995 43.4087" fill="#182852"/>
<path d="M20.7563 66.5775C20.7563 74.5438 36.235 87.725 53.8813 87.725C71.5275 87.725 87 74.5438 87 66.5775V57.2025C85.9388 56.5775 85.2263 54.72 85.2263 54.2025C85.1537 54.2225 85.0825 54.2388 85.0113 54.2588V66.5763C85.0113 72.885 70.6 85.735 53.8862 85.735C37.1725 85.735 22.7425 72.8863 22.7425 66.5775V54.26C22.6738 54.24 22.5987 54.2238 22.5287 54.2038C22.5287 54.7238 21.8175 56.5788 20.7563 57.2038V66.5775Z" fill="#182852"/>
<path d="M29.325 72.7913L38.75 64.3088L37.87 63.3313L31.9338 68.8675L36.9425 62.3013L36.1113 61.38L26.6887 69.8638L27.5662 70.8375L33.5025 65.3025L28.4925 71.8675L29.325 72.7913Z" fill="#182852"/>
<path d="M42.6087 68.875L43.3587 67.7988L41.2025 66.2888C40.9177 66.0898 40.5657 66.0115 40.2233 66.0709C39.881 66.1304 39.576 66.3229 39.375 66.6063L33.6113 74.8413C33.5115 74.9826 33.4407 75.1422 33.403 75.311C33.3652 75.4798 33.3612 75.6543 33.3912 75.8247C33.4211 75.995 33.4845 76.1577 33.5776 76.3034C33.6707 76.4492 33.7918 76.575 33.9338 76.6738L36.085 78.1738L36.835 77.1L34.6838 75.59L37.1838 72.01L38.8 73.1425L39.55 72.0663L37.9362 70.935L40.4362 67.3575L42.6087 68.875Z" fill="#182852"/>
<path d="M45.295 82.2325L49.8237 70.375L48.5625 69.945L45.475 78.7025C45.9387 76.645 46.0738 75.2087 46.34 73.78L45.3013 73.42C44.6313 74.7125 43.8562 75.9275 42.9562 77.835L45.9113 69.03L44.65 68.6L40.9263 80.725L42.0863 81.12L45.2425 75.3375L44.135 81.8287L45.295 82.2325Z" fill="#182852"/>
<path d="M59.2825 75.36L58.6575 70.2488L57.3537 70.4075L58.0475 76.0663L56.7425 76.2275L56.0462 70.5713L54.745 70.7275L55.37 75.8413C55.5387 77.23 56.9 77.5313 56.9 77.5313L57.5925 83.1563L58.895 83L58.2062 77.375C58.2062 77.375 59.4563 76.7763 59.2825 75.365" fill="#182852"/>
<path d="M64.5375 79.76C64.7336 80.245 65.1143 80.6322 65.5959 80.8365C66.0776 81.0408 66.6206 81.0454 67.1056 80.8493C67.5906 80.6532 67.9779 80.2725 68.1822 79.7909C68.3865 79.3093 68.3911 78.7662 68.195 78.2812L64.8413 69.9812C64.6421 69.5012 64.2615 69.1192 63.7821 68.9184C63.3028 68.7175 62.7635 68.7142 62.2817 68.9089C61.7998 69.1037 61.4144 69.4809 61.2093 69.9584C61.0041 70.4359 60.9958 70.9751 61.1862 71.4587L64.5375 79.76ZM63.4125 69.9637L67.1763 79.2837L65.9588 79.7837L62.2 70.4562L63.4125 69.9637Z" fill="#182852"/>
<path d="M74.9462 75.0775C75.1612 75.3309 75.4327 75.5304 75.7387 75.66L76.8137 74.845C76.4787 74.7 76.2062 74.57 75.9937 74.2875L73.4512 70.9125C72.9787 70.2875 72.605 70.2337 72.2762 70.3287C72.425 69.9962 72.5 69.6474 72.135 69.1687L69.7187 65.9625C69.6155 65.8234 69.4857 65.7061 69.3368 65.6176C69.1879 65.5291 69.0229 65.471 68.8514 65.4467C68.6799 65.4224 68.5053 65.4323 68.3377 65.476C68.1701 65.5197 68.0128 65.5963 67.875 65.7012L65.7775 67.285L73.4025 77.41L74.45 76.62L71.03 72.0787L72.08 71.2887L74.9462 75.0775ZM70.25 71.0312L67.625 67.5425L68.6775 66.7525L71.3025 70.2412L70.25 71.0312Z" fill="#182852"/>
<path d="M77.9812 66.7325C78.6987 67.3312 80.87 69.1525 80.87 69.1525C80.87 69.1525 81.3287 69.58 81.8275 69.58L82.695 68.5487C82.2656 68.482 81.8645 68.2928 81.54 68.0037L79.1325 65.9875C79.1325 65.9875 77.5362 64.4987 76.145 66.1587C76.145 66.1587 77.35 64.4925 75.55 62.9837L73.4163 61.1962C73.2022 60.974 73.053 60.6973 72.985 60.3962L72.125 61.4312C72.2586 61.7814 72.4727 62.0953 72.75 62.3475L75.1913 64.39C75.1913 64.39 76.1538 65.115 75.275 66.1637L71.09 62.6637L70.2475 63.6637L79.9675 71.8075L80.8025 70.8075L76.3063 67.0375C76.3063 67.0375 77.1412 66.03 77.9812 66.7325Z" fill="#182852"/>
<path d="M57.695 44.4663L57.0462 42.6413L56.9538 42.3788L53.1275 42.4825L51.9775 44.0925L51.625 44.5863C51.625 44.5863 52.6762 45.3788 54.5 45.7763C54.5 45.7763 56.2425 45.3275 57.69 44.4663" fill="#182852"/>
<path d="M61.5913 38.2499C61.7325 36.3112 61.6338 35.2499 61.555 34.7712C61.5404 34.6651 61.5178 34.5602 61.4875 34.4574C60.6437 33.7687 58.8512 32.9249 58.8512 32.9249C58.2109 33.8579 57.6401 34.8368 57.1437 35.8537C57.9187 37.4787 58.9688 39.2512 58.9688 39.2512C59.521 39.1163 60.0621 38.9395 60.5875 38.7224C60.9299 38.5849 61.2638 38.4271 61.5875 38.2499" fill="#182852"/>
<path d="M53.3325 35.9188C53.3325 35.9188 52.2287 34.16 51.0762 32.8475C51.0762 32.8475 48.645 33.9338 47.7475 34.4025C47.6378 35.7321 47.65 37.0689 47.7837 38.3963C47.7837 38.3963 49.1963 38.8963 51.2663 39.3963C51.2663 39.3963 52.8 36.95 53.3325 35.9175" fill="#182852"/>
<path d="M45.3175 34.9199L46.4663 33.3074L47.8875 30.6687C46.6415 31.81 45.7495 33.2852 45.3175 34.9187" fill="#182852"/>
<path d="M56.6625 30.1949L57.1525 28.9612C55.2085 28.1919 53.0558 28.1308 51.0713 28.7887L52.765 30.1437C54.0631 30.0445 55.3675 30.0616 56.6625 30.1949Z" fill="#182852"/>
<path d="M48.1987 43.98L48.5575 43.69L48.3638 43.375L46.6312 40.5663L45.2375 39.135C45.665 41.0317 46.7058 42.7345 48.1987 43.98Z" fill="#182852"/>
</g>
<defs>
<filter id="filter0_d_3_4999" x="0" y="0" width="108" height="108" filterUnits="userSpaceOnUse" color-interpolation-filters="sRGB">
<feFlood flood-opacity="0" result="BackgroundImageFix"/>
<feColorMatrix in="SourceAlpha" type="matrix" values="0 0 0 0 0 0 0 0 0 0 0 0 0 0 0 0 0 0 127 0" result="hardAlpha"/>
<feOffset dy="4"/>
<feGaussianBlur stdDeviation="2"/>
<feComposite in2="hardAlpha" operator="out"/>
<feColorMatrix type="matrix" values="0 0 0 0 0 0 0 0 0 0 0 0 0 0 0 0 0 0 0.25 0"/>
<feBlend mode="normal" in2="BackgroundImageFix" result="effect1_dropShadow_3_4999"/>
<feBlend mode="normal" in="SourceGraphic" in2="effect1_dropShadow_3_4999" result="shape"/>
</filter>
</defs>
</svg>
