<svg width="100" height="100" viewBox="0 0 100 100" fill="none" xmlns="http://www.w3.org/2000/svg">
<path d="M50 7C26.2913 7 7 26.2925 7 50C7 73.7075 26.2875 93 50 93C73.7125 93 93 73.7087 93 50C93 26.2913 73.7087 7 50 7Z" fill="#011E41"/>
<path d="M88.5225 49.9999C88.5225 28.7237 71.2725 11.4762 50.0013 11.4762C28.73 11.4762 11.4775 28.7237 11.4775 49.9999C11.4775 71.2762 28.725 88.5237 50 88.5237C71.275 88.5237 88.5225 71.2762 88.5225 49.9999Z" fill="#6AAAE4"/>
<path d="M14.4238 52.0588L13.5813 49.4663L15.7863 47.8638L17.9925 49.4663L17.15 52.0588H14.4238Z" fill="#011E41"/>
<path d="M82.8325 52.0588L81.9887 49.4663L84.195 47.8638L86.4 49.4663L85.5575 52.0588H82.8325Z" fill="#011E41"/>
<path d="M80.045 50C80.045 33.405 66.5938 19.9537 50.0013 19.9537C33.4088 19.9537 19.955 33.405 19.955 50C19.955 66.595 33.4063 80.0462 50 80.0462C66.5938 80.0462 80.045 66.595 80.045 50Z" fill="#011E41"/>
<path d="M50 91.235C27.2612 91.235 8.7625 72.735 8.7625 50C8.7625 27.265 27.2625 8.76123 50 8.76123C72.7375 8.76123 91.2363 27.2612 91.2363 50C91.2363 72.7387 72.7375 91.235 50 91.235ZM50 9.65998C27.75 9.65998 9.65875 27.75 9.65875 50C9.65875 72.25 27.75 90.34 50 90.34C72.25 90.34 90.3412 72.2425 90.3412 50C90.3412 27.7575 72.25 9.65998 50 9.65998Z" fill="#FF5100"/>
<path d="M50 78.1849C34.4575 78.1849 21.8125 65.5399 21.8125 49.9999C21.8125 34.4599 34.4587 21.8149 50 21.8149C65.5413 21.8149 78.1862 34.4562 78.1862 49.9999C78.1862 65.5437 65.5413 78.1849 50 78.1849ZM50 22.8599C35.0325 22.8599 22.8575 35.0349 22.8575 49.9999C22.8575 64.9649 35.0337 77.1412 50 77.1412C64.9663 77.1412 77.14 64.9649 77.14 49.9999C77.14 35.0349 64.9663 22.8599 50 22.8599Z" fill="white"/>
<path d="M56.2338 41.7638V44.0563H58.08V56.2151L42.8325 41.7476L40.1125 41.7638H38.135V44.0563H39.9213V57.4776H38.0963V59.7701H44.1888V57.4776H42.3175V44.4826L58.4475 59.7301L58.4988 59.7776L60.4788 59.7676V44.0563H62.3263V41.7638H56.2338Z" fill="white"/>
<path d="M51.1825 71.3575V53.77L48.72 51.4387V71.3575H46.8575V73.8237H53.1387V71.3575H51.1825Z" fill="white"/>
<path d="M57.1613 35.7362L49.8925 42.6787L42.2125 35.3412L38.8375 32.0612H40.01V29.6324H33.3975V32.0612H35.3237L40.0575 36.6412L48.775 44.9687V46.4587L51.2038 48.8462V44.7912L59.3462 37.0112C58.6511 36.5318 57.9206 36.1056 57.1613 35.7362Z" fill="white"/>
<path d="M59.6963 29.5537V32.0712H60.9463L60.0163 32.9762C60.7454 33.3841 61.4465 33.8401 62.115 34.3412L64.4587 32.0712H66.3337V29.5537H59.6963Z" fill="white"/>
<path d="M47.8513 66.5737C39.5975 65.4825 33.375 58.3825 33.375 50.055C33.3777 47.6661 33.8935 45.3056 34.8875 43.1333C35.8814 40.961 37.3304 39.0275 39.1363 37.4637C39.1925 37.4125 39.2613 37.355 39.33 37.2937L39.5563 37.0962L37.75 35.3925L37.625 35.4975C37.535 35.5787 37.4438 35.6612 37.3588 35.7475C34.5929 38.1926 32.5941 41.3863 31.6039 44.9428C30.6137 48.4993 30.6744 52.2664 31.7787 55.7891C32.883 59.3118 34.9837 62.4394 37.827 64.7942C40.6702 67.1489 44.1345 68.6301 47.8013 69.0587L47.9925 69.0837V66.595L47.8513 66.5737Z" fill="white"/>
<path d="M65.9775 37.3175V39.4713C65.5823 38.8824 65.155 38.3157 64.6975 37.7738L64.7112 37.76L64.6037 37.6438C64.5225 37.5525 64.4387 37.46 64.3537 37.375C63.725 36.6671 63.0448 36.0065 62.3187 35.3988L62.1412 35.2388L62.135 35.2463C58.8978 32.5745 54.863 31.0567 50.6675 30.9325H50.605C50.4062 30.9325 50.22 30.9263 50.0412 30.9263C46.9529 30.9286 43.9111 31.6792 41.1762 33.1138L40.9637 33.225L42.8625 35.025L42.9675 34.9738C45.1788 33.9276 47.595 33.3862 50.0412 33.3888C53.8534 33.3933 57.5488 34.7045 60.5112 37.1038L61.0687 37.61C63.1075 39.4575 64.7462 41.8763 65.8112 44.61L65.8537 44.7188H68.4362V37.3175H65.9775Z" fill="white"/>
<path d="M65.9838 54.95L65.9463 55.075C64.1813 61.1637 58.6025 65.795 52.0625 66.6012L51.9113 66.6175V69.0937L52.1038 69.07C59.775 68.2162 66.3613 62.6337 68.4925 55.18L68.5538 54.9625L65.9838 54.95Z" fill="white"/>
<path d="M22.4125 25.975L23.0725 25.2987L26.6487 25.7374L24.5975 23.7374L25.3025 23.0125L28.635 26.2625L28.0262 26.8875L24.3337 26.4349L26.4512 28.5L25.75 29.225L22.4125 25.975Z" fill="#011E41"/>
<path d="M26.5387 21.9613L29.33 19.8363L29.8838 20.5613L27.9 22.0701L28.4713 22.8201L30.2213 21.4901L30.775 22.2138L29.025 23.5438L29.6175 24.3238L31.625 22.7913L32.1775 23.5126L29.36 25.6626L26.5387 21.9613Z" fill="#011E41"/>
<path d="M30.25 19.08L31.2262 18.58L33.52 20.9437L33 17.655L33.7812 17.2525L36.1488 19.5975L35.5725 16.3475L36.525 15.8612L37.25 20.76L36.4575 21.165L34.1375 18.9337L34.5887 22.1212L33.795 22.5262L30.25 19.08Z" fill="#011E41"/>
<path d="M41.965 17.2562L39.59 14.9062L40.7575 14.64L42.2575 16.2125L42.9425 14.14L44.0775 13.8812L42.9525 17.0062L43.375 18.8175L42.375 19.0462L41.965 17.2562Z" fill="#011E41"/>
<path d="M44.7962 16.125V16.1113C44.69 14.7913 45.645 13.6313 47.0762 13.515C48.5075 13.3988 49.6175 14.39 49.7237 15.7063V15.72C49.8275 17.0363 48.8737 18.2 47.4425 18.3163C46.0112 18.4325 44.9012 17.44 44.7962 16.125ZM48.6587 15.8188V15.805C48.5937 15.0088 47.96 14.3925 47.1387 14.4575C46.3175 14.5225 45.7975 15.2163 45.8612 16.0125V16.0263C45.9237 16.8225 46.56 17.4375 47.38 17.3738C48.2 17.31 48.7212 16.61 48.6587 15.8175V15.8188Z" fill="#011E41"/>
<path d="M51 13.45L53.125 13.6125C53.715 13.6575 54.1588 13.8625 54.44 14.1875C54.5625 14.3387 54.6536 14.513 54.7079 14.6999C54.7622 14.8869 54.7787 15.0828 54.7563 15.2762V15.29C54.7465 15.6067 54.6329 15.9115 54.4331 16.1574C54.2332 16.4034 53.9581 16.5769 53.65 16.6512L54.65 18.4012L53.4575 18.3087L52.5825 16.7475H52.57L51.7813 16.6862L51.6675 18.17L50.6463 18.0912L51 13.45ZM52.875 15.8575C53.375 15.8987 53.6763 15.6537 53.7075 15.2625V15.25C53.7413 14.815 53.4575 14.5662 52.9575 14.5287L51.9438 14.4512L51.84 15.7812L52.875 15.8575Z" fill="#011E41"/>
<path d="M56.2837 13.97L57.2837 14.195L56.835 16.1775L59.125 14.6125L60.3312 14.885L58.0488 16.3925L59.3875 19.4437L58.1888 19.1712L57.22 16.9212L56.5713 17.3462L56.25 18.7325L55.25 18.5087L56.2837 13.97Z" fill="#011E41"/>
<path d="M62.4813 18.0962V18.0862C62.6105 17.7941 62.7976 17.5311 63.0312 17.3133C63.2649 17.0955 63.5403 16.9273 63.8408 16.8189C64.1412 16.7105 64.4606 16.6641 64.7795 16.6825C65.0984 16.701 65.4103 16.7839 65.6963 16.9262C66.4913 17.2937 66.845 17.78 67.0587 18.3487L66.15 18.7562C65.9625 18.3112 65.715 17.9737 65.2925 17.7775C64.5813 17.4462 63.7925 17.8012 63.4575 18.5275V18.5375C63.12 19.2625 63.3413 20.1 64.0663 20.4362C64.5475 20.6575 64.9337 20.6025 65.405 20.4562L65.7175 21.3312C65.0675 21.5937 64.4525 21.6575 63.6375 21.28C63.3483 21.1518 63.088 20.9666 62.8721 20.7353C62.6562 20.5041 62.4893 20.2317 62.3813 19.9343C62.2733 19.637 62.2265 19.3209 62.2437 19.0051C62.2609 18.6892 62.3417 18.3801 62.4813 18.0962Z" fill="#011E41"/>
<path d="M68.4525 18.4775L69.3275 19.005L66.9175 22.985L66.0425 22.455L68.4525 18.4775Z" fill="#011E41"/>
<path d="M70.9538 21.24L69.8288 20.39L70.395 19.6338L73.4775 21.9513L72.9088 22.7013L71.7775 21.8513L69.5475 24.8138L68.73 24.1975L70.9538 21.24Z" fill="#011E41"/>
<path d="M73.3812 25.72L74.0963 22.4575L74.945 23.3013L74.4187 25.4113L76.5375 24.875L77.3625 25.695L74.125 26.4275L72.8125 27.75L72.0863 27.0288L73.3812 25.72Z" fill="#011E41"/>
<path d="M25.8025 70.7963L28.1875 73.31L27.6462 73.82L25.825 71.9013L24.905 72.7763L26.5187 74.48L25.98 74.9913L24.3637 73.29L22.9887 74.5925L22.4275 74L25.8025 70.7963Z" fill="#011E41"/>
<path d="M27.0737 75.5V75.49C27.2675 75.2355 27.5105 75.0226 27.7882 74.8641C28.066 74.7055 28.3728 74.6045 28.6905 74.567C29.0081 74.5296 29.33 74.5565 29.637 74.6461C29.9441 74.7357 30.2299 74.8863 30.4775 75.0887C31.6025 75.9637 31.7275 77.435 30.9212 78.4637V78.4737C30.7276 78.7283 30.4847 78.9413 30.2069 79.1C29.9292 79.2587 29.6223 79.3597 29.3046 79.3972C28.9869 79.4346 28.6649 79.4077 28.3579 79.318C28.0508 79.2283 27.765 79.0776 27.5175 78.875C26.39 78 26.2675 76.535 27.0737 75.5ZM30.235 77.9625L30.2437 77.9525C30.7987 77.2387 30.7438 76.2412 30.0125 75.6737C29.2813 75.1062 28.3225 75.2987 27.7625 76.0062L27.7537 76.0175C27.1987 76.7312 27.2538 77.7275 27.985 78.2962C28.7163 78.865 29.6788 78.6787 30.235 77.9637V77.9625Z" fill="#011E41"/>
<path d="M31.7225 79.0225L31.7288 79.0088C32.0386 78.4509 32.5552 78.037 33.1672 77.8563C33.7792 77.6756 34.4377 77.7425 35.0009 78.0426C35.5641 78.3428 35.9869 78.852 36.1782 79.4608C36.3695 80.0696 36.314 80.7292 36.0238 81.2975L36.0175 81.3088C35.8691 81.5921 35.6653 81.8428 35.4181 82.0458C35.1708 82.2488 34.8853 82.3999 34.5785 82.4903C34.2717 82.5807 33.9498 82.6084 33.632 82.5719C33.3142 82.5353 33.007 82.4352 32.7288 82.2775C31.47 81.6013 31.1025 80.175 31.7225 79.0225ZM35.25 80.9175L35.2575 80.9038C35.6838 80.1075 35.4588 79.135 34.645 78.695C33.8313 78.255 32.9125 78.6075 32.4863 79.4038L32.4788 79.4138C32.0525 80.2125 32.2763 81.1863 33.0913 81.6213C33.9063 82.0563 34.8288 81.7125 35.25 80.9175Z" fill="#011E41"/>
<path d="M38.4762 80.5325L37.0887 80.0325L37.3475 79.3213L40.8975 80.6075L40.6387 81.3225L39.2525 80.8225L37.9225 84.475L37.1487 84.1963L38.4762 80.5325Z" fill="#011E41"/>
<path d="M41.5812 80.7975L43.625 81.23C44.145 81.3387 44.5237 81.57 44.7287 81.8825C44.8079 82.0019 44.8616 82.1363 44.8866 82.2774C44.9115 82.4185 44.9071 82.5632 44.8737 82.7025V82.7162C44.7575 83.2637 44.3837 83.4887 44.0075 83.5912C44.5075 83.885 44.8087 84.2687 44.6775 84.8875V84.9012C44.5037 85.715 43.7425 86.0075 42.7287 85.7925L40.6212 85.3437L41.5812 80.7975ZM42.875 85.0875C43.4212 85.2037 43.7987 85.06 43.885 84.6487V84.635C43.9662 84.2512 43.7087 83.9612 43.0787 83.825L41.81 83.5562L41.545 84.8062L42.875 85.0875ZM43.05 83.1112C43.5637 83.2237 43.95 83.0937 44.0387 82.6762V82.665C44.115 82.305 43.875 82.0262 43.3612 81.915L42.2112 81.665L41.9625 82.875L43.05 83.1112Z" fill="#011E41"/>
<path d="M47.7675 81.7574L48.525 81.8012L50.2988 86.5987L49.4362 86.5474L49.03 85.4012L46.8325 85.2762L46.2887 86.3712L45.4525 86.3237L47.7675 81.7574ZM48.7675 84.6587L48.0775 82.7499L47.1725 84.5637L48.7675 84.6587Z" fill="#011E41"/>
<path d="M51.2038 81.875L52.0187 81.8075L52.3375 85.7062L54.7775 85.5L54.8387 86.25L51.5887 86.5187L51.2038 81.875Z" fill="#011E41"/>
<path d="M55.1687 81.485L55.9675 81.3187L56.7712 85.1425L59.1637 84.6425L59.3175 85.37L56.125 86.0362L55.1687 81.485Z" fill="#011E41"/>
<path d="M61.7 82.22V82.21C61.5671 81.9216 61.4939 81.6092 61.4848 81.2918C61.4758 80.9744 61.531 80.6584 61.6472 80.3628C61.7634 80.0673 61.9381 79.7983 62.1609 79.5721C62.3837 79.3458 62.65 79.1669 62.9438 79.0462C63.2482 78.9008 63.5797 78.8204 63.9169 78.8103C64.2542 78.8002 64.5899 78.8605 64.9025 78.9875L64.6638 79.75C64.1838 79.58 63.7238 79.525 63.2375 79.7362C62.42 80.0937 62.1188 81.0187 62.4813 81.8612V81.8712C62.8438 82.7075 63.7313 83.1337 64.5475 82.78C65.0725 82.5512 65.3163 82.1937 65.5338 81.6937L66.2263 81.9725C65.9838 82.625 65.625 83.125 64.8225 83.475C64.5358 83.6029 64.2263 83.6719 63.9124 83.6778C63.5985 83.6837 63.2866 83.6264 62.9952 83.5093C62.7039 83.3922 62.4391 83.2177 62.2166 82.9962C61.9941 82.7747 61.8184 82.5108 61.7 82.22Z" fill="#011E41"/>
<path d="M65.2775 78.0113L65.9762 77.5863L68 80.9276L70.0925 79.6588L70.4788 80.2951L67.6888 81.9888L65.2775 78.0113Z" fill="#011E41"/>
<path d="M70.1663 78.125L68.4825 76.0438L69.1175 75.53L70.7812 77.5875C71.3263 78.2588 71.9637 78.3375 72.5312 77.88C73.0988 77.4225 73.165 76.805 72.6263 76.1388L70.9425 74.0538L71.5788 73.54L73.2363 75.5913C74.1113 76.6725 73.9413 77.7075 72.9938 78.4663C72.0463 79.225 71.015 79.1713 70.1663 78.125Z" fill="#011E41"/>
<path d="M72.2663 72.8675L73.6787 71.33C74.0375 70.9388 74.4287 70.7288 74.8037 70.7113C74.9468 70.7045 75.0898 70.7269 75.2239 70.7772C75.358 70.8275 75.4804 70.9046 75.5837 71.0038L75.5938 71.0138C76.0038 71.3888 76.0087 71.8263 75.9062 72.205C76.4138 71.9288 76.9062 71.8613 77.365 72.2863L77.375 72.2963C77.9875 72.8575 77.8525 73.6638 77.15 74.4213L75.6937 76.01L72.2663 72.8675ZM75.0163 72.78C75.3725 72.3913 75.4575 71.9938 75.1413 71.705L75.1312 71.6975C74.8625 71.4475 74.4988 71.51 74.1425 71.8988L73.3487 72.7663L74.2588 73.6025L75.0163 72.78ZM76.625 73.9325C77 73.5213 77.07 73.1225 76.7613 72.8413L76.7525 72.83C76.4625 72.565 76.08 72.64 75.645 73.1125L74.77 74.0688L75.71 74.9325L76.625 73.9325Z" fill="#011E41"/>
</svg>
