<svg width="100" height="100" viewBox="0 0 100 100" fill="none" xmlns="http://www.w3.org/2000/svg">
<path d="M50 96.4875C43.3938 93.8325 30.4725 87.3912 20.7575 74.7737C3.5 52.3525 9.945 25.595 14.3638 10.3987C21.2938 7.42245 32.9738 3.4812 50 3.4812C67.0263 3.4812 78.7063 7.42245 85.6363 10.3987C90.0538 25.595 96.5038 52.3525 79.2425 74.7737C69.5275 87.3912 56.6063 93.8325 50 96.4875Z" fill="#60269E"/>
<path d="M50 3.48123C67.0263 3.48123 78.7063 7.42248 85.6363 10.3987C90.0538 25.595 96.5038 52.3525 79.2425 74.7737C69.5275 87.3912 56.6063 93.8325 50 96.4875C43.3938 93.8325 30.4725 87.3912 20.7575 74.7737C3.5 52.3525 9.945 25.595 14.3638 10.3987C21.2938 7.42248 32.9738 3.48123 50 3.48123ZM50 3.06873C36.8025 3.06873 25.0925 5.34248 14.2 10.0212L14.0213 10.0962L13.9675 10.2837C11.5238 18.6887 9.02625 28.7775 9.01875 39.875C9.01 53.3512 12.85 65.1762 20.4313 75.0237C30.155 87.6487 43.0338 94.1325 49.8463 96.87L50 96.9312L50.1538 96.87C56.965 94.1325 69.845 87.6537 79.5687 75.0237C87.1488 65.1762 90.9875 53.3512 90.9812 39.875C90.9737 28.7775 88.4737 18.6887 86.0312 10.2837L85.9762 10.0962L85.7988 10.0212C74.9075 5.34248 63.1975 3.06873 50 3.06873Z" fill="white"/>
<path d="M50 7.26251C61.9338 7.26251 72.5438 9.26251 82.405 13.3875C84.6088 21.0938 86.78 30.24 86.7888 40.2025C86.7963 52.5775 83.295 63.4113 76.385 72.4175C67.76 83.6538 56.42 89.6163 50 92.2925C43.58 89.6138 32.235 83.6513 23.615 72.4175C16.705 63.4113 13.2038 52.5725 13.2113 40.2025C13.2113 30.24 15.3913 21.0938 17.595 13.3875C27.4563 9.26251 38.0638 7.26251 50 7.26251ZM50 5.45251C33.8 5.45251 22.6863 9.21501 16.0925 12.0575C11.8888 26.565 5.75001 52.1113 22.1763 73.5175C31.42 85.565 43.7138 91.715 50 94.25C56.2863 91.715 68.58 85.565 77.8213 73.5175C94.25 52.1113 88.11 26.565 83.9075 12.0575C77.3125 9.21501 66.2 5.45251 50 5.45251Z" fill="white"/>
<path d="M55.7788 49.9287V52.1375C55.7788 52.155 55.745 52.1587 55.745 52.1587L54.9275 52.0087C54.9275 52.0087 54.8163 52.9675 54.2513 53.4012C53.9538 53.6325 52.9488 53.9862 52.5313 54.5187C52.5313 54.5187 52.515 54.5187 52.5138 54.5187C52.3375 54.1037 51.375 54.0462 51.375 54.0462L50 55.7187L48.6163 54.0462C48.6163 54.0462 47.6513 54.1037 47.4775 54.52C47.4762 54.5213 47.4747 54.5224 47.4729 54.5231C47.4712 54.5239 47.4694 54.5243 47.4675 54.5243C47.4656 54.5243 47.4638 54.5239 47.4621 54.5231C47.4603 54.5224 47.4588 54.5213 47.4575 54.52C47.0388 53.9875 46.0575 53.645 45.7388 53.4037C45.1738 52.9712 45.0638 52.0112 45.0638 52.0112L44.225 52.165C44.221 52.1625 44.2177 52.159 44.2155 52.1548C44.2133 52.1506 44.2123 52.1459 44.2125 52.1412V49.9287C44.2125 49.5987 44.3375 49.365 44.8138 49.0537C45.265 48.7662 45.9588 48.49 46.7225 48.2375C47.5075 47.98 49.0025 47.8625 49.9913 47.8625H50C50.9888 47.8625 52.4838 47.98 53.2688 48.2375C54.0338 48.4875 54.7263 48.7662 55.1788 49.0537C55.6588 49.3612 55.7788 49.595 55.7788 49.9287ZM73.6463 45.2237C72.0783 45.6778 70.4023 45.5821 68.8963 44.9525C69.4888 45.6925 69.83 46.4362 70.16 47.2125C70.8313 48.8087 72.6063 50.69 74.1 50.2762C74.7463 50.0962 72.8063 51.8687 70.4513 51.8237C68.869 51.7793 67.3383 51.2515 66.065 50.3112C66.37 51.1312 66.44 51.8787 66.5288 52.7012C66.7063 54.425 67.8525 56.7437 69.4038 56.7837C70.0775 56.8012 67.7025 57.9275 65.4625 57.1962C63.8668 56.657 62.4833 55.6255 61.5113 54.25C61.6013 55.2612 61.46 56.125 61.2838 56.9787C60.9325 58.6737 61.3275 61.2287 62.7925 61.7362C63.4275 61.955 60.825 62.3137 58.9088 60.9425C57.5959 59.9792 56.6102 58.6363 56.085 57.095C55.8936 57.9206 55.581 58.7133 55.1575 59.4475C54.3238 60.965 53.95 63.525 55.2 64.4362C55.745 64.8337 53.0863 64.4112 51.6588 62.5375C51.01 61.6887 50.3913 60.7562 50.005 59.7162C49.6188 60.7562 48.9988 61.6887 48.3513 62.5375C46.9238 64.4125 44.2663 64.8337 44.8088 64.4362C46.0588 63.525 45.6838 60.965 44.8525 59.4475C44.4285 58.7136 44.1159 57.9208 43.925 57.095C43.3994 58.636 42.4138 59.9789 41.1013 60.9425C39.185 62.3175 36.5813 61.955 37.2188 61.7362C38.6825 61.23 39.0763 58.6737 38.7288 56.9787C38.5513 56.125 38.4075 55.2662 38.5 54.25C37.531 55.6221 36.1521 56.6518 34.5613 57.1912C32.3213 57.9225 29.9475 56.7962 30.6188 56.7787C32.1663 56.7387 33.3138 54.42 33.4938 52.6962C33.5775 51.8737 33.6525 51.1262 33.9575 50.3062C32.6845 51.2462 31.1543 51.774 29.5725 51.8187C27.2175 51.8637 25.2763 50.0912 25.9238 50.2712C27.4163 50.685 29.19 48.8037 29.8625 47.2075C30.1913 46.4312 30.535 45.6875 31.1275 44.9475C29.6187 45.5785 27.9395 45.6742 26.3688 45.2187C24.1063 44.57 22.7675 42.3087 23.335 42.67C24.64 43.5037 26.8888 42.295 28 40.96C28.56 40.2887 29.1425 39.6275 29.9888 39.0525C28.3131 39.1484 26.6501 38.7108 25.2388 37.8025C23.2713 36.505 22.6738 33.9475 23.1138 34.4625C24.1075 35.6487 26.6375 35.1 28.0938 34.1637C28.7999 33.6843 29.5694 33.3057 30.38 33.0387C28.8096 32.6169 27.4068 31.7228 26.3613 30.4775C24.8613 28.6562 25.0488 26.035 25.31 26.6562C25.9113 28.0825 28.4888 28.3075 30.1575 27.8437C30.9947 27.5901 31.864 27.4579 32.7388 27.4512C31.3422 26.5799 30.2503 25.2968 29.6138 23.7787C28.7275 21.5962 29.6825 19.1537 29.7463 19.8187C29.8963 21.3587 32.3213 22.3075 34.055 22.3612C34.8059 22.3624 35.556 22.4087 36.3013 22.5C35.3753 21.3119 34.8057 19.8853 34.6588 18.3862C34.4563 16.0375 36.0913 13.9825 35.9563 14.6362C35.6425 16.1525 37.6413 17.795 39.2788 18.3587C40.0013 18.6087 40.7963 18.8012 41.5988 19.1837C41.0362 17.7449 40.9058 16.1731 41.2238 14.6612C41.75 12.375 43.9238 10.9025 43.5975 11.49C42.84 12.84 44.25 15.01 45.6438 16.0387C45.97 16.2825 46.3013 16.5287 46.6238 16.8062C48.6 13.6687 49.7688 10.455 50.01 10.455C50.2513 10.455 51.4238 13.6575 53.4025 16.7925C53.7213 16.52 54.0463 16.2787 54.3663 16.0425C55.7588 15.0137 57.1688 12.8437 56.4125 11.4937C56.0863 10.9062 58.2663 12.3687 58.7788 14.6737C59.0989 16.1848 58.9717 17.7564 58.4125 19.1962C59.2138 18.8137 60.0075 18.62 60.7313 18.3712C62.37 17.8075 64.3688 16.165 64.055 14.6487C63.9188 13.9912 65.555 16.0462 65.3525 18.3987C65.2022 19.8934 64.6324 21.3152 63.7088 22.5C64.4585 22.4128 65.2128 22.371 65.9675 22.375C67.6988 22.3212 70.1263 21.375 70.2738 19.8325C70.3388 19.1625 71.2938 21.61 70.4075 23.7925C69.7703 25.3101 68.6786 26.5931 67.2825 27.465C68.1568 27.4719 69.0257 27.6041 69.8625 27.8575C71.5325 28.3212 74.1125 28.0962 74.71 26.67C74.97 26.045 75.1563 28.67 73.66 30.4912C72.6141 31.7361 71.2114 32.63 69.6413 33.0525C70.4513 33.3189 71.2201 33.6976 71.925 34.1775C73.3838 35.1137 75.9125 35.6625 76.9075 34.4762C77.3388 33.9612 76.7413 36.5187 74.7825 37.8162C73.3709 38.724 71.7081 39.1616 70.0325 39.0662C70.8763 39.6412 71.4588 40.3025 72.0213 40.9737C73.125 42.2937 75.375 43.5087 76.6813 42.675C77.2475 42.3137 75.9113 44.575 73.6463 45.2237ZM37.1988 23.5187C37.7137 23.3495 38.2569 23.2829 38.7975 23.3225C39.7263 23.2825 41.1013 23.705 42.305 24.2412C44.0188 25.0062 45.3638 23.43 44.2675 22.6712C44.255 22.6612 44.28 22.6462 44.305 22.6475C46.8213 22.7637 48.8363 23.7725 50.0075 25.3787C51.1813 23.7737 53.2 22.7537 55.7275 22.6462C55.745 22.6462 55.7413 22.6712 55.7275 22.6837C54.6625 23.4487 56.0013 25.0012 57.7075 24.2412C58.9088 23.705 60.2825 23.2825 61.2075 23.3225C61.7283 23.2842 62.2516 23.3444 62.75 23.5C62.835 23.5262 62.8475 23.475 62.7638 23.4212C61.705 22.6987 60.1925 22.4212 58.7263 22.6562C58.0825 22.515 56.165 21.79 57.1725 19.9625C57.1766 19.9572 57.1788 19.9508 57.1789 19.9442C57.1789 19.9376 57.1768 19.9311 57.1728 19.9259C57.1688 19.9206 57.1632 19.9168 57.1568 19.915C57.1504 19.9133 57.1436 19.9137 57.1375 19.9162C55.6375 20.5562 53.6313 20.7762 52.9063 21.7087C51.4263 20.4925 50.2113 17.2587 50.025 17.0075C50.0163 16.9975 50.01 16.9925 50.005 16.9925C50 16.9925 49.995 16.9925 49.9863 17.0075C49.7975 17.265 48.5825 20.495 47.105 21.7087C46.385 20.7825 44.4 20.5587 42.9013 19.9287C42.8638 19.9125 42.825 19.94 42.84 19.9675C43.84 21.795 41.92 22.5187 41.2825 22.6562C39.7825 22.4175 38.23 22.7087 37.1675 23.4687C37.11 23.5087 37.1313 23.5412 37.1988 23.5162M51.9775 41.625C52.2425 41.4625 53.055 41.5925 53.2788 41.4587C54.3 40.845 54.61 40.0312 54.685 39.77C54.7013 39.7175 54.685 39.7012 54.6463 39.725C54.3063 39.9416 53.9131 40.0602 53.51 40.0675C53.1588 40.0575 53.0175 39.8525 52.2138 39.8525C51.41 39.8525 51.2188 40.25 50 40.25C48.7788 40.25 48.5888 39.8562 47.785 39.8562C46.9813 39.8562 46.8413 40.0612 46.4875 40.0712C46.0891 40.0654 45.7 39.9504 45.3625 39.7387C45.3113 39.7087 45.29 39.7137 45.3025 39.7562C45.37 39.9975 45.6713 40.8362 46.715 41.4625C46.9388 41.5962 47.7513 41.4625 48.0138 41.6287C48.2963 41.7975 47.9963 42.2625 48.2813 42.4675C49.07 43.03 49.7588 43.6287 49.9475 44.4675C49.9498 44.4785 49.9557 44.4885 49.9643 44.4957C49.9729 44.503 49.9837 44.5071 49.995 44.5075C50.0065 44.507 50.0176 44.5029 50.0266 44.4957C50.0356 44.4885 50.0421 44.4786 50.045 44.4675C50.2338 43.6262 50.92 43.0275 51.7088 42.4675C51.9938 42.2625 51.6963 41.7975 51.9763 41.6287M45.4575 36.8912C45.4235 37.0144 45.3976 37.1396 45.38 37.2662C45.3663 37.3575 45.38 37.3712 45.4313 37.2725C45.7175 36.6962 46.715 34.6812 47.065 34.0625C47.7038 32.9312 48.0138 32.225 47.8338 31.9587C45.775 34.0987 44.4325 30.8712 42.7663 30.6162C41.5675 30.4337 41.1813 30.56 40.1338 30.4012C40.4088 31.2237 40.6488 32.23 41.9538 32.9225C43.9225 33.9675 44.9788 33.485 45.8513 33.9312C46.4325 34.23 45.7088 36.1812 45.4575 36.89M58.0525 32.9225C59.3575 32.23 59.5675 31.2237 59.8425 30.4012C58.795 30.56 58.4388 30.4337 57.2425 30.6162C55.575 30.8662 54.2325 34.0987 52.1738 31.9587C51.9925 32.225 52.2988 32.9312 52.9425 34.0625C53.3025 34.6962 54.3388 36.7937 54.5938 37.3125C54.6313 37.3875 54.645 37.3775 54.6325 37.305C54.6151 37.1648 54.5875 37.0261 54.55 36.89C54.3 36.1837 53.5738 34.23 54.1575 33.9312C55.0325 33.485 56.085 33.9675 58.0525 32.9225ZM60.3213 40.6725C61.1225 38.9437 63.7375 37.8487 65.9575 37.785C65.9837 37.785 65.9837 37.7575 65.9575 37.7462C64.7675 37.2087 63.7575 36.8075 62.7175 36.885C62.7175 36.885 62.7088 36.8725 62.7175 36.865C63.73 35.145 64.175 33.7712 63.86 30.9175C64.3007 30.3076 64.6078 29.6116 64.7611 28.8749C64.9145 28.1383 64.9107 27.3775 64.75 26.6425C64.7338 26.5687 64.6825 26.5562 64.6725 26.6237C64.5475 27.3 64.2113 28.0387 63.7363 28.7337C63.7265 28.7509 63.7152 28.7672 63.7025 28.7825C63.6469 28.8535 63.5745 28.9096 63.4918 28.9456C63.4091 28.9817 63.3188 28.9965 63.2289 28.9888C63.139 28.9811 63.0525 28.9511 62.9771 28.9016C62.9017 28.852 62.8399 28.7845 62.7972 28.705C62.7546 28.6255 62.7324 28.5367 62.7327 28.4465C62.733 28.3563 62.7557 28.2676 62.799 28.1884C62.8422 28.1092 62.9044 28.0421 62.9801 27.993C63.0558 27.9439 63.1426 27.9145 63.2325 27.9075C63.2361 27.9054 63.2388 27.9021 63.2401 27.8982C63.2415 27.8943 63.2415 27.8901 63.24 27.8862C62.3888 26.3175 60.8938 26.5112 60.63 25.805C60.5945 25.7123 60.5829 25.6121 60.5965 25.5137C60.61 25.4154 60.6482 25.3221 60.7075 25.2425C59.84 25.1975 59.1588 25.7425 59.5438 26.3875C59.7725 26.7725 60.6388 26.8875 61.6613 27.6537C61.6624 27.6578 61.6624 27.6621 61.6613 27.6662C61.662 27.6675 61.6624 27.669 61.6624 27.6706C61.6624 27.6721 61.662 27.6736 61.6613 27.675C60.9013 28.0312 61.6275 28.8 61.8663 29.3525C62.2513 30.2525 62.9063 31.4775 62.4463 33.755C61.9313 36.2925 60.2288 37.93 58.8088 38.98C58.7788 39.2812 58.8463 40.3912 56.9125 42.4437C56.685 42.6825 57.2063 42.5687 57.7875 42.255C57.795 42.255 57.8113 42.255 57.8113 42.255C57.9649 42.8893 58.062 43.536 58.1013 44.1875C58.1013 44.1875 58.0888 44.2012 58.0825 44.2012C56.8325 44.0837 55.3113 44.115 54.7075 44.2012C54.3563 44.2525 55.0113 44.535 55.365 44.5762C56.2531 44.7168 57.1328 44.9063 58 45.1437C58.0074 45.1481 58.0142 45.1536 58.02 45.16C58.0002 45.5093 57.9233 45.853 57.7925 46.1775C57.7925 46.1775 57.7713 46.185 57.7638 46.1775C56.2638 45.7425 54.8763 45.4162 53.7763 45.3525C53.4263 45.3312 53.9013 45.6587 54.215 45.7437C54.8763 45.9237 56.05 46.4937 57.3713 47.0662C57.3713 47.0662 57.3813 47.0825 57.3775 47.0875C56.89 47.895 56.5388 48.3312 56.1275 48.6275C56.1179 48.6312 56.1072 48.6312 56.0975 48.6275C55.3904 48.225 54.6502 47.8838 53.885 47.6075C53.44 47.4525 52.945 47.25 52.455 47.0487C51.6313 46.6325 50.245 46.1425 50.03 45.5937C50.0233 45.5873 50.0143 45.5837 50.005 45.5837C49.9961 45.5839 49.9876 45.5875 49.9813 45.5937C49.7763 46.12 48.49 46.5937 47.66 46.9975C47.13 47.2137 46.5888 47.4375 46.1038 47.6075C45.3408 47.8824 44.603 48.2228 43.8988 48.625C43.891 48.6275 43.8827 48.6275 43.875 48.625C43.4688 48.3287 43.125 47.8925 42.635 47.0912C42.6335 47.0886 42.6327 47.0855 42.6327 47.0825C42.6327 47.0794 42.6335 47.0764 42.635 47.0737C43.9575 46.5 45.135 45.93 45.7938 45.75C46.1038 45.665 46.585 45.3375 46.235 45.3587C45.1325 45.4225 43.7438 45.7487 42.235 46.1875C42.2292 46.1883 42.2233 46.1883 42.2175 46.1875C42.0854 45.862 42.0086 45.5169 41.99 45.1662C41.99 45.1662 41.9988 45.1525 42.0025 45.1525C42.8734 44.9169 43.7569 44.7303 44.6488 44.5937C45.0025 44.5512 45.6575 44.2687 45.305 44.2187C44.7 44.1312 43.18 44.1 41.9238 44.2187C41.9238 44.2187 41.9088 44.2187 41.9113 44.2087C41.9482 43.5571 42.0449 42.9102 42.2 42.2762C42.2 42.2762 42.2113 42.2662 42.215 42.2675C42.8025 42.5775 43.3288 42.6987 43.1013 42.46C41.1688 40.4075 41.2363 39.2975 41.2063 38.9962C39.785 37.9462 38.0813 36.3087 37.57 33.7712C37.1088 31.4912 37.7638 30.2712 38.1475 29.3687C38.3875 28.8137 39.1113 28.0487 38.3538 27.6912C38.3538 27.6912 38.3463 27.6912 38.3538 27.68C38.3613 27.6687 38.3613 27.67 38.3638 27.6662C39.3863 26.905 40.2488 26.7912 40.4763 26.4037C40.86 25.7537 40.1813 25.2137 39.3138 25.2587C39.3725 25.3386 39.4104 25.4319 39.4239 25.5301C39.4375 25.6284 39.4262 25.7284 39.3913 25.8212C39.1275 26.5325 37.6288 26.3325 36.78 27.9062C36.7725 27.92 36.78 27.9237 36.7863 27.925C36.8793 27.9339 36.9685 27.9669 37.045 28.0206C37.1216 28.0743 37.1829 28.1469 37.2231 28.2313C37.2632 28.3157 37.2808 28.4091 37.2741 28.5024C37.2674 28.5957 37.2367 28.6856 37.1849 28.7634C37.1331 28.8413 37.0621 28.9044 36.9787 28.9466C36.8952 28.9888 36.8023 29.0087 36.7089 29.0044C36.6155 29 36.5248 28.9715 36.4457 28.9216C36.3666 28.8718 36.3018 28.8023 36.2575 28.72C35.785 28.0212 35.4463 27.28 35.3338 26.6037C35.3238 26.545 35.2775 26.57 35.2638 26.6387C35.1003 27.3777 35.0955 28.1429 35.2496 28.8839C35.4036 29.6249 35.7131 30.3248 36.1575 30.9375C35.8438 33.785 36.2825 35.1562 37.3 36.875C37.3 36.8825 37.3 36.895 37.2925 36.895C36.2475 36.8175 35.2313 37.2237 34.03 37.77C34.0125 37.7787 34.0138 37.7962 34.03 37.7962C36.255 37.8525 38.8863 38.9487 39.69 40.685C39.6906 40.6869 39.6907 40.6889 39.6904 40.6909C39.69 40.6929 39.6892 40.6947 39.688 40.6963C39.6868 40.6979 39.6852 40.6992 39.6833 40.7001C39.6815 40.7009 39.6795 40.7013 39.6775 40.7012C37.8888 40.11 36.105 41.24 34.5125 42.5312C34.495 42.545 34.5038 42.5612 34.5275 42.555C36.605 41.93 39.3275 42.21 40.6263 43.6625C40.6274 43.6641 40.628 43.666 40.6281 43.668C40.6283 43.67 40.6279 43.672 40.627 43.6738C40.6261 43.6755 40.6247 43.677 40.6231 43.6781C40.6214 43.6792 40.6195 43.6798 40.6175 43.68C38.7363 43.655 37.6913 45.2512 36.5538 47.1137C36.5388 47.14 36.545 47.1737 36.565 47.1637C37.8038 46.5387 39.5513 46.12 40.8413 46.2362C40.8413 46.2362 40.8538 46.2462 40.85 46.2525C39.16 49.3937 41.6388 52.2387 44.945 54.5262C47.5475 56.0762 49.1638 57.3262 50.015 58.1012C50.7813 57.2875 52.4313 56.0725 55.0475 54.5425C58.365 52.2525 60.8575 49.4025 59.165 46.2537C59.1653 46.2498 59.1665 46.2459 59.1687 46.2427C59.1709 46.2394 59.174 46.2367 59.1775 46.235C60.4675 46.12 62.215 46.5375 63.4525 47.1675C63.4725 47.1762 63.4788 47.1437 63.4625 47.1212C62.3238 45.2612 61.2775 43.685 59.3925 43.7112C59.3925 43.7112 59.3925 43.6975 59.3925 43.6887C60.6925 42.2412 63.4113 41.9387 65.4838 42.5575C65.5088 42.565 65.5075 42.5375 65.4838 42.5162C63.8975 41.2337 62.12 40.1137 60.34 40.6987C60.3313 40.6987 60.32 40.6987 60.3238 40.685" fill="#F0D283"/>
<path d="M47.8463 82.0125H46.7438V75.75H47.8888V82.0125H47.8463Z" fill="white"/>
<path d="M51.9338 82.0125H50.8525V76.8887H49.0625V75.75H53.6012L54.1213 76.8887H52.0187V82.0125H51.9338Z" fill="white"/>
<path d="M57.9112 82.0125H56.8287V79.3863L54.8075 75.75H56.1062L57.4125 78.1988L58.7187 75.75H60.0162L57.9937 79.3863V82.0125H57.9112Z" fill="white"/>
<path d="M30.5 74.0363C29.8611 74.0316 29.238 73.8377 28.7092 73.4792C28.1804 73.1207 27.7696 72.6136 27.5287 72.0219C27.2878 71.4302 27.2276 70.7804 27.3556 70.1544C27.4837 69.5285 27.7943 68.9546 28.2482 68.505C28.7021 68.0554 29.2791 67.7504 29.9062 67.6284C30.5333 67.5064 31.1825 67.5728 31.7719 67.8194C32.3613 68.066 32.8644 68.4817 33.2178 69.0139C33.5712 69.5461 33.759 70.1711 33.7575 70.81C33.7512 71.6691 33.405 72.4908 32.7946 73.0954C32.1841 73.7 31.3592 74.0383 30.5 74.0363ZM30.5 68.6863C30.0805 68.6818 29.6691 68.8021 29.3181 69.032C28.9671 69.2619 28.6923 69.5909 28.5288 69.9772C28.3652 70.3636 28.3201 70.7899 28.3993 71.2019C28.4785 71.6139 28.6784 71.9931 28.9735 72.2912C29.2687 72.5894 29.6459 72.7931 30.0571 72.8765C30.4683 72.9598 30.895 72.9191 31.2829 72.7594C31.6709 72.5997 32.0027 72.3283 32.2361 71.9796C32.4695 71.631 32.594 71.2208 32.5938 70.8013C32.5961 70.2433 32.3769 69.7072 31.9844 69.3107C31.5918 68.9141 31.058 68.6896 30.5 68.6863Z" fill="white"/>
<path d="M69.5088 74.0362C68.8696 74.033 68.2457 73.8404 67.7159 73.4828C67.186 73.1252 66.7741 72.6186 66.5321 72.027C66.29 71.4354 66.2287 70.7853 66.356 70.1589C66.4832 69.5325 66.7932 68.9578 67.2468 68.5075C67.7004 68.0572 68.2774 67.7514 68.9047 67.6288C69.532 67.5062 70.1816 67.5722 70.7714 67.8186C71.3612 68.065 71.8648 68.4806 72.2185 69.013C72.5722 69.5454 72.7602 70.1707 72.7588 70.8099C72.7525 71.6678 72.4073 72.4883 71.7985 73.0927C71.1897 73.6971 70.3666 74.0362 69.5088 74.0362ZM69.5088 68.6862C69.0892 68.6817 68.6778 68.8021 68.3268 69.0319C67.9758 69.2618 67.7011 69.5908 67.5375 69.9772C67.3739 70.3635 67.3288 70.7898 67.408 71.2018C67.4872 71.6138 67.6871 71.993 67.9823 72.2912C68.2775 72.5893 68.6546 72.793 69.0658 72.8764C69.477 72.9597 69.9037 72.919 70.2917 72.7593C70.6797 72.5996 71.0114 72.3282 71.2448 71.9796C71.4782 71.6309 71.6027 71.2207 71.6025 70.8012C71.6048 70.2432 71.3857 69.7071 70.9931 69.3106C70.6006 68.9141 70.0667 68.6895 69.5088 68.6862Z" fill="white"/>
<path d="M41.7375 73.9113V67.6713H42.8825V72.8363H45.9688L45.435 73.9113H41.7375Z" fill="white"/>
<path d="M58.5562 73.9487L54.5287 70.1037V73.9337L53.4037 71.5737V67.4612L57.4112 71.2099V67.6712H58.5562V73.9487Z" fill="white"/>
<path d="M61.78 73.9338H59.9662V67.6713H61.7962C62.7187 67.6713 63.355 67.7963 64.09 68.4213C64.77 69.0063 65.1312 69.8313 65.1312 70.8038C65.1399 71.2436 65.0529 71.6801 64.8764 72.083C64.6999 72.4859 64.4379 72.8457 64.1087 73.1375C63.3687 73.795 62.7487 73.9275 61.78 73.9275M61.1125 72.83H61.82C62.5125 72.83 62.945 72.7538 63.445 72.2825C63.83 71.9238 64.005 71.3713 64.005 70.795C64.005 70.1938 63.815 69.6213 63.4175 69.2725C62.9175 68.83 62.4912 68.7613 61.8162 68.7613H61.1125V72.83Z" fill="white"/>
<path d="M39.11 73.9288L36.5 70.775H36.985C37.2559 70.7866 37.5272 70.7711 37.795 70.7288C38.3963 70.5588 38.5 70.0688 38.5 69.7288C38.4977 69.5626 38.4482 69.4006 38.3572 69.2616C38.2662 69.1226 38.1376 69.0123 37.9863 68.9438C37.7263 68.8075 37.3888 68.805 36.9863 68.805H36.3063V73.9238H35.1463V67.6713H37.0488C37.75 67.6713 38.2 67.74 38.5488 67.9075C38.893 68.0726 39.1828 68.3328 39.3839 68.6572C39.585 68.9817 39.6891 69.357 39.6838 69.7388C39.6858 70.1097 39.5806 70.4732 39.3807 70.7857C39.1809 71.0982 38.895 71.3463 38.5575 71.5C38.545 71.5 38.5775 71.5088 38.5775 71.5088L40.6113 73.9313L39.11 73.9288Z" fill="white"/>
<path d="M53.09 73.9112H51.8825L51.105 72.2062H49.5413L50.035 71.1324H50.6138L50.0288 69.9187L48.1475 73.9112H46.9463L50.0288 67.4662L53.09 73.9112Z" fill="white"/>
<path d="M45.3325 79.9824C45.0916 80.376 44.7286 80.6801 44.299 80.8484C43.8693 81.0168 43.3964 81.0401 42.9522 80.9149C42.5081 80.7898 42.1169 80.5229 41.8384 80.155C41.5598 79.7871 41.4091 79.3383 41.4091 78.8768C41.4091 78.4154 41.5598 77.9665 41.8384 77.5986C42.1169 77.2307 42.5081 76.9639 42.9522 76.8387C43.3964 76.7135 43.8693 76.7369 44.299 76.9052C44.7286 77.0735 45.0916 77.3776 45.3325 77.7712V76.1749C44.8449 75.8543 44.2796 75.6716 43.6966 75.6461C43.1136 75.6207 42.5345 75.7535 42.0209 76.0305C41.5072 76.3075 41.0781 76.7183 40.779 77.2194C40.4799 77.7205 40.322 78.2932 40.322 78.8768C40.322 79.4604 40.4799 80.0331 40.779 80.5342C41.0781 81.0353 41.5072 81.4461 42.0209 81.7231C42.5345 82.0001 43.1136 82.1329 43.6966 82.1075C44.2796 82.0821 44.8449 81.8993 45.3325 81.5787V79.9824Z" fill="white"/>
</svg>
