<svg width="100" height="100" viewBox="0 0 100 100" fill="none" xmlns="http://www.w3.org/2000/svg">
<path d="M94.375 50C94.375 74.4688 74.47 94.375 50 94.375C25.53 94.375 5.625 74.47 5.625 50C5.625 25.53 25.5325 5.625 50 5.625C74.4675 5.625 94.375 25.5325 94.375 50Z" fill="#E0D0A6"/>
<path d="M35.4888 17.1249L36.6325 16.6562L36.0838 15.9737C36.0589 15.9491 36.0363 15.9224 36.0163 15.8937C35.9966 15.865 35.9753 15.8375 35.9525 15.8112L35.8275 15.6587C35.7798 15.5946 35.7284 15.5333 35.6738 15.4749L35.5363 15.3049C35.5125 15.2712 35.4875 15.2412 35.46 15.2049C35.4375 15.1711 35.4119 15.1393 35.3838 15.1099L35.43 15.9612L35.4888 17.1249ZM71.9888 21.4337C72.2063 21.5937 72.4088 21.6387 72.595 21.5587C72.7813 21.4787 73.0088 21.2637 73.2813 20.8999C73.6438 20.4162 73.8338 20.0387 73.8575 19.7624C73.88 19.5637 73.7575 19.3649 73.4825 19.1599C73.2488 18.9849 73.0525 18.9024 72.8963 18.9099C72.8102 18.9063 72.7255 18.9333 72.6575 18.9862C72.5576 19.0765 72.4679 19.1775 72.39 19.2874L71.2575 20.8037L71.4138 21.0537C71.6638 21.2237 71.9288 21.3887 71.9863 21.4287M85.0775 41.7924L85.09 41.8499L84.9975 41.8374L85.2475 43.0487L85.3275 43.0049L86.015 42.6299C86.0444 42.6111 86.0759 42.5956 86.1088 42.5837C86.125 42.5749 86.1425 42.5624 86.1613 42.5537L86.1888 42.5399C86.221 42.5264 86.2516 42.5092 86.28 42.4887L86.3975 42.4237C86.4438 42.4024 86.4825 42.3812 86.5225 42.3599C86.5625 42.3387 86.6125 42.3112 86.6475 42.2862L86.7725 42.2212C86.8075 42.1996 86.8443 42.1812 86.8825 42.1662C86.9063 42.1512 86.9313 42.1387 86.9563 42.1262C86.9563 42.1262 86.9563 42.1262 86.9675 42.1262C87.0025 42.1049 87.0413 42.0862 87.0763 42.0649L86.2275 41.9537L85.0775 41.7924ZM45 15.4812C45.0113 15.5949 45.0238 15.6862 45.0363 15.7499C45.0444 15.8042 45.057 15.8577 45.0738 15.9099C45.0854 15.9462 45.1027 15.9803 45.125 16.0112C45.1515 16.0398 45.1804 16.0661 45.2113 16.0899C45.2849 16.1553 45.3771 16.1959 45.475 16.2062C45.6219 16.2171 45.7695 16.2112 45.915 16.1887C46.1685 16.1681 46.4156 16.0985 46.6425 15.9837C46.8313 15.8839 46.9827 15.7256 47.0738 15.5324C47.1807 15.2912 47.2389 15.0312 47.245 14.7674C47.2614 14.3875 47.2438 14.0068 47.1925 13.6299C47.157 13.2683 47.0888 12.9106 46.9888 12.5612C46.9232 12.3156 46.8083 12.086 46.6513 11.8862C46.5156 11.7262 46.3334 11.6126 46.13 11.5612C45.8836 11.5081 45.6299 11.498 45.38 11.5312C45.2334 11.5469 45.0878 11.5707 44.9438 11.6024C44.853 11.6199 44.7692 11.6634 44.7025 11.7274C44.648 11.7888 44.6158 11.8668 44.6113 11.9487C44.6063 12.0695 44.613 12.1905 44.6313 12.3099L45 15.4812ZM46.1675 48.5149C46.3638 48.3899 46.5063 48.0237 46.575 47.8074C45.8577 48.0186 45.1559 48.2797 44.475 48.5887C44.96 48.6149 45.9563 48.6487 46.1675 48.5149ZM74.9175 47.9449L73.525 49.2037C72.4 48.8662 71.2613 48.5549 70.1025 48.2662C68.675 56.5999 64.9863 64.0462 59.7675 69.8087C56.9678 72.9153 53.6759 75.5399 50.0238 77.5774C46.3565 75.5322 43.0538 72.8931 40.25 69.7674C35.0388 63.9999 31.3625 56.5612 29.9438 48.2387C28.7396 48.5362 27.5575 48.8591 26.3975 49.2074L25 47.9449C25.6338 47.7274 26.175 47.5562 26.175 47.5562C30.2365 46.3568 34.3872 45.4827 38.5875 44.9424C46.3376 43.9274 54.1883 43.9497 61.9325 45.0087C65.9208 45.5519 69.8615 46.4002 73.72 47.5462C73.72 47.5462 74.3113 47.7337 74.9163 47.9449M41.8325 49.2349C41.8325 49.2524 41.8475 49.2737 41.8563 49.2962C41.865 49.3187 41.8563 49.3112 41.8663 49.3174L41.8925 49.3724C41.8988 49.3824 41.9025 49.3912 41.9088 49.4024C41.9178 49.4217 41.9278 49.4405 41.9388 49.4587C41.9449 49.4721 41.952 49.4851 41.96 49.4974C41.9725 49.5162 41.9825 49.5349 41.9975 49.5562C42.0068 49.5689 42.0152 49.5822 42.0225 49.5962C42.0375 49.6149 42.0525 49.6362 42.0675 49.6574C42.0778 49.6724 42.089 49.6866 42.1013 49.6999C42.1176 49.7221 42.1352 49.7434 42.1538 49.7637L42.1913 49.8074C42.2113 49.8287 42.2338 49.8499 42.2575 49.8724C42.271 49.8848 42.2835 49.8982 42.295 49.9124L42.38 49.9824C42.395 49.9937 42.405 50.0037 42.4175 50.0149C42.4625 50.0462 42.5088 50.0799 42.5575 50.1099H42.5638C42.6125 50.1374 42.66 50.1662 42.715 50.1924C42.73 50.2012 42.7513 50.2087 42.77 50.2174L42.895 50.2687C42.9196 50.2775 42.9446 50.285 42.97 50.2912C43.0075 50.3062 43.0475 50.3162 43.0875 50.3299L43.1763 50.3487L43.3013 50.3737L43.4013 50.3862C43.445 50.3924 43.4938 50.3949 43.54 50.3987H43.6475H43.705H43.8213C43.8488 50.3987 43.8763 50.3987 43.905 50.3987C43.9938 50.3987 44.0875 50.3862 44.1863 50.3712C44.7129 50.2984 45.2434 50.2579 45.775 50.2499C46.7838 50.2224 47.3413 50.2074 48.1013 49.3299C48.2763 49.1209 48.494 48.9516 48.7398 48.8335C48.9855 48.7154 49.2537 48.6511 49.5263 48.6449H49.5875C51.8088 48.6449 53.7725 49.8774 53.7975 51.3949C53.8088 52.0474 53.475 52.7287 52.86 53.2312C52.36 53.6199 51.6375 53.8962 50.985 54.1437C50.985 54.1437 49.4475 54.6949 48.1788 55.1437C48.1113 55.1624 42.1488 57.0524 42.1488 60.6674C42.1488 61.3762 42.4613 62.0712 43.0625 62.6774C43.1438 62.7575 43.2275 62.8374 43.3125 62.9137C43.3425 62.9387 43.3763 62.9637 43.4075 62.9874C43.4688 63.0374 43.5325 63.0887 43.595 63.1374L43.72 63.2212L43.9038 63.3462L44.045 63.4299C44.1075 63.4687 44.17 63.5062 44.235 63.5424C44.3 63.5787 44.3375 63.5974 44.3913 63.6262L44.585 63.7274C44.6425 63.7549 44.6975 63.7787 44.7538 63.8037C44.81 63.8287 44.8888 63.8674 44.9588 63.8974C45.0288 63.9274 45.0838 63.9449 45.1388 63.9712L45.3513 64.0537L45.5413 64.1187L45.7613 64.1924C45.8263 64.2137 45.8938 64.2324 45.96 64.2512C46.0263 64.2699 46.11 64.2962 46.1875 64.3174C46.265 64.3387 46.325 64.3524 46.3925 64.3699L46.6288 64.4274L46.8425 64.4712C46.9225 64.4887 47.0025 64.5049 47.085 64.5174C47.1675 64.5299 47.2288 64.5449 47.3025 64.5562C47.3763 64.5674 47.4688 64.5837 47.5525 64.5937L47.775 64.6237L48.025 64.6512L48.2525 64.6737L48.5125 64.6912C48.5888 64.6912 48.6663 64.7012 48.7425 64.7062L49.0063 64.7137C49.085 64.7137 49.1625 64.7137 49.2413 64.7137H49.3325H49.67C53.8363 64.625 57.2388 62.6249 57.25 60.2737C57.2588 58.7737 55.78 57.6149 53.5088 57.0049C52.9663 57.2137 52.3513 57.4087 51.7013 57.6112C51.0763 57.8112 50.3563 58.0374 49.605 58.3099C47.8988 58.9262 47.565 59.4587 47.5188 59.7224C47.5075 59.7858 47.5099 59.8508 47.5258 59.9131C47.5418 59.9754 47.5709 60.0336 47.6113 60.0837C48.2638 59.7087 49.2163 59.4262 50.2363 59.3187C50.5244 59.288 50.814 59.2726 51.1038 59.2724C52.6775 59.2724 53.7375 59.7112 53.7388 60.4299C53.736 60.5379 53.7112 60.6442 53.6659 60.7422C53.6205 60.8403 53.5555 60.928 53.475 60.9999C52.93 61.5512 51.565 61.9049 50 61.9049C48.6788 61.9049 47.4475 61.4874 46.7738 60.8187C46.6151 60.6703 46.4873 60.4919 46.3979 60.2939C46.3084 60.0959 46.259 59.8821 46.2525 59.6649C46.2525 58.2024 48.3775 57.4774 49.78 57.0012L50.2575 56.8362C51.49 56.3887 52.9813 55.8362 52.9813 55.8362C55.3563 55.0712 56.6175 53.0149 56.305 51.0324C55.93 48.6912 53.6313 47.0549 50.6988 47.0549C50.4089 47.0551 50.1193 47.0714 49.8313 47.1037C49.637 47.1356 49.4406 47.1519 49.2438 47.1524C48.9726 47.1648 48.7025 47.1116 48.4563 46.9974C48.1906 46.8538 47.8992 46.7642 47.5988 46.7337C44.175 47.4899 42.1988 48.9399 41.8288 49.2337M42.1075 50.8112C41.9865 50.7435 41.8722 50.6644 41.7663 50.5749C41.6238 50.6299 41.4813 50.6799 41.3325 50.7287L41.225 50.7649C41.0863 50.8087 40.9463 50.8512 40.805 50.8899H40.7888C40.6425 50.9299 40.4988 50.9637 40.3513 50.9974L40.2413 51.0212C40.1038 51.0499 39.9713 51.0762 39.8363 51.0987L39.805 51.1049C39.6608 51.1283 39.5183 51.1495 39.3775 51.1687L39.2675 51.1812C39.1425 51.1962 39.01 51.2112 38.8838 51.2212C38.8704 51.2203 38.8571 51.2203 38.8438 51.2212C38.705 51.2324 38.5688 51.2387 38.4338 51.2449C38.4 51.2449 38.365 51.2449 38.3313 51.2449C38.2125 51.2449 38.0925 51.2512 37.9763 51.2537H37.9275H37.7675H37.6375L37.4725 51.2449H37.3563L37.175 51.2312L37.0863 51.2249C36.9975 51.2249 36.9088 51.2087 36.8275 51.1999C36.9787 51.2634 37.1336 51.3176 37.2913 51.3624C37.3713 51.3887 37.4588 51.4087 37.5413 51.4299L37.615 51.4474C37.6913 51.4624 37.7713 51.4787 37.8538 51.4912L37.9025 51.4999C37.9988 51.5149 38.0988 51.5249 38.2038 51.5337C38.2288 51.5337 38.255 51.5337 38.2825 51.5337C38.3688 51.5399 38.4575 51.5449 38.5475 51.5449H38.6013H38.635C38.6975 51.5449 38.76 51.5449 38.8338 51.5374H38.9325C39.0338 51.5312 39.1375 51.5224 39.245 51.5074L39.5525 51.4737L39.3088 51.6899C38.8534 52.0406 38.3515 52.3262 37.8175 52.5387C38.9263 52.3949 40.9238 51.5037 42.1075 50.8049M58.0063 64.285C58.0024 63.7518 57.8566 63.2293 57.5838 62.7712C56.4288 64.7499 53.1513 66.1074 49.5 66.1074C45.8488 66.1074 42.5813 64.7449 41.4488 62.7737C41.1667 63.2292 41.0117 63.7518 41 64.2874C40.9938 65.1249 41.375 65.9512 42.1 66.6774C43.6 68.1924 46.43 69.1349 49.475 69.1349C54.165 69.1349 57.99 66.9575 58.0075 64.285M63.0663 62.0874H62.84C62.8 62.0874 62.7613 62.0874 62.715 62.0874C62.6688 62.0874 62.6613 62.0874 62.6338 62.0874H62.5088C62.4775 62.0874 62.4463 62.0874 62.4188 62.0874C62.3913 62.0874 62.3313 62.0874 62.285 62.0799H62.1838C62.14 62.0799 62.0938 62.0737 62.0475 62.0687L61.9375 62.0587L61.7938 62.0437L61.675 62.0312L61.525 62.0124L61.4 61.9949C61.3488 61.9862 61.2963 61.9799 61.2438 61.9724L61.1125 61.9487L60.95 61.9212L60.815 61.8962L60.6463 61.8599C60.6 61.8512 60.5525 61.8412 60.5063 61.8299L60.3313 61.7887L60.19 61.7537L60.0088 61.7062C59.9613 61.6912 59.9138 61.6787 59.865 61.6662L59.675 61.6087L59.5338 61.5649C59.465 61.5437 59.3963 61.5174 59.3288 61.4949L59.195 61.4499C59.1188 61.4224 59.0438 61.3937 58.9675 61.3637L58.8538 61.3212C58.7388 61.2749 58.625 61.2262 58.5088 61.1762C58.833 61.7197 59.0649 62.3131 59.195 62.9324C59.4123 62.9598 59.631 62.9731 59.85 62.9724C60.9771 62.9749 62.0845 62.6763 63.0575 62.1074M56.67 34.0512L55.295 33.9712V39.8874L56.67 39.9674V34.0512ZM29.5213 45.1749C29.0223 40.2909 29.3148 35.3583 30.3875 30.5674C33.5517 31.6764 36.9476 31.9545 40.25 31.3749C43.9013 30.7337 47.2413 29.0724 50.0325 26.6674C52.81 29.0662 56.14 30.7224 59.7763 31.3687C63.0877 31.9575 66.495 31.6837 69.67 30.5737C70.4034 33.8489 70.7736 37.1949 70.7738 40.5512C70.774 42.0959 70.6951 43.6396 70.5375 45.1762C67.7046 44.4701 64.8354 43.9189 61.9425 43.5249C54.1973 42.4761 46.3473 42.4585 38.5975 43.4724C35.5443 43.8702 32.5158 44.439 29.5263 45.1762M61.2388 41.4137L62.4825 41.5849V37.8237L64.275 41.8237L65.0525 41.9312V33.8837L63.81 33.7124V37.6087L61.9963 33.4637L61.2388 33.3599V41.4137ZM53.9688 40.1249C53.9688 40.6062 54.425 40.8887 54.7525 40.9087L57.2138 41.0512H57.2525C57.6175 41.0512 58.01 40.7812 58.01 40.3437V33.7787C58.01 33.3012 57.5538 33.0162 57.2263 32.9949L54.7263 32.8512C54.3625 32.8512 53.97 33.1199 53.97 33.5549L53.9688 40.1249ZM49.28 32.7624L49.2863 40.8149H50.6375L50.6138 32.7649L49.28 32.7624ZM42.1625 41.1449L43.4125 41.0649V37.2787L45.23 40.9437L46.005 40.8937V32.8424L44.755 32.9224V36.8374L42.9175 33.0462L42.1675 33.0937L42.1625 41.1449ZM35.0688 41.2699C35.0618 41.3578 35.0738 41.446 35.1039 41.5288C35.134 41.6116 35.1815 41.6869 35.2432 41.7498C35.305 41.8126 35.3795 41.8614 35.4618 41.8929C35.544 41.9244 35.6321 41.9379 35.72 41.9324C35.7689 41.9322 35.8178 41.9289 35.8663 41.9224L38.1738 41.5887C38.3847 41.5671 38.5803 41.4682 38.7227 41.311C38.8651 41.1538 38.9443 40.9495 38.945 40.7374V33.4274L37.625 33.6249V40.6074L36.39 40.7849V33.7974L35.0688 33.9887V41.2699ZM92.6488 49.9999C92.6488 73.5187 73.5175 92.6499 50.0013 92.6499C26.485 92.6499 7.35126 73.5199 7.35126 49.9999C7.35126 26.4799 26.4838 7.3512 50 7.3512C73.5163 7.3512 92.6488 26.4837 92.6488 49.9999ZM84.25 33.6849L81.4563 34.9349C81.3313 34.9899 81.235 35.0324 81.1588 35.0599C81.0825 35.0874 81.015 35.1162 80.9625 35.1349C80.9205 35.1535 80.8757 35.1649 80.83 35.1687H80.7113C80.5856 35.1727 80.4633 35.1279 80.37 35.0437C80.2479 34.9146 80.1479 34.7664 80.0738 34.6049L79.4675 34.8749L80.935 38.1624L81.545 37.8899C81.4873 37.7427 81.4454 37.5898 81.42 37.4337C81.4107 37.3241 81.4337 37.2141 81.4863 37.1174C81.5069 37.0749 81.5339 37.0357 81.5663 37.0012C81.6034 36.9639 81.6454 36.932 81.6913 36.9062C81.7551 36.8643 81.8215 36.8263 81.89 36.7924C81.9738 36.7524 82.0863 36.7012 82.2263 36.6387L85.0213 35.3887C85.1463 35.3324 85.24 35.2924 85.3188 35.2637L85.515 35.1862C85.5574 35.1694 85.6021 35.1589 85.6475 35.1549H85.7725C85.8975 35.1526 86.0188 35.1972 86.1125 35.2799C86.2329 35.4107 86.3331 35.5585 86.41 35.7187L87.0163 35.4462L85.5488 32.1587L84.94 32.4337C84.9972 32.5807 85.0391 32.7331 85.065 32.8887C85.0729 32.9981 85.049 33.1075 84.9963 33.2037C84.9715 33.2428 84.9444 33.2804 84.915 33.3162C84.881 33.356 84.8409 33.3901 84.7963 33.4174C84.7315 33.4601 84.6638 33.4981 84.5938 33.5312C84.505 33.5737 84.395 33.6262 84.26 33.6849M75.6738 26.7224C75.6063 26.7687 75.5488 26.8112 75.5025 26.8399C75.4645 26.8677 75.4223 26.8892 75.3775 26.9037C75.3413 26.9124 75.3038 26.9224 75.2613 26.9287C75.2204 26.9391 75.1784 26.9442 75.1363 26.9437H75.1025C75.0761 26.9421 75.0498 26.9388 75.0238 26.9337L74.995 26.9274C74.9613 26.9179 74.9286 26.9049 74.8975 26.8887C74.7492 26.7892 74.6176 26.6669 74.5075 26.5262L73.9775 26.9349L75.625 29.0699L78.0313 27.2262L79.2388 28.7937L76.83 30.6349L78.4875 32.7949L79.02 32.3824C78.92 32.2499 78.8361 32.106 78.77 31.9537C78.7354 31.849 78.7354 31.7359 78.77 31.6312C78.7793 31.5871 78.7958 31.5449 78.8188 31.5062C78.8452 31.4615 78.8762 31.4196 78.9113 31.3812C78.9538 31.3387 79.01 31.2862 79.0825 31.2249L79.37 30.9974L81.79 29.1249C81.895 29.0437 81.9825 28.9787 82.05 28.9299L82.2225 28.8049C82.2605 28.7777 82.3027 28.757 82.3475 28.7437C82.3838 28.7337 82.42 28.7249 82.4725 28.7162C82.5106 28.7073 82.5496 28.7031 82.5888 28.7037H82.6225C82.6502 28.705 82.6778 28.7084 82.705 28.7137H82.7363C82.7705 28.7255 82.804 28.7397 82.8363 28.7562C82.9866 28.8617 83.1213 28.9879 83.2363 29.1312L83.765 28.7237L82.12 26.5849L80.1275 28.1037L78.9238 26.5374L80.9163 25.0187L79.25 22.8749L78.7188 23.2824C78.812 23.4111 78.8904 23.5499 78.9525 23.6962C78.9832 23.8011 78.9832 23.9126 78.9525 24.0174C78.9383 24.0604 78.9208 24.1022 78.9 24.1424C78.8765 24.1881 78.8466 24.2302 78.8113 24.2674C78.7563 24.324 78.6979 24.377 78.6363 24.4262C78.5638 24.4874 78.465 24.5637 78.3513 24.6537L75.9225 26.5199C75.82 26.6012 75.7313 26.6662 75.6638 26.7149M67.2663 21.6249L70.1988 23.8162L70.6 23.2799C70.4526 23.1739 70.3209 23.0477 70.2088 22.9049C70.1439 22.8111 70.1083 22.7002 70.1063 22.5862C70.103 22.5389 70.1064 22.4913 70.1163 22.4449C70.1315 22.3954 70.1512 22.3473 70.175 22.3012C70.205 22.2487 70.245 22.1824 70.3 22.1062C70.355 22.0299 70.425 21.9312 70.5163 21.8074L70.7663 21.4749C70.9988 21.8499 71.4888 22.2837 71.8425 22.5499C71.9088 22.5987 71.9675 22.6412 72.035 22.6837C72.0538 22.6962 72.075 22.7087 72.0938 22.7187C72.1388 22.7462 72.1825 22.7737 72.2275 22.7974C72.2488 22.8099 72.2713 22.8199 72.29 22.8324C72.335 22.8562 72.3775 22.8749 72.4213 22.8937L72.48 22.9199C72.5375 22.9424 72.59 22.9624 72.6425 22.9787L72.6638 22.9874C72.725 23.0037 72.7888 23.0187 72.8438 23.0312L72.8988 23.0374C72.9388 23.0374 72.9813 23.0499 73.0238 23.0524H73.0838H73.1375H73.2063C73.2233 23.0537 73.2404 23.0537 73.2575 23.0524C73.315 23.048 73.3721 23.0405 73.4288 23.0299C73.9188 22.9283 74.405 22.5533 74.8875 21.9049C75.3925 21.2299 75.6354 20.6524 75.6163 20.1724C75.595 19.6924 75.3113 19.2474 74.7613 18.8374C74.6938 18.7849 74.6063 18.7237 74.5113 18.6499L74.1825 18.4212C73.9808 18.2912 73.7913 18.1624 73.6138 18.0349C73.435 17.9099 73.2325 17.7624 73.0063 17.5962L71.2563 16.2887L70.8575 16.8262C70.9813 16.9219 71.0923 17.0333 71.1875 17.1574C71.245 17.2475 71.2761 17.3519 71.2775 17.4587C71.2775 17.5074 71.27 17.5537 71.2625 17.5987C71.2512 17.65 71.2331 17.6996 71.2088 17.7462C71.1709 17.8152 71.1292 17.8819 71.0838 17.9462C71.0288 18.0224 70.9588 18.1224 70.8725 18.2374L69.0375 20.6912L68.8388 20.9512L68.7038 21.1112C68.6755 21.147 68.6422 21.1786 68.605 21.2049C68.5709 21.226 68.5354 21.2448 68.4988 21.2612C68.4631 21.2789 68.4259 21.2932 68.3875 21.3037L68.3563 21.3124L68.265 21.3224H68.2413C68.209 21.3208 68.1768 21.3171 68.145 21.3112C67.9762 21.2628 67.8174 21.1845 67.6763 21.0799L67.2663 21.6249ZM60.0813 18.3749L65.3313 20.5499L66.1513 18.5687L65.3888 18.2524C65.3044 18.4406 65.1973 18.6177 65.07 18.7799C64.9809 18.8958 64.8596 18.9828 64.7213 19.0299C64.674 19.0521 64.6232 19.0656 64.5713 19.0699C64.5525 19.0712 64.5337 19.0712 64.515 19.0699C64.4764 19.0685 64.438 19.0644 64.4 19.0574C64.3257 19.0415 64.2526 19.0202 64.1813 18.9937C64.0963 18.9599 63.9888 18.9199 63.86 18.8687L63.7413 18.8199C63.6325 18.7737 63.5388 18.7337 63.4713 18.7024C63.4126 18.6784 63.3568 18.6478 63.305 18.6112C63.2677 18.5882 63.2329 18.5614 63.2013 18.5312C63.1744 18.5033 63.1517 18.4717 63.1338 18.4374C63.1175 18.413 63.1069 18.3852 63.1025 18.3562C63.0991 18.3205 63.1025 18.2844 63.1125 18.2499C63.126 18.1971 63.1423 18.1449 63.1613 18.0937C63.185 18.0299 63.2188 17.9487 63.26 17.8437L64.4613 14.9424C64.515 14.8174 64.5563 14.7212 64.5863 14.6437C64.6163 14.5662 64.65 14.5062 64.6775 14.4549C64.6948 14.4126 64.7189 14.3733 64.7488 14.3387C64.7763 14.3137 64.8038 14.2862 64.8375 14.2587C64.9288 14.1701 65.0503 14.1196 65.1775 14.1174C65.3562 14.1324 65.5315 14.1746 65.6975 14.2424L65.955 13.6237L62.625 12.2299L62.3675 12.8549C62.5124 12.9195 62.6491 13.0009 62.775 13.0974C62.8569 13.1711 62.9156 13.2672 62.9438 13.3737C62.9522 13.4183 62.9576 13.4634 62.96 13.5087C62.9613 13.5608 62.9562 13.6128 62.945 13.6637C62.9251 13.7399 62.9013 13.815 62.8738 13.8887C62.84 13.9799 62.795 14.0937 62.7388 14.2274L61.565 17.0562C61.5138 17.1812 61.4713 17.2799 61.44 17.3537C61.4088 17.4274 61.3725 17.4937 61.35 17.5437C61.3296 17.5849 61.3049 17.6239 61.2763 17.6599L61.1875 17.7399C61.0972 17.8294 60.9758 17.8804 60.8488 17.8824C60.8284 17.8835 60.8079 17.8835 60.7875 17.8824H60.7475C60.725 17.8824 60.7 17.8749 60.6738 17.8687L60.63 17.8624L60.5363 17.8362L60.4925 17.8237L60.3338 17.7737L60.0813 18.3749ZM52.05 16.8662L57.7688 17.7262L58.0875 15.6012L57.2688 15.4762C57.2266 15.6687 57.1659 15.8566 57.0875 16.0374C57.0355 16.1611 56.9534 16.2698 56.8488 16.3537C56.7452 16.4292 56.6218 16.4727 56.4938 16.4787C56.4621 16.4812 56.4304 16.4812 56.3988 16.4787H56.3563H56.2813C56.2675 16.4787 56.2513 16.4787 56.2363 16.4787L56.15 16.4687H56.105L55.9663 16.4462L55.7163 16.4099C55.52 16.3799 55.3663 16.3524 55.2563 16.3249C55.1679 16.3098 55.0859 16.2695 55.02 16.2087C54.9708 16.1517 54.9457 16.0777 54.95 16.0024C54.9528 15.8792 54.9649 15.7564 54.9863 15.6349L55.1638 14.4499L56.515 14.6549C56.7075 14.6824 56.8463 14.7087 56.935 14.7274C57.0238 14.7462 57.11 14.7699 57.2013 14.7949L57.375 13.6249C57.3075 13.6312 57.2425 13.6349 57.1788 13.6349C57.148 13.6374 57.117 13.6374 57.0863 13.6349C56.9685 13.6303 56.8511 13.6178 56.735 13.5974L55.3225 13.3862L55.49 12.2712C55.5058 12.1657 55.5283 12.0613 55.5575 11.9587C55.5775 11.8902 55.622 11.8314 55.6825 11.7937C55.7096 11.7807 55.7381 11.7711 55.7675 11.7649H55.7763C55.8087 11.757 55.8417 11.752 55.875 11.7499C55.8866 11.7487 55.8984 11.7487 55.91 11.7499C56.0424 11.7529 56.1744 11.7655 56.305 11.7874L56.43 11.8087C56.6113 11.832 56.7898 11.8739 56.9625 11.9337C57.0861 11.9755 57.1962 12.0498 57.2813 12.1487C57.3627 12.2489 57.415 12.3695 57.4325 12.4974C57.462 12.67 57.47 12.8455 57.4563 13.0199L58.265 13.1449L58.59 10.9862C58.48 11.0037 58.385 11.0137 58.3075 11.0187C58.26 11.0187 58.2075 11.0187 58.155 11.0187H58.0513C57.965 11.0187 57.8613 11.0062 57.75 10.9912C57.6388 10.9762 57.5 10.9574 57.325 10.9324L53.025 10.2887L52.925 10.9474C53.0811 10.976 53.2334 11.0225 53.3788 11.0862C53.4826 11.1345 53.5687 11.214 53.625 11.3137C53.6454 11.3536 53.6617 11.3955 53.6738 11.4387C53.6916 11.4879 53.6997 11.5401 53.6975 11.5924C53.6975 11.6524 53.6975 11.7324 53.685 11.8274C53.6725 11.9224 53.655 12.0449 53.6338 12.1887L53.18 15.2162C53.1588 15.3412 53.14 15.4562 53.1225 15.5362C53.105 15.6162 53.095 15.6862 53.085 15.7412C53.0764 15.7851 53.0607 15.8273 53.0388 15.8662C53.0196 15.9018 52.9975 15.9357 52.9725 15.9674C52.9072 16.0744 52.8042 16.1529 52.6838 16.1874C52.6484 16.1958 52.6125 16.2016 52.5763 16.2049H52.5338C52.5038 16.2049 52.475 16.2049 52.4413 16.2049H52.3563C52.3409 16.2037 52.3254 16.2037 52.31 16.2049L52.1513 16.1949L52.05 16.8662ZM41.75 10.9737L41.8288 11.6362H41.9538C41.9666 11.635 41.9796 11.635 41.9925 11.6362H42.0513H42.1525H42.1925C42.2313 11.6362 42.2688 11.6449 42.2988 11.6512C42.4054 11.6753 42.5024 11.7306 42.5775 11.8099C42.6066 11.8451 42.6337 11.8818 42.6588 11.9199C42.6872 11.9643 42.7087 12.0128 42.7225 12.0637C42.7375 12.1224 42.7538 12.1987 42.7688 12.2937C42.7838 12.3887 42.7988 12.5087 42.815 12.6562L43.1675 15.6962C43.185 15.8274 43.195 15.9349 43.2013 16.0174C43.2075 16.0999 43.2125 16.1724 43.2163 16.2262C43.2195 16.2722 43.217 16.3184 43.2088 16.3637C43.1975 16.3999 43.185 16.4374 43.1675 16.4799C43.1341 16.5996 43.0557 16.7017 42.9488 16.7649C42.7877 16.843 42.615 16.8945 42.4375 16.9174L42.5175 17.5799L44.875 17.3062C45.0863 17.2799 45.2975 17.2574 45.5113 17.2362C45.725 17.2149 45.9475 17.1962 46.195 17.1812C46.3275 17.1724 46.445 17.1624 46.5438 17.1499C46.6425 17.1374 46.7288 17.1299 46.8013 17.1199C47.7175 17.0137 48.3775 16.6549 48.775 16.0474C49.1725 15.4399 49.3088 14.5899 49.18 13.4987C49.1309 13.0508 49.0354 12.6093 48.895 12.1812C48.7835 11.8226 48.6223 11.4814 48.4163 11.1674C48.1979 10.8567 47.8868 10.623 47.5275 10.4999C47.443 10.474 47.357 10.4531 47.27 10.4374C47.2483 10.4313 47.2262 10.4271 47.2038 10.4249C47.1113 10.4099 47.0163 10.3974 46.9175 10.3887H46.8963C46.8288 10.3887 46.7625 10.3887 46.6913 10.3887H46.5988H46.51C46.3975 10.3887 46.2813 10.4012 46.1588 10.4137L45.8275 10.4587C45.68 10.4787 45.5275 10.4999 45.3675 10.5274C45.2075 10.5549 44.9613 10.5874 44.6838 10.6224C44.4063 10.6574 44.0588 10.7012 43.67 10.7474L41.75 10.9737ZM34.4813 19.2337C34.4777 19.3565 34.4584 19.4783 34.4238 19.5962C34.3959 19.6925 34.3468 19.7814 34.28 19.8562C34.1971 19.9405 34.1081 20.0186 34.0138 20.0899L34.2638 20.7074L36.8013 19.6662L36.5513 19.0412C36.49 19.0599 36.4375 19.0724 36.3863 19.0849L36.3375 19.0987L36.245 19.1174H36.1988C36.1738 19.1174 36.15 19.1262 36.1288 19.1274H36.0913C36.065 19.1288 36.0387 19.1288 36.0125 19.1274C35.9075 19.1112 35.8288 19.0324 35.77 18.8912C35.7395 18.81 35.7161 18.7264 35.7 18.6412C35.6833 18.5324 35.6749 18.4225 35.675 18.3124L35.6638 18.1237L37.235 17.4999L37.3488 17.6474C37.4859 17.8002 37.6054 17.9679 37.705 18.1474C37.7303 18.1979 37.7419 18.2542 37.7386 18.3106C37.7353 18.367 37.7172 18.4215 37.6863 18.4687C37.5648 18.6002 37.4146 18.702 37.2475 18.7662L37.4975 19.3849L40.6513 18.0887L40.4013 17.4699C40.3403 17.4873 40.278 17.4995 40.215 17.5062C40.1967 17.508 40.1783 17.508 40.16 17.5062C40.1186 17.5116 40.0768 17.5145 40.035 17.5149C39.9264 17.5101 39.82 17.4829 39.7225 17.4349C39.6021 17.3709 39.491 17.2906 39.3925 17.1962C39.2813 17.0899 39.1425 16.9462 38.985 16.7762L36.11 13.5349C36.045 13.4674 35.9913 13.4099 35.95 13.3574C35.9088 13.3049 35.8675 13.2562 35.825 13.2074C35.7825 13.1587 35.75 13.1087 35.7138 13.0537C35.6775 12.9987 35.6375 12.9424 35.5888 12.8749L34.1675 13.4574C34.1825 13.5374 34.2013 13.6474 34.2213 13.7899C34.2461 13.9849 34.2607 14.181 34.265 14.3774L34.4663 18.6799C34.4725 18.9087 34.4725 19.0937 34.4663 19.2362M23.785 20.0249L24.1875 20.5574C24.3164 20.4666 24.4552 20.3907 24.6013 20.3312C24.627 20.3215 24.6539 20.3152 24.6813 20.3124C24.6904 20.3118 24.6996 20.3118 24.7088 20.3124C24.7447 20.3058 24.7816 20.3058 24.8175 20.3124H24.8438C24.8713 20.3156 24.8984 20.321 24.925 20.3287C24.9683 20.342 25.0102 20.3596 25.05 20.3812C25.0969 20.4047 25.1393 20.4365 25.175 20.4749C25.2322 20.5291 25.2861 20.5867 25.3363 20.6474C25.3925 20.7237 25.4713 20.8187 25.5575 20.9349L27.4075 23.3737C27.49 23.4812 27.5525 23.5674 27.5988 23.6374C27.645 23.7074 27.6863 23.7624 27.7175 23.8087C27.7462 23.8458 27.767 23.8883 27.7788 23.9337C27.7907 23.9722 27.7999 24.0114 27.8063 24.0512C27.8386 24.1726 27.8219 24.3019 27.76 24.4112C27.6607 24.5585 27.5388 24.6893 27.3988 24.7987L27.8 25.3337L32.3325 21.8987L31.05 20.1787L30.39 20.6787C30.5084 20.8461 30.6074 21.0264 30.685 21.2162C30.7366 21.3517 30.7484 21.4992 30.7188 21.6412C30.7124 21.6932 30.6989 21.7441 30.6788 21.7924C30.6529 21.843 30.6219 21.8907 30.5863 21.9349C30.5334 21.9906 30.477 22.0428 30.4175 22.0912L30.145 22.3037L30.0413 22.3824C29.9488 22.4537 29.8675 22.5074 29.805 22.5549C29.7525 22.5922 29.6973 22.6256 29.64 22.6549C29.5998 22.6745 29.558 22.6904 29.515 22.7024C29.477 22.7119 29.4379 22.7157 29.3988 22.7137C29.3693 22.7148 29.3399 22.7097 29.3125 22.6987C29.2807 22.6842 29.2522 22.6633 29.2288 22.6374C29.1963 22.6074 29.1613 22.5662 29.1138 22.5124C29.0663 22.4587 29.0188 22.3949 28.95 22.3037L27.0513 19.8037C26.9713 19.6987 26.9075 19.6099 26.86 19.5424C26.8125 19.4749 26.7725 19.4174 26.735 19.3712C26.7075 19.3337 26.6875 19.2913 26.6763 19.2462C26.6626 19.2078 26.6534 19.1679 26.6488 19.1274C26.6319 19.0668 26.6277 19.0034 26.6363 18.941C26.6449 18.8787 26.6661 18.8188 26.6988 18.7649C26.801 18.6145 26.9283 18.4826 27.075 18.3749L26.6688 17.8424L23.785 20.0249ZM18.785 25.3587L19.2938 25.7962C19.4006 25.6786 19.521 25.5741 19.6525 25.4849C19.673 25.4723 19.6948 25.4618 19.7175 25.4537L19.7425 25.4449C19.758 25.4388 19.7738 25.4338 19.79 25.4299H19.8213L19.865 25.4237C19.8771 25.4225 19.8892 25.4225 19.9013 25.4237C19.9225 25.4237 19.9413 25.4237 19.9625 25.4237C20.0138 25.4312 20.055 25.4374 20.1025 25.4474C20.1534 25.4595 20.2029 25.4771 20.25 25.4999C20.316 25.5415 20.3795 25.587 20.44 25.6362L20.7213 25.8712L23.0325 27.8787C23.1325 27.9649 23.2125 28.0374 23.275 28.0937C23.3375 28.1499 23.385 28.1974 23.425 28.2374C23.4587 28.2693 23.4881 28.3055 23.5125 28.3449C23.5308 28.3804 23.5462 28.4171 23.5588 28.4549C23.6167 28.5673 23.6279 28.6981 23.59 28.8187C23.5224 28.9822 23.43 29.1344 23.3163 29.2699L23.8163 29.7087L26.175 26.9899L25.675 26.5512C25.5666 26.6687 25.4445 26.7728 25.3113 26.8612C25.2906 26.8736 25.2688 26.884 25.2463 26.8924C25.2383 26.8965 25.2299 26.8994 25.2213 26.9012L25.175 26.9162L25.1425 26.9224H25.0963C25.085 26.9238 25.0737 26.9238 25.0625 26.9224H25C24.9534 26.9212 24.9071 26.9136 24.8625 26.8999C24.8143 26.8816 24.7679 26.859 24.7238 26.8324C24.6586 26.7915 24.5967 26.7455 24.5388 26.6949C24.465 26.6374 24.37 26.5599 24.255 26.4587L21.9425 24.4524C21.8438 24.3662 21.7613 24.2937 21.7 24.2374L21.55 24.0912C21.5158 24.061 21.4867 24.0256 21.4638 23.9862C21.4448 23.9508 21.4285 23.914 21.415 23.8762C21.3574 23.7637 21.3466 23.6329 21.385 23.5124C21.4522 23.3484 21.545 23.1961 21.66 23.0612L21.16 22.6224L18.785 25.3587ZM13.0263 34.9712L13.6175 35.2824C13.6951 35.1431 13.7896 35.0138 13.8988 34.8974C13.9785 34.8225 14.0785 34.7726 14.1863 34.7537C14.2319 34.7486 14.2778 34.7465 14.3238 34.7474C14.3764 34.7481 14.4285 34.7583 14.4775 34.7774C14.5532 34.8018 14.6268 34.8324 14.6975 34.8687C14.7813 34.9099 14.8913 34.9612 15.0225 35.0312L17.75 36.4412C17.875 36.5012 17.9625 36.5524 18.035 36.5924L18.2138 36.6999C18.2555 36.7209 18.2929 36.7498 18.3238 36.7849C18.3503 36.8151 18.3749 36.8468 18.3975 36.8799C18.4784 36.9756 18.5195 37.0986 18.5125 37.2237C18.4832 37.4 18.428 37.571 18.3488 37.7312L18.9425 38.0362L20.1925 35.6324L17.5 34.2412L18.4113 32.4912L21.11 33.8749L22.3513 31.4874L21.76 31.1787C21.6804 31.3229 21.5834 31.4568 21.4713 31.5774C21.3928 31.6542 21.2923 31.7045 21.1838 31.7212C21.1525 31.7281 21.1207 31.7319 21.0888 31.7324H21.0425C20.9915 31.7262 20.9413 31.7149 20.8925 31.6987C20.8196 31.6748 20.7486 31.6456 20.68 31.6112C20.595 31.5712 20.485 31.5162 20.35 31.4449L17.635 30.0324C17.51 29.9712 17.42 29.9199 17.3475 29.8787L17.1663 29.7724C17.1258 29.7494 17.0888 29.7208 17.0563 29.6874C17.0375 29.6624 17.01 29.6312 16.9825 29.5924C16.9034 29.4946 16.8641 29.3705 16.8725 29.2449C16.9042 29.0642 16.9618 28.8891 17.0438 28.7249L16.45 28.4174L15.1863 30.8512L17.42 31.9762L16.51 33.7262L14.2775 32.5887L13.0263 34.9712ZM10.4513 45.0299L11.125 45.1599C11.1592 45.007 11.2138 44.8595 11.2875 44.7212C11.3426 44.6279 11.4245 44.5535 11.5225 44.5074C11.5658 44.491 11.61 44.4773 11.655 44.4662C11.6763 44.4605 11.6981 44.4568 11.72 44.4549C11.7291 44.4538 11.7384 44.4538 11.7475 44.4549H11.8113C11.8884 44.4593 11.9652 44.4684 12.0413 44.4824C12.1388 44.4987 12.2563 44.5224 12.4 44.5499L15.4 45.1662L15.7188 45.2374L15.9188 45.2912C15.9627 45.3015 16.0048 45.3184 16.0438 45.3412L16.1413 45.4137C16.2403 45.4871 16.3099 45.5935 16.3375 45.7137C16.3632 45.8872 16.3602 46.0637 16.3288 46.2362L16.9813 46.3724L17.72 42.7874L17.0638 42.6512C17.0324 42.8284 16.9746 42.9999 16.8925 43.1599C16.8384 43.2606 16.7534 43.3412 16.65 43.3899C16.6088 43.4134 16.5641 43.4298 16.5175 43.4387C16.4957 43.4432 16.4735 43.4461 16.4513 43.4474H16.4288C16.4063 43.4487 16.3837 43.4487 16.3613 43.4474C16.2844 43.4438 16.208 43.4346 16.1325 43.4199C16.0438 43.4074 15.92 43.3824 15.7713 43.3524L12.695 42.7187C12.5611 42.6952 12.4302 42.6567 12.305 42.6037C12.2295 42.5627 12.1693 42.4982 12.1338 42.4199C12.06 42.2824 12.0538 42.0712 12.1125 41.7837C12.1825 41.4524 12.3088 41.2537 12.4988 41.1912C12.5313 41.1792 12.5647 41.17 12.5988 41.1637C12.6102 41.1599 12.6219 41.157 12.6338 41.1549L12.7125 41.1424C12.7275 41.1412 12.7425 41.1412 12.7575 41.1424C12.784 41.1385 12.8107 41.1364 12.8375 41.1362H13.0738L13.1475 41.1424C13.1838 41.1424 13.2238 41.1487 13.2613 41.1537L13.34 41.1612L13.4763 41.1812L13.5488 41.1937C13.62 41.2062 13.6963 41.2187 13.7763 41.2362C14.2175 41.3262 14.5138 41.4387 14.6613 41.5762C14.8088 41.7137 14.8575 41.9137 14.8025 42.1799C14.7609 42.3483 14.6966 42.5102 14.6113 42.6612L15.27 43.0699C15.5904 42.7297 15.8027 42.3021 15.88 41.8412C16.0233 41.1512 15.9429 40.6054 15.6388 40.2037C15.3413 39.8037 14.7938 39.5187 14.0063 39.3587C13.91 39.3374 13.8163 39.3212 13.7238 39.3062C13.6963 39.3062 13.6663 39.2999 13.635 39.2937C13.5763 39.2849 13.5175 39.2787 13.4575 39.2724C13.4263 39.2724 13.3925 39.2662 13.3613 39.2637C13.31 39.2574 13.2575 39.2549 13.2063 39.2537C13.175 39.2537 13.1438 39.2537 13.1113 39.2537H12.9863L12.8338 39.2599C12.8025 39.2599 12.7688 39.2599 12.735 39.2687C12.7013 39.2774 12.64 39.2812 12.595 39.2899C12.55 39.2987 12.5388 39.2987 12.5113 39.3049C12.4638 39.3143 12.417 39.3268 12.3713 39.3424L12.3063 39.3612C12.2442 39.3834 12.1836 39.4097 12.125 39.4399C11.6963 39.6612 11.4175 40.1087 11.28 40.7787C11.2588 40.8624 11.24 40.9687 11.2188 41.0912C11.1975 41.2137 11.175 41.3487 11.1513 41.4862C11.1175 41.7225 11.08 41.9499 11.0438 42.1674C11.0075 42.3849 10.96 42.6262 10.9025 42.8999L10.4513 45.0299ZM12.52 54.3412L11.4475 56.2624L13.4475 55.3374L14.9475 56.9549L14.6838 54.7637L16.6838 53.8399L14.5213 53.4137L14.26 51.2262L13.1875 53.1524L11.0375 52.7237L12.52 54.3412ZM15.7775 63.9662L17.6238 65.1737L16.84 63.1124L18.5588 61.7374L16.3588 61.8424L15.5775 59.7824L14.9988 61.9074L12.7988 62.0124L14.6425 63.2199L14.0613 65.3449L15.7775 63.9662ZM20.9438 70.7012L22.2788 68.9512L20.1713 69.5824L18.9213 67.7687L18.8713 69.9737L16.7613 70.5987L18.8388 71.3262L18.7888 73.5287L20.1225 71.7787L22.205 72.5074L20.9438 70.7012ZM28.4063 78.5399L26.7525 77.0812L27.6275 75.0624L25.7288 76.1874L24.0938 74.7249L24.575 76.8749L22.6763 77.9999L24.875 78.2049L25.3575 80.3537L26.2325 78.3337L28.4063 78.5399ZM35.8825 82.8937L33.9388 81.8749L34.3013 79.7049L32.7325 81.2499L30.7775 80.2299L31.7613 82.2024L30.1913 83.7499L32.375 83.4224L33.3588 85.3937L33.7225 83.2237L35.8825 82.8937ZM42.1463 86.1624L44.1838 85.3199L42.0413 84.8049L41.8725 82.6112L40.7188 84.4862L38.5788 83.9687L40.0038 85.6449L38.8525 87.5199L40.8875 86.6787L42.3175 88.3549L42.1463 86.1624ZM51.0525 86.9899L52.8275 85.6849L50.6238 85.6974L49.9313 83.6074L49.2638 85.7062L47.0575 85.7187L48.8638 86.9999L48.1938 89.1012L49.9675 87.7937L51.76 89.0774L51.0525 86.9899ZM59.8925 85.6512L61.3025 83.9562L59.18 84.4999L58.0075 82.6387L57.8625 84.8362L55.725 85.3749L57.7713 86.1924L57.625 88.3962L59.0325 86.6987L61.0775 87.5162L59.8925 85.6512ZM69.7575 83.7499L68.1675 82.2274L69.125 80.2499L67.1825 81.2899L65.5938 79.7662L65.9825 81.9324L64.04 82.9725L66.2238 83.2724L66.6138 85.4412L67.57 83.4562L69.7575 83.7499ZM79.195 49.9999C79.195 33.9012 66.1 20.8024 50.0013 20.8024C33.9025 20.8024 20.8038 33.9024 20.8038 49.9999C20.8038 66.0974 33.9025 79.1974 50 79.1974C66.0975 79.1974 79.195 66.1012 79.195 49.9999ZM77.2738 78.0149L75.365 76.9174L75.8175 74.7587L74.1825 76.2387L72.2763 75.1387L73.1738 77.1487L71.535 78.6249L73.7288 78.3899L74.625 80.4024L75.0825 78.2499L77.2738 78.0149ZM81.1163 71.3899L83.1875 70.6399L81.07 70.0362L81 67.8249L79.7675 69.6562L77.6513 69.0487L79 70.7837L77.765 72.6099L79.8375 71.8599L81.1938 73.5949L81.1163 71.3899ZM85.3238 63.2824L87.1525 62.0537L84.9525 61.9749L84.3463 59.8499L83.5963 61.9212L81.3963 61.8399L83.125 63.2012L82.3675 65.2724L84.1975 64.0424L85.9313 65.3999L85.3238 63.2824ZM87.4588 54.3999L88.9388 52.7749L86.785 53.2262L85.6875 51.3137L85.4525 53.4999L83.2975 53.9499L85.305 54.8487L85.0688 57.0399L86.5463 55.4149L88.5613 56.3137L87.4588 54.3999ZM88.9588 42.8312C89.0125 42.8037 89.0838 42.7749 89.155 42.7387L88.8463 41.2387H88.6375L88.5125 41.2324C88.37 41.2237 88.1738 41.1999 87.9288 41.1649L83.6625 40.5562C83.4388 40.5224 83.255 40.4887 83.1138 40.4574C82.9953 40.4285 82.8805 40.3866 82.7713 40.3324C82.6819 40.2863 82.6041 40.2205 82.5438 40.1399C82.4741 40.0448 82.4138 39.943 82.3638 39.8362L81.7088 39.9699L82.2588 42.6574L82.9125 42.5237C82.8818 42.3416 82.886 42.1554 82.925 41.9749C82.9575 41.8762 83.05 41.8149 83.2 41.7812C83.2826 41.7671 83.3662 41.76 83.45 41.7599C83.5608 41.7629 83.6712 41.775 83.78 41.7962L83.965 41.8187L84.305 43.4912L84.1413 43.5762C83.9635 43.6783 83.7759 43.7621 83.5813 43.8262C83.5508 43.8323 83.5198 43.8357 83.4888 43.8362C83.4636 43.8357 83.4385 43.8332 83.4138 43.8287L83.3938 43.8224L83.3463 43.8012L83.3275 43.7924C83.3068 43.7806 83.2882 43.7654 83.2725 43.7474C83.164 43.6041 83.0912 43.437 83.06 43.2599L82.405 43.3937L83.0888 46.7374L83.7413 46.5999C83.731 46.4779 83.7382 46.355 83.7625 46.2349C83.7887 46.1293 83.8363 46.0301 83.9025 45.9437C83.9867 45.8368 84.0861 45.7429 84.1975 45.6649C84.3225 45.5699 84.4875 45.4649 84.6875 45.3424L88.4063 43.1249C88.485 43.0762 88.555 43.0337 88.6113 42.9999C88.6675 42.9662 88.7263 42.9362 88.7825 42.9099C88.8389 42.8797 88.8969 42.8525 88.9563 42.8287" fill="#051C2C"/>
<path d="M50.0262 77.5775C46.3591 75.531 43.0558 72.8921 40.25 69.7675V77.5175C46.5648 79.7643 53.4614 79.7643 59.7762 77.5175V69.8075C56.9755 72.9159 53.6813 75.5411 50.0262 77.5775Z" fill="#3A8DDE"/>
<path d="M59.77 31.3625V22.4875C53.4555 20.241 46.5595 20.241 40.245 22.4875V31.375C43.895 30.7338 47.235 29.0738 50.0262 26.6675C52.805 29.065 56.135 30.7225 59.7762 31.3688" fill="#3A8DDE"/>
</svg>
