<svg width="100" height="100" viewBox="0 0 100 100" fill="none" xmlns="http://www.w3.org/2000/svg">
<path d="M92.7988 48.125C92.8052 42.2573 91.6019 36.4512 89.2641 31.0693C86.9263 25.6874 83.5041 20.8452 79.2113 16.845C78.4613 13.9163 77.52 12.095 77.4225 11.9125L76.375 9.93752L74.25 10.6475C73.4875 10.8975 72.7188 11.14 71.9488 11.37C65.3017 7.40123 57.703 5.30869 49.9612 5.31508C42.2195 5.32146 34.6243 7.42652 27.9838 11.4063C26.59 10.99 25.8163 10.6988 25.7888 10.6875L23.4875 9.81252L22.4375 12.0375C21.6948 13.6114 21.1066 15.2537 20.6813 16.9413C16.4168 20.9385 13.0183 25.7686 10.6964 31.1326C8.37442 36.4965 7.17845 42.2801 7.18251 48.125C7.18251 68.8925 21.9675 86.1975 41.5825 90.1038C41.4813 91.0738 41.42 91.755 41.41 92.075C41.9266 92.4784 42.4736 92.8412 43.0463 93.16C44.4288 93.8663 46.635 94.6025 49.91 94.6038H50.1338C55.3513 94.5963 57.8838 92.7413 58.6338 92.0725C58.6238 91.7613 58.5488 91.0813 58.4225 90.0975C78.0275 86.1825 92.7963 68.885 92.7988 48.125Z" fill="#2C5234"/>
<path d="M81.75 23.5163C81.1 18.0163 78.5 13.5325 77.3438 11.7663L77.4213 11.9138C77.5625 12.1775 79.4875 15.8913 80 21.4388C80.0375 21.8421 80.0671 22.2554 80.0888 22.6788C80.0888 22.7025 80.0888 22.725 80.0888 22.7488C80.1096 23.1879 80.1204 23.6367 80.1213 24.095V24.125C80.5863 24.7075 81.0313 25.305 81.4638 25.9113C84.6574 30.4372 86.8394 35.5976 87.8613 41.0419C88.8832 46.4861 88.7212 52.0865 87.3863 57.4625L62.8188 33.2713C61.9471 33.0829 61.0225 32.9083 60.045 32.7475L86.92 59.1913C86.1674 61.7079 85.1575 64.1404 83.9063 66.45L56.8213 39.3675C56.75 40.5 56.6875 41.75 56.6563 43.0913L82.4588 68.8938C81.1429 70.9434 79.6362 72.864 77.9588 74.63L56.6975 53.365C56.7075 54.0933 56.7183 54.8433 56.73 55.615L76.8613 75.75C72.2475 80.2466 66.5789 83.513 60.375 85.25C60.0188 85.35 59.6588 85.4438 59.2975 85.5338L59.0288 85.5988C58.6538 85.6875 58.2888 85.7725 57.915 85.8488C57.915 85.8738 57.915 85.8975 57.9213 85.9225C57.9638 86.4225 58.0063 86.915 58.0463 87.3863C58.0463 87.4238 58.0563 87.46 58.0625 87.4963C58.2825 89.045 58.4463 90.2725 58.5413 91.095C59.0827 89.7815 59.5444 88.4366 59.9238 87.0675C77.3113 82.645 90.1738 66.8913 90.1738 48.1288C90.1866 39.2152 87.2218 30.5527 81.75 23.5163ZM43.375 39.4138L16.1463 66.575C14.8549 64.2113 13.8166 61.7179 13.0488 59.1363L39.5925 32.8138C38.61 32.98 37.6838 33.165 36.8113 33.3613L12.5738 57.395C11.2524 52.0325 11.097 46.449 12.118 41.0213C13.1391 35.5936 15.3128 30.4482 18.4925 25.9325C18.9213 25.3288 19.3675 24.735 19.8238 24.1563V24.1175C19.815 23.2638 19.845 22.3825 19.9188 21.4775C20.1753 18.2375 21.011 15.0699 22.3863 12.125C21.1438 14.0938 18.8113 18.375 18.205 23.5413C12.7501 30.574 9.79561 39.2247 9.80876 48.125C9.80876 66.8813 22.6563 82.6313 40.03 87.0613C40.4227 88.4784 40.9041 89.8695 41.4713 91.2263C41.57 90.1413 41.78 88.2688 42.0663 85.845C41.6913 85.7675 41.3163 85.6813 40.9413 85.595L40.6725 85.53C40.31 85.44 39.95 85.3463 39.5913 85.2463C33.5094 83.5407 27.9404 80.3653 23.375 76L43.4575 55.75C43.47 54.9738 43.4813 54.2175 43.4913 53.4863L22.2638 74.89C20.5221 73.0871 18.9593 71.1196 17.5975 69.015L43.5338 43.14C43.5 41.7975 43.445 40.5488 43.375 39.4138ZM65.7288 12.93H65.7363C66.3971 12.7933 67.0546 12.6483 67.7088 12.495L67.9163 12.4463L68.3088 12.355C68.3054 12.3555 68.3021 12.3555 68.2988 12.355C70.2338 11.885 72.1458 11.34 74.035 10.72L66.48 11.4838C61.2914 9.15248 55.6676 7.94765 49.9793 7.94873C44.2911 7.94981 38.6677 9.15677 33.48 11.49L25.855 10.72C26.2375 10.8613 28.3025 11.595 31.6288 12.3825H31.6363L31.7525 12.41L32.3713 12.5525L32.5713 12.5963C32.7713 12.6413 32.975 12.6863 33.1825 12.73L33.355 12.7675C33.62 12.8238 33.89 12.8788 34.1663 12.935L34.2425 12.9513C39.1936 10.7416 44.5543 9.59847 49.9762 9.59632C55.398 9.59416 60.7596 10.733 65.7125 12.9388L65.7288 12.93Z" fill="#C99700"/>
<path d="M75.0563 13.1C48.0563 22.1087 24.72 13.1 24.72 13.1C19.4363 24.29 24.7063 35.035 24.7063 35.035C24.7063 35.035 33.1063 29.2775 49.965 29.2775C66.8238 29.2775 75.0563 35.0275 75.0563 35.0275C80.4338 23.1925 75.0563 13.1 75.0563 13.1ZM55.625 90.31C54.2013 78.48 53.92 52.4025 53.92 45.0225C53.9263 40.6702 54.2606 36.3245 54.92 32.0225C53.365 31.8975 51.725 31.825 49.9963 31.825C48.2938 31.825 46.6788 31.8925 45.1425 32.0137C45.7968 36.3189 46.131 40.6666 46.1425 45.0212C46.1425 52.3962 45.8625 78.4787 44.4363 90.3087C44.4363 90.3087 45.7925 91.7187 50.0225 91.7187H50.0475C54.2763 91.7187 55.6325 90.3112 55.6325 90.3112L55.625 90.31Z" fill="white"/>
</svg>
