<svg width="100" height="100" viewBox="0 0 100 100" fill="none" xmlns="http://www.w3.org/2000/svg">
<path d="M58.1762 69.57C58.1542 67.9123 57.6313 66.3001 56.6762 64.945L53.3425 64.985L52.35 61.7988C50.766 61.3155 49.0739 61.3155 47.49 61.7988L46.5 64.9875L43.165 64.9475C42.2104 66.3028 41.6875 67.9149 41.665 69.5725L44.3825 71.5L43.3137 74.6575C44.3104 75.9818 45.6817 76.9764 47.25 77.5125L49.925 75.52L52.6 77.5125C54.1667 76.9746 55.5361 75.9793 56.5312 74.655L55.4562 71.5L58.1762 69.57ZM56.315 65.395C57.1204 66.5873 57.5744 67.9821 57.625 69.42L55.6437 70.8225L56.5787 67.535L53.8912 65.425L56.315 65.395ZM47.805 62.285C49.1874 61.8933 50.6514 61.8933 52.0337 62.285L52.7562 64.6038L49.9187 62.7L47.0812 64.6038L47.805 62.285ZM44.1987 70.8225L42.2175 69.42C42.267 67.9824 42.7197 66.5877 43.5237 65.395L45.9525 65.425L43.265 67.535L44.1987 70.8225ZM47.2725 76.9375C45.9227 76.4424 44.7379 75.5805 43.8512 74.4488L44.63 72.1488L45.8062 75.3575L49.2212 75.4825L47.2725 76.9375ZM49.9187 75L49.4875 72.9575L46.9487 71.1125L44.875 71.335L46.6825 70.295L47.6525 67.3125L46.8025 65.4075L48.35 66.805H51.4875L53.0362 65.4075L52.1862 67.3125L53.155 70.295L54.9625 71.335L52.8887 71.115L50.35 72.96L49.9187 75ZM55.9862 74.4463C55.0999 75.5783 53.9149 76.4403 52.565 76.935L50.6175 75.4825L54.0312 75.3575L55.2087 72.1488L55.9862 74.4463Z" fill="white"/>
<path d="M47.5075 70.8962L49.2363 68.5887L51.7625 67.6512H48.5188L47.5075 70.8962Z" fill="white"/>
<path d="M12.8237 0V38.1538C12.8237 80.9762 49.9187 100 49.9187 100C49.9187 100 87.0137 80.9762 87.0137 38.1538V0H12.8237ZM85.6125 38.1538C85.6125 76.5137 54.7787 95.5725 49.9187 98.345C45.0587 95.5725 14.2275 76.5137 14.2275 38.1538V1.40375H85.6125V38.1538Z" fill="#DAA900"/>
<path d="M49.9188 95.0325C57.2938 90.58 82.8063 72.8 82.8063 38.1575V4.20874H17.0338V38.1537C17.0338 72.8 42.545 90.58 49.9188 95.0325ZM18.435 5.61124H81.4037V38.1537C81.4037 71.0137 57.9038 88.3775 49.9188 93.3762C41.935 88.3762 18.435 71.0137 18.435 38.1537V5.61124Z" fill="#DAA900"/>
<path d="M65.1937 25.1413C69.1009 28.8058 71.6779 33.666 72.5187 38.9563C71.8407 33.4958 69.3673 28.4155 65.4875 24.5138L65.1937 25.1413Z" fill="#DAA900"/>
<path d="M40.625 65.5113C36.5716 64.0336 32.987 61.499 30.2426 58.1701C27.4982 54.8412 25.6938 50.8391 25.0163 46.5783C24.3388 42.3175 24.8128 37.953 26.3893 33.937C27.9658 29.921 30.5874 26.3996 33.9825 23.7375L33.2187 22.0975C29.5539 24.8322 26.7133 28.5235 25.0086 32.7665C23.3039 37.0095 22.8011 41.6402 23.5553 46.1502C24.3095 50.6602 26.2916 54.8753 29.284 58.3328C32.2765 61.7903 36.1636 64.3566 40.5187 65.75C40.5525 65.6663 40.5887 65.5913 40.625 65.5113Z" fill="#DAA900"/>
<path d="M57.2337 42.59C55.5854 41.1075 53.7662 40.2396 51.7762 39.9863C51.7762 39.9863 60.6812 39.3038 60.6812 34.1313C60.6812 31.6438 57.57 28.28 47.875 28.28H36.485C36.485 28.28 38 29.125 38 29.8463V40.875C39.41 41.565 41.335 42.2025 43.25 42.9788V40.8438H46.375C48.0337 40.8438 48.9825 41.2188 49.8475 41.9425L58.9312 50.4C60.2025 51.4888 62.725 52.8138 64.92 52.8138C67.74 52.8138 68.8662 51.8725 68.8662 51.8725C68.8662 51.8725 67.0475 51.7588 65.665 50.575L57.2337 42.59ZM47.0337 39.465H43.25V29.71H47.0362C51.7987 29.71 54.9787 31.3425 54.9787 34.585C54.9762 37.225 51.675 39.4675 47.0337 39.4675V39.465Z" fill="#DAA900"/>
<path d="M38 46.7175V50.3863C38 51.23 36.6437 51.9463 36.6437 51.9463H44.6825C44.6825 51.9463 43.25 51.23 43.25 50.3863V49.1438C42.0087 48.2613 40.0337 47.54 38 46.7175Z" fill="#DAA900"/>
<path d="M32.425 16.5C33.025 17.92 33.28 18.4175 33.28 18.4175L32.7963 20.19L34.6713 21.015L35.835 23.5238C35.835 23.5238 41.3163 21.0538 49.9138 21.0538C58.5113 21.0538 64 23.5175 64 23.5175L65.1638 21.0088L67.0388 20.1838L66.555 18.4113C66.555 18.4113 66.805 17.9113 67.4088 16.4938C68.0125 15.0763 70.9213 13.5438 70.9213 13.5438C68.4625 11.015 66.4213 16.0725 63.8275 13.615C62.9325 14.9525 64.81 16.565 64.81 16.565C64.6086 17.0032 64.3035 17.3856 63.921 17.6792C63.5386 17.9728 63.0903 18.1687 62.615 18.25C60.6413 18.5825 58.58 18.4588 58.1825 14.8238C58.1825 14.8238 56.8438 18.4988 53.7513 17.6988C51.7363 17.1763 50.9313 15.5738 50.6475 14.7575C52.6475 14.515 54.1788 13.2913 54.1788 11.82H51.2613C51.1488 10.32 49.9188 9.0813 49.9188 9.0813C49.9188 9.0813 48.6888 10.3175 48.5763 11.82H45.6588C45.6588 13.2913 47.185 14.515 49.19 14.7575C48.905 15.57 48.1 17.1763 46.0863 17.6988C42.9938 18.5038 41.6563 14.8238 41.6563 14.8238C41.2575 18.4588 39.1963 18.5825 37.2238 18.25C36.7486 18.1701 36.3 17.9753 35.9171 17.6828C35.5342 17.3903 35.2284 17.0087 35.0263 16.5713C35.0263 16.5713 36.9013 14.9588 36.0075 13.6213C33.4113 16.0788 31.3738 11.0213 28.9138 13.55C28.9138 13.5438 31.8275 15.075 32.425 16.5Z" fill="#DAA900"/>
<path d="M63.875 26.72C63.9412 26.5872 63.9763 26.441 63.9775 26.2925C63.9775 24.32 57.6812 22.7225 49.9187 22.7225C42.1562 22.7225 35.86 24.32 35.86 26.2925C35.8614 26.4408 35.896 26.5869 35.9612 26.72C38.9537 25.1363 44.0862 24.095 49.9187 24.095C55.7512 24.095 60.885 25.1363 63.875 26.72Z" fill="#DAA900"/>
<path d="M43.265 67.535L45.9525 65.425L43.5237 65.395C42.7197 66.5877 42.267 67.9824 42.2175 69.42L44.1987 70.8225L43.265 67.535Z" fill="#DAA900"/>
<path d="M52.0337 62.285C50.6514 61.8933 49.1874 61.8933 47.805 62.285L47.0812 64.6037L49.9187 62.7L52.7562 64.6037L52.0337 62.285Z" fill="#DAA900"/>
<path d="M53.8862 65.425L56.5737 67.535L55.6387 70.8225L57.625 69.42C57.5758 67.9826 57.1236 66.5878 56.32 65.395L53.8862 65.425Z" fill="#DAA900"/>
<path d="M44.625 72.1488L43.8463 74.4488C44.7329 75.5805 45.9177 76.4424 47.2675 76.9376L49.2163 75.4851L45.8013 75.3601L44.625 72.1488Z" fill="#DAA900"/>
<path d="M54.0312 75.3575L50.6175 75.4825L52.565 76.935C53.9149 76.4402 55.0999 75.5783 55.9862 74.4462L55.2087 72.1462L54.0312 75.3575Z" fill="#DAA900"/>
<path d="M14.2275 1.40125V38.1512C14.2275 76.5112 45.0587 95.57 49.9187 98.3425C54.7787 95.5725 85.6125 76.5137 85.6125 38.1537V1.40375L14.2275 1.40125ZM82.8062 38.1512C82.8062 72.7975 57.2925 90.5775 49.9187 95.0262C42.5437 90.5737 17.0337 72.7937 17.0337 38.1512V4.20875H82.8062V38.1512Z" fill="#A32035"/>
<path d="M75.2775 42.5713C75.2816 47.6948 73.8211 52.7127 71.068 57.0338C68.315 61.3548 64.3841 64.7988 59.7387 66.96C59.8825 67.4748 59.9849 68.0002 60.045 68.5312C64.3577 66.6825 68.1225 63.7554 70.9773 60.0314C73.8321 56.3075 75.6811 51.9118 76.3464 47.2668C77.0118 42.6219 76.4712 37.8839 74.7766 33.5083C73.082 29.1326 70.2903 25.2664 66.67 22.2812L66.2625 22.4575C69.1031 24.9811 71.3756 28.079 72.9297 31.5464C74.4838 35.0137 75.284 38.7715 75.2775 42.5713Z" fill="#A32035"/>
<path d="M39.7588 68.9013C39.7813 68.5938 39.8188 68.2913 39.8688 67.9913C33.5752 65.8172 28.3127 61.3841 25.1013 55.5513C28.1426 61.68 33.3733 66.4441 39.7588 68.9013Z" fill="#A32035"/>
<path d="M50.76 35.5812V38.0087C52.885 37.2512 54.11 35.8837 54.11 34.5887C54.1092 34.4214 54.0966 34.2543 54.0725 34.0887H49.5C49.5 34.0887 50.76 34.4087 50.76 35.5812Z" fill="#A32035"/>
<path d="M50.76 43.975V55.16C50.76 56.3325 49.5025 56.66 49.5025 56.66H64.3613C70.3175 56.66 68.2713 53.16 68.2713 53.16C68.2713 53.16 67.1075 55.195 63.58 55.195H55.1863V48.095L50.76 43.975Z" fill="#A32035"/>
<path d="M46.2762 38.7175C46.2762 38.7175 47.8087 37.9563 47.8087 36.565C47.8087 35.2138 46.1212 34.4813 44.1137 34.1138V35.8075C45.5087 36.445 46.1875 37.4825 46.2762 38.7175Z" fill="#A32035"/>
<path d="M30.89 53.1512C30.89 55.1512 34.6875 56.9462 40.0325 56.9462C46.7462 56.9462 49.54 53.4674 49.54 50.1799C49.54 43.1349 34.945 43.2787 34.945 38.6437C34.945 37.4337 35.8625 36.4462 37.1337 35.8274V34.1637C34.1337 34.8649 31.2587 36.6049 31.2587 39.6724C31.2587 46.2012 45.4037 45.9849 45.4037 51.1249C45.4037 53.7687 43.5562 55.5712 40.0287 55.5712C36.0287 55.5712 32.6425 53.4899 33.4812 50.3787C33.485 50.3749 30.89 50.9812 30.89 53.1512Z" fill="#A32035"/>
<path d="M41.7325 70.4738C41.6249 71.649 41.9781 72.8201 42.7175 73.74L43.0262 72.7888C43.0262 72.7888 41.9087 71.7775 41.7325 70.4738Z" fill="#A32035"/>
<path d="M48.125 77.7237C49.2096 78.1877 50.4317 78.2137 51.535 77.7962L50.7275 77.2087C50.7275 77.2087 49.4212 77.9587 48.125 77.7237Z" fill="#A32035"/>
<path d="M57.3138 71.25C57.3138 71.25 57.625 72.7238 57 73.8813C57.7782 72.9938 58.1815 71.839 58.125 70.66L57.3138 71.25Z" fill="#A32035"/>
<path d="M53.375 62.1949L53.6838 63.1424C53.6838 63.1424 55.1837 63.3062 56.0925 64.2574C55.4884 63.2435 54.514 62.504 53.375 62.1949Z" fill="#A32035"/>
<path d="M46.6512 62.1512C45.5006 62.4127 44.4964 63.1104 43.85 64.0975H44.85C44.85 64.0975 45.4662 62.7212 46.6512 62.1512Z" fill="#A32035"/>
<path d="M52.1862 67.3125L53.0363 65.4075L51.4875 66.805H48.35L46.8025 65.4075L47.6525 67.3125L46.6825 70.295L44.875 71.335L46.9487 71.115L49.4875 72.96L49.9188 75L50.35 72.9575L52.8887 71.1125L54.9625 71.3325L53.155 70.2925L52.1862 67.3125ZM49.2363 68.5887L47.5075 70.8962L48.5187 67.6462H51.7687L49.2363 68.5887Z" fill="#A32035"/>
<path d="M18.435 5.61121V38.1537C18.435 71.0137 41.935 88.3775 49.9187 93.3762C57.9025 88.3762 81.4037 71.0137 81.4037 38.1537V5.61121H18.435ZM42.7175 73.7362C41.9781 72.8163 41.6249 71.6452 41.7325 70.47C41.9087 71.7737 43.0262 72.785 43.0262 72.785L42.7175 73.7362ZM48.125 77.7237C49.4187 77.9587 50.7275 77.2087 50.7275 77.2087L51.535 77.7962C50.4317 78.2137 49.2096 78.1877 48.125 77.7237ZM57.3138 71.25L58.1212 70.6637C58.1778 71.8427 57.7744 72.9975 56.9962 73.885C57.625 72.7237 57.3138 71.25 57.3138 71.25ZM55.4562 71.5L56.525 74.6575C55.5299 75.9817 54.1605 76.9771 52.5938 77.515L49.9187 75.5225L47.25 77.5125C45.6836 76.9746 44.3146 75.9792 43.32 74.655L44.3825 71.5L41.6612 69.5725C41.6838 67.9149 42.2067 66.3028 43.1612 64.9475L46.4962 64.9875L47.4875 61.8012C49.0714 61.3179 50.7635 61.3179 52.3475 61.8012L53.34 64.9875L56.6738 64.9475C57.6288 66.3025 58.1517 67.9148 58.1738 69.5725L55.4562 71.5ZM40.0325 55.5712C43.5612 55.5712 45.4075 53.7687 45.4075 51.125C45.4075 45.985 31.2625 46.2012 31.2625 39.6725C31.2625 36.605 34.1312 34.865 37.1375 34.1637V35.8275C35.8662 36.4462 34.9487 37.4337 34.9487 38.6437C34.9487 43.2787 49.5437 43.135 49.5437 50.18C49.5437 53.4675 46.75 56.9462 40.0362 56.9462C34.6912 56.9462 30.8937 55.145 30.8937 53.1512C30.8937 50.9812 33.4887 50.3787 33.4887 50.3787C32.6462 53.49 36.035 55.5712 40.0325 55.5712ZM44.6837 51.9462H36.645C36.645 51.9462 38 51.23 38 50.3862V46.7175C40.0325 47.54 42.0075 48.2612 43.25 49.1437V50.3862C43.25 51.23 44.6837 51.9462 44.6837 51.9462ZM63.875 26.72C60.885 25.1362 55.75 24.095 49.9187 24.095C44.0875 24.095 38.9537 25.14 35.9612 26.72C35.896 26.5868 35.8614 26.4407 35.86 26.2925C35.86 24.32 42.1562 22.7225 49.9187 22.7225C57.6812 22.7225 63.9775 24.32 63.9775 26.2925C63.9763 26.4409 63.9412 26.5871 63.875 26.72ZM56.0863 64.2575C55.1787 63.3062 53.6775 63.1425 53.6775 63.1425L53.375 62.195C54.5117 62.5054 55.4837 63.2448 56.0863 64.2575ZM46.6512 62.1512C45.4662 62.7212 44.8475 64.0975 44.8475 64.0975H43.8475C44.4945 63.1099 45.4997 62.4121 46.6512 62.1512ZM49.5025 56.6512C49.5025 56.6512 50.76 56.3287 50.76 55.1512V43.975L55.1862 48.1V55.1975H63.58C67.1075 55.1975 68.2712 53.1625 68.2712 53.1625C68.2712 53.1625 70.3175 56.6625 64.3613 56.6625L49.5025 56.6512ZM64.9187 52.81C62.7237 52.81 60.2013 51.485 58.93 50.3962L49.8462 41.9387C48.9812 41.2125 48.0325 40.835 46.3737 40.84H43.25V42.98C41.3387 42.2037 39.4137 41.5662 38 40.8762V29.8462C38 29.1262 36.4837 28.28 36.4837 28.28H47.875C57.57 28.28 60.6813 31.6437 60.6813 34.1312C60.6813 39.3037 51.7762 39.9862 51.7762 39.9862C53.7662 40.2412 55.5854 41.1091 57.2337 42.59L65.6637 50.575C67.0462 51.7587 68.865 51.8725 68.865 51.8725C68.865 51.8725 67.7387 52.8137 64.9187 52.8137V52.81ZM65.1937 25.1375L65.4875 24.5125C69.3674 28.4141 71.8407 33.4945 72.5188 38.955C71.6777 33.6651 69.1007 28.8053 65.1937 25.1412V25.1375ZM65.1612 21.005L64 23.5175C64 23.5175 58.5187 21.0475 49.9212 21.0475C41.3237 21.0475 35.8425 23.5175 35.8425 23.5175L34.6787 21.0087L32.8037 20.1837L33.2875 18.4112C33.2875 18.4112 33.0375 17.9112 32.4325 16.4937C31.8275 15.0762 28.9212 13.5437 28.9212 13.5437C31.3812 11.015 33.4212 16.0725 36.015 13.615C36.9112 14.9525 35.0337 16.565 35.0337 16.565C35.2344 17.0026 35.5387 17.3848 35.9203 17.6784C36.3019 17.972 36.7493 18.1682 37.2237 18.25C39.1962 18.5825 41.2575 18.4587 41.6562 14.8237C41.6562 14.8237 42.9937 18.4987 46.0862 17.6987C48.1 17.1762 48.905 15.5737 49.19 14.7575C47.19 14.515 45.6587 13.2912 45.6587 11.82H48.5762C48.6887 10.32 49.9187 9.08121 49.9187 9.08121C49.9187 9.08121 51.1487 10.3175 51.2612 11.82H54.1787C54.1787 13.2912 52.6525 14.515 50.6475 14.7575C50.9312 15.57 51.7363 17.1762 53.7513 17.6987C56.8438 18.5037 58.1825 14.8237 58.1825 14.8237C58.58 18.4587 60.6412 18.5825 62.615 18.25C63.0901 18.1697 63.5385 17.9748 63.9213 17.6823C64.3042 17.3898 64.6101 17.0085 64.8125 16.5712C64.8125 16.5712 62.9375 14.9587 63.83 13.6212C66.4263 16.0787 68.465 11.0212 70.9238 13.55C70.9238 13.55 68.01 15.0812 67.4112 16.5C66.8125 17.9187 66.5575 18.4175 66.5575 18.4175L67.0413 20.19L65.1612 21.005ZM33.2187 22.0937L33.9825 23.7337C30.5864 26.3956 27.964 29.9172 26.3869 33.9337C24.8098 37.9501 24.3354 42.3152 25.013 46.5767C25.6905 50.8381 27.4953 54.8408 30.2404 58.1701C32.9854 61.4993 36.5708 64.0339 40.625 65.5112C40.5912 65.5912 40.555 65.6662 40.5212 65.7437C36.1675 64.3495 32.2819 61.7832 29.2906 58.3262C26.2993 54.8692 24.3179 50.6552 23.5638 46.1463C22.8096 41.6374 23.3119 37.008 25.0155 32.7658C26.7191 28.5235 29.5581 24.8325 33.2212 22.0975L33.2187 22.0937ZM25.1012 55.5512C28.3142 61.3853 33.5791 65.8184 39.875 67.9912C39.825 68.2912 39.7875 68.5937 39.765 68.9012C33.3772 66.4454 28.1441 61.6811 25.1012 55.5512ZM60.045 68.5312C59.9849 68.0001 59.8825 67.4747 59.7387 66.96C63.7797 65.0749 67.2892 62.2155 69.9518 58.6387C72.6145 55.062 74.3469 50.8798 74.9936 46.4679C75.6403 42.056 75.1809 37.5526 73.6567 33.3621C72.1325 29.1716 69.5913 25.4254 66.2613 22.46L66.6687 22.2837C70.2891 25.2689 73.0808 29.1351 74.7754 33.5107C76.47 37.8864 77.0106 42.6244 76.3452 47.2693C75.6799 51.9142 73.8309 56.3099 70.9761 60.0339C68.1213 63.7579 64.3565 66.6849 60.0437 68.5337L60.045 68.5312Z" fill="#001E61"/>
<path d="M54.9762 34.5887C54.9762 31.3387 51.7962 29.7137 47.0337 29.7137H43.25V39.4712H47.0363C51.675 39.4675 54.9762 37.225 54.9762 34.5887ZM46.2762 38.7137C46.1875 37.4787 45.5088 36.4412 44.1138 35.8037V34.1137C46.1213 34.4812 47.8088 35.2137 47.8088 36.565C47.8088 37.9562 46.2762 38.7175 46.2762 38.7175V38.7137ZM50.76 38.005V35.5812C50.76 34.4087 49.5025 34.0875 49.5025 34.0875H54.0725C54.0966 34.2531 54.1092 34.4202 54.11 34.5875C54.11 35.8862 52.8862 37.25 50.76 38.0087V38.005Z" fill="#001E61"/>
</svg>
