<svg width="100" height="100" viewBox="0 0 100 100" fill="none" xmlns="http://www.w3.org/2000/svg">
<path d="M86.6113 6.69247C86.44 6.63997 82.375 5.37497 75.8438 4.11622C72.0225 3.37497 68.125 2.78747 64.2588 2.36372C59.5378 1.83704 54.7915 1.56831 50.0413 1.55872H49.9638C45.2147 1.56859 40.4698 1.83732 35.75 2.36372C31.8863 2.78747 27.9888 3.37747 24.165 4.11372C17.6313 5.37497 13.5625 6.63997 13.395 6.69122L11.395 7.31622C11.395 10.7762 11.395 50.7937 11.395 51.2025C11.4953 53.3446 11.7207 55.4791 12.07 57.595C12.3995 59.5743 12.8461 61.5323 13.4075 63.4587C14.4431 67.0023 15.8861 70.4138 17.7075 73.625C20.7775 79.0437 24.9338 83.9037 30.0613 88.0725C32.1371 89.7563 34.325 91.297 36.61 92.6837C38.4987 93.8318 40.4492 94.875 42.4525 95.8087C45.6375 97.2875 48.4363 98.225 49.555 98.3837L50.005 98.44L50.4488 98.3837C51.5663 98.225 54.3688 97.2875 57.5525 95.8087C59.5554 94.8757 61.505 93.8324 63.3925 92.6837C65.6788 91.2977 67.8676 89.757 69.9438 88.0725C75.0688 83.9037 79.225 79.0437 82.2963 73.625C84.1136 70.4127 85.554 67.0014 86.5888 63.4587C87.1489 61.5321 87.5947 59.5741 87.9238 57.595C88.2736 55.4771 88.499 53.3405 88.5988 51.1962V7.31247L86.6113 6.69247Z" fill="black"/>
<path d="M22.1063 70.5875C24.795 75.36 28.4425 79.6537 32.9463 83.3512C41.0413 90.0012 48.9375 92.3875 49.8475 92.5137L49.995 92.54L50.14 92.5137C51.0525 92.3887 58.9488 90.0037 67.045 83.3512C71.545 79.6537 75.1963 75.36 77.885 70.5875C81.2063 64.695 83.0613 58.0662 83.4038 50.885C83.425 50.4075 83.4038 11.4662 83.4038 11.4662L82.885 11.3037C82.7375 11.2587 67.9675 6.71123 50.03 6.69873H49.9588C32.0238 6.71123 17.25 11.2587 17.1038 11.3037L16.5863 11.4662C16.5863 11.4662 16.565 50.4075 16.5863 50.8862C16.9275 58.0662 18.7838 64.695 22.1063 70.5875ZM17.325 12.0075C17.325 12.0075 31.93 7.44748 49.9588 7.43623H50.03C68.06 7.44748 82.6663 12.0075 82.6663 12.0075C82.6663 12.8325 82.7025 50.055 82.6663 50.8512C81.6325 72.7187 66.7175 84 57.375 88.8225L49.4475 74.4562C49.1525 74.4462 48.8625 74.43 48.5725 74.4037C45.9635 74.1722 43.4512 73.3034 41.2564 71.8737C39.0617 70.4439 37.2517 68.4971 35.9855 66.2041C34.7193 63.9112 34.0356 61.3423 33.9946 58.7233C33.9535 56.1043 34.5563 53.5153 35.75 51.1837C35.8075 51.07 35.8675 50.9587 35.9275 50.8462C35.9438 50.8175 36.1025 50.53 36.1775 50.415L25.9838 31.96H25.1425L35.3313 50.415C33.9689 52.8815 33.2554 55.6535 33.2575 58.4712C33.2575 67.3662 40.2325 74.6537 48.9975 75.1712L56.7188 89.1587C53.2075 90.9087 50.6025 91.7062 50.0375 91.7837H49.995H49.9513C47.8925 91.49 18.7838 81.7112 17.3263 50.85C17.285 50.055 17.325 12.8325 17.325 12.0075Z" fill="#003DA6"/>
<path d="M72.7937 31.96H64.935L68.7113 39.4012L72.7937 31.96Z" fill="#003DA6"/>
<path d="M32.02 31.9599L42.1863 50.3824C43.9136 48.7151 46.13 47.6457 48.51 47.3312L40.21 31.9562L32.02 31.9599Z" fill="#003DA6"/>
<path d="M60.47 54.3725L60.4838 54.395L64.5975 46.8975L56.825 31.96H48.57L59.2738 52.12L60.47 54.3725Z" fill="#003DA6"/>
<path d="M68.71 39.4025L64.5975 46.9025H78.75C78.75 45.1937 78.75 42.7775 78.75 39.4025H68.71Z" fill="#003DA6"/>
<path d="M60.4838 54.4C61.4164 56.7995 61.5019 59.4454 60.7263 61.9H76.71C77.5187 59.4606 78.0909 56.949 78.4188 54.4H60.4838Z" fill="#003DA6"/>
<path d="M56.7562 76.8925H67.2562C69.5253 74.6405 71.5135 72.1222 73.1775 69.3925H52.625L56.7562 76.8925Z" fill="#003DA6"/>
<path d="M31.9425 85.6125C40.4425 92.5162 49.0375 94.945 49.9637 95.0775H50H50.0312C50.995 94.9325 59.5812 92.5012 68.0525 85.615C75.595 79.4812 84.765 68.49 85.5963 50.9437C85.6138 50.595 85.5963 9.45249 85.5963 9.45249C84.3463 9.07749 68.7925 4.49749 50.0375 4.48499H49.9613C31.2113 4.49749 15.6562 9.07374 14.4037 9.45249C14.4037 9.45249 14.3912 50.6912 14.4037 50.9437C15.2275 68.4862 24.3962 79.4787 31.9425 85.6125ZM16.5862 11.4662L17.1037 11.3037C17.2512 11.2587 32.0238 6.71124 49.9588 6.69874H50.03C67.9675 6.71124 82.7375 11.2587 82.885 11.3037L83.4037 11.4662C83.4037 11.4662 83.425 50.4075 83.4037 50.885C83.0612 58.0662 81.2063 64.695 77.885 70.5875C75.1963 75.36 71.5462 79.6537 67.045 83.3512C65.3456 84.746 63.5609 86.0335 61.7012 87.2062L51.925 69.5125C51.8 69.535 51.675 69.5512 51.55 69.5725C51.0326 69.6441 50.511 69.6809 49.9888 69.6825C47.8469 69.6831 45.7497 69.0699 43.9456 67.9155C42.1415 66.7611 40.706 65.1138 39.8091 63.1688C38.9122 61.2237 38.5915 59.0624 38.885 56.9408C39.1785 54.8191 40.0738 52.826 41.465 51.1975C41.5325 51.1187 41.6 51.0362 41.6712 50.9562L31.1812 31.96H28.76L39.135 50.7487C37.7122 52.7409 36.8663 55.0869 36.6902 57.5286C36.5142 59.9703 37.0147 62.4134 38.1369 64.5891C39.2591 66.7649 40.9594 68.5891 43.051 69.8612C45.1426 71.1334 47.5444 71.8042 49.9925 71.8C50.25 71.8 50.5042 71.7929 50.755 71.7787L59.88 88.3025C54.7763 91.2462 50.7675 92.4275 50.13 92.5137L49.985 92.54L49.8375 92.5137C48.9275 92.3887 41.0312 90.0012 32.9362 83.3512C28.4362 79.6537 24.785 75.36 22.0962 70.5875C18.7737 64.695 16.9175 58.0662 16.5762 50.8862C16.565 50.4075 16.5862 11.4662 16.5862 11.4662Z" fill="white"/>
<path d="M44.4725 27.75H45.3475V29.42C45.3565 29.5205 45.345 29.6218 45.3139 29.7179C45.2827 29.8139 45.2325 29.9026 45.1663 29.9788C44.9775 30.1688 44.7213 30.18 44.475 30.185H43.975V29.6112H44.1713C44.3575 29.6025 44.4663 29.5962 44.475 29.3612L44.4725 27.75Z" fill="white"/>
<path d="M48.1075 27.8062C48.3362 27.8989 48.5312 28.0591 48.6666 28.2654C48.8019 28.4718 48.8711 28.7145 48.865 28.9612C48.8671 29.1942 48.8052 29.4233 48.6862 29.6237C48.6127 29.7505 48.515 29.8618 48.3987 29.9512C48.0675 30.2149 47.675 30.2749 47.2337 30.2749C46.3837 30.2749 46.0362 29.9762 45.8587 29.7299C45.6999 29.5203 45.6174 29.2628 45.625 28.9999C45.6203 28.7284 45.6997 28.462 45.8525 28.2374C46.1937 27.7537 46.7712 27.6749 47.2037 27.6674C47.5122 27.6565 47.8198 27.7048 48.11 27.8099M46.5237 28.9737C46.5237 29.3487 46.7275 29.7387 47.255 29.7387C47.3764 29.7442 47.4974 29.7202 47.6075 29.6687C47.8762 29.5349 47.97 29.2174 47.97 28.9737C47.97 28.7062 47.8512 28.2149 47.255 28.2112C46.7062 28.2024 46.5237 28.6374 46.5237 28.9737Z" fill="white"/>
<path d="M49.9837 28.3825C49.9835 28.4134 49.9931 28.4436 50.0112 28.4687C50.07 28.5437 50.315 28.5937 50.4487 28.6275C50.615 28.6625 50.785 28.6962 50.9487 28.735C51.0566 28.7529 51.1621 28.7822 51.2637 28.8225C51.3887 28.8589 51.4983 28.9354 51.5755 29.0402C51.6528 29.145 51.6934 29.2723 51.6912 29.4025C51.6909 29.5508 51.6475 29.6959 51.5662 29.82C51.3625 30.1275 50.9525 30.2625 50.2975 30.2625C50.0475 30.2625 49.565 30.2412 49.2787 29.9875C49.1324 29.8511 49.043 29.6645 49.0287 29.465L49.8887 29.4412C49.9175 29.6 50.0812 29.7212 50.4275 29.7212C50.5313 29.7259 50.6347 29.7053 50.7287 29.6612C50.7641 29.6438 50.7942 29.6174 50.8161 29.5848C50.838 29.5521 50.851 29.5142 50.8537 29.475C50.8514 29.4306 50.8344 29.3883 50.8054 29.3546C50.7765 29.3209 50.7372 29.2977 50.6937 29.2887C50.5862 29.255 50.0387 29.1562 49.9175 29.13C49.8225 29.11 49.7286 29.0849 49.6362 29.055C49.5003 29.0178 49.3801 28.9378 49.2933 28.8267C49.2066 28.7157 49.1581 28.5796 49.155 28.4387C49.1548 28.2605 49.2249 28.0894 49.35 27.9625C49.6237 27.6775 50.1137 27.6512 50.3825 27.6512C50.6324 27.6466 50.8817 27.6781 51.1225 27.745C51.2648 27.7802 51.3927 27.8584 51.4891 27.9689C51.5855 28.0793 51.6456 28.2167 51.6612 28.3625L50.8075 28.41C50.7862 28.3287 50.745 28.1862 50.38 28.1862C50.2637 28.1862 49.9962 28.2012 49.9962 28.3825" fill="white"/>
<path d="M54.515 27.7537V28.3024H52.8213V28.6987H54.3875V29.2512H52.8188V29.6374H54.55V30.1887H51.9488V27.7537H54.515Z" fill="white"/>
<path d="M34.8438 28.3825C34.8433 28.4137 34.8534 28.4441 34.8725 28.4688C34.93 28.5438 35.1763 28.5938 35.31 28.6275C35.4763 28.6625 35.6438 28.6963 35.81 28.735C35.9179 28.7526 36.0235 28.782 36.125 28.8225C36.25 28.859 36.3596 28.9355 36.4368 29.0403C36.514 29.1451 36.5547 29.2724 36.5525 29.4025C36.5531 29.551 36.5096 29.6963 36.4275 29.82C36.225 30.1275 35.8125 30.2625 35.1563 30.2625C34.9138 30.2625 34.4263 30.2413 34.14 29.9875C33.994 29.8509 33.9048 29.6644 33.89 29.465L34.7488 29.4413C34.7813 29.6 34.9425 29.7213 35.2863 29.7213C35.3905 29.7261 35.4943 29.7055 35.5888 29.6613C35.6243 29.6442 35.6546 29.6179 35.6766 29.5852C35.6986 29.5524 35.7114 29.5144 35.7138 29.475C35.7108 29.4305 35.6933 29.3881 35.664 29.3544C35.6346 29.3208 35.595 29.2977 35.5513 29.2888C35.4438 29.255 34.895 29.1563 34.775 29.13C34.6808 29.11 34.5878 29.085 34.4963 29.055C34.405 29.0225 34.0125 28.8825 34.0125 28.4388C34.0126 28.3502 34.0302 28.2625 34.0643 28.1808C34.0984 28.0991 34.1484 28.0249 34.2113 27.9625C34.4813 27.6775 34.9713 27.6513 35.2425 27.6513C35.4924 27.6469 35.7416 27.6785 35.9825 27.745C36.1245 27.7808 36.2522 27.8591 36.3485 27.9695C36.4448 28.0798 36.5051 28.217 36.5213 28.3625L35.6663 28.41C35.645 28.3288 35.6025 28.1863 35.2375 28.1863C35.1225 28.1863 34.8538 28.2013 34.8538 28.3825" fill="white"/>
<path d="M41.5738 27.7537L41.5925 29.0849L40.4125 27.7537H39.6888V29.7749L39.87 30.1887H40.5525L40.5388 28.8462L41.7088 30.1887H42.4325V27.7537H41.5738Z" fill="white"/>
<path d="M38.5663 27.7537H37.5738L36.525 30.1887H37.4788L38.0725 28.4287L38.3613 29.2549H38.015L37.835 29.7937H38.5438L38.6738 30.1887H39.6238L38.5663 27.7537Z" fill="white"/>
<path d="M32.1763 28.5988H21.2375V29.3325H32.1763V28.5988Z" fill="white"/>
<path d="M53.5375 15.8237H56.1625V25.8837H54.11L53.5375 24.1337V15.8237ZM62.19 15.8237H59.125L56.1988 20.66L59.36 25.8837H62.425L59.2625 20.66L62.19 15.8237Z" fill="white"/>
<path d="M50.6588 25.8825L50.2375 24.5987H47.2963L47.9863 22.5012H49.5475L48.3863 18.9325L46.1125 25.8825H43.445L46.7538 15.83H50.0338L53.3425 25.8825H50.6588Z" fill="white"/>
<path d="M39.1938 23.8925C38.6463 23.8925 38.1763 23.7187 37.875 23.4037C37.3838 22.925 37.3838 22.3112 37.3838 21.8612V15.8287H34.7213V21.5712C34.7513 22.6962 34.7813 23.8662 35.8025 24.86C36.7138 25.735 37.75 26.1225 39.1613 26.1225C40.765 26.1225 41.6413 25.6225 42.4488 24.8562C43.6875 23.6775 43.6875 22.0662 43.6875 20.7962V15.8287H41.0313V21.8612C41.0313 22.3112 41.0313 22.9287 40.5225 23.4212C40.1546 23.7398 39.6802 23.9081 39.1938 23.8925Z" fill="white"/>
<path d="M32.4463 23.7388C32.9228 23.1287 33.2872 22.4388 33.5225 21.7013C33.7391 21.0214 33.8495 20.3123 33.85 19.5988C33.8579 18.7306 33.6877 17.8699 33.35 17.07C33.0285 16.2976 32.5617 15.594 31.975 14.9975C31.3789 14.4073 30.6782 13.933 29.9088 13.5988C29.11 13.2496 28.2468 13.072 27.375 13.0775C26.5021 13.0719 25.6375 13.2464 24.835 13.59C24.0616 13.9209 23.3582 14.396 22.7625 14.99C22.1753 15.5889 21.7085 16.2951 21.3875 17.07C20.7259 18.6927 20.7259 20.5099 21.3875 22.1325C21.7082 22.9021 22.1751 23.6022 22.7625 24.1938C23.36 24.7834 24.0631 25.2554 24.835 25.585C25.6371 25.9299 26.502 26.1044 27.375 26.0975C27.8648 26.0983 28.3532 26.0451 28.8313 25.9388C29.3339 25.8226 29.8223 25.6516 30.2875 25.4288L30.31 25.4113L30.325 25.4375L30.6013 25.875H33.8L32.4688 23.7788L32.4463 23.7388ZM23.5463 19.5875C23.5425 19.0823 23.6387 18.5813 23.8295 18.1135C24.0202 17.6456 24.3016 17.2202 24.6575 16.8616C25.0134 16.503 25.4368 16.2184 25.9032 16.0242C26.3696 15.83 26.8698 15.73 27.375 15.73C28.1404 15.7275 28.8885 15.9577 29.52 16.39C29.5441 16.4045 29.5671 16.4208 29.5888 16.4388L29.6688 16.4963C30.4029 17.0591 30.9131 17.8644 31.1084 18.7686C31.3037 19.6728 31.1714 20.6169 30.735 21.4325H27.75L28.8238 23.095L28.85 23.1375L28.8263 23.1588L28.7188 23.2013L28.68 23.215L28.565 23.255L28.4975 23.2775C28.4663 23.2875 28.4325 23.295 28.3988 23.305L28.3163 23.3275L28.22 23.35L28.1325 23.37C28.0963 23.3775 28.06 23.385 28.0225 23.39C27.985 23.395 27.9738 23.3975 27.9475 23.4013C27.8997 23.4107 27.8512 23.4169 27.8025 23.42H27.7613C27.6363 23.4325 27.5 23.44 27.37 23.44C27.3025 23.44 27.2375 23.44 27.1713 23.44C26.187 23.3888 25.2605 22.9596 24.5851 22.2418C23.9097 21.524 23.5376 20.5731 23.5463 19.5875Z" fill="white"/>
<path d="M74.935 19.5237C74.1237 19.3662 73.5912 19.2025 73.5912 18.6487C73.5912 18.1837 74.0037 17.915 74.7262 17.915C74.9762 17.915 75.8275 17.9425 76.4887 18.29C76.7633 18.4416 76.9984 18.6557 77.175 18.915L78.8838 17.3537C78.5288 16.9218 78.0921 16.5641 77.5987 16.3012C76.7413 15.8708 75.7917 15.6562 74.8325 15.6762C72.9575 15.6762 71.59 16.4087 71.0625 17.6825C70.8979 18.0787 70.813 18.5034 70.8125 18.9325C70.8125 20.86 72.2175 21.4962 73.2763 21.7925C73.4088 21.825 73.7075 21.8887 74.0525 21.9612C74.69 22.095 75.4837 22.2612 75.7025 22.3462C76.2025 22.5212 76.2712 22.8625 76.2712 23.0512C76.2712 23.8237 75.1463 23.885 74.7925 23.885C74.3388 23.8841 73.8886 23.8059 73.4613 23.6537C73.1265 23.5465 72.8202 23.3653 72.565 23.1237C72.4459 23.004 72.3352 22.8762 72.2337 22.7412C72.225 22.73 72.2062 22.7 72.1762 22.6562C72.1462 22.6125 72.1087 22.5425 72.1087 22.5425L70.2337 23.7812H65.6175V21.7062H69.2025V19.6125H65.6175V17.93H69.9187V15.8287H63V25.8837H70.3337V24.3912C70.9114 25.0921 71.6847 25.6052 72.555 25.865C73.2474 26.072 73.9674 26.1715 74.69 26.16C76.2475 26.16 77.4237 25.7337 78.1837 24.895C78.7213 24.2921 79.0095 23.5074 78.99 22.7C78.985 20.2712 76.9262 19.8912 74.935 19.5237Z" fill="white"/>
<path d="M78.7575 28.5988H67.6325V29.3325H78.7575V28.5988Z" fill="#CE0E2D"/>
<path d="M56.1925 28.1112C56.4759 28.0896 56.7452 27.9784 56.9613 27.7937H57.57V30.145H56.76V28.6087H56.1925V28.1112Z" fill="#CE0E2D"/>
<path d="M59.1712 29.3524C58.5975 29.3524 58.1187 29.1249 58.1187 28.5949C58.1201 28.446 58.1657 28.3008 58.2499 28.178C58.334 28.0551 58.4529 27.96 58.5912 27.9049C58.8774 27.8018 59.1796 27.7506 59.4837 27.7537C60.2987 27.7537 60.8262 28.0899 60.8262 28.9099C60.8262 29.1712 60.7787 29.6312 60.375 29.9374C60.07 30.1649 59.6937 30.1974 59.35 30.1974C59.1228 30.2023 58.8962 30.1711 58.6787 30.1049C58.3037 29.9887 58.1787 29.7837 58.1175 29.5524L59.0237 29.5312C59.064 29.5846 59.1174 29.6266 59.1787 29.6533C59.24 29.6801 59.3072 29.6905 59.3737 29.6837C59.5168 29.6898 59.6575 29.6456 59.7712 29.5587C59.839 29.4982 59.8928 29.4238 59.9288 29.3404C59.9649 29.2571 59.9823 29.1669 59.98 29.0762C59.855 29.1799 59.6712 29.3487 59.1712 29.3487M58.9512 28.5524C58.9512 28.8374 59.3325 28.8412 59.4312 28.8412C59.775 28.8412 59.9525 28.7474 59.9525 28.5574C59.9525 28.3287 59.7587 28.2524 59.4087 28.2637C59.225 28.2699 58.9512 28.3037 58.9512 28.5524Z" fill="#CE0E2D"/>
<path d="M64.8263 27.855H65.76V29.2175H66.1675V29.765H65.75V30.1887H64.9738V29.765H63.445V29.25L64.8263 27.855ZM64.98 28.4725L64.2425 29.2225H64.98V28.4725Z" fill="#CE0E2D"/>
<path d="M63.67 28.3025C62.19 29.285 62.2387 30.1887 62.2387 30.1887H61.3137C61.3137 30.1887 61.375 28.9637 62.8675 28.3025H61.0912V27.75H63.67V28.3025Z" fill="#CE0E2D"/>
<path d="M41.4688 60.2212C40.6375 58.6187 40.3525 56.8874 40.28 56.3524C40.0545 56.3988 39.8252 56.4243 39.595 56.4287C39.4639 57.1079 39.3982 57.7981 39.3988 58.4899C39.3961 60.5634 40.0048 62.5917 41.1488 64.3212L41.5375 64.1462C41.0275 62.2024 41.2875 60.8262 41.4688 60.2212Z" fill="#A6A8AB"/>
<path d="M41.6875 64.4912L41.3213 64.5725C42.4059 66.1218 43.886 67.352 45.6075 68.135C45.5325 68.01 45.3475 67.6487 45.0838 66.8475C44.4838 66.5837 42.585 65.6825 41.6875 64.4912Z" fill="#333333"/>
<path d="M49.8625 47.8925L49.4775 49.6712C48.4387 50.1746 47.4871 50.841 46.6588 51.645C45.3765 51.6854 44.0976 51.801 42.8288 51.9912C42.7171 51.626 42.6532 51.2478 42.6388 50.8662C44.5766 48.9858 47.1625 47.9213 49.8625 47.8925ZM50.1225 47.8925L50.5088 49.6712C51.5476 50.174 52.4988 50.8404 53.3263 51.645C54.6095 51.6854 55.8892 51.801 57.1588 51.9912C57.2699 51.6258 57.3337 51.2478 57.3488 50.8662C55.4109 48.9859 52.8251 47.9215 50.125 47.8925H50.1225Z" fill="white"/>
<path d="M54.595 59.9775C54.095 61.4375 52.81 63.67 52.51 64.1837C51.6452 64.3522 50.766 64.4359 49.885 64.4337C49.0745 64.44 48.2658 64.3561 47.4737 64.1837C47.1762 63.6712 45.885 61.4338 45.39 59.9775C45.8637 59.265 47.0575 57.5613 48.3625 56.3175H51.625C52.9275 57.5613 54.125 59.265 54.595 59.9775ZM46.2262 52.5788C45.094 52.3747 43.9467 52.2647 42.7962 52.25C41.5562 53.7988 40.7025 55.6863 40.495 56.1688C40.7762 57.95 41.62 59.55 41.7825 59.8425C42.36 59.895 42.9587 59.92 43.565 59.92C44.3875 59.92 44.9862 59.8737 45.2075 59.8537C45.7963 58.3484 46.4905 56.8864 47.285 55.4787L46.2262 52.5788ZM57.2 52.25C56.0459 52.2638 54.8949 52.3729 53.7587 52.5762L52.7012 55.4725C53.4964 56.882 54.1906 58.3461 54.7787 59.8537C55 59.8737 55.5987 59.92 56.4212 59.92C57.03 59.92 57.6287 59.895 58.2062 59.8425C58.375 59.5475 59.2175 57.9462 59.4962 56.16C59.2862 55.67 58.4462 53.7988 57.2 52.25Z" fill="#C8C8C8"/>
<path d="M41.535 64.1462L41.1462 64.3212C40.0023 62.5917 39.3936 60.5634 39.3962 58.4899C39.3957 57.7981 39.4614 57.1079 39.5925 56.4287C39.8227 56.4243 40.052 56.3988 40.2775 56.3524C40.35 56.8874 40.635 58.6187 41.4662 60.2212C41.2875 60.8262 41.0275 62.2024 41.535 64.1462ZM58.455 64.1462L58.8425 64.3212C60.3718 61.9944 60.9275 59.1606 60.39 56.4287C60.1602 56.4241 59.9314 56.3986 59.7062 56.3524C59.635 56.8874 59.3487 58.6187 58.5212 60.2212C58.7013 60.8262 58.96 62.2024 58.455 64.1462Z" fill="#98989A"/>
<path d="M45.0838 66.8475C45.3475 67.6487 45.5325 68.0087 45.6075 68.135C43.886 67.352 42.4059 66.1218 41.3213 64.5725L41.6875 64.4912C42.585 65.6825 44.4838 66.5837 45.0838 66.8475ZM54.9075 66.8475C54.6438 67.6487 54.4588 68.0087 54.3825 68.135C56.1048 67.3521 57.5858 66.1219 58.6713 64.5725L58.3038 64.4912C57.4075 65.6825 55.5075 66.5837 54.9075 66.8475Z" fill="#54565A"/>
<path d="M54.375 66.6487C54.2238 66.4999 53.9913 66.2649 53.7425 65.9999C53.3184 65.5528 52.9329 65.0707 52.59 64.5587C50.8871 64.9703 49.1103 64.9673 47.4088 64.5499C46.9088 65.3174 45.9088 66.3687 45.5175 66.7549C45.5788 67.248 45.6949 67.7327 45.8638 68.1999C45.8725 68.2224 45.8825 68.2412 45.8925 68.2612C47.1833 68.8009 48.5679 69.0808 49.967 69.0849C51.3661 69.089 52.7523 68.8171 54.0463 68.2849C54.29 67.7462 54.4088 66.9099 54.4338 66.7074L54.375 66.6487Z" fill="#76777A"/>
</svg>
