<svg width="100" height="100" viewBox="0 0 100 100" fill="none" xmlns="http://www.w3.org/2000/svg">
<path d="M85.9338 13.4525C85.9269 13.4398 85.9165 13.4294 85.9038 13.4225C74.9841 7.13515 62.6004 3.83647 50 3.85875H49.975C36.9488 3.85875 24.6788 7.23375 14.1375 13.3213C14.1164 13.3396 14.0983 13.3611 14.0838 13.385C9.75627 24.0163 6.17127 41.51 11.675 56.9463C16.5063 70.5113 24.6113 79.4763 33.73 86.16C42.8488 92.8438 49.6325 96.0038 49.705 96.035C49.7959 96.0786 49.891 96.113 49.9888 96.1375C50.0852 96.1124 50.179 96.0781 50.2688 96.035C50.3438 95.9988 57.125 92.8388 66.2425 86.16C75.36 79.4813 83.4738 70.5113 88.305 56.9463C93.815 41.4925 90.2663 24.0813 85.9338 13.4525Z" fill="#888B8D"/>
<path d="M49.1988 93.8063C48.6538 93.5675 35.7488 87.8063 24.9988 76.0175C14.9563 65 5.10253 46.5313 15.1775 21.09L15.3963 20.5413L15.8963 20.2138C16.4675 19.8313 30.225 10.8538 49.9625 10.8538C69.7 10.8538 83.4525 19.8313 84.03 20.2138L84.52 20.5413L84.7388 21.09C94.8125 46.5313 84.9625 65.0025 74.9213 76.0175C64.1713 87.8113 51.2663 93.5675 50.7225 93.8063L49.9625 94.1413L49.1988 93.8063Z" fill="white"/>
<path d="M83 21.8513C82.9812 21.8106 82.9524 21.7754 82.9163 21.7488C81.9288 21.1113 68.6101 12.7488 49.9538 12.7488C31.2363 12.7488 17.8913 21.1713 16.98 21.76C16.9494 21.7836 16.9253 21.8145 16.91 21.85C-1.83995 69.3063 49.9538 92.0838 49.9538 92.0838C49.9538 92.0838 101.741 69.305 83 21.8513Z" fill="#0A2240"/>
<path d="M65.5288 43.015C65.37 43.0662 65.4788 43.2312 65.5613 43.33C65.705 43.4975 66.5613 44.56 66.7075 44.6975C66.8325 44.8225 66.8475 44.9162 67.0825 44.8887C67.3144 44.8182 67.5497 44.7594 67.7875 44.7125C68.1562 44.6474 68.5286 44.6057 68.9025 44.5875L69.1063 44.5812C69.807 44.5561 70.5083 44.6086 71.1975 44.7375C73.72 45.1587 73.9475 47.255 73.9588 47.3362V47.4012C73.9788 47.88 74.0125 48.8775 72.9588 49.6912C72.9373 49.7076 72.9214 49.7302 72.9132 49.7559C72.9049 49.7816 72.9047 49.8092 72.9125 49.835C72.9186 49.8611 72.933 49.8846 72.9535 49.9019C72.974 49.9192 72.9995 49.9295 73.0263 49.9312C73.4416 49.9738 73.8588 49.9947 74.2763 49.9937H74.625C75.6188 49.9687 76.375 49.7437 76.875 49.3037C77.375 48.8637 77.6363 48.2137 77.6163 47.3825C77.6163 47.3512 77.6075 44.3512 73.28 42.9725C71.9613 42.5512 70.5625 42.4625 69.6188 42.4625C69.2056 42.4594 68.7925 42.4782 68.3813 42.5187C67.8408 42.5556 67.3034 42.6282 66.7725 42.7362C66.3113 42.8187 65.9663 42.9 65.5288 43.015Z" fill="white"/>
<path d="M77.9313 62.8237C77.9093 62.8053 77.8818 62.7946 77.8532 62.7932C77.8245 62.7919 77.7961 62.7999 77.7725 62.8162C76.4088 63.74 74.785 64.2075 72.9425 64.2075C71.8148 64.2023 70.6935 64.0364 69.6125 63.715C69.3829 63.6513 69.1568 63.5758 68.935 63.4887C68.6081 63.3671 68.2884 63.2269 67.9775 63.0687C67.3812 62.7678 66.8142 62.4121 66.2838 62.0062C66.0763 61.8462 65.8775 61.6825 65.6913 61.5187C64.3151 60.2988 63.2312 58.7847 62.52 57.0887C61.9038 55.5475 61.52 54.235 61.5438 52.4275C61.5531 51.7404 61.6369 51.0564 61.7938 50.3875C61.7938 50.3875 61.7938 50.3875 61.7938 50.3812C61.8063 50.335 61.83 50.16 61.83 50.16C61.8388 50.1194 61.8364 50.0772 61.8232 50.0378C61.81 49.9984 61.7864 49.9634 61.755 49.9362C61.625 49.7825 59.625 47.35 59.5 47.2237C59.3925 47.12 59.32 46.9287 59.1725 46.9662C58.7676 47.5164 58.42 48.1066 58.135 48.7275C58.095 48.8187 58.05 48.9137 58.01 49.0062C57.9863 49.0575 57.965 49.1025 57.9463 49.15C57.9446 49.1578 57.9446 49.1659 57.9463 49.1737C57.3675 50.585 57.0938 52.1962 57.1413 53.965C57.1413 54.0137 57.3413 58.965 60.97 62.35C61.9309 63.2488 63.0085 64.014 64.1738 64.625C64.3975 64.74 64.6113 64.8425 64.8313 64.9437C65.732 65.3547 66.6746 65.6669 67.6425 65.875C67.9313 65.9362 68.195 65.985 68.43 66.0187C69.0293 66.1118 69.6348 66.1594 70.2413 66.1612C70.5084 66.164 70.7755 66.1519 71.0413 66.125C75.5175 65.9625 77.4988 64.0712 77.97 62.98C77.9806 62.9531 77.9826 62.9237 77.9756 62.8957C77.9687 62.8677 77.9532 62.8425 77.9313 62.8237Z" fill="white"/>
<path d="M60.5438 45.2926L63.4288 48.8663C63.4341 48.8774 63.4418 48.8872 63.4513 48.8951L63.485 48.9376C63.6175 49.1026 63.7525 49.2651 63.8825 49.4288L63.9438 49.5238C66.1438 52.6901 67.255 55.6751 67.255 58.3988C67.255 58.6276 67.2463 58.8576 67.235 59.0838L67.2188 59.2626C67.2063 59.4276 67.1875 59.5888 67.1675 59.7526V59.7888C67.1575 59.8613 67.1488 59.9313 67.1363 60.0063C67.1213 60.1126 67.1038 60.2176 67.0863 60.3213C67.0022 60.7367 66.8958 61.1473 66.7675 61.5513C66.7325 61.6576 66.8625 61.7213 66.9638 61.7863C67.8219 62.311 68.7338 62.7422 69.6838 63.0726C69.7913 63.1088 69.8288 63.1088 69.8638 63.0376C70.1204 62.4307 70.333 61.8062 70.5 61.1688C70.5 61.1513 70.5075 61.1351 70.5113 61.1151C70.8794 59.7743 71.0665 58.3904 71.0675 57.0001C71.0703 54.6539 70.5533 52.3363 69.5538 50.2138C68.9462 48.9529 68.2222 47.7514 67.3913 46.6251C67.2538 46.4288 67.11 46.2363 66.9663 46.0401C66.9275 45.9888 66.8875 45.9388 66.8413 45.8851L66.7313 45.7401C66.5825 45.5476 66.43 45.3513 66.2725 45.1588C66.1938 45.0538 66.1125 44.9513 66.0225 44.8451C65.9075 44.7126 65.7963 44.5776 65.6838 44.4413L65.4413 44.1563C65.3 43.9876 65.1575 43.8201 65.0163 43.6476L64.4075 42.9263C63.5438 41.8963 62.6788 40.8626 61.83 39.8313C59.4175 36.7688 58.1538 34.4738 58.08 33.0113C58.0313 32.1663 58.3188 31.5113 58.955 31.0113C59.64 30.4713 60.33 30.2513 61.33 30.2513C61.955 30.2513 62.65 30.5963 63.1175 31.1263C63.5625 31.6813 63.7775 32.1851 63.7775 32.6638V32.7326C63.7775 33.2113 63.7875 34.2126 62.715 34.9988C62.693 35.0136 62.6764 35.0351 62.6674 35.06C62.6584 35.085 62.6576 35.1121 62.665 35.1376C62.672 35.1636 62.6865 35.187 62.7067 35.2048C62.727 35.2226 62.752 35.234 62.7788 35.2376C63.3082 35.3044 63.8414 35.3374 64.375 35.3363C66.375 35.3363 67.4113 34.4813 67.4363 32.7951C67.455 31.9726 67.1725 30.7651 65.7125 29.6876C64.595 28.8626 63.1538 28.3326 61.8563 28.2676C59.9465 28.1634 58.0542 28.679 56.4613 29.7376C54.9213 30.7376 54.1075 32.2576 54.1075 34.1126C54.1075 36.1363 55.2638 38.6513 57.5375 41.5913C58.5492 42.8205 59.5513 44.0542 60.5438 45.2926Z" fill="white"/>
<path d="M64.3488 66.81C64.1338 66.7113 64.0775 66.7163 63.9475 66.8975C63.73 67.185 63.4988 67.48 63.26 67.7725C60.9563 70.485 57.9975 72.7988 54.46 74.6475C54.4346 74.6619 54.4146 74.6843 54.4031 74.7112C54.3916 74.738 54.3892 74.7679 54.3963 74.7962C54.4034 74.8246 54.4196 74.8498 54.4424 74.8681C54.4652 74.8864 54.4933 74.8967 54.5225 74.8975H54.5438C58.52 74.2613 61.9875 72.6063 64.8738 69.9688C64.8896 69.9555 64.9046 69.9413 64.9188 69.9263L64.9588 69.8875C65.3525 69.5213 65.7088 69.1738 66.0288 68.825C66.3535 68.488 66.6574 68.1315 66.9388 67.7575C66.9838 67.7038 66.9388 67.6463 66.885 67.6325C66.0078 67.4686 65.1553 67.1921 64.3488 66.81Z" fill="white"/>
<path d="M61.8 50.3875C61.8 50.3875 61.8 50.3875 61.8 50.3813C61.8 50.375 61.8013 50.3863 61.8 50.3875Z" fill="#0A2240"/>
<path d="M25.0288 20.6475C23.2888 21.4175 21.6075 22.2238 19.9325 23.1688C19.6111 23.3531 19.3683 23.6488 19.25 24C19.1113 24.4775 18.9375 25.0438 18.7988 25.5213C18.7263 25.7713 18.7638 25.8713 19.03 25.7875C20.3767 25.3925 21.7709 25.0529 23.2125 24.7688C23.1488 25.0263 23.0538 25.4375 22.9925 25.6938C21.815 26.2388 20.6238 26.8838 19.4775 27.5025C19.5588 27.2 19.64 26.935 19.7275 26.6275C19.2275 26.8938 18.7275 27.2038 18.2375 27.4838C18.1038 27.945 17.9875 28.37 17.8625 28.83C17.7688 29.1475 17.9313 29.2213 18.28 29.025C20.0488 28.025 21.8938 27.0425 23.7338 26.23C24.0975 26.0713 24.3775 25.7713 24.4475 25.465C24.56 24.965 24.68 24.4013 24.7925 23.9013C24.8488 23.665 24.7788 23.5563 24.5138 23.6025C23.0675 23.8525 21.6625 24.1625 20.3113 24.5263C20.3675 24.3013 20.4975 23.9013 20.5613 23.675C21.6288 23.0875 22.7238 22.55 23.8938 22.015C23.83 22.2713 23.7688 22.525 23.7088 22.7838C24.2088 22.5525 24.7088 22.33 25.2088 22.1138C25.305 21.7088 25.395 21.3038 25.4863 20.8975C25.535 20.5975 25.3675 20.5 25.0288 20.6475Z" fill="white"/>
<path d="M33.41 17.6825C31.426 18.2325 29.4735 18.8906 27.5613 19.6537C27.1775 21.445 26.7725 23.3425 26.3925 25.1337C26.9125 24.9237 27.4363 24.7187 27.9613 24.5237C28.2488 23.0762 28.5613 21.5037 28.8463 20.0587C29.9925 19.63 31.1438 19.2562 32.3113 18.9037C32.2213 19.4537 32.115 20.1112 32.025 20.6637C30.925 20.9954 29.8334 21.3575 28.75 21.75C29.105 21.9212 29.4638 22.0962 29.8325 22.2725C30.8325 21.93 31.8388 21.6158 32.8513 21.33C33.2175 21.2237 33.4763 20.9712 33.5163 20.6675C33.6413 19.805 33.7813 18.8775 33.905 18.0125C33.95 17.7175 33.765 17.5825 33.41 17.6825Z" fill="white"/>
<path d="M42.43 15.9526C40.3691 16.1966 38.3222 16.5471 36.2975 17.0026C35.935 17.0851 35.69 17.3338 35.6513 17.6363C35.4563 19.0551 35.2563 20.5288 35.0663 21.9213C35.0225 22.2138 35.225 22.3488 35.605 22.2613C37.7163 21.7809 39.8507 21.4087 42 21.1463C42.375 21.1001 42.625 20.8876 42.6588 20.5963C42.765 19.2151 42.8738 17.7851 42.985 16.3776C43.0063 16.0751 42.7913 15.9076 42.43 15.9526ZM41.0263 20.3751C39.5925 20.5763 38.1738 20.8176 36.7575 21.1176C36.8913 20.0438 37.0413 18.8126 37.175 17.7251C38.4913 17.4488 39.9388 17.2038 41.3388 17.0088C41.2375 18.0976 41.125 19.3101 41.0263 20.3751Z" fill="white"/>
<path d="M51.3813 18.8963C51.7563 18.9063 51.995 18.7338 51.9863 18.4476C51.97 17.6613 51.955 16.8326 51.9375 16.0376C51.9375 15.7388 51.6875 15.5376 51.3313 15.5313C49.2511 15.4805 47.1697 15.5427 45.0963 15.7176C45.03 17.4376 44.9713 19.1701 44.8975 20.8538C45.4413 20.8113 45.9888 20.7763 46.5338 20.7476C46.5688 19.3801 46.605 17.9213 46.6413 16.5301C47.8725 16.4601 49.11 16.4388 50.3525 16.4463C50.3525 16.9463 50.36 17.4738 50.3638 17.9701C49.1788 17.9613 47.9888 17.9776 46.81 18.0363C47.0888 18.2263 49.77 19.9938 50.84 20.6926C51.5125 20.7051 52.1863 20.7263 52.86 20.7613V20.7138C51.885 20.0826 51.0625 19.4638 50.125 18.8788C50.6013 18.8751 50.9038 18.8851 51.3813 18.8963Z" fill="white"/>
<path d="M53.3025 16.5387C54.2463 16.5875 55.1938 16.6637 56.1388 16.7625C56.24 18.1662 56.3425 19.6662 56.4425 21.0337C56.98 21.09 57.5213 21.1587 58.06 21.2262C57.9463 19.8512 57.83 18.3512 57.7125 16.9475C58.6563 17.0725 59.6038 17.2212 60.5413 17.3925C60.5088 17.0537 60.4888 16.7887 60.4513 16.4462C58.0709 16.0153 55.6657 15.7347 53.25 15.6062C53.27 15.9437 53.2838 16.2037 53.3025 16.5387Z" fill="white"/>
<path d="M62.4325 21.8863C62.98 21.9976 63.5275 22.1113 64.0738 22.2338C63.855 20.5051 63.63 18.7088 63.405 16.9838C62.89 16.8688 62.3721 16.7605 61.8513 16.6588C62.045 18.3751 62.24 20.1663 62.4325 21.8863Z" fill="white"/>
<path d="M71.5363 22.785C69.9975 21.16 68.4513 19.4288 66.935 17.8738C66.42 17.7313 65.8838 17.5863 65.365 17.4525C65.6413 19.2225 65.9163 21.0438 66.18 22.755C66.7263 22.8863 67.265 23.0388 67.805 23.185C67.6125 22.0138 67.4063 20.7138 67.2063 19.5138C68.7388 21.0813 70.3313 22.8563 71.8875 24.4925C72.3975 24.6713 72.8675 24.8563 73.4113 25.0675C73.07 23.3625 72.6875 21.4563 72.3388 19.6925C71.8388 19.4988 71.3388 19.3113 70.8388 19.1288C71.0588 20.31 71.3175 21.625 71.5363 22.785Z" fill="white"/>
<path d="M82.0163 28.6988C81.78 27.8238 81.4788 26.6888 81.3425 26.1826C79.9925 25.4251 79.495 25.1501 77.9163 24.3576L78.7438 25.5226C79.455 25.8913 79.585 25.9588 80.1588 26.2726C80.29 26.7026 80.435 27.2488 80.5338 27.5851C79.225 26.8463 78.2988 26.4026 76.9788 25.7688C76.6313 24.4163 76.3475 23.2251 76.0713 22.0888C77.4213 22.7138 78.2988 23.1526 79.51 23.7963C79.5738 24.0676 79.6638 24.4013 79.6638 24.4013L81.0725 25.1963C81.0725 25.1963 80.8725 24.4801 80.755 24.0713C80.7108 23.8992 80.6309 23.7384 80.5204 23.5993C80.4099 23.4601 80.2714 23.3458 80.1138 23.2638C78.3425 22.3063 77.1 21.6701 74.91 20.6913C74.5713 20.5388 74.3813 20.6676 74.4563 20.9801C74.7975 22.4488 75.155 24.0938 75.4975 25.5563C75.5688 25.8663 75.84 26.1113 76.2 26.2688C78.0863 27.1051 79.635 27.8826 81.4938 28.9201C81.9325 29.1601 82.145 29.1613 82.0163 28.6988Z" fill="white"/>
<path d="M19.2925 15.8174C18.8888 15.6124 18.495 15.4162 18.1088 15.2249C17.97 15.6862 17.8288 16.1587 17.685 16.6462C17.4063 16.7962 17.1263 16.9462 16.8463 17.1012C17.2338 15.9024 17.5963 14.7787 17.9338 13.7262C18.1838 13.6012 18.4213 13.4837 18.6625 13.3687C18.5475 13.7587 18.305 14.5637 18.305 14.5637L20.055 12.6887C20.055 12.6887 20.715 12.4112 21.0013 12.2862C21.0013 12.2862 21.1263 12.2349 21.1263 12.2424C20.5138 12.9087 19.5325 13.9549 18.8575 14.7087C19.3363 14.9437 19.6675 15.1149 20.175 15.3724C20.1758 15.3808 20.1758 15.3891 20.175 15.3974C19.835 15.5599 19.6375 15.6474 19.2925 15.8174Z" fill="white"/>
<path d="M25.7262 13.08C25.6812 12.935 25.6363 12.79 25.5925 12.6462C25.005 12.8637 24.4087 13.0937 23.8162 13.3362C23.6825 13.5512 23.5513 13.7675 23.4163 13.9837L22.625 14.3175C22.6253 14.3145 22.6253 14.3116 22.625 14.3087C23.4067 13.0745 24.1629 11.8754 24.8937 10.7112C25.1437 10.6137 25.4025 10.5162 25.655 10.4237C25.89 11.2145 26.14 12.0154 26.405 12.8262C26.4057 12.8287 26.4057 12.8313 26.405 12.8337L25.7262 13.08ZM25.1362 11.1687C24.83 11.6687 24.52 12.185 24.2038 12.7C24.6238 12.535 25.04 12.3725 25.4538 12.2162C25.3475 11.8662 25.2387 11.5162 25.1362 11.1687Z" fill="white"/>
<path d="M32.42 11.015L30.8338 9.60878C30.7088 10.2525 30.59 10.8975 30.4675 11.55L29.695 11.7825C29.885 10.825 30.0729 9.88127 30.2588 8.95127C30.5088 8.88002 30.7438 8.81002 30.9863 8.74502L32.5588 10.09C32.6588 9.47419 32.7579 8.86461 32.8563 8.26127C33.1 8.19877 33.34 8.14377 33.5838 8.08752C33.4446 8.99002 33.305 9.90336 33.165 10.8275C32.9163 10.8888 32.6713 10.9513 32.42 11.015Z" fill="white"/>
<path d="M40.0225 9.5237C39.13 9.64787 38.2342 9.79037 37.335 9.9512C37.1575 9.98495 37.0563 9.90995 37.0738 9.7537C37.1013 9.53495 37.1263 9.31245 37.1525 9.09245C37.4025 9.04495 37.6525 8.99995 37.9025 8.9587C37.8863 9.10495 37.8713 9.25245 37.8538 9.3987C38.4363 9.3012 39.015 9.2062 39.5938 9.1237C39.6038 8.9987 39.62 8.8737 39.6288 8.7487C38.8871 8.6462 38.1467 8.55662 37.4075 8.47995C37.2613 8.46995 37.2288 8.40745 37.2425 8.28495C37.27 8.0562 37.295 7.82745 37.3238 7.5987C37.335 7.52091 37.3718 7.44906 37.4284 7.39451C37.485 7.33996 37.5581 7.30581 37.6363 7.29745C38.5154 7.14495 39.3904 7.01078 40.2613 6.89495C40.4313 6.87495 40.5263 6.95245 40.5113 7.10245C40.495 7.29995 40.4788 7.4987 40.4613 7.69745C40.2113 7.7312 39.9613 7.76245 39.7113 7.7987C39.7225 7.6737 39.7338 7.5487 39.7488 7.4237C39.1788 7.50245 38.6063 7.58995 38.0363 7.68495C38.0238 7.7937 38.0138 7.90245 38.0013 8.00995C38.7363 8.09245 39.4738 8.1862 40.215 8.29745C40.3525 8.31495 40.395 8.3837 40.3825 8.4987C40.3638 8.7487 40.3413 8.98995 40.3213 9.2362C40.3121 9.31114 40.2773 9.38063 40.2229 9.43299C40.1685 9.48534 40.0977 9.51737 40.0225 9.5237Z" fill="white"/>
<path d="M47.2338 8.87496C47.1538 8.72496 47.0725 8.57621 46.99 8.42621C46.385 8.45371 45.7838 8.48871 45.1813 8.53496C45.0838 8.69496 44.9888 8.85496 44.89 9.01621L44.1025 9.08246C44.6692 8.17246 45.2238 7.27121 45.7663 6.37871C46.0288 6.35996 46.2913 6.34371 46.5575 6.32996C47.0392 7.16329 47.5325 8.00162 48.0375 8.84496V8.85246C47.7713 8.84621 47.5 8.85871 47.2338 8.87496ZM46.14 6.87496C45.915 7.26579 45.6883 7.65704 45.46 8.04871C45.8875 8.01996 46.3163 7.99371 46.7425 7.97371C46.54 7.60871 46.3363 7.24246 46.14 6.87496Z" fill="white"/>
<path d="M55.1 9.00879C54.1925 8.94254 53.28 8.89379 52.3663 8.86754C52.1863 8.86754 52.065 8.76254 52.0613 8.61754C52.0613 8.40129 52.0513 8.18629 52.045 7.97004C52.3038 7.97004 52.5625 7.98754 52.8175 7.99629C52.8175 8.14004 52.8275 8.28379 52.8313 8.42754C53.4229 8.45254 54.0121 8.48337 54.5988 8.52004C54.5913 8.39504 54.5863 8.27004 54.58 8.14504C53.7913 7.88504 53.0088 7.63879 52.2263 7.40629C52.0738 7.36379 52.0288 7.29504 52.0238 7.17879C52.0238 6.95129 52.0138 6.73129 52.01 6.50629C52.0025 6.35754 52.115 6.26754 52.2888 6.27254C53.1813 6.30587 54.07 6.3567 54.955 6.42504C55.028 6.42055 55.0998 6.44489 55.1549 6.49282C55.2101 6.54075 55.2443 6.60843 55.25 6.68129C55.265 6.87629 55.2775 7.07254 55.2888 7.26504L54.5388 7.21004C54.5325 7.08504 54.5288 6.96004 54.52 6.84379C53.9425 6.80254 53.3663 6.77129 52.7875 6.74629C52.7875 6.85254 52.7875 6.95754 52.7938 7.06379C53.5754 7.30045 54.3567 7.55045 55.1375 7.81379C55.1943 7.82416 55.2457 7.85386 55.2831 7.89783C55.3204 7.9418 55.3414 7.99734 55.3425 8.05504C55.3588 8.29754 55.3725 8.54004 55.39 8.78254C55.3863 8.93504 55.28 9.02129 55.1 9.00879Z" fill="white"/>
<path d="M65.5338 10.5738C64.58 10.3525 63.63 10.1575 62.6775 9.98379C62.6015 9.97416 62.5307 9.93984 62.476 9.8861C62.4214 9.83235 62.3859 9.76216 62.375 9.68629C62.2938 8.96629 62.2088 8.24754 62.125 7.52129C62.1088 7.36629 62.1988 7.28629 62.3663 7.31629C63.2996 7.47462 64.2388 7.65754 65.1838 7.86504C65.263 7.87977 65.3359 7.91847 65.3924 7.97593C65.449 8.03338 65.4865 8.1068 65.5 8.18629C65.5288 8.43629 65.5638 8.68629 65.5963 8.93629C65.3463 8.87879 65.0963 8.82295 64.8463 8.76879C64.8238 8.60629 64.8025 8.44129 64.7825 8.27879C64.1475 8.14379 63.5154 8.01879 62.8863 7.90379C62.9525 8.46504 63.0175 9.02879 63.085 9.57754C63.7242 9.69254 64.3625 9.8217 65 9.96504C64.9813 9.79504 64.9575 9.62129 64.935 9.45004L65.685 9.62004C65.7175 9.87754 65.7521 10.1338 65.7888 10.3888C65.8138 10.545 65.71 10.615 65.5338 10.5738Z" fill="white"/>
<path d="M69.5 11.575C69.3188 10.6375 69.1413 9.70754 68.96 8.79004C69.21 8.86004 69.4475 8.93254 69.6925 9.00504C69.8813 9.93004 70.0675 10.8638 70.2625 11.8075C70.01 11.7288 69.75 11.6488 69.5 11.575Z" fill="white"/>
<path d="M74.9525 11.2C75.1459 11.9925 75.3434 12.8025 75.545 13.63C75.2875 13.5188 75.0338 13.4075 74.7813 13.3025C74.595 12.4975 74.4063 11.7063 74.235 10.9275C73.8188 10.7763 73.4113 10.6338 73.0088 10.4988C72.97 10.325 72.9338 10.15 72.8988 9.97754C73.9238 10.3109 75.0104 10.698 76.1588 11.1388C76.21 11.3338 76.265 11.5288 76.3175 11.7225C75.8513 11.5438 75.3975 11.3675 74.9525 11.2Z" fill="white"/>
<path d="M81.5 15.2237C81.6075 15.5787 81.75 16.1325 81.86 16.4887C81.5988 16.3462 81.345 16.2062 81.0888 16.0712C80.9875 15.7237 80.8938 15.3212 80.7938 14.9687C80.1113 14.0787 79.4025 13.08 78.7688 12.2537C78.7688 12.2462 78.7688 12.2375 78.7688 12.23C79.0125 12.3362 79.5713 12.585 79.82 12.6975C80.2938 13.33 80.7588 14.0125 81.07 14.3975C81.3638 14.08 81.7263 13.6062 81.7263 13.6062C81.7263 13.6062 82.1638 13.8362 82.4463 13.9812C82.4499 13.9901 82.4529 13.9993 82.455 14.0087C82.1325 14.4187 81.8163 14.8237 81.5 15.2237Z" fill="white"/>
<path d="M49.9575 54.2063V47.6925C37.9125 48.255 26.9325 52.1725 18.3063 58.36C19.0745 60.1764 19.9631 61.9395 20.9663 63.6375C28.945 58.2775 38.965 54.8388 49.9575 54.2063Z" fill="#A6BBD6"/>
<path d="M14.9488 41.9437C21.61 37.4649 29.355 34.2062 37.7775 32.5374C35.965 30.3874 34.25 28.4125 32.61 26.575C26.8084 28.1294 21.2541 30.4917 16.11 33.5924C15.375 36.6449 14.985 39.2849 14.9488 41.9437Z" fill="#A6BBD6"/>
<path d="M41.2738 36.75C31.5638 38.2825 22.695 41.965 15.315 47.2275C15.53 48.74 15.8413 50.3312 16.25 52.0737C16.375 52.6187 16.5188 53.1612 16.6725 53.6987C24.8638 47.8412 35.0638 43.9637 46.2813 42.9487C44.5329 40.7562 42.8638 38.69 41.2738 36.75Z" fill="#A6BBD6"/>
<path d="M49.9575 83.0525C47.1991 83.3877 44.4689 83.9241 41.7888 84.6575C44.4099 86.3999 47.1383 87.9755 49.9575 89.375V83.0525Z" fill="#A6BBD6"/>
<path d="M49.9575 65.7125V59.4387C40.0738 60.1512 31.0338 63.1687 23.7075 67.8137C24.8275 69.3546 26.05 70.8662 27.375 72.3487C33.8425 68.7687 41.5638 66.4075 49.9575 65.7125Z" fill="#A6BBD6"/>
<path d="M49.9575 77.2575V71.22C43.1125 71.8925 36.7525 73.6862 31.24 76.345C32.845 77.8675 34.4738 79.2612 36.0713 80.5262C40.5423 78.851 45.2087 77.7526 49.9575 77.2575Z" fill="#A6BBD6"/>
</svg>
