<svg width="100" height="100" viewBox="0 0 100 100" fill="none" xmlns="http://www.w3.org/2000/svg">
<path d="M82.8112 13.4812C82.4362 13.4412 82.0312 13.3975 81.5938 13.3375C74.9688 12.4225 71.3813 9.71248 67.58 6.83748C63.4413 3.71123 58.75 0.16748 50 0.16748C41.25 0.16748 36.5588 3.71123 32.42 6.83873C28.6188 9.71373 25.0288 12.4237 18.405 13.3387C17.9688 13.3987 17.5675 13.4425 17.1875 13.4825C15.6875 13.6425 11.7213 14.065 11.7213 18.25V59.225C11.7213 69.645 14.9975 78.4125 21.46 85.2837C27.8175 92.0412 37.1863 96.8837 49.3063 99.6725L50 99.8325L50.6938 99.6725C62.8188 96.8825 72.1838 92.0475 78.54 85.2837C85.0025 78.4087 88.2787 69.645 88.2787 59.225V18.25C88.2787 14.0637 84.3075 13.6412 82.8112 13.4812Z" fill="white"/>
<path d="M50 4.19373C42.5938 4.19373 38.8263 7.03998 34.8375 10.055C30.7925 13.1112 26.6088 16.2712 18.9488 17.3287C18.4663 17.395 18.0238 17.4437 17.605 17.4875C15.73 17.6875 15.73 17.82 15.73 18.2612V59.25C15.73 68.6162 18.64 76.4587 24.38 82.5612C30.1413 88.69 38.76 93.125 50 95.74C61.2325 93.1237 69.8513 88.69 75.625 82.5575C81.3525 76.455 84.2625 68.6125 84.2625 59.25V18.2612C84.2625 17.82 84.2625 17.6875 82.3875 17.4875C81.9688 17.4437 81.5275 17.395 81.045 17.3287C73.3838 16.2712 69.2013 13.1112 65.1563 10.055C61.1663 7.03998 57.3988 4.19373 50 4.19373Z" fill="#EC1458"/>
<path d="M61.71 7.58248V91.95C58.1958 93.475 54.29 94.7387 49.9925 95.7412C38.7588 93.125 30.1425 88.6887 24.375 82.5562C18.635 76.4537 15.725 68.6125 15.725 59.2462V18.2625C15.725 17.82 15.725 17.6862 17.6 17.4862C18.0188 17.4437 18.46 17.395 18.9425 17.3287C26.6025 16.2712 30.7875 13.1087 34.83 10.055C38.8213 7.03873 42.5863 4.19373 49.9925 4.19373C55.29 4.19373 58.7238 5.64748 61.71 7.58248Z" fill="#001544"/>
<path d="M59.07 19.125C56.445 17.2087 53.6413 16.2037 50.7763 16.2037H50.6C44.85 16.2037 39.36 20.2212 35.1213 27.5225C32.3413 32.3025 24.47 47.4575 16.8613 62.1187C16.5675 62.6887 16.2688 63.2612 15.9713 63.8337C16.2832 66.8391 16.9923 69.7898 18.08 72.6087C27.04 55.625 38.1 34.7575 40.9775 29.6175C44.16 23.9337 47.3288 21.2037 50.695 21.2587C54.0375 21.1962 57.2038 23.9337 60.3863 29.6175C60.7925 30.3412 61.3588 31.375 62.0588 32.665V21.7962C61.1476 20.8149 60.1471 19.9206 59.07 19.125Z" fill="#EC1458"/>
<path d="M22.1563 43.1L24.8075 38.3037C21.7338 38.9505 18.7003 39.7756 15.7225 40.775V45.15C17.8117 44.4 19.9388 43.7454 22.1038 43.1862L22.1563 43.1Z" fill="#EC1458"/>
<path d="M19.875 47.6438C18.4717 48.093 17.0858 48.583 15.7175 49.1138V53.5725C16.0925 53.4163 16.4675 53.2651 16.85 53.1151L19.875 47.6438Z" fill="#EC1458"/>
<path d="M39.78 41.6C40.4533 41.58 41.1308 41.57 41.8125 41.57C48.649 41.5512 55.458 42.4364 62.0625 44.2025V39.9237C55.4959 38.2602 48.7478 37.4204 41.9738 37.4237L39.78 41.6Z" fill="#EC1458"/>
<path d="M51.0875 47.25C48.1409 46.8784 45.1749 46.6818 42.205 46.6613C41.94 46.655 41.6787 46.655 41.41 46.655C39.95 46.655 38.4975 46.6988 37.0525 46.7863L34.8025 51.0688L34.7212 51.225L20.7375 77.875C21.6226 79.2757 22.6205 80.6017 23.7212 81.84L39.9712 50.9138C40.4525 50.9038 40.94 50.8975 41.425 50.8975C42.7012 50.8975 43.965 50.9263 45.2262 50.9888L45.3612 50.9975L45.2362 51.2313L27.0762 85.125C28.2294 86.1084 29.4399 87.0225 30.7012 87.8625L50.0962 51.6875L50.2375 51.4225C54.2416 51.9079 58.1966 52.7368 62.0587 53.9V49.4738C58.8581 48.5709 55.6009 47.8819 52.3087 47.4113C51.9025 47.3525 51.5 47.3 51.0875 47.25Z" fill="#EC1458"/>
<path d="M82.5837 15.6475C82.2237 15.6087 81.7737 15.5612 81.3 15.495C74.125 14.5 70.1387 11.5 66.2837 8.58122C62.225 5.51497 58.0287 2.34497 50 2.34497C41.9712 2.34497 37.7737 5.51622 33.7125 8.58497C29.86 11.5 25.875 14.5 18.7 15.5C18.2212 15.5675 17.7737 15.6137 17.415 15.6525C15.8362 15.82 13.87 16.0275 13.87 18.2775V59.25C13.87 69.1037 16.9512 77.375 23.0262 83.835C29.1012 90.295 38.0912 94.91 49.79 97.6025L49.9962 97.6512L50.2075 97.6025C61.9062 94.9087 70.9112 90.2775 76.97 83.835C83.0287 77.3925 86.125 69.1087 86.125 59.25V18.2762C86.125 16.025 84.1637 15.815 82.5837 15.6475ZM84.2462 18.2725V59.25C84.2462 68.61 81.3387 76.4475 75.6025 82.545C69.84 88.67 61.2275 93.105 50 95.7187C38.775 93.105 30.1612 88.6725 24.3975 82.545C18.6625 76.45 15.75 68.6125 15.75 59.25V18.2762C15.75 17.8475 15.75 17.7175 17.61 17.52C18.0687 17.4712 18.485 17.425 18.9537 17.3612C26.6162 16.3025 30.8 13.1425 34.8475 10.085C38.8337 7.07247 42.5975 4.22747 49.9962 4.22747C57.395 4.22747 61.1587 7.07247 65.145 10.085C69.1912 13.1412 73.375 16.3025 81.0387 17.3612C81.5025 17.425 81.9212 17.47 82.3812 17.52C84.25 17.7175 84.25 17.8475 84.25 18.2762L84.2462 18.2725Z" fill="#001544"/>
<path d="M64.415 30.5851C64.415 25.4601 65.5663 23.4976 69.4988 23.4976H70.0963C74.0288 23.4976 75.18 25.4563 75.18 30.5851V32.0851C75.18 36.8251 74.18 38.8138 71.0388 39.1426V34.5613C72.025 34.2776 72.22 33.6951 72.22 31.3926V31.2676C72.22 28.4563 71.6225 28.0676 69.9625 28.0676H69.625C67.98 28.0676 67.375 28.4563 67.375 31.2676V31.3926C67.375 33.6951 67.57 34.2776 68.5563 34.5613V39.1376C65.4175 38.8088 64.415 36.8201 64.415 32.0801V30.5851Z" fill="white"/>
<path d="M64.565 40.4125H75.0312V44.8975H64.565V40.4125Z" fill="white"/>
<path d="M64.565 50.4313H71.8463V45.9313H75.0312V59.4163H71.8463V54.9163H64.565V50.4313Z" fill="white"/>
<path d="M64.565 65.8625H69.08L75.0312 59.9413V65.4288L71.9512 68.33V68.4788L75.0312 71.3638V76.2688L69.08 70.3475H64.565V65.8625Z" fill="white"/>
<path d="M78.9363 33.1412C78.515 33.1412 78.3213 33.4825 78.3213 34.7812C78.3213 35.8575 78.44 36.1825 78.7538 36.1825C79.0675 36.1825 79.1413 35.955 79.2038 34.6612C79.2838 32.9237 79.5575 32.235 80.4538 32.235C81.35 32.235 81.61 33.1287 81.61 34.6212C81.61 36.1137 81.235 37.0362 80.2488 37.0362V36.0112C80.6875 36.0112 80.795 35.5725 80.795 34.5112C80.795 33.5037 80.6988 33.2612 80.4025 33.2612C80.1063 33.2612 80.0375 33.5012 79.97 34.6625C79.8838 36.235 79.7988 37.2087 78.79 37.2087C77.725 37.2087 77.5088 36.2012 77.5088 34.725C77.5088 33.0912 77.7875 32.1162 78.9388 32.1162L78.9363 33.1412Z" fill="white"/>
<path d="M80.6913 42.3638V40.4276H77.5663V39.4026H80.6913V37.4663H81.55V42.3638H80.6913Z" fill="white"/>
<path d="M78.4238 49.6587H77.5638V45.5575H81.55V46.5825H78.425L78.4238 49.6587Z" fill="white"/>
<path d="M79.5625 50.075C80.8838 50.075 81.6075 50.825 81.6075 52.575C81.6075 54.325 80.875 55.0875 79.5625 55.0875C78.25 55.0875 77.5063 54.3299 77.5063 52.5812C77.5063 50.8324 78.235 50.075 79.5625 50.075ZM79.5625 54.0625C80.3713 54.0625 80.7475 53.6512 80.7475 52.5812C80.7475 51.5112 80.3725 51.0999 79.5625 51.0999C78.7525 51.0999 78.3663 51.5162 78.3663 52.5812C78.3663 53.6462 78.75 54.0625 79.5625 54.0625Z" fill="white"/>
<path d="M77.5063 58.1337C77.5063 56.3837 78.1725 55.6274 79.5625 55.6274H81.55V56.6524H79.5625C79.005 56.6524 78.3663 56.8062 78.3663 58.1337C78.3663 59.4612 79.01 59.6149 79.5625 59.6149H81.55V60.6399H79.5625C78.1788 60.6399 77.5063 59.8824 77.5063 58.1337Z" fill="white"/>
<path d="M77.5638 62.2337V61.2087H81.55V62.2337H77.5638Z" fill="white"/>
<path d="M78.9363 63.775C78.515 63.775 78.3213 64.1175 78.3213 65.4162C78.3213 66.4925 78.44 66.8175 78.7538 66.8175C79.0675 66.8175 79.1413 66.5887 79.2038 65.2962C79.2838 63.5587 79.5575 62.87 80.4538 62.87C81.35 62.87 81.61 63.7637 81.61 65.2562C81.61 66.7487 81.235 67.6712 80.2488 67.6712V66.6462C80.6875 66.6462 80.795 66.2075 80.795 65.1462C80.795 64.1375 80.6988 63.8962 80.4025 63.8962C80.1063 63.8962 80.0375 64.135 79.97 65.2975C79.8838 66.87 79.7988 67.8437 78.79 67.8437C77.725 67.8437 77.5088 66.835 77.5088 65.36C77.5088 63.725 77.7875 62.7512 78.9388 62.7512L78.9363 63.775Z" fill="white"/>
<path d="M44.98 85.1687C44.98 85.6425 45.3662 85.8612 46.8287 85.8612C48.0425 85.8612 48.4075 85.7262 48.4075 85.3737C48.4075 84.9987 48.1512 84.9362 46.6937 84.8662C44.7362 84.7762 43.96 84.4687 43.96 83.4612C43.96 82.4537 44.9675 82.1575 46.65 82.1575C48.3325 82.1575 49.375 82.5812 49.375 83.6925H48.2187C48.2187 83.1925 47.7187 83.0762 46.525 83.0762C45.3887 83.0762 45.1187 83.185 45.1187 83.5187C45.1187 83.8525 45.3887 83.9287 46.6975 84.0062C48.47 84.1025 49.5725 84.1987 49.5725 85.335C49.5725 86.535 48.4362 86.7787 46.7737 86.7787C44.9312 86.7787 43.8337 86.465 43.8337 85.1687H44.98Z" fill="white"/>
<path d="M53.1637 82.1575C54.9537 82.1575 55.8525 82.8375 55.9675 84.135H54.7937C54.685 83.4087 54.1262 83.1262 53.1687 83.1262C51.9937 83.1262 51.4987 83.5437 51.4987 84.4612C51.4987 85.3787 51.9987 85.81 53.1687 85.81C54.125 85.81 54.69 85.5212 54.7937 84.7887H55.9675C55.8525 86.0925 54.9537 86.7787 53.1637 86.7787C51.1862 86.7787 50.3387 85.9575 50.3387 84.4612C50.3387 82.965 51.1862 82.1575 53.1637 82.1575Z" fill="white"/>
</svg>
