<svg width="100" height="100" viewBox="0 0 100 100" fill="none" xmlns="http://www.w3.org/2000/svg">
<path d="M92.795 56.7313V53.6375C92.795 53.6375 90.8975 53.2163 87.7487 52.6375L89.03 47.9438C89.03 47.9438 85.855 46.9075 79.8637 45.8188V22.7638C79.8637 22.7638 73.9625 21.7163 65.4475 20.99L67 16.0438L61.5562 12.085L60.3912 8.53252L58.49 9.90127L59.215 7.67127H55.4537L50 3.70752L44.5437 7.67127H40.7837L41.5 9.90127L39.6075 8.53252L38.45 12.085L33 16.0438L34.5562 20.99C26.0337 21.7163 20.1437 22.7638 20.1437 22.7638V45.8138C14.1562 46.9025 10.9675 47.9388 10.9675 47.9388L12.2637 52.6325C9.10249 53.2163 7.20749 53.6325 7.20749 53.6325V56.7263L0.457489 63.9213L7.20749 68.7013V72.5363C7.20749 72.5363 12.535 71.5163 20.1862 70.4688C21.485 88.4375 50 96.2925 50 96.2925C50 96.2925 78.515 88.4375 79.8125 70.4738C87.4662 71.5213 92.7962 72.5413 92.7962 72.5413V68.7063L99.5462 63.9263L92.795 56.7313ZM34.17 43.975C31.7625 44.1763 29.53 44.4088 27.4675 44.6875L30.75 40.43C31.8975 40.3263 33.0287 40.2225 34.1675 40.11L34.17 43.975ZM29.1887 39.1975L26.4287 43.1088V32.335C31.5987 31.6613 40.3875 30.75 50 30.75C59.6125 30.75 68.4062 31.6638 73.5687 32.3375V43.1113L70.8187 39.2C66.6062 38.7113 60.9587 38.2 54.7337 38.0138V43.3688C53.2012 43.3363 51.62 43.3138 49.9987 43.3138C48.3775 43.3138 46.79 43.3363 45.26 43.3688V38.0113C39.03 38.1975 33.385 38.7088 29.19 39.1975M65.8262 40.11C66.9587 40.2225 68.1 40.3263 69.2425 40.43L72.5225 44.6875C70.465 44.4088 68.2325 44.1763 65.8262 43.975V40.11ZM51.9512 29.1225L56.0562 26.1225C68.5112 26.59 78.3812 28.24 78.3812 28.24V45.5475C77.4225 45.3825 76.3887 45.2038 75.3062 45.0563V30.9138C71.0562 30.3313 62.035 29.2388 51.9512 29.1225ZM21.6137 23.9975C21.6137 23.9975 27.7612 22.955 36.4962 22.2925L34.73 16.625L39.69 13.02L40.3875 10.9213L44.3075 13.75L42.8075 9.14252H45.0137L50 5.53377L54.9825 9.14627H57.1875L55.6975 13.75L59.6137 10.92L60.3025 13.0188L65.2737 16.625L63.5 22.2888C72.235 22.9513 78.3837 24 78.3837 24V26.85C78.3837 26.85 68.2412 25.125 55.535 24.6813L50 28.7138L44.4575 24.6813C31.76 25.125 21.6162 26.85 21.6162 26.85L21.6137 23.9975ZM21.6137 28.2475C21.6137 28.2475 31.475 26.5888 43.94 26.125L48.0387 29.125C37.9562 29.2413 28.925 30.3338 24.7025 30.9163V45.0563C23.6087 45.2038 22.5775 45.3825 21.6162 45.5475L21.6137 28.2475ZM50 44.7813C72.9362 44.7813 87.24 48.9513 87.24 48.9513L85.4137 55.5763L87.24 63.7013C87.24 63.7013 72.935 59.5338 50 59.5338C27.065 59.5338 12.77 63.7025 12.77 63.7025L14.59 55.5775L12.77 48.9525C12.77 48.9525 27.0612 44.7813 50 44.7813ZM79.8637 63.6025C82.9462 64.1938 85.3087 64.7275 86.8825 65.1538L79.8637 67.9413V63.6025ZM59.145 68.375H63.0875V69.3588H59.1375C58.22 69.3588 57.4625 68.765 57.4625 68.0263V66.4525C57.4625 65.7025 58.22 65.1125 59.1375 65.1125H63.0875V66.375L62.6587 66.1H59.145C58.8837 66.1 58.6762 66.2438 58.6762 66.4538V68.0325C58.6762 68.2163 58.8837 68.3813 59.145 68.3813M64.4875 78.8813V82.7563C62.8242 83.9312 61.0827 84.9911 59.275 85.9288L56.15 83.34C59.0654 82.1215 61.8574 80.6263 64.4875 78.875M57.9087 86.625C55.3415 87.8891 52.7005 88.9974 50 89.9438C47.2984 89.0091 44.6592 87.9026 42.0987 86.6313L45.2612 84.0063V61.0638C46.8037 61.03 48.375 61.0175 50 61.0175C51.625 61.0175 53.2025 61.03 54.735 61.0638V84L57.9087 86.625ZM26.43 65.5V62.5925C28.785 62.2513 31.3537 61.95 34.1712 61.705V75.4725C34.1712 75.4725 27.1087 70.5113 26.43 65.4975M34.1712 77.9575V81.7725C30.1425 78.685 26.8737 74.7963 26.48 70.16C27.605 71.9275 29.915 74.87 34.1712 77.9575ZM41.625 66.7613V67.7188H38.375V69.0138L38.775 69.3638H36.8012L37.1887 69.0138V65.4525L36.8012 65.1125H42.635V66.375L42.215 66.1H38.3862V66.7625L41.625 66.7613ZM35.5125 78.875C38.145 80.6229 40.9385 82.1151 43.855 83.3313L40.73 85.92C38.9198 84.9849 37.1765 83.9257 35.5125 82.75V78.875ZM65.8262 77.9563C70.0837 74.8688 72.3925 71.9263 73.525 70.1588C73.12 74.795 69.8637 78.6838 65.8262 81.7713V77.9563ZM65.8262 75.4713V61.705C68.6512 61.955 71.22 62.2513 73.5675 62.5925V65.5C72.8937 70.5138 65.8262 75.475 65.8262 75.475M20.1375 67.9413L13.1112 65.1538C14.6937 64.7325 17.0537 64.1938 20.1375 63.6025V67.9413ZM8.67874 70.7675V67.9625L2.67249 63.7025L8.67874 57.3275V54.84C8.67874 54.84 10.1487 54.5138 12.6387 54.0563L13.0687 55.6175L10.7837 65.8125L19.1087 69.125C12.8587 70 8.67874 70.7688 8.67874 70.7688M78.3837 69.2C78.3837 86.625 50 94.765 50 94.765C50 94.765 21.6162 86.625 21.6162 69.1988V63.35C22.5812 63.1688 23.6087 62.9875 24.7025 62.8363V69.1988C24.7025 82.5538 45.5162 90.0738 49.9987 91.5263C54.4712 90.0775 75.3087 82.5538 75.3087 69.1988V62.8363C76.3912 62.9875 77.425 63.1688 78.3837 63.35V69.2ZM91.3262 67.9638V70.7688C91.3262 70.7688 87.1425 70 80.9025 69.125L89.2212 65.8138L86.9325 55.6175L87.3612 54.0563C89.845 54.5138 91.3262 54.84 91.3262 54.84V57.3275L97.32 63.7025L91.3262 67.9638Z" fill="white"/>
<path d="M41.495 15.1851L38.0137 17.6888L39.43 22.0701L43.6112 21.8551L44.965 17.6888L41.495 15.1851Z" fill="white"/>
<path d="M52.1462 15.5913L53.475 11.51L50.0012 9.00378L46.5175 11.51L47.84 15.5913H52.1462Z" fill="white"/>
<path d="M60.5637 22.0687L61.9887 17.69L58.5075 15.1837L55.025 17.69L56.3812 21.855L60.5637 22.0687Z" fill="white"/>
<path d="M53.475 22.7176L52.1462 18.6376H47.84L46.5162 22.7176L50.0012 25.2376L53.475 22.7176Z" fill="white"/>
<path d="M47.5 55.5338H51.625C52.119 55.5276 52.5907 55.3276 52.9386 54.9769C53.2865 54.6261 53.4827 54.1528 53.485 53.6588V49.8988C53.4831 49.4047 53.2869 48.9312 52.939 48.5804C52.591 48.2296 52.1191 48.0297 51.625 48.0238H47.5C47.0025 48.0254 46.5258 48.2233 46.1733 48.5743C45.8208 48.9254 45.6211 49.4013 45.6175 49.8988V53.6626C45.6214 54.1599 45.8213 54.6357 46.1737 54.9867C46.5261 55.3377 47.0026 55.5356 47.5 55.5376M47.1712 49.8888C47.1712 49.8384 47.1813 49.7885 47.201 49.7421C47.2207 49.6956 47.2496 49.6537 47.2859 49.6187C47.3222 49.5836 47.3652 49.5563 47.4123 49.5383C47.4594 49.5203 47.5096 49.512 47.56 49.5138H51.55C51.6537 49.5097 51.7548 49.5469 51.8312 49.6172C51.9075 49.6875 51.9529 49.7851 51.9575 49.8888V53.6726C51.9542 53.7781 51.9097 53.8782 51.8336 53.9513C51.7574 54.0245 51.6556 54.0648 51.55 54.0638H47.5562C47.505 54.0636 47.4543 54.0534 47.4071 54.0336C47.3598 54.0139 47.3169 53.985 47.2808 53.9487C47.2447 53.9124 47.2161 53.8693 47.1967 53.8219C47.1773 53.7745 47.1673 53.7238 47.1675 53.6726L47.1712 49.8888Z" fill="white"/>
<path d="M76.2325 57.4601L80.3575 58.1613C81.395 58.3376 82.2325 57.6263 82.2325 56.5988V52.8751C82.2325 51.8451 81.39 50.8638 80.3575 50.6951L76.2325 50.0026C75.205 49.8176 74.3575 50.5026 74.3575 51.5463V55.2501C74.3733 55.776 74.5676 56.2809 74.9083 56.6818C75.249 57.0827 75.716 57.3559 76.2325 57.4563M75.9112 51.7776C75.9087 51.7303 75.9173 51.6831 75.9363 51.6397C75.9553 51.5963 75.9841 51.558 76.0206 51.5278C76.057 51.4975 76.1 51.4762 76.1461 51.4655C76.1922 51.4549 76.2402 51.4551 76.2862 51.4663L80.2862 52.1438C80.3926 52.1655 80.4885 52.2223 80.5588 52.305C80.629 52.3877 80.6695 52.4916 80.6737 52.6001V56.3563C80.6769 56.4058 80.6686 56.4554 80.6495 56.5012C80.6303 56.547 80.6008 56.5877 80.5633 56.6201C80.5257 56.6526 80.4812 56.6759 80.4331 56.6883C80.385 56.7006 80.3348 56.7017 80.2862 56.6913L76.2862 55.9988C76.1829 55.9742 76.0904 55.9166 76.0228 55.8347C75.9551 55.7529 75.9159 55.6512 75.9112 55.5451V51.7776Z" fill="white"/>
<path d="M27.9187 56.875L32.0437 56.39C33.0637 56.2738 33.9062 55.3425 33.9062 54.3238V50.5925C33.9062 49.5738 33.0637 48.8425 32.0437 48.9513L27.9187 49.4225C26.885 49.5388 26.0437 50.4613 26.0437 51.4913V55.2138C26.0437 56.2538 26.8887 56.9825 27.9187 56.88M27.5987 51.3025C27.5995 51.1963 27.6384 51.094 27.7084 51.0141C27.7784 50.9342 27.8748 50.8822 27.98 50.8675L31.98 50.4113C32.0284 50.405 32.0775 50.4094 32.124 50.4242C32.1705 50.439 32.2132 50.4639 32.249 50.4971C32.2847 50.5303 32.3128 50.5709 32.3311 50.6161C32.3494 50.6613 32.3576 50.71 32.355 50.7588V54.5088C32.3543 54.6143 32.3162 54.7161 32.2476 54.7962C32.1789 54.8762 32.0841 54.9294 31.98 54.9463L27.98 55.41C27.9297 55.4159 27.8787 55.4106 27.8307 55.3944C27.7827 55.3782 27.7389 55.3516 27.7024 55.3164C27.666 55.2813 27.6378 55.2385 27.6198 55.1911C27.6019 55.1438 27.5947 55.093 27.5987 55.0425V51.3025Z" fill="white"/>
<path d="M20.0337 52.1488V57.48L19.4175 58.21L22.2037 57.7L21.5737 57.1925V51.855L24.1312 51.4275L24.7375 51.9325V49.8375L16.8762 51.2425V53.3138L17.4887 52.6025L20.0337 52.1488Z" fill="white"/>
<path d="M68.3475 50.4888V55.8363L67.7337 56.3788L70.5013 56.6813L69.8975 56.0025V50.665L72.44 50.94L73.0512 51.6288V49.5388L65.1888 48.6925V50.7763L65.7988 50.2188L68.3475 50.4888Z" fill="white"/>
<path d="M54.7875 55.5863L57.5762 55.6788L56.9437 55.0238V50.2688L61.2875 55.8613L63.88 56.0338L63.2762 55.4138V49.1701L63.88 48.5888L61.11 48.3851L61.7287 49.0426V53.8576L57.3975 48.2201L54.7875 48.1276L55.3975 48.7801V54.9901L54.7875 55.5863Z" fill="white"/>
<path d="M35.2175 56.1251L37.9925 55.9113L37.375 55.3388V53.6938L41.7637 53.4601C41.8143 53.455 41.8654 53.4609 41.9136 53.4772C41.9617 53.4936 42.0058 53.5201 42.0429 53.5549C42.0799 53.5897 42.1091 53.6321 42.1285 53.6791C42.1478 53.7261 42.1569 53.7767 42.155 53.8276V55.0588L41.5425 55.7088L44.3062 55.6163L43.7025 55.0238V53.8401C43.7056 53.563 43.621 53.2922 43.4606 53.0662C43.3003 52.8403 43.0725 52.671 42.81 52.5826C43.0685 52.4638 43.2889 52.2754 43.4465 52.0385C43.6041 51.8017 43.6928 51.5256 43.7025 51.2413V50.0101C43.7042 49.769 43.6559 49.5302 43.5607 49.3088C43.4654 49.0874 43.3252 48.8881 43.149 48.7236C42.9728 48.5592 42.7643 48.433 42.5369 48.3532C42.3094 48.2735 42.0679 48.2417 41.8275 48.2601L35.2137 48.6663L35.83 49.2401V55.4738L35.2175 56.1251ZM37.375 49.9551L41.7637 49.7113C41.8148 49.707 41.8662 49.7136 41.9146 49.7307C41.9629 49.7478 42.007 49.775 42.044 49.8105C42.081 49.846 42.1101 49.8889 42.1292 49.9364C42.1483 49.984 42.1571 50.0351 42.155 50.0863V51.5713C42.153 51.6784 42.1122 51.7811 42.0403 51.8603C41.9684 51.9396 41.8701 51.9902 41.7637 52.0026L37.375 52.2401V49.9551Z" fill="white"/>
<path d="M34.17 40.11C33.0325 40.2225 31.9012 40.3262 30.7537 40.43L27.4662 44.6875C29.5312 44.4087 31.7637 44.1762 34.17 43.975V40.11Z" fill="#A2A9AD"/>
<path d="M26.43 65.5001C27.1087 70.5138 34.17 75.4751 34.17 75.4751V61.7051C31.3537 61.9551 28.785 62.2513 26.43 62.5926V65.5001Z" fill="#A2A9AD"/>
<path d="M35.5125 82.75C37.1765 83.927 38.9203 84.9871 40.7312 85.9225L43.8562 83.3325C40.9391 82.1163 38.1451 80.6236 35.5125 78.875V82.75Z" fill="#A2A9AD"/>
<path d="M69.2425 40.43C68.1 40.3262 66.96 40.2225 65.8262 40.11V43.975C68.2325 44.1775 70.4625 44.4087 72.5237 44.6887L69.2425 40.43Z" fill="#A2A9AD"/>
<path d="M65.8262 75.4725C65.8262 75.4725 72.8937 70.5112 73.5675 65.4975V62.5925C71.22 62.2537 68.6512 61.95 65.8262 61.7037V75.4725Z" fill="#A2A9AD"/>
<path d="M59.275 85.9212C61.0826 84.984 62.8242 83.9245 64.4875 82.75V78.875C61.8563 80.6232 59.0635 82.115 56.1475 83.33L59.275 85.9212Z" fill="#A2A9AD"/>
<path d="M48.0487 50.7838C48.0497 50.6778 48.0921 50.5763 48.1668 50.5011C48.2415 50.4259 48.3427 50.3829 48.4487 50.3813H51.4487V50.0063H48.0387C47.9889 50.0053 47.9393 50.0143 47.8929 50.0327C47.8466 50.0511 47.8043 50.0785 47.7687 50.1135C47.7331 50.1484 47.7048 50.19 47.6855 50.236C47.6662 50.282 47.6562 50.3314 47.6562 50.3813V53.5838H48.0487V50.7838Z" fill="#A2A9AD"/>
<path d="M53.9775 49.8987V53.6625C53.9745 54.2855 53.7257 54.8821 53.2852 55.3227C52.8447 55.7632 52.248 56.012 51.625 56.015H47.5C47.404 56.0173 47.3079 56.0131 47.2125 56.0025C47.5417 56.27 47.9533 56.4153 48.3775 56.4137H52.02C52.644 56.4124 53.242 56.164 53.6833 55.723C54.1247 55.2819 54.3733 54.6839 54.375 54.06V50.7862C54.3784 50.3667 54.2301 49.9601 53.9575 49.6412C53.9575 49.7112 53.9725 49.8112 53.9725 49.8987" fill="#A2A9AD"/>
<path d="M76.8012 52.8225C76.8008 52.7753 76.8111 52.7285 76.8313 52.6858C76.8515 52.6431 76.8811 52.6056 76.9179 52.576C76.9547 52.5464 76.9978 52.5255 77.0438 52.515C77.0899 52.5044 77.1377 52.5044 77.1837 52.515L80.1925 53.025V52.6325L76.7812 52.0387C76.7343 52.0292 76.6858 52.0303 76.6393 52.042C76.5928 52.0537 76.5495 52.0756 76.5126 52.1062C76.4757 52.1367 76.4461 52.1751 76.4259 52.2186C76.4058 52.2621 76.3957 52.3096 76.3962 52.3575V55.535L76.8012 55.6V52.8225Z" fill="#A2A9AD"/>
<path d="M82.6975 52.6813C82.7227 52.7779 82.7328 52.8778 82.7275 52.9776V56.6951C82.7275 57.9838 81.6587 58.8738 80.3525 58.6488L76.2275 57.9601C76.1312 57.9288 76.045 57.9038 75.9487 57.8738C76.2643 58.1961 76.6731 58.4113 77.1175 58.4888L80.7575 59.1138C82.0587 59.3413 83.1162 58.4638 83.1162 57.1901V53.9301C83.1113 53.479 82.9628 53.0412 82.6925 52.6801" fill="#A2A9AD"/>
<path d="M28.085 51.7388V54.9013L28.4787 54.865V52.0988C28.4792 51.99 28.5199 51.8854 28.5931 51.805C28.6663 51.7246 28.7668 51.6743 28.875 51.6638L31.875 51.32V50.9163L28.47 51.3025C28.3645 51.3181 28.268 51.3704 28.1973 51.4502C28.1266 51.53 28.0864 51.6322 28.0837 51.7388" fill="#A2A9AD"/>
<path d="M34.3962 50.5363V54.2676C34.3962 55.5676 33.3362 56.7675 32.0462 56.885L27.9212 57.3713C27.8249 57.3808 27.728 57.3845 27.6312 57.3825C27.9741 57.6226 28.3963 57.7211 28.81 57.6576L32.4475 57.2538C33.76 57.105 34.8087 55.93 34.8087 54.635V51.4025C34.8131 50.9869 34.666 50.5839 34.395 50.2688C34.395 50.35 34.395 50.4376 34.395 50.5363" fill="#A2A9AD"/>
<path d="M17.7687 54.06L18.3762 53.3263L19.54 53.125V52.7238L17.7687 53.025V54.06Z" fill="#A2A9AD"/>
<path d="M22.0637 52.2813V56.9188L22.4725 57.2451V52.6026L24.3275 52.2813L23.9225 51.9451L22.0637 52.2813Z" fill="#A2A9AD"/>
<path d="M25.2337 52.3275L25.6337 52.6587V50.5787L25.2337 50.6662V52.3275Z" fill="#A2A9AD"/>
<path d="M20.7125 58.4488L20.3125 58.9263L23.0825 58.4413L22.6787 58.1176L20.7125 58.4488Z" fill="#A2A9AD"/>
<path d="M66.7037 51.205L67.8637 51.34V50.935L66.08 50.7388V51.7525L66.7037 51.205Z" fill="#A2A9AD"/>
<path d="M72.235 51.4063L70.3912 51.1925V55.8475L70.7912 56.305V51.6638L72.645 51.8475L72.235 51.4063Z" fill="#A2A9AD"/>
<path d="M73.555 52.1488L73.9487 52.6026V50.5326L73.555 50.4813V52.1488Z" fill="#A2A9AD"/>
<path d="M68.6337 57.3712L71.4075 57.6587L71.0025 57.2175L69.0312 57.0112L68.6337 57.3712Z" fill="#A2A9AD"/>
<path d="M61.8512 56.395L62.1812 56.8063L64.775 56.9825L64.3812 56.555L61.8512 56.395Z" fill="#A2A9AD"/>
<path d="M63.765 55.2313L64.1612 55.6375V50.115L64.775 49.5387L63.765 49.4688V55.2313Z" fill="#A2A9AD"/>
<path d="M58.055 56.1925L56.0875 56.1462L55.6762 56.5175L58.4562 56.6175L58.055 56.1925Z" fill="#A2A9AD"/>
<path d="M57.84 52.2037L57.4425 51.6725V54.8637L57.84 55.275V52.2037Z" fill="#A2A9AD"/>
<path d="M44.5925 55.1826V54.6826C44.5937 54.5036 44.5588 54.3262 44.4899 54.161C44.4209 53.9959 44.3194 53.8463 44.1912 53.7213V54.8126L44.5925 55.1826Z" fill="#A2A9AD"/>
<path d="M38.27 54.5563L41.6612 54.3613V53.9563L37.875 54.1625V55.0951L38.27 55.4875V54.5563Z" fill="#A2A9AD"/>
<path d="M38.4812 56.3788L36.5162 56.5438L36.115 56.9663L38.8837 56.7688L38.4812 56.3788Z" fill="#A2A9AD"/>
<path d="M43.6662 52.5276C43.738 52.6103 43.8056 52.6967 43.8687 52.7863C44.0866 52.6533 44.2672 52.4674 44.3938 52.2457C44.5203 52.0241 44.5887 51.774 44.5925 51.5188V50.8513C44.5958 50.4333 44.4475 50.0283 44.175 49.7113C44.189 49.8018 44.1945 49.8935 44.1912 49.9851V51.1926C44.185 51.6867 43.9983 52.1615 43.6662 52.5276Z" fill="#A2A9AD"/>
<path d="M38.27 50.7863L41.6612 50.5925V50.2125L37.875 50.4113V51.7113L38.27 51.6838V50.7863Z" fill="#A2A9AD"/>
<path d="M42.8337 56.14L42.4362 56.555L45.2125 56.455L44.8137 56.0713L42.8337 56.14Z" fill="#A2A9AD"/>
<path d="M91.3262 57.3263V54.8376C91.3262 54.8376 89.845 54.5126 87.3613 54.0551L86.9325 55.6176L89.2213 65.8113L80.9025 69.1251C87.1425 70.0001 91.3262 70.7688 91.3262 70.7688V67.9626L97.32 63.7026L91.3262 57.3263Z" fill="#AA182C"/>
<path d="M13.0687 55.6163L12.6387 54.0551C10.1487 54.5126 8.67874 54.8388 8.67874 54.8388V57.3263L2.67874 63.7013L8.67874 67.9613V70.7663C8.67874 70.7663 12.8575 70.0001 19.1087 69.1251L10.7837 65.8126L13.0687 55.6163Z" fill="#AA182C"/>
<path d="M24.7025 30.9138C28.925 30.3313 37.9525 29.2388 48.0387 29.1226L43.94 26.1226C31.475 26.5913 21.6162 28.2413 21.6162 28.2413V45.5476C22.5812 45.3826 23.6087 45.2038 24.7025 45.0563V30.9138Z" fill="#AA182C"/>
<path d="M78.3837 45.5462V28.24C78.3837 28.24 68.5087 26.5887 56.0587 26.1212L51.9537 29.1212C62.0375 29.2375 71.065 30.33 75.3075 30.9125V45.0562C76.3912 45.2037 77.425 45.3825 78.3837 45.5462Z" fill="#AA182C"/>
<path d="M75.3087 69.1988C75.3087 82.5538 54.4712 90.0738 49.9987 91.5263C45.5162 90.0776 24.7025 82.5538 24.7025 69.1988V62.8363C23.6087 62.9888 22.5775 63.1688 21.615 63.3501V69.1988C21.615 86.6251 50 94.7651 50 94.7651C50 94.7651 78.385 86.6251 78.385 69.1988V63.3501C77.425 63.1688 76.385 62.9888 75.3087 62.8363V69.1988Z" fill="#AA182C"/>
<path d="M50 28.7138L55.5362 24.6813C68.2425 25.12 78.3862 26.85 78.3862 26.85V23.9925C78.3862 23.9925 72.2362 22.9525 63.4962 22.2888L65.2737 16.625L60.3025 13.02L59.6125 10.9238L55.6975 13.75L57.1862 9.14003H54.98L50 5.53503L45.0162 9.14503H42.8112L44.3112 13.755L40.3875 10.9238L39.69 13.0225L34.73 16.625L36.5 22.2888C27.765 22.9525 21.6162 23.9925 21.6162 23.9925V26.85C21.6162 26.85 31.76 25.125 44.4575 24.6813L50 28.7138ZM58.5087 15.1838L61.99 17.69L60.565 22.065L56.3825 21.8513L55.025 17.69L58.5087 15.1838ZM50 9.00003L53.4762 11.5L52.1475 15.5825H47.8387L46.5162 11.51L50 9.00003ZM47.84 18.635H52.1475L53.4762 22.7138L50 25.2375L46.5175 22.7175L47.84 18.635ZM39.4312 22.065L38.015 17.69L41.5 15.1838L44.97 17.69L43.6137 21.855L39.4312 22.065Z" fill="#AA182C"/>
<path d="M76.2887 56.0001L80.2887 56.6926C80.3373 56.7029 80.3875 56.7019 80.4356 56.6895C80.4837 56.6772 80.5282 56.6538 80.5658 56.6214C80.6033 56.5889 80.6328 56.5482 80.652 56.5024C80.6711 56.4567 80.6794 56.4071 80.6762 56.3576V52.6038C80.6719 52.4955 80.6314 52.3918 80.5612 52.3093C80.4909 52.2268 80.395 52.1703 80.2887 52.1488L76.2887 51.4688C76.2426 51.4579 76.1946 51.4578 76.1485 51.4687C76.1024 51.4795 76.0595 51.5009 76.0231 51.5313C75.9867 51.5616 75.9579 51.6 75.9389 51.6434C75.9199 51.6868 75.9113 51.734 75.9137 51.7813V55.5501C75.9183 55.6561 75.9574 55.7577 76.0251 55.8394C76.0928 55.9211 76.1854 55.9784 76.2887 56.0026M76.3962 52.3576C76.3959 52.3097 76.4062 52.2623 76.4264 52.2189C76.4466 52.1755 76.4762 52.1371 76.513 52.1065C76.5499 52.0759 76.593 52.0538 76.6394 52.0419C76.6858 52.03 76.7342 52.0285 76.7812 52.0376L80.1912 52.6326V53.0238L77.1837 52.5163C77.1377 52.5054 77.0899 52.5052 77.0438 52.5157C76.9977 52.5262 76.9546 52.547 76.9178 52.5767C76.881 52.6064 76.8515 52.6441 76.8315 52.6869C76.8115 52.7297 76.8016 52.7766 76.8025 52.8238V55.5988L76.3962 55.5351V52.3576Z" fill="#AA182C"/>
<path d="M12.7687 63.7025C12.7687 63.7025 27.06 59.5337 50 59.5337C72.94 59.5337 87.2375 63.7025 87.2375 63.7025L85.4125 55.5775L87.2375 48.9525C87.2375 48.9525 72.935 44.7812 50 44.7812C27.065 44.7812 12.77 48.9512 12.77 48.9512L14.59 55.5762L12.7687 63.7025ZM17.7687 54.06V53.025L19.54 52.7238V53.125L18.375 53.3262L17.7687 54.06ZM20.31 58.9263L20.7112 58.4487L22.6812 58.125L23.0825 58.4475L20.31 58.9263ZM22.4712 52.6037V57.25L22.065 56.9238V52.2863L23.9237 51.95L24.3275 52.2863L22.4712 52.6037ZM36.115 56.9663L36.5162 56.5438L38.4812 56.375L38.8837 56.765L36.115 56.9663ZM38.27 55.4875L37.875 55.0938V54.1625L41.6625 53.9562V54.3613L38.2712 54.5563L38.27 55.4875ZM55.6762 56.5175L56.0875 56.1425L58.055 56.1888L58.4562 56.6138L55.6762 56.5175ZM57.84 55.275L57.4425 54.865V51.6725L57.84 52.2038V55.275ZM62.1812 56.8063L61.8512 56.395L64.3812 56.555L64.775 56.9825L62.1812 56.8063ZM66.0812 51.75V50.7363L67.8637 50.9325V51.3375L66.705 51.2025L66.0812 51.75ZM68.6337 57.375L69.0312 57.0125L71 57.2188L71.4037 57.6587L68.6337 57.375ZM70.7912 51.6662V56.3063L70.3912 55.8512V51.1937L72.2337 51.4062L72.645 51.8475L70.7912 51.6662ZM83.125 53.93V57.1862C83.125 58.46 82.07 59.3375 80.7687 59.11L77.1287 58.485C76.6838 58.4072 76.2746 58.1916 75.9587 57.8688C76.0575 57.9 76.1425 57.925 76.2375 57.9562L80.3625 58.645C81.6687 58.87 82.7375 57.98 82.7375 56.69V52.9775C82.7428 52.8778 82.7327 52.7779 82.7075 52.6813C82.9776 53.0424 83.1252 53.4803 83.1287 53.9313M74.3675 51.5563C74.3675 50.5138 75.215 49.8262 76.2425 50.0112L80.3675 50.7038C81.405 50.8738 82.2425 51.8537 82.2425 52.8825V56.605C82.2425 57.6312 81.4 58.345 80.3675 58.1675L76.2425 57.4675C75.7258 57.3665 75.2588 57.0929 74.9181 56.6916C74.5774 56.2902 74.3832 55.785 74.3675 55.2588V51.5563ZM73.565 50.4875L73.9587 50.5387V52.61L73.565 52.155V50.4875ZM65.1987 48.6987L73.0612 49.545V51.625L72.45 50.9362L69.9075 50.6613V56L70.5112 56.68L67.7325 56.375L68.3487 55.8325V50.4888L65.7987 50.2175L65.1887 50.7762L65.1987 48.6987ZM64.1712 50.1213V55.6375L63.775 55.2313V49.47L64.785 49.5387L64.1712 50.1213ZM54.7962 48.1338L57.4075 48.2262L61.7387 53.8638V49.0425L61.12 48.3862L63.8912 48.59L63.2875 49.17V55.4137L63.8912 56.0325L61.295 55.8613L56.9537 50.2687V55.0187L57.5787 55.675L54.7912 55.5838L55.4012 54.9863V48.78L54.7962 48.1338ZM54.375 50.7863V54.06C54.3733 54.6856 54.1235 55.285 53.6803 55.7265C53.2371 56.168 52.6368 56.4157 52.0112 56.415H48.375C47.9504 56.4163 47.5386 56.27 47.21 56.0013C47.3054 56.0119 47.4015 56.016 47.4975 56.0137H51.6225C52.2465 56.0128 52.8447 55.765 53.2866 55.3245C53.7286 54.8839 53.9783 54.2865 53.9812 53.6625V49.8988C53.9812 49.8113 53.9662 49.7113 53.9662 49.6425C54.239 49.9608 54.3873 50.3671 54.3837 50.7863M45.6175 49.8988C45.6211 49.4013 45.8208 48.9253 46.1733 48.5743C46.5258 48.2232 47.0025 48.0254 47.5 48.0238H51.625C52.1193 48.0293 52.5915 48.2291 52.9398 48.5799C53.288 48.9307 53.4843 49.4044 53.4862 49.8988V53.6625C53.4837 54.1566 53.2872 54.63 52.9391 54.9806C52.591 55.3313 52.1191 55.5313 51.625 55.5375H47.5C47.0027 55.5352 46.5264 55.3372 46.174 54.9863C45.8217 54.6353 45.6218 54.1598 45.6175 53.6625V49.8988ZM45.2175 56.4562L42.44 56.555L42.8375 56.14L44.8175 56.07L45.2175 56.4562ZM44.195 53.7175C44.323 53.8426 44.4245 53.9921 44.4934 54.1573C44.5624 54.3224 44.5973 54.4998 44.5962 54.6787V55.1787L44.195 54.8037V53.7125V53.7175ZM44.5962 50.8512V51.5187C44.5927 51.7737 44.5247 52.0236 44.3986 52.2453C44.2725 52.4669 44.0924 52.653 43.875 52.7863C43.8122 52.6964 43.7446 52.61 43.6725 52.5275C44.0042 52.1618 44.1909 51.6875 44.1975 51.1937V49.985C44.2007 49.8934 44.1953 49.8018 44.1812 49.7113C44.4537 50.0282 44.6021 50.4333 44.5987 50.8512M35.2237 48.6613L41.8387 48.2575C42.0792 48.2388 42.3209 48.2702 42.5485 48.3499C42.7761 48.4296 42.9847 48.5557 43.161 48.7202C43.3373 48.8848 43.4775 49.0842 43.5727 49.3058C43.6678 49.5274 43.7159 49.7663 43.7137 50.0075V51.24C43.704 51.524 43.6156 51.7998 43.4582 52.0364C43.3008 52.273 43.0807 52.4613 42.8225 52.58C43.0849 52.6685 43.3125 52.8379 43.4726 53.0638C43.6327 53.2897 43.7172 53.5606 43.7137 53.8375V55.02L44.3187 55.6138L41.555 55.7075L42.1687 55.0563V53.825C42.1702 53.7741 42.1608 53.7234 42.1412 53.6764C42.1216 53.6293 42.0922 53.587 42.0549 53.5523C42.0177 53.5175 41.9734 53.4911 41.9252 53.4747C41.8769 53.4584 41.8257 53.4525 41.775 53.4575L37.375 53.6937V55.34L37.9912 55.9113L35.2162 56.125L35.8337 55.47V49.2363L35.2237 48.6613ZM34.8137 51.4025V54.635C34.8137 55.93 33.765 57.1062 32.4525 57.2537L28.815 57.6587C28.4012 57.7204 27.9795 57.6216 27.6362 57.3825C27.7326 57.3843 27.829 57.3809 27.925 57.3725L32.05 56.885C33.34 56.7687 34.4 55.5688 34.4 54.2663V50.5363C34.4 50.4375 34.4 50.35 34.4 50.2687C34.6707 50.584 34.8173 50.987 34.8125 51.4025M26.0462 51.4912C26.0462 50.4612 26.8912 49.5388 27.9212 49.4225L32.0462 48.9512C33.0662 48.8462 33.9087 49.5762 33.9087 50.5925V54.3288C33.9087 55.3475 33.0662 56.2788 32.0462 56.395L27.9212 56.8812C26.8887 56.9825 26.0462 56.2563 26.0462 55.2125V51.4912ZM25.24 50.665L25.64 50.5788V52.6587L25.24 52.3275V50.665ZM16.875 51.2425L24.7375 49.8375V51.9325L24.1312 51.4325L21.5737 51.86V57.1975L22.1987 57.705L19.4125 58.215L20.0287 57.485V52.1488L17.4825 52.6037L16.875 53.3138V51.2425Z" fill="#AA182C"/>
<path d="M42.1575 51.57V50.0838C42.1593 50.0324 42.1501 49.9813 42.1307 49.9337C42.1113 49.8862 42.082 49.8433 42.0448 49.8079C42.0076 49.7724 41.9633 49.7453 41.9149 49.7282C41.8664 49.7111 41.8149 49.7045 41.7637 49.7088L37.375 49.955V52.2413L41.7637 52C41.8703 51.9877 41.9689 51.9373 42.0412 51.858C42.1136 51.7788 42.1549 51.6761 42.1575 51.5688M41.6575 50.5913L38.2662 50.785V51.6825L37.87 51.71V50.4088L41.6575 50.2125V50.5913Z" fill="#AA182C"/>
<path d="M27.98 55.4137L31.98 54.95C32.0841 54.9331 32.1789 54.88 32.2476 54.7999C32.3162 54.7198 32.3543 54.618 32.355 54.5125V50.7625C32.3575 50.7137 32.3494 50.6649 32.3311 50.6196C32.3128 50.5743 32.2847 50.5335 32.249 50.5001C32.2133 50.4668 32.1707 50.4417 32.1242 50.4265C32.0777 50.4114 32.0285 50.4066 31.98 50.4125L27.98 50.87C27.8748 50.8852 27.7786 50.9376 27.7086 51.0176C27.6387 51.0976 27.5997 51.2 27.5987 51.3062V55.05C27.5947 55.1005 27.6019 55.1512 27.6198 55.1986C27.6378 55.246 27.666 55.2888 27.7024 55.3239C27.7389 55.359 27.7827 55.3857 27.8307 55.4019C27.8787 55.418 27.9297 55.4234 27.98 55.4175M28.085 51.7425C28.0877 51.6359 28.1279 51.5337 28.1985 51.4539C28.2692 51.3741 28.3658 51.3218 28.4712 51.3062L31.875 50.9162V51.32L28.875 51.6637C28.7668 51.6743 28.6663 51.7246 28.5931 51.805C28.5199 51.8853 28.4792 51.99 28.4787 52.0987V54.865L28.085 54.9012V51.7425Z" fill="#AA182C"/>
<path d="M47.5562 54.06H51.545C51.6506 54.0614 51.7525 54.0213 51.8289 53.9484C51.9053 53.8755 51.9501 53.7756 51.9537 53.67V49.8838C51.9492 49.7799 51.9036 49.682 51.8269 49.6117C51.7503 49.5414 51.6489 49.5044 51.545 49.5088H47.5562C47.5058 49.5069 47.4556 49.5153 47.4085 49.5333C47.3614 49.5513 47.3184 49.5786 47.2821 49.6136C47.2458 49.6486 47.217 49.6906 47.1973 49.737C47.1776 49.7834 47.1674 49.8334 47.1675 49.8838V53.67C47.1675 53.7732 47.2084 53.8723 47.2813 53.9454C47.3541 54.0185 47.453 54.0597 47.5562 54.06ZM47.6562 50.3788C47.6562 50.3289 47.6662 50.2795 47.6855 50.2335C47.7048 50.1875 47.7331 50.1458 47.7687 50.1109C47.8043 50.076 47.8466 50.0485 47.8929 50.0301C47.9393 50.0117 47.9889 50.0028 48.0387 50.0038H51.4537V50.3788H48.4537C48.3477 50.3804 48.2465 50.4234 48.1718 50.4986C48.0971 50.5738 48.0547 50.6753 48.0537 50.7813V53.5788H47.6612L47.6562 50.3788Z" fill="#AA182C"/>
<path d="M42.215 66.0976L42.635 66.3738V65.1113H36.8012L37.1887 65.4526V69.0138L36.8012 69.3638H38.7862L38.3862 69.0138V67.7201H41.63V66.7613H38.3862V66.0976H42.215Z" fill="#AA182C"/>
<path d="M59.145 66.0988H62.6587L63.0875 66.3738V65.1125H59.1375C58.22 65.1125 57.4625 65.71 57.4625 66.4525V68.0313C57.4625 68.77 58.22 69.3638 59.1375 69.3638H63.0875V68.375H59.145C58.8837 68.375 58.6762 68.2088 58.6762 68.0263V66.4525C58.6762 66.2425 58.8837 66.0988 59.145 66.0988Z" fill="#AA182C"/>
<path d="M79.8637 63.6038V67.9413L86.8825 65.1538C85.3087 64.7338 82.9462 64.1938 79.8637 63.6038Z" fill="#323E48"/>
<path d="M20.1375 67.9413V63.6038C17.0537 64.1938 14.6925 64.7288 13.1112 65.1538L20.1375 67.9413Z" fill="#323E48"/>
<path d="M26.48 70.16C26.8737 74.7963 30.1425 78.685 34.17 81.7713V77.9588C29.92 74.87 27.6087 71.9275 26.48 70.16Z" fill="#323E48"/>
<path d="M65.8262 77.9588V81.7725C69.8637 78.6863 73.1187 74.795 73.5275 70.16C72.3925 71.9263 70.0837 74.8688 65.8262 77.9588Z" fill="#323E48"/>
<path d="M26.43 32.335V43.1087L29.19 39.1975C33.3837 38.7087 39.03 38.1975 45.2625 38.01V43.3662C46.79 43.335 48.3725 43.3112 49.9987 43.3112C51.625 43.3112 53.2 43.335 54.7337 43.3662V38.01C60.9587 38.1987 66.6087 38.7087 70.8212 39.1975L73.5712 43.1087V32.335C68.405 31.6612 59.6075 30.75 50 30.75C40.3925 30.75 31.6 31.665 26.4312 32.3387" fill="#323E48"/>
<path d="M54.7337 61.0637C53.2004 61.0304 51.6229 61.0146 50.0012 61.0162C48.3762 61.0162 46.8025 61.03 45.2625 61.0637V84L42.0975 86.625C44.6578 87.8995 47.2974 89.0081 50 89.9437C52.6994 88.999 55.3396 87.8929 57.9062 86.6312L54.7325 84.0062L54.7337 61.0637Z" fill="#323E48"/>
</svg>
