<svg width="100" height="100" viewBox="0 0 100 100" fill="none" xmlns="http://www.w3.org/2000/svg">
<path d="M50 2.3025L58.5625 16.6325L62.75 9.625L87 50.19L63.0975 90.1712L58.7962 82.9762L50 97.695L41.2012 82.9762L36.9 90.1712L13.0063 50.19L37.25 9.625L41.44 16.6313L50 2.3025ZM50 0L48.985 1.7L41.435 14.3313L38.2588 9.02L37.25 7.32L36.2363 9.02L11.9913 49.5825L11.625 50.19L11.9875 50.7925L35.8862 90.7763L36.9 92.4737L37.9137 90.7763L41.2012 85.2763L48.9825 98.2988L50 100L51.015 98.3037L58.8 85.2787L62.0875 90.7787L63.1037 92.4725L64.115 90.7787L88.0125 50.7912L88.375 50.1888L88.0125 49.5812L63.7625 9.01875L62.75 7.32375L61.735 9.02L58.5625 14.3313L51.0137 1.7L50 0Z" fill="#98989A"/>
<path d="M41.2012 82.9762L49.9962 97.695L58.7962 82.9762L63.0975 90.1712L86.9938 50.19L62.7513 9.62499L58.5625 16.6325L50 2.30249L41.435 16.6325L37.245 9.62499L13.0062 50.19L36.9 90.1712L41.2012 82.9762Z" fill="#12284C"/>
<path d="M74.5088 57.0687L63.0975 76.1575L62.05 74.3987L59.36 78.8987L63.0975 85.1487L79.8825 57.0687H74.5088ZM36.9 76.1575L25.5 57.0687H20.125L36.9 85.15L40.64 78.9L37.95 74.4L36.9 76.1575ZM65.9062 57.0687L50 83.6775L34.095 57.0687H28.72L50 92.6725L71.2812 57.0687H65.9062Z" fill="#8AB7E9"/>
<path d="M20.125 43.3063H25.3563L37.25 23.4063L38.2725 25.1125L40.8887 20.7375L37.25 14.65L20.125 43.3063ZM62.75 14.65L59.1125 20.7363L61.7375 25.1113L62.75 23.4063L74.6438 43.3063H79.875L62.75 14.65Z" fill="white"/>
<path d="M37.5737 36.8762L50 16.0825L62.4275 36.8762H67.6625L50 7.32373L32.34 36.8762H37.5737Z" fill="white"/>
<path d="M17.5663 46.375H19.3938L20.6088 51.25H20.625L22.2175 46.375H23.7775L25.3588 51.375H25.375L26.6575 46.375H28.3575L26.1325 53.9813H24.6388L22.9625 48.715H22.9388L21.2638 53.98H19.8238L17.5663 46.375Z" fill="white"/>
<path d="M29.165 46.375H30.8425V49.2113H34.1V46.375H35.7762V53.9813H34.1V50.695H30.8425V53.98H29.165V46.375Z" fill="white"/>
<path d="M37.6037 46.375H39.2787V53.9813H37.6037V46.375Z" fill="white"/>
<path d="M42.6987 47.855H40.5287V46.375H46.5462V47.8563H44.375V53.9813H42.6987V47.855Z" fill="white"/>
<path d="M47.8562 46.375H53.0275V47.9238H49.5275V49.3438H52.11V50.8875H49.5337V52.4338H53.2187V53.98H47.8562V46.375Z" fill="white"/>
<path d="M59.315 48.35C58.9812 47.9537 58.4975 47.725 57.8737 47.725C56.6062 47.725 55.67 48.7575 55.67 50.175C55.67 51.5925 56.6062 52.625 57.82 52.625C58.1294 52.6335 58.4359 52.5628 58.7105 52.4198C58.985 52.2767 59.2184 52.066 59.3887 51.8075L60.7863 52.85C60.1513 53.7525 59.0788 54.1737 58.0363 54.1737C55.6613 54.1737 53.9313 52.6125 53.9313 50.1737C53.9313 47.735 55.66 46.1737 58.0363 46.1737C58.8863 46.1737 59.9612 46.465 60.605 47.2887L59.315 48.35Z" fill="white"/>
<path d="M64.2362 46.375H65.625L68.9375 53.9813H67.0425L66.3862 52.375H63.4287L62.7962 53.985H60.9475L64.2362 46.375ZM64.8812 48.5875L63.9575 50.9538H65.8162L64.8812 48.5875Z" fill="white"/>
<path d="M69.6888 46.375H72.515C74.0962 46.375 75.405 46.875 75.405 48.6862C75.405 50.4687 74.19 51.0187 72.5912 51.0187H71.365V53.9813H69.6888V46.375ZM71.365 49.5988H72.49C73.0787 49.5988 73.6725 49.3962 73.6725 48.6862C73.6725 47.8987 72.8762 47.7912 72.2312 47.7912H71.3712L71.365 49.5988Z" fill="white"/>
<path d="M80.435 48.23C80.1662 47.8887 79.6275 47.73 79.22 47.73C78.7475 47.73 78.095 47.9425 78.095 48.5137C78.095 49.9 81.595 49.0137 81.595 51.6737C81.595 53.3725 80.23 54.1737 78.66 54.1737C77.6838 54.1737 76.8225 53.885 76.1038 53.2187L77.295 51.9062C77.4686 52.1291 77.6906 52.3096 77.9442 52.4341C78.1977 52.5586 78.4763 52.6239 78.7588 52.625C79.305 52.625 79.9187 52.3675 79.9187 51.8287C79.9187 50.4337 76.3487 51.1862 76.3487 48.6487C76.3487 47.0237 77.7588 46.1775 79.2525 46.1775C80.1113 46.1775 80.9387 46.4012 81.5837 46.97L80.435 48.23Z" fill="white"/>
<path d="M43.8425 57.025H48.9475V58.5713H45.52V60.125H47.9725V61.675H45.52V64.64H43.8425V57.025Z" fill="white"/>
<path d="M54.59 59C54.2575 58.6038 53.7725 58.375 53.1488 58.375C51.8825 58.375 50.9463 59.4075 50.9463 60.8238C50.9463 62.24 51.8825 63.2763 53.095 63.2763C53.405 63.2842 53.7119 63.2131 53.9868 63.0696C54.2617 62.9262 54.4955 62.7151 54.6663 62.4563L56.0625 63.5013C55.4288 64.405 54.3538 64.8225 53.3125 64.8225C50.9375 64.8225 49.2063 63.265 49.2063 60.8225C49.2063 58.38 50.9363 56.8225 53.3125 56.8225C54.16 56.8225 55.235 57.1113 55.8813 57.9388L54.59 59Z" fill="white"/>
<path d="M30.5 38.985H31.5938L32.6688 41.8337H32.68L33.7725 38.985H34.7975L33 43.3337H32.2313L30.5 38.985Z" fill="white"/>
<path d="M36.0125 38.985H36.8037L38.6963 43.3337H37.6162L37.2412 42.4125H35.5513L35.1912 43.3337H34.1338L36.0125 38.985ZM36.3812 40.25L35.8525 41.6012H36.9162L36.3812 40.25Z" fill="white"/>
<path d="M39.2188 38.985H40.5225L42.375 42.0062H42.3887V38.985H43.3475V43.3337H42.0975L40.1987 40.2387H40.1875V43.3337H39.2287L39.2188 38.985Z" fill="white"/>
<path d="M47.125 40.1125C47.0232 39.9957 46.8964 39.9034 46.754 39.8424C46.6116 39.7814 46.4573 39.7532 46.3025 39.76C45.5775 39.76 45.0438 40.3463 45.0438 41.1575C45.0438 41.9688 45.5775 42.56 46.2713 42.56C46.4483 42.5649 46.6236 42.5246 46.7807 42.4428C46.9378 42.361 47.0713 42.2404 47.1688 42.0925L47.9675 42.6888C47.6062 43.205 46.9888 43.445 46.395 43.445C45.0375 43.445 44.0488 42.5538 44.0488 41.1575C44.0488 39.7613 45.0312 38.875 46.3887 38.875C46.8725 38.875 47.4875 39.0375 47.8563 39.5137L47.125 40.1125Z" fill="white"/>
<path d="M50.6125 38.875C51.97 38.875 52.9588 39.7625 52.9588 41.1575C52.9588 42.5525 51.97 43.445 50.6125 43.445C49.255 43.445 48.2675 42.5538 48.2675 41.1575C48.2675 39.7613 49.25 38.875 50.6125 38.875ZM50.6125 42.56C51.4275 42.56 51.9637 41.97 51.9637 41.1575C51.9637 40.345 51.4275 39.76 50.6125 39.76C49.7975 39.76 49.2625 40.3463 49.2625 41.1575C49.2625 41.9688 49.7962 42.56 50.6125 42.56Z" fill="white"/>
<path d="M57.4362 41.6562C57.4362 42.6825 56.8112 43.445 55.6037 43.445C54.3962 43.445 53.7675 42.6825 53.7675 41.6562V38.985H54.7262V41.625C54.7262 42.16 55.095 42.5662 55.6012 42.5662C56.1075 42.5662 56.4762 42.16 56.4762 41.625V38.985H57.4362V41.6562Z" fill="white"/>
<path d="M57.965 38.985H59.0612L60.1337 41.8337H60.1475L61.24 38.985H62.265L60.4725 43.3337H59.705L57.965 38.985Z" fill="white"/>
<path d="M62.8425 38.985H65.7975V39.875H63.7975V40.6862H65.6837V41.5687H63.8V42.4537H65.9075V43.3387H62.8425V38.985Z" fill="white"/>
<path d="M66.76 38.985H68.44C69.3338 38.985 70.0825 39.2925 70.0825 40.3062C70.0825 40.9125 69.7563 41.385 69.1413 41.4962L70.2487 43.3337H69.0987L68.19 41.595H67.7175V43.3337H66.76V38.985ZM67.7175 40.7825H68.285C68.6313 40.7825 69.0863 40.7712 69.0863 40.3C69.0863 39.8637 68.6925 39.8 68.3438 39.8H67.7188L67.7175 40.7825Z" fill="white"/>
</svg>
